<svg xmlns="http://www.w3.org/2000/svg" viewBox="0 0 331.44 65.11"><defs><style>.cls-1{fill:#1b1b1b;}.cls-2{fill:#f66;}.cls-3{fill:#ffa764;}.cls-4{fill:#7eb203;}.cls-5{fill:#002690;}.cls-6{fill:#8f3afc;}.cls-7{fill:#ff6767;}</style></defs><g id="Слой_2" data-name="Слой 2"><g id="Слой_1-2" data-name="Слой 1"><path class="cls-1" d="M122.88,40.39a2.93,2.93,0,0,1-.56-.44,5.64,5.64,0,0,1-1.8-3.83,0,0,0,0,0,0,0h0a8.75,8.75,0,0,0-2.68-16.92H103.25V46h7.22V36.64h4l1,3.52c1.06,4.37,3.87,6.49,8.63,6.49a9.44,9.44,0,0,0,2.77-.43V41.4a4.77,4.77,0,0,1-.76.06A5.57,5.57,0,0,1,122.88,40.39ZM119.36,28a2.77,2.77,0,0,1-1.51,2.55,8,8,0,0,1-3.74.68h-3.64V24.52h3.64a8,8,0,0,1,3.74.68,2.77,2.77,0,0,1,1.51,2.55Z"/><polygon class="cls-1" points="81.7 45.97 88.92 45.97 88.92 35.01 98.69 35.01 98.69 34.87 98.69 34.52 98.69 31.43 98.69 30.91 98.69 30.11 88.92 30.11 88.92 24.51 99.49 24.51 99.49 23.32 99.49 19.14 99.49 19.14 81.7 19.14 81.7 45.97"/><rect class="cls-1" x="130.36" y="19.14" width="7.22" height="26.83"/><polygon class="cls-1" points="142.94 45.97 144.19 45.97 144.19 45.98 161.11 45.98 161.11 45.97 161.11 41.79 161.11 40.61 150.16 40.61 150.16 35.01 160.22 35.01 160.22 34.37 160.22 33.93 160.22 30.84 160.22 30.41 160.22 30.11 150.16 30.11 150.16 24.51 161.11 24.51 161.11 23.32 161.11 19.14 161.11 19.14 142.94 19.14 142.94 45.97"/><polygon class="cls-1" points="183.73 36.11 172.77 19.14 165.55 19.14 165.55 45.98 172.77 45.98 172.77 29.01 183.73 45.98 190.95 45.98 190.95 19.14 183.73 19.14 183.73 36.11"/><path class="cls-1" d="M215.25,20.83a16.49,16.49,0,0,0-7.58-1.69H196.15V46h11.52a16.63,16.63,0,0,0,7.66-1.7,12.19,12.19,0,0,0,5-4.75,14.18,14.18,0,0,0,1.77-7.18,13.06,13.06,0,0,0-1.8-6.86A12.48,12.48,0,0,0,215.25,20.83ZM213,38.2a7,7,0,0,1-5.71,2.41h-4V24.5h4A7.37,7.37,0,0,1,213,26.67a8.05,8.05,0,0,1,1.92,5.59A9.1,9.1,0,0,1,213,38.2Z"/><path class="cls-1" d="M239.84,33.07l8.77-8.25V19.14H223.84v5.68h16.51l-9,8.77v4.13h2.07c7.22,0,9,2.83,9,6.71,0,3.61-2.12,6.19-5.68,6.19-4.64,0-6.45-3.1-6.45-6.71h-7.22c0,6.19,3.61,12.13,13.67,12.13,8.77,0,12.9-5.94,12.9-11.87C249.64,33.33,239.84,33.07,239.84,33.07Z"/><path class="cls-1" d="M264.35,18.36c-8.82,0-13.67,6.35-13.67,14.2s4.85,14.19,13.67,14.19S278,40.4,278,32.56,273.18,18.36,264.35,18.36Zm0,23c-4.59,0-6.45-3.92-6.45-8.77s1.86-8.78,6.45-8.78,6.45,3.93,6.45,8.78S269,41.33,264.35,41.33Z"/><polygon class="cls-1" points="297.64 29.72 287.58 29.72 287.58 19.14 280.35 19.14 280.35 45.97 287.58 45.97 287.58 35.4 297.64 35.4 297.64 45.97 304.87 45.97 304.87 19.14 297.64 19.14 297.64 29.72"/><path class="cls-1" d="M319.83,18.36c-6.19,0-11.71,2.17-12.12,9h7.22c.1-2.89,1.81-4.13,4.9-4.13,2.84,0,4.39,1.24,4.39,3.35,0,3-4.23,3.36-8.72,4.49s-8.57,3.41-8.57,8.41,3.61,7.23,8.52,7.23A8.63,8.63,0,0,0,324,40.81h.26V46h7.22V27.65C331.44,20.69,326.28,18.36,319.83,18.36ZM318,42.1c-2.33,0-3.77-1.29-3.77-3.35,0-2.37,2-3.56,4.28-4.13,2.07-.52,4.49-1.08,5.68-2.17C324.22,36.43,322.93,42.1,318,42.1Z"/><path class="cls-2" d="M6.05,25.71H6c-1.93-1.95-3.43-3.22-3.6-3.36A1.48,1.48,0,1,0,.53,24.61c.1.09,10.61,9,12.1,16.2,1.4,6.74-.08,13.53-.87,17.18l-.17.75a1.48,1.48,0,0,0,1.15,1.76,1.55,1.55,0,0,0,.31,0,1.48,1.48,0,0,0,1.45-1.17l.16-.74c.26-1.21.6-2.76.89-4.53h0C19,43.3,33.81,38.56,33.81,38.56,31.52,38.31,17.15,36.73,6.05,25.71Z"/><path class="cls-2" d="M4.62,38.59a4.26,4.26,0,1,0,5.24,3A4.26,4.26,0,0,0,4.62,38.59Z"/><path class="cls-3" d="M51.2,57.76l-.66-.38c-1.07-.62-2.43-1.42-4-2.24h0C37.32,48.48,37.39,33,37.39,33c-1,2.1-6.88,15.25-20.76,22.4-2.48,1.25-4.18,2.3-4.37,2.42a1.48,1.48,0,1,0,1.57,2.52C14,60.24,25.71,53,33,53.81c6.84.75,12.84,4.25,16.07,6.14l.66.38a1.42,1.42,0,0,0,.74.2,1.49,1.49,0,0,0,.75-2.77Z"/><path class="cls-3" d="M32,56.6A4.26,4.26,0,1,0,36,61.05,4.26,4.26,0,0,0,32,56.6Z"/><path class="cls-4" d="M63.12,22.48a1.49,1.49,0,0,0-2.1-.11l-.56.5c-.93.83-2.11,1.88-3.39,3.14h0c-9.17,6.67-23.9,1.82-23.9,1.82,1.7,1.55,12.41,11.28,14.91,26.72h0c.42,2.71.88,4.62.93,4.83a1.48,1.48,0,1,0,2.88-.71c0-.13-3.28-13.55-.26-20.22,2.83-6.27,8-10.9,10.81-13.38l.56-.51A1.5,1.5,0,0,0,63.12,22.48Z"/><path class="cls-4" d="M59.26,38.72a4.26,4.26,0,1,0,2.48,5.49A4.26,4.26,0,0,0,59.26,38.72Z"/><path class="cls-5" d="M62.12,22c-.14,0-13.9-1.07-19.32-6-5.08-4.63-7.88-11-9.38-14.41L33.11.88a1.49,1.49,0,0,0-2.72,1.21l.31.69c.5,1.14,1.13,2.58,1.94,4.19h0C36.16,17.75,27,30.27,27,30.27c2-1.15,14.56-8.32,30-5.92h0c2.71.44,4.68.59,4.89.6H62a1.49,1.49,0,0,0,.11-3Z"/><path class="cls-5" d="M45.68,14.67a4.26,4.26,0,1,0-.66-6A4.25,4.25,0,0,0,45.68,14.67Z"/><path class="cls-6" d="M17.49,14.91a4.26,4.26,0,1,0-5.9-1.22A4.27,4.27,0,0,0,17.49,14.91Z"/><path class="cls-6" d="M32.31.11a1.5,1.5,0,0,0-1.94.81c-.05.13-5.31,12.9-11.67,16.53-6,3.4-12.89,4.1-16.61,4.47L1.33,22a1.48,1.48,0,0,0,.15,3h.16l.75-.08c1.24-.12,2.81-.28,4.58-.55H7c11.34,0,20.41,12.57,20.41,12.57C26.92,34.63,24,20.47,31,6.52h0c1.25-2.44,2-4.26,2.08-4.46A1.49,1.49,0,0,0,32.31.11Z"/><path class="cls-7" d="M1.48,25h.16l.75-.08,2.53-.27c-1.37-1.32-2.34-2.15-2.48-2.26A1.46,1.46,0,0,0,1.2,22l-.14,0-.15.06-.12.05-.13.09a.41.41,0,0,0-.11.07l-.12.12-.09.09a1,1,0,0,0-.09.13l-.07.11a.75.75,0,0,0-.06.13.58.58,0,0,0,0,.14.61.61,0,0,0,0,.11,1,1,0,0,0,0,.17.4.4,0,0,0,0,.11,1.08,1.08,0,0,0,0,.18v0a1.63,1.63,0,0,0,.16.5v0a1.61,1.61,0,0,0,.31.38s0,0,0,0A1.46,1.46,0,0,0,1.48,25Z"/></g></g></svg>