<?xml version="1.0" encoding="utf-8"?>
<!-- Generator: Adobe Illustrator 24.1.2, SVG Export Plug-In . SVG Version: 6.00 Build 0)  -->
<svg version="1.1" id="Слой_1" xmlns="http://www.w3.org/2000/svg" xmlns:xlink="http://www.w3.org/1999/xlink" x="0px" y="0px"
	 viewBox="0 0 331.4 65.1" style="enable-background:new 0 0 331.4 65.1;" xml:space="preserve">
<style type="text/css">
	.st0{fill:#1B1B1B;}
</style>
<g id="Слой_1-2">
	<g>
		<path class="st0" d="M68.5,39.3c-0.2-0.1-0.5-0.3-0.7-0.5c-1.2-1.2-2-2.8-2.1-4.5l0,0l0,0c5.3-2,7.9-7.9,5.9-13.1
			c-1.4-3.8-5-6.4-9-6.6h-17v31.2H54V34.9h4.7l1.2,4.1c1.2,5.1,4.5,7.5,10,7.5c1.1,0,2.2-0.2,3.2-0.5v-5.6c-0.3,0-0.6,0.1-0.9,0.1
			C70.9,40.5,69.5,40.1,68.5,39.3z M64.4,24.9c0,1.2-0.6,2.4-1.8,3c-1.4,0.6-2.9,0.9-4.3,0.8H54v-7.8h4.2c1.5-0.1,3,0.2,4.3,0.8
			c1.1,0.6,1.8,1.7,1.8,3V24.9z"/>
		<polygon class="st0" points="20.6,45.8 29,45.8 29,33 40.3,33 40.3,32.9 40.3,32.5 40.3,28.9 40.3,28.3 40.3,27.3 29,27.3 
			29,20.8 41.3,20.8 41.3,19.5 41.3,14.6 41.3,14.6 20.6,14.6 		"/>
		<rect x="77.1" y="14.6" class="st0" width="8.4" height="31.2"/>
		<polygon class="st0" points="91.8,45.8 93.2,45.8 93.2,45.8 112.9,45.8 112.9,45.8 112.9,40.9 112.9,39.6 100.2,39.6 100.2,33 
			111.9,33 111.9,32.3 111.9,31.8 111.9,28.2 111.9,27.7 111.9,27.3 100.2,27.3 100.2,20.8 112.9,20.8 112.9,19.5 112.9,14.6 
			112.9,14.6 91.8,14.6 		"/>
		<polygon class="st0" points="139.2,34.3 126.5,14.6 118.1,14.6 118.1,45.8 126.5,45.8 126.5,26.1 139.2,45.8 147.6,45.8 
			147.6,14.6 139.2,14.6 		"/>
		<path class="st0" d="M175.9,16.6c-2.7-1.3-5.8-2-8.8-2h-13.4v31.2H167c3.1,0.1,6.1-0.6,8.9-2c2.4-1.2,4.4-3.2,5.8-5.5
			c1.4-2.6,2.1-5.4,2.1-8.3c0.1-2.8-0.7-5.6-2.1-8C180.3,19.7,178.3,17.8,175.9,16.6z M173.2,36.8c-1.7,1.9-4.1,3-6.6,2.8h-4.7V20.8
			h4.7c2.5-0.2,4.9,0.8,6.6,2.5c1.5,1.8,2.3,4.1,2.2,6.5C175.6,32.3,174.8,34.8,173.2,36.8z"/>
		<path class="st0" d="M204.4,30.8l10.2-9.6v-6.6h-28.8v6.6H205l-10.5,10.2v4.8h2.4c8.4,0,10.5,3.3,10.5,7.8c0,4.2-2.5,7.2-6.6,7.2
			c-5.4,0-7.5-3.6-7.5-7.8h-8.4c0,7.2,4.2,14.1,15.9,14.1c10.2,0,15-6.9,15-13.8C215.8,31.1,204.4,30.8,204.4,30.8z"/>
		<path class="st0" d="M232.9,13.7c-10.3,0-15.9,7.4-15.9,16.5s5.6,16.5,15.9,16.5c10.3,0,15.9-7.4,15.9-16.5S243.2,13.7,232.9,13.7
			z M232.9,40.4c-5.3,0-7.5-4.6-7.5-10.2s2.2-10.2,7.5-10.2s7.5,4.6,7.5,10.2S238.4,40.4,232.9,40.4L232.9,40.4z"/>
		<polygon class="st0" points="271.7,26.9 260,26.9 260,14.6 251.5,14.6 251.5,45.8 260,45.8 260,33.5 271.7,33.5 271.7,45.8 
			280.1,45.8 280.1,14.6 271.7,14.6 		"/>
		<path class="st0" d="M297.5,13.7c-7.2,0-13.6,2.5-14.1,10.5h8.4c0.1-3.4,2.1-4.8,5.7-4.8c3.3,0,5.1,1.4,5.1,3.9
			c0,3.5-4.9,3.9-10.1,5.2s-10,4-10,9.8s4.2,8.4,9.9,8.4c4.5,0.2,8.5-2.6,9.9-6.9h0.3v6h8.4V24.5C311,16.4,305,13.7,297.5,13.7z
			 M295.3,41.3c-2.7,0-4.4-1.5-4.4-3.9c0-2.8,2.3-4.1,5-4.8c2.4-0.6,5.2-1.3,6.6-2.5C302.6,34.7,301.1,41.3,295.3,41.3z"/>
	</g>
</g>
</svg>
