<svg xmlns="http://www.w3.org/2000/svg" viewBox="0 0 319.5 48.19"><defs><style>.cls-1{fill:#FFF;}</style></defs><g id="Слой_2" data-name="Слой 2"><g id="Слой_1-2" data-name="Слой 1"><g id="Слой_1-2-2" data-name="Слой 1-2"><path class="cls-1" d="M52.7,28.17a3.34,3.34,0,0,1-.77-.55,7.78,7.78,0,0,1-2.31-5h0A11.21,11.21,0,0,0,46.21,1H27.51V35.32h9.24v-12h5.17l1.32,4.52c1.32,5.61,4.95,8.25,11,8.25a12.4,12.4,0,0,0,3.52-.55V29.38c-.33,0-.66.11-1,.11A6.68,6.68,0,0,1,52.7,28.17ZM48.19,12.32a3.63,3.63,0,0,1-2,3.3,10.33,10.33,0,0,1-4.73.88H36.75V7.92h4.62a9.83,9.83,0,0,1,4.73.88,3.71,3.71,0,0,1,2,3.3v.22Z"/><polygon class="cls-1" points="0 35.32 9.24 35.32 9.24 21.23 21.67 21.23 21.67 21.12 21.67 20.68 21.67 16.72 21.67 16.06 21.67 14.96 9.24 14.96 9.24 7.81 22.77 7.81 22.77 6.38 22.77 0.99 22.77 0.99 0 0.99 0 35.32"/><rect class="cls-1" x="62.16" y="0.99" width="9.24" height="34.33"/><polygon class="cls-1" points="78.33 35.32 79.88 35.32 79.88 35.32 101.55 35.32 101.55 35.32 101.55 29.93 101.55 28.5 87.58 28.5 87.58 21.23 100.45 21.23 100.45 20.46 100.45 19.91 100.45 15.95 100.45 15.4 100.45 14.96 87.58 14.96 87.58 7.81 101.55 7.81 101.55 6.38 101.55 0.99 101.55 0.99 78.33 0.99 78.33 35.32"/><polygon class="cls-1" points="130.48 22.66 116.51 0.99 107.27 0.99 107.27 35.32 116.51 35.32 116.51 13.64 130.48 35.32 139.73 35.32 139.73 0.99 130.48 0.99 130.48 22.66"/><path class="cls-1" d="M170.86,3.19A22.66,22.66,0,0,0,161.18,1H146.44V35.32h14.63a20.27,20.27,0,0,0,9.79-2.2,16.07,16.07,0,0,0,6.38-6,19.15,19.15,0,0,0,2.31-9.14,16.48,16.48,0,0,0-2.31-8.8A15.8,15.8,0,0,0,170.86,3.19Zm-3,22.22a8.83,8.83,0,0,1-7.26,3.09h-5.17V7.81h5.17a9.29,9.29,0,0,1,7.26,2.75,10.46,10.46,0,0,1,2.42,7.15A11,11,0,0,1,167.89,25.41Z"/><path class="cls-1" d="M202.22,18.81,213.44,8.25V1H181.75V8.25h21.13L191.33,19.47v5.28H194c9.24,0,11.55,3.64,11.55,8.59,0,4.62-2.75,7.92-7.26,7.92-5.94,0-8.25-4-8.25-8.58h-9.25c0,7.92,4.62,15.51,17.5,15.51,11.22,0,16.5-7.59,16.5-15.18C214.76,19.14,202.22,18.81,202.22,18.81Z"/><path class="cls-1" d="M233.57,0c-11.33,0-17.49,8.14-17.49,18.15s6.16,18.16,17.49,18.16,17.5-8.14,17.5-18.16S244.91,0,233.57,0Zm0,29.38c-5.83,0-8.25-5.07-8.25-11.23s2.42-11.22,8.25-11.22,8.26,5.06,8.26,11.22-2.21,11.23-8.26,11.23Z"/><polygon class="cls-1" points="276.26 14.52 263.39 14.52 263.39 0.99 254.04 0.99 254.04 35.32 263.39 35.32 263.39 21.78 276.26 21.78 276.26 35.32 285.5 35.32 285.5 0.99 276.26 0.99 276.26 14.52"/><path class="cls-1" d="M304.65,0c-7.92,0-15,2.75-15.52,11.55h9.25c.11-3.74,2.31-5.28,6.27-5.28,3.63,0,5.61,1.54,5.61,4.29,0,3.85-5.39,4.29-11.11,5.72s-11,4.4-11,10.79,4.62,9.24,10.9,9.24a10.9,10.9,0,0,0,10.89-7.59h.33v6.6h9.24V11.88C319.5,3,312.9,0,304.65,0Zm-2.42,30.37c-3,0-4.84-1.65-4.84-4.3,0-3.08,2.53-4.51,5.5-5.28,2.64-.66,5.72-1.43,7.26-2.75C310.26,23.1,308.61,30.37,302.23,30.37Z"/></g></g></g></svg>