<svg width="152" height="33" viewBox="0 0 152 33" fill="none" xmlns="http://www.w3.org/2000/svg">
<path fill-rule="evenodd" clip-rule="evenodd" d="M97.995 16.46C98.0016 17.0179 98.0619 17.5737 98.175 18.12C98.235 18.38 98.285 18.6 98.355 18.85C98.5635 19.5116 98.863 20.141 99.245 20.72C99.8998 21.7422 100.809 22.5765 101.884 23.1411C102.959 23.7056 104.162 23.9809 105.375 23.94C107.039 23.9775 108.659 23.4088 109.935 22.34C110.24 22.09 110.524 21.8158 110.785 21.52C110.865 21.43 110.885 21.43 110.915 21.33C110.945 21.23 109.445 19.79 109.205 19.55L108.915 19.25L108.655 18.93C108.545 18.93 108.585 18.93 108.505 19.04C108.454 19.0863 108.401 19.1297 108.345 19.17C107.642 19.9137 106.686 20.3669 105.665 20.44C104.822 20.519 103.981 20.272 103.315 19.75C102.999 19.4799 102.725 19.1629 102.505 18.81C102.133 18.1788 101.93 17.4625 101.915 16.73C101.843 15.7711 102.089 14.8153 102.615 14.01C103.052 13.3528 103.703 12.8666 104.457 12.6335C105.211 12.4003 106.023 12.4344 106.755 12.73C107.264 12.9256 107.735 13.21 108.145 13.57C108.235 13.65 108.435 13.87 108.545 13.9C108.865 13.6072 109.169 13.2968 109.455 12.97L109.975 12.42C110.165 12.22 110.755 11.64 110.845 11.51C110.559 11.1324 110.223 10.7959 109.845 10.51C108.96 9.81808 107.929 9.33834 106.83 9.10776C105.73 8.87718 104.593 8.90191 103.505 9.18003C102.504 9.42097 101.566 9.87457 100.755 10.51L100.025 11.17C99.4143 11.8204 98.9264 12.5759 98.585 13.4C98.1821 14.3702 97.9715 15.4095 97.965 16.46H97.995ZM35.355 23.62H39.295C39.375 23.62 39.395 23.62 39.395 23.52V8.59003H46.515V23.52C46.515 23.59 46.515 23.62 46.615 23.62H50.555V4.84003H35.355V23.62ZM74.995 12.46C75.4795 12.4381 75.9624 12.5297 76.4052 12.7276C76.8479 12.9256 77.2383 13.2243 77.545 13.6C78.1556 14.3329 78.5071 15.2469 78.545 16.2C78.61 17.2782 78.2833 18.3436 77.625 19.2C77.1565 19.7795 76.4993 20.1761 75.7682 20.3204C75.0372 20.4648 74.2786 20.3479 73.625 19.99C73.0819 19.6601 72.6276 19.2025 72.3017 18.657C71.9758 18.1115 71.7881 17.4946 71.755 16.86C71.755 16.68 71.755 16.56 71.755 16.43C71.755 16.3 71.755 16.19 71.755 16C71.755 15.81 71.755 15.72 71.755 15.59C71.7958 15.3414 71.8594 15.097 71.945 14.86C72.1306 14.1961 72.52 13.6073 73.0583 13.1766C73.5966 12.746 74.2565 12.4953 74.945 12.46H74.995ZM71.755 11.24V9.24003H67.755V27.92H71.755V21.78L72.125 22.18C72.6404 22.7514 73.2768 23.2005 73.9878 23.4946C74.6989 23.7887 75.4666 23.9204 76.235 23.88C77.1042 23.8596 77.9587 23.6505 78.7392 23.2672C79.5196 22.8839 80.2074 22.3355 80.755 21.66C81.2975 21.0123 81.7085 20.265 81.965 19.46C82.3851 18.1906 82.5293 16.8461 82.3879 15.5164C82.2465 14.1868 81.8227 12.9027 81.145 11.75L80.385 10.75L79.925 10.34C79.0942 9.64604 78.0929 9.18684 77.025 9.01003C75.7894 8.79389 74.5171 9.01301 73.425 9.63003C73.0967 9.8285 72.7944 10.067 72.525 10.34C72.3783 10.463 72.2443 10.6004 72.125 10.75C72.0079 10.9078 71.881 11.0581 71.745 11.2L71.755 11.24ZM119.315 20.4H116.105V17.58H118.995C121.585 17.58 121.165 19.58 120.525 20.04C120.171 20.2875 119.747 20.4138 119.315 20.4ZM119.025 15H116.135V12.26H118.965C119.258 12.207 119.559 12.2513 119.824 12.3862C120.089 12.521 120.303 12.739 120.432 13.0067C120.561 13.2744 120.599 13.5771 120.54 13.8685C120.481 14.1598 120.328 14.4238 120.105 14.62C119.799 14.8649 119.417 14.9957 119.025 14.99V15ZM112.215 23.63H119.885C121.685 23.63 123.595 23.1 124.495 21.69C124.932 20.9964 125.123 20.1753 125.035 19.36C125.016 18.946 124.932 18.5377 124.785 18.15C124.659 17.8074 124.469 17.4919 124.225 17.22C124.112 17.0933 123.988 16.9762 123.855 16.87C123.429 16.5144 122.931 16.2552 122.395 16.11V16C122.988 15.7567 123.506 15.3598 123.895 14.85C124.27 14.3079 124.488 13.6727 124.525 13.0146C124.562 12.3564 124.417 11.7008 124.105 11.12C123.86 10.6927 123.517 10.3295 123.105 10.06C122.144 9.46089 121.027 9.16149 119.895 9.20003H112.195V23.62L112.215 23.63ZM90.215 12.27C90.8901 12.2727 91.5425 12.514 92.0568 12.9514C92.5711 13.3888 92.914 13.9941 93.025 14.66C93.0765 14.8677 93.1165 15.078 93.145 15.29H87.225C87.323 14.7096 87.5227 14.151 87.815 13.64C87.9151 13.4805 88.0288 13.3299 88.155 13.19C88.4108 12.8961 88.7277 12.6616 89.0835 12.5027C89.4392 12.3438 89.8254 12.2644 90.215 12.27ZM90.535 23.95C92.0275 24.0196 93.5041 23.6173 94.755 22.8C95.3244 22.422 95.8335 21.9601 96.265 21.43C96.345 21.34 96.355 21.36 96.385 21.25C96.2648 21.1136 96.1345 20.9866 95.995 20.87L94.865 19.87C94.8141 19.8237 94.7607 19.7803 94.705 19.74C94.5237 19.5568 94.3299 19.3864 94.125 19.23L93.475 19.77C93.2464 19.9563 92.9983 20.1172 92.735 20.25C92.4599 20.3935 92.1675 20.5011 91.865 20.57C91.0734 20.7696 90.2415 20.7419 89.465 20.49C89.0121 20.3279 88.6029 20.0628 88.2698 19.7158C87.9366 19.3688 87.6885 18.9492 87.545 18.49C87.4602 18.2852 87.403 18.07 87.375 17.85H97.055C97.0485 17.7601 97.0485 17.6699 97.055 17.58V16.74C97.0492 15.6821 96.8875 14.6308 96.575 13.62C96.1905 12.3553 95.4512 11.2273 94.445 10.37C93.3359 9.52857 91.9979 9.04283 90.6074 8.97678C89.2168 8.91073 87.8388 9.26748 86.655 10L85.885 10.58C85.6395 10.7837 85.415 11.0115 85.215 11.26C85.0677 11.4186 84.9339 11.5892 84.815 11.77C84.278 12.5177 83.8847 13.3586 83.655 14.25C83.4436 15.0419 83.3526 15.8611 83.385 16.68C83.4051 17.2209 83.4686 17.7593 83.575 18.29C83.8109 19.422 84.3073 20.4834 85.025 21.39C85.1002 21.4653 85.1703 21.5455 85.235 21.63C85.3028 21.7149 85.3763 21.7951 85.455 21.87C85.655 22.07 85.985 22.32 86.185 22.49C87.4604 23.426 89.0029 23.9273 90.585 23.92L90.535 23.95ZM59.375 12.26C59.7208 12.2462 60.0658 12.3029 60.389 12.4266C60.7122 12.5504 61.0069 12.7387 61.255 12.98C61.591 13.2861 61.8512 13.6661 62.015 14.09C62.1226 14.3691 62.2062 14.6568 62.265 14.95C62.2815 15.0614 62.3048 15.1716 62.335 15.28H56.415C56.4689 14.8763 56.58 14.4824 56.745 14.11C56.9414 13.5696 57.2989 13.1025 57.7692 12.7717C58.2395 12.4408 58.8 12.2623 59.375 12.26ZM52.505 16.4C52.428 18.4062 53.1468 20.3615 54.505 21.84C55.4461 22.7562 56.6092 23.4121 57.8801 23.7434C59.1511 24.0747 60.4863 24.0701 61.755 23.73C63.0221 23.4326 64.1734 22.7682 65.065 21.82C65.2549 21.6485 65.4139 21.4455 65.535 21.22C65.4305 21.1541 65.3361 21.0732 65.255 20.98L64.755 20.6C64.485 20.38 63.435 19.35 63.205 19.19C63.0923 19.2687 62.9884 19.3592 62.895 19.46C62.785 19.56 62.675 19.64 62.555 19.73C62.3211 19.911 62.0698 20.0684 61.805 20.2C61.1361 20.5568 60.3795 20.7162 59.6236 20.6595C58.8676 20.6029 58.1432 20.3325 57.535 19.88C56.9646 19.3461 56.5764 18.6465 56.425 17.88H66.125C66.125 17.63 66.125 17.51 66.125 17.26C66.2041 15.9486 66.0135 14.6349 65.565 13.4C65.4182 12.9811 65.2341 12.5761 65.015 12.19C64.8116 11.8343 64.5738 11.4994 64.305 11.19C64.075 10.96 63.935 10.78 63.665 10.54C62.4384 9.4879 60.8598 8.93786 59.245 9.00003C58.7325 9.01011 58.2227 9.07719 57.725 9.20003C56.7063 9.45074 55.7652 9.94878 54.985 10.65C54.9421 10.6798 54.902 10.7133 54.865 10.75C54.0833 11.4932 53.4725 12.3974 53.075 13.4C52.7037 14.3569 52.5105 15.3736 52.505 16.4ZM132.755 12.26C133.238 12.2491 133.715 12.3675 134.137 12.6032C134.559 12.8388 134.911 13.183 135.155 13.6C135.442 14.1214 135.632 14.6907 135.715 15.28H129.755C129.861 14.515 130.172 13.793 130.655 13.19C130.913 12.8979 131.23 12.6639 131.585 12.5036C131.94 12.3433 132.325 12.2603 132.715 12.26H132.755ZM125.885 16.46C125.824 18.4397 126.542 20.3643 127.885 21.82C129.017 22.9111 130.457 23.627 132.01 23.8704C133.563 24.1137 135.154 23.8727 136.565 23.18C137.008 22.9422 137.427 22.6608 137.815 22.34C137.866 22.302 137.913 22.2584 137.955 22.21C138.186 22.0121 138.403 21.7982 138.605 21.57C138.693 21.4718 138.77 21.3645 138.835 21.25L138.285 20.74C138.035 20.48 137.385 19.94 137.155 19.74L136.575 19.23C136.15 19.6139 135.684 19.9493 135.185 20.23C134.752 20.446 134.285 20.588 133.805 20.65C133.357 20.7513 132.893 20.758 132.443 20.6699C131.993 20.5817 131.566 20.4005 131.189 20.138C130.813 19.8754 130.495 19.5372 130.257 19.145C130.019 18.7527 129.865 18.3151 129.805 17.86H139.475C139.475 17.63 139.475 17.54 139.475 17.3C139.563 15.9416 139.369 14.5796 138.905 13.3C138.662 12.5803 138.304 11.9048 137.845 11.3C137.66 11.0576 137.456 10.8302 137.235 10.62C136.925 10.3378 136.59 10.0834 136.235 9.86003C134.643 8.93259 132.749 8.67029 130.965 9.13003C130.522 9.24236 130.093 9.40333 129.685 9.61003L129.125 9.92003C128.618 10.2896 128.158 10.7194 127.755 11.2C126.517 12.6722 125.844 14.5367 125.855 16.46H125.885ZM139.275 12.75V9.24003H151.565V12.75H147.455V23.52C147.455 23.59 147.455 23.62 147.365 23.62H143.415V12.75H139.275Z" fill="#1B1B1B"/>
<path fill-rule="evenodd" clip-rule="evenodd" d="M121.985 32.15H123.195C123.247 32.0035 123.314 31.8628 123.395 31.73C123.505 31.5 123.985 30.64 124.025 30.48C124.194 30.7019 124.314 30.9577 124.375 31.23V32.15H125.485C125.485 31.15 125.385 31.28 125.705 30.64C125.765 30.52 125.705 30.54 125.835 30.51C125.835 30.64 126.165 31.16 126.245 31.33L126.665 32.15H127.875C127.775 31.96 127.655 31.76 127.545 31.57L127.225 30.98L126.755 30.1C126.706 30.0002 126.645 29.9062 126.575 29.82C126.965 29.23 127.475 28.56 127.845 27.98H126.605C126.53 28.1238 126.443 28.261 126.345 28.39C126.175 28.64 125.615 29.57 125.495 29.66V28H124.385V29.71L123.255 28H122.015L123.115 29.59L123.215 29.72C123.285 29.84 123.215 29.91 123.215 30.01L122.025 32.17L121.985 32.15ZM144.755 28.93H145.755V32.15H146.835V28.93H147.835V28H144.755V28.95V28.93ZM141.345 29.79C141.294 30.1261 141.317 30.4693 141.412 30.7957C141.507 31.1221 141.672 31.4238 141.895 31.68C142.155 31.9615 142.498 32.1523 142.874 32.2243C143.25 32.2963 143.64 32.2457 143.985 32.08C144.191 31.9771 144.375 31.8344 144.525 31.66C144.525 31.55 144.185 31.11 144.085 30.9C143.755 30.99 143.865 31.23 143.195 31.23C142.972 31.1956 142.769 31.0792 142.627 30.9036C142.484 30.728 142.412 30.5057 142.425 30.28C142.425 29.81 142.425 29.17 142.995 28.96C143.565 28.75 143.905 29.22 144.055 29.26C144.055 29.09 144.455 28.61 144.495 28.44C144.227 28.164 143.876 27.9818 143.496 27.9205C143.116 27.8593 142.727 27.9222 142.385 28.1C142.092 28.2776 141.847 28.5247 141.673 28.8196C141.499 29.1144 141.4 29.4478 141.385 29.79H141.345ZM150.005 31.26H149.395V30.21H150.005C150.245 30.21 150.415 30.47 150.415 30.74C150.427 30.8628 150.39 30.9852 150.314 31.082C150.238 31.1788 150.127 31.2426 150.005 31.26ZM148.285 32.15H150.285C150.58 32.118 150.855 31.9869 151.066 31.7779C151.277 31.569 151.411 31.2947 151.445 31C151.478 30.7727 151.46 30.5408 151.393 30.3211C151.326 30.1015 151.21 29.8996 151.055 29.73C150.549 29.4035 149.938 29.282 149.345 29.39V28H148.235V32.17L148.285 32.15ZM107.755 28.83C108.115 28.83 108.295 29.1 108.375 29.41C108.375 29.52 108.375 29.67 108.455 29.75H107.055C107.115 29.63 107.145 28.83 107.755 28.83ZM105.975 30.08C105.925 30.4862 106.007 30.8977 106.207 31.2544C106.408 31.6112 106.717 31.8945 107.09 32.0631C107.463 32.2317 107.88 32.2767 108.28 32.1916C108.68 32.1065 109.043 31.8957 109.315 31.59C109.152 31.3828 109.002 31.1657 108.865 30.94C108.735 30.94 108.765 30.94 108.685 31.04C108.495 31.1969 108.256 31.2827 108.01 31.2827C107.764 31.2827 107.525 31.1969 107.335 31.04C107.199 30.8817 107.112 30.6871 107.085 30.48H109.475C109.475 30.31 109.475 30.33 109.475 30.18C109.475 29.06 108.995 27.89 107.855 27.89C107.572 27.8644 107.287 27.9138 107.029 28.0331C106.771 28.1525 106.549 28.3376 106.385 28.57C106.092 29.0074 105.938 29.5235 105.945 30.05L105.975 30.08ZM138.045 30.08C138.045 29.52 138.285 28.9 138.805 28.9H138.965C139.405 28.9 139.725 29.45 139.725 29.9V30.26C139.725 31.56 138.045 31.66 138.045 30.06V30.08ZM138.865 32.25C139.121 32.2566 139.375 32.2092 139.611 32.111C139.847 32.0128 140.06 31.8659 140.235 31.68C140.603 31.2368 140.809 30.6815 140.82 30.1055C140.831 29.5295 140.646 28.9669 140.295 28.51C140.004 28.2002 139.618 27.9957 139.198 27.9288C138.778 27.8618 138.348 27.9361 137.975 28.14C137.767 28.258 137.587 28.4181 137.445 28.61C137.286 28.8011 137.167 29.0221 137.095 29.26C137.015 29.5468 136.972 29.8424 136.965 30.14C136.969 30.6822 137.156 31.2071 137.495 31.63C137.667 31.8235 137.878 31.9787 138.114 32.0855C138.35 32.1923 138.606 32.2483 138.865 32.25ZM116.085 31.25H115.425V30.4C115.765 30.4 116.535 30.3 116.535 30.83C116.538 30.8887 116.529 30.9474 116.507 31.0019C116.485 31.0565 116.452 31.1056 116.409 31.1457C116.366 31.1858 116.314 31.2159 116.258 31.2339C116.203 31.252 116.143 31.2575 116.085 31.25ZM115.995 29.65H115.425V28.82H115.995C116.051 28.8159 116.106 28.8232 116.159 28.8413C116.211 28.8595 116.26 28.8881 116.301 28.9255C116.342 28.9629 116.375 29.0084 116.398 29.059C116.421 29.1096 116.434 29.1644 116.435 29.22C116.44 29.2785 116.432 29.3374 116.411 29.3924C116.39 29.4474 116.358 29.4972 116.316 29.5382C116.274 29.5793 116.223 29.6106 116.168 29.6299C116.112 29.6492 116.053 29.6561 115.995 29.65ZM114.305 32.14H116.375C116.67 32.1607 116.961 32.0691 117.191 31.8836C117.421 31.6981 117.573 31.4325 117.615 31.14C117.638 30.9964 117.629 30.8495 117.589 30.7096C117.55 30.5697 117.48 30.4402 117.385 30.33C117.235 30.16 117.025 30.1 116.945 29.99C117.695 29.79 117.735 27.99 116.285 27.99H114.285V32.16L114.305 32.14ZM128.215 32.14H129.215C129.215 32.05 130.415 29.92 130.485 29.88V32.14H131.565V28H130.485C130.454 28.1036 130.407 28.2015 130.345 28.29L129.345 30.01L129.255 30.16L129.175 30.3V28H128.175V32.17L128.215 32.14ZM118.215 32.14C119.525 32.14 119.215 32.28 119.565 31.6C119.715 31.35 120.445 29.99 120.565 29.84V32.14H121.565V28C120.365 28 120.565 27.92 120.395 28.24L119.295 30.24C119.295 30.3 119.295 30.24 119.245 30.32V28H118.165V32.17L118.215 32.14ZM132.365 32.14H133.455V29.79C133.546 29.898 133.621 30.0194 133.675 30.15L133.905 30.53L134.345 31.33C134.495 31.22 135.145 29.87 135.295 29.75V32.15H136.375V28H135.265C135.207 28.1425 135.137 28.2797 135.055 28.41L134.835 28.81C134.755 28.95 134.435 29.5 134.405 29.61C134.375 29.72 134.315 29.56 134.255 29.44L133.755 28.36C133.475 27.85 133.755 27.98 132.435 27.98V32.15L132.365 32.14ZM111.495 28.92H112.325V31.2H111.215C111.215 31.05 111.305 30.87 111.335 30.7C111.439 30.1157 111.492 29.5235 111.495 28.93V28.92ZM110.495 28.99C110.493 29.5618 110.429 30.1318 110.305 30.69C110.255 30.85 110.185 31.02 110.145 31.19H109.755V33H110.675L110.735 32.27C110.735 32.17 110.735 32.11 110.835 32.11H112.905V32.9C112.905 32.97 112.905 33 112.995 33H113.755V32.54C113.755 32.14 113.855 31.63 113.855 31.16H113.405V28H110.405V29L110.495 28.99ZM101.395 32.14H102.515V30H104.235V32.2H105.345V26.7H104.235V28.9H102.515V26.8C102.515 26.72 102.515 26.7 102.415 26.7H101.415L101.395 32.14Z" fill="#F20017"/>
<path fill-rule="evenodd" clip-rule="evenodd" d="M15.795 26.31H2.09497V21.03L15.795 18.32V26.31Z" fill="#585251"/>
<path fill-rule="evenodd" clip-rule="evenodd" d="M29.4949 21.52V26.31H15.7949V18.32L29.4949 21.52Z" fill="#181719"/>
<path fill-rule="evenodd" clip-rule="evenodd" d="M15.795 7.48L4.375 12.71L7.255 5.83L16.535 0L15.795 7.48Z" fill="#FA1E38"/>
<path fill-rule="evenodd" clip-rule="evenodd" d="M25.5249 12.82L15.7949 7.48L16.5349 0L25.5249 12.82Z" fill="#FA002A"/>
<path fill-rule="evenodd" clip-rule="evenodd" d="M28.0149 15.38L15.7949 9.33002V16.73L28.0149 20.14V15.38Z" fill="#C4002A"/>
<path fill-rule="evenodd" clip-rule="evenodd" d="M9.54498 16.57L7.47499 17.15V14.21L9.54498 13.46V16.57ZM0.36499 15.66V20.32L15.755 16.73V9.33002L0.36499 15.66Z" fill="#F21035"/>
</svg>
