<svg width="152" height="33" viewBox="0 0 152 33" fill="none" xmlns="http://www.w3.org/2000/svg">
<path fill-rule="evenodd" clip-rule="evenodd" d="M97.995 16.4598C98.0016 17.0177 98.0619 17.5736 98.175 18.1198C98.235 18.3798 98.285 18.5998 98.355 18.8498C98.5635 19.5114 98.863 20.1408 99.245 20.7198C99.8998 21.742 100.809 22.5763 101.884 23.1409C102.959 23.7054 104.162 23.9807 105.375 23.9398C107.039 23.9773 108.659 23.4086 109.935 22.3398C110.24 22.0898 110.524 21.8156 110.785 21.5198C110.865 21.4298 110.885 21.4298 110.915 21.3298C110.945 21.2298 109.445 19.7898 109.205 19.5498L108.915 19.2498L108.655 18.9298C108.545 18.9298 108.585 18.9298 108.505 19.0398C108.454 19.0862 108.401 19.1296 108.345 19.1698C107.642 19.9136 106.686 20.3667 105.665 20.4398C104.822 20.5188 103.981 20.2719 103.315 19.7498C102.999 19.4798 102.725 19.1627 102.505 18.8098C102.133 18.1786 101.93 17.4623 101.915 16.7298C101.843 15.7709 102.089 14.8151 102.615 14.0098C103.052 13.3527 103.703 12.8665 104.457 12.6333C105.211 12.4001 106.023 12.4342 106.755 12.7298C107.264 12.9254 107.735 13.2098 108.145 13.5698C108.235 13.6498 108.435 13.8698 108.545 13.8998C108.865 13.6071 109.169 13.2966 109.455 12.9698L109.975 12.4198C110.165 12.2198 110.755 11.6398 110.845 11.5098C110.559 11.1322 110.223 10.7957 109.845 10.5098C108.96 9.81789 107.929 9.33816 106.83 9.10758C105.73 8.877 104.593 8.90172 103.505 9.17984C102.504 9.42079 101.566 9.87439 100.755 10.5098L100.025 11.1698C99.4143 11.8202 98.9264 12.5757 98.585 13.3998C98.1821 14.3701 97.9715 15.4093 97.965 16.4598H97.995ZM35.355 23.6198H39.295C39.375 23.6198 39.395 23.6198 39.395 23.5198V8.58984H46.515V23.5198C46.515 23.5898 46.515 23.6198 46.615 23.6198H50.555V4.83984H35.355V23.6198ZM74.995 12.4598C75.4795 12.4379 75.9624 12.5295 76.4052 12.7275C76.8479 12.9254 77.2383 13.2242 77.545 13.5998C78.1556 14.3327 78.5071 15.2467 78.545 16.1998C78.61 17.2781 78.2833 18.3435 77.625 19.1998C77.1565 19.7793 76.4993 20.1759 75.7682 20.3203C75.0372 20.4646 74.2786 20.3477 73.625 19.9898C73.0819 19.6599 72.6276 19.2023 72.3017 18.6568C71.9758 18.1113 71.7881 17.4944 71.755 16.8598C71.755 16.6798 71.755 16.5598 71.755 16.4298C71.755 16.2998 71.755 16.1898 71.755 15.9998C71.755 15.8098 71.755 15.7198 71.755 15.5898C71.7958 15.3412 71.8594 15.0968 71.945 14.8598C72.1306 14.1959 72.52 13.6071 73.0583 13.1765C73.5966 12.7458 74.2565 12.4952 74.945 12.4598H74.995ZM71.755 11.2398V9.23984H67.755V27.9198H71.755V21.7798L72.125 22.1798C72.6404 22.7512 73.2768 23.2003 73.9878 23.4944C74.6989 23.7885 75.4666 23.9202 76.235 23.8798C77.1042 23.8594 77.9587 23.6503 78.7392 23.267C79.5196 22.8837 80.2074 22.3353 80.755 21.6598C81.2975 21.0121 81.7085 20.2648 81.965 19.4598C82.3851 18.1904 82.5293 16.8459 82.3879 15.5163C82.2465 14.1866 81.8227 12.9025 81.145 11.7498L80.385 10.7498L79.925 10.3398C79.0942 9.64585 78.0929 9.18666 77.025 9.00984C75.7894 8.79371 74.5171 9.01283 73.425 9.62984C73.0967 9.82831 72.7944 10.0668 72.525 10.3398C72.3783 10.4628 72.2443 10.6002 72.125 10.7498C72.0079 10.9077 71.881 11.058 71.745 11.1998L71.755 11.2398ZM119.315 20.3998H116.105V17.5798H118.995C121.585 17.5798 121.165 19.5798 120.525 20.0398C120.171 20.2873 119.747 20.4136 119.315 20.3998ZM119.025 14.9998H116.135V12.2598H118.965C119.258 12.2068 119.559 12.2511 119.824 12.386C120.089 12.5208 120.303 12.7388 120.432 13.0065C120.561 13.2742 120.599 13.5769 120.54 13.8683C120.481 14.1597 120.328 14.4236 120.105 14.6198C119.799 14.8647 119.417 14.9955 119.025 14.9898V14.9998ZM112.215 23.6298H119.885C121.685 23.6298 123.595 23.0998 124.495 21.6898C124.932 20.9962 125.123 20.1752 125.035 19.3598C125.016 18.9459 124.932 18.5375 124.785 18.1498C124.659 17.8073 124.469 17.4917 124.225 17.2198C124.112 17.0931 123.988 16.976 123.855 16.8698C123.429 16.5142 122.931 16.255 122.395 16.1098V15.9998C122.988 15.7565 123.506 15.3596 123.895 14.8498C124.27 14.3077 124.488 13.6726 124.525 13.0144C124.562 12.3563 124.417 11.7006 124.105 11.1198C123.86 10.6925 123.517 10.3293 123.105 10.0598C122.144 9.4607 121.027 9.16131 119.895 9.19984H112.195V23.6198L112.215 23.6298ZM90.215 12.2698C90.8901 12.2725 91.5425 12.5138 92.0568 12.9512C92.5711 13.3887 92.914 13.9939 93.025 14.6598C93.0765 14.8675 93.1165 15.0778 93.145 15.2898H87.225C87.323 14.7094 87.5227 14.1508 87.815 13.6398C87.9151 13.4803 88.0288 13.3297 88.155 13.1898C88.4108 12.896 88.7277 12.6614 89.0835 12.5025C89.4392 12.3436 89.8254 12.2642 90.215 12.2698ZM90.535 23.9498C92.0275 24.0195 93.5041 23.6171 94.755 22.7998C95.3244 22.4218 95.8335 21.9599 96.265 21.4298C96.345 21.3398 96.355 21.3598 96.385 21.2498C96.2648 21.1134 96.1345 20.9864 95.995 20.8698L94.865 19.8698C94.8141 19.8235 94.7607 19.7801 94.705 19.7398C94.5237 19.5566 94.3299 19.3862 94.125 19.2298L93.475 19.7698C93.2464 19.9561 92.9983 20.1171 92.735 20.2498C92.4599 20.3934 92.1675 20.5009 91.865 20.5698C91.0734 20.7694 90.2415 20.7417 89.465 20.4898C89.0121 20.3277 88.6029 20.0627 88.2698 19.7156C87.9366 19.3686 87.6885 18.949 87.545 18.4898C87.4602 18.285 87.403 18.0698 87.375 17.8498H97.055C97.0485 17.76 97.0485 17.6697 97.055 17.5798V16.7398C97.0492 15.6819 96.8875 14.6306 96.575 13.6198C96.1905 12.3551 95.4512 11.2271 94.445 10.3698C93.3359 9.52839 91.9979 9.04265 90.6074 8.9766C89.2168 8.91055 87.8388 9.2673 86.655 9.99984L85.885 10.5798C85.6395 10.7835 85.415 11.0113 85.215 11.2598C85.0677 11.4185 84.9339 11.589 84.815 11.7698C84.278 12.5175 83.8847 13.3585 83.655 14.2498C83.4436 15.0417 83.3526 15.8609 83.385 16.6798C83.4051 17.2207 83.4686 17.7591 83.575 18.2898C83.8109 19.4218 84.3073 20.4832 85.025 21.3898C85.1002 21.4651 85.1703 21.5453 85.235 21.6298C85.3028 21.7147 85.3763 21.7949 85.455 21.8698C85.655 22.0698 85.985 22.3198 86.185 22.4898C87.4604 23.4258 89.0029 23.9271 90.585 23.9198L90.535 23.9498ZM59.375 12.2598C59.7208 12.246 60.0658 12.3027 60.389 12.4265C60.7122 12.5502 61.0069 12.7385 61.255 12.9798C61.591 13.2859 61.8512 13.6659 62.015 14.0898C62.1226 14.3689 62.2062 14.6566 62.265 14.9498C62.2815 15.0612 62.3048 15.1714 62.335 15.2798H56.415C56.4689 14.8762 56.58 14.4822 56.745 14.1098C56.9414 13.5694 57.2989 13.1023 57.7692 12.7715C58.2395 12.4407 58.8 12.2621 59.375 12.2598ZM52.505 16.3998C52.428 18.406 53.1468 20.3613 54.505 21.8398C55.4461 22.756 56.6092 23.4119 57.8801 23.7432C59.1511 24.0745 60.4863 24.0699 61.755 23.7298C63.0221 23.4324 64.1734 22.7681 65.065 21.8198C65.2549 21.6483 65.4139 21.4453 65.535 21.2198C65.4305 21.1539 65.3361 21.073 65.255 20.9798L64.755 20.5998C64.485 20.3798 63.435 19.3498 63.205 19.1898C63.0923 19.2686 62.9884 19.3591 62.895 19.4598C62.785 19.5598 62.675 19.6398 62.555 19.7298C62.3211 19.9108 62.0698 20.0683 61.805 20.1998C61.1361 20.5566 60.3795 20.716 59.6236 20.6593C58.8676 20.6027 58.1432 20.3323 57.535 19.8798C56.9646 19.3459 56.5764 18.6463 56.425 17.8798H66.125C66.125 17.6298 66.125 17.5098 66.125 17.2598C66.2041 15.9484 66.0135 14.6347 65.565 13.3998C65.4182 12.9809 65.2341 12.5759 65.015 12.1898C64.8116 11.8341 64.5738 11.4992 64.305 11.1898C64.075 10.9598 63.935 10.7798 63.665 10.5398C62.4384 9.48772 60.8598 8.93768 59.245 8.99984C58.7325 9.00992 58.2227 9.077 57.725 9.19984C56.7063 9.45056 55.7652 9.94859 54.985 10.6498C54.9421 10.6796 54.902 10.7131 54.865 10.7498C54.0833 11.493 53.4725 12.3972 53.075 13.3998C52.7037 14.3567 52.5105 15.3735 52.505 16.3998ZM132.755 12.2598C133.238 12.2489 133.715 12.3674 134.137 12.603C134.559 12.8386 134.911 13.1828 135.155 13.5998C135.442 14.1212 135.632 14.6905 135.715 15.2798H129.755C129.861 14.5149 130.172 13.7928 130.655 13.1898C130.913 12.8977 131.23 12.6638 131.585 12.5034C131.94 12.3431 132.325 12.2601 132.715 12.2598H132.755ZM125.885 16.4598C125.824 18.4395 126.542 20.3641 127.885 21.8198C129.017 22.9109 130.457 23.6268 132.01 23.8702C133.563 24.1135 135.154 23.8725 136.565 23.1798C137.008 22.942 137.427 22.6606 137.815 22.3398C137.866 22.3018 137.913 22.2582 137.955 22.2098C138.186 22.0119 138.403 21.798 138.605 21.5698C138.693 21.4716 138.77 21.3644 138.835 21.2498L138.285 20.7398C138.035 20.4798 137.385 19.9398 137.155 19.7398L136.575 19.2298C136.15 19.6138 135.684 19.9492 135.185 20.2298C134.752 20.4458 134.285 20.5878 133.805 20.6498C133.357 20.7511 132.893 20.7578 132.443 20.6697C131.993 20.5815 131.566 20.4003 131.189 20.1378C130.813 19.8752 130.495 19.537 130.257 19.1448C130.019 18.7525 129.865 18.3149 129.805 17.8598H139.475C139.475 17.6298 139.475 17.5398 139.475 17.2998C139.563 15.9414 139.369 14.5795 138.905 13.2998C138.662 12.5801 138.304 11.9046 137.845 11.2998C137.66 11.0574 137.456 10.83 137.235 10.6198C136.925 10.3376 136.59 10.0833 136.235 9.85984C134.643 8.9324 132.749 8.6701 130.965 9.12984C130.522 9.24217 130.093 9.40315 129.685 9.60984L129.125 9.91984C128.618 10.2894 128.158 10.7192 127.755 11.1998C126.517 12.672 125.844 14.5365 125.855 16.4598H125.885ZM139.275 12.7498V9.23984H151.565V12.7498H147.455V23.5198C147.455 23.5898 147.455 23.6198 147.365 23.6198H143.415V12.7498H139.275Z" fill="white"/>
<path fill-rule="evenodd" clip-rule="evenodd" d="M121.985 32.1502H123.195C123.247 32.0037 123.314 31.863 123.395 31.7302C123.505 31.5002 123.985 30.6402 124.025 30.4802C124.194 30.7021 124.314 30.9579 124.375 31.2302V32.1502H125.485C125.485 31.1502 125.385 31.2802 125.705 30.6402C125.765 30.5202 125.705 30.5402 125.835 30.5102C125.835 30.6402 126.165 31.1602 126.245 31.3302L126.665 32.1502H127.875C127.775 31.9602 127.655 31.7602 127.545 31.5702L127.225 30.9802L126.755 30.1002C126.706 30.0003 126.645 29.9064 126.575 29.8202C126.965 29.2302 127.475 28.5602 127.845 27.9802H126.605C126.53 28.124 126.443 28.2612 126.345 28.3902C126.175 28.6402 125.615 29.5702 125.495 29.6602V28.0002H124.385V29.7102L123.255 28.0002H122.015L123.115 29.5902L123.215 29.7202C123.285 29.8402 123.215 29.9102 123.215 30.0102L122.025 32.1702L121.985 32.1502ZM144.755 28.9302H145.755V32.1502H146.835V28.9302H147.835V28.0002H144.755V28.9502V28.9302ZM141.345 29.7902C141.294 30.1263 141.317 30.4694 141.412 30.7958C141.507 31.1222 141.672 31.424 141.895 31.6802C142.155 31.9617 142.498 32.1525 142.874 32.2245C143.25 32.2965 143.64 32.2459 143.985 32.0802C144.191 31.9773 144.375 31.8345 144.525 31.6602C144.525 31.5502 144.185 31.1102 144.085 30.9002C143.755 30.9902 143.865 31.2302 143.195 31.2302C142.972 31.1958 142.769 31.0794 142.627 30.9038C142.484 30.7282 142.412 30.5059 142.425 30.2802C142.425 29.8102 142.425 29.1702 142.995 28.9602C143.565 28.7502 143.905 29.2202 144.055 29.2602C144.055 29.0902 144.455 28.6102 144.495 28.4402C144.227 28.1641 143.876 27.982 143.496 27.9207C143.116 27.8595 142.726 27.9224 142.385 28.1002C142.092 28.2778 141.847 28.5249 141.673 28.8198C141.499 29.1146 141.4 29.4479 141.385 29.7902H141.345ZM150.005 31.2602H149.395V30.2102H150.005C150.245 30.2102 150.415 30.4702 150.415 30.7402C150.426 30.8629 150.39 30.9854 150.314 31.0822C150.238 31.179 150.127 31.2428 150.005 31.2602ZM148.285 32.1502H150.285C150.58 32.1182 150.855 31.987 151.066 31.7781C151.277 31.5692 151.41 31.2949 151.445 31.0002C151.478 30.7728 151.46 30.5409 151.393 30.3213C151.325 30.1016 151.21 29.8997 151.055 29.7302C150.549 29.4037 149.937 29.2821 149.345 29.3902V28.0002H148.235V32.1702L148.285 32.1502ZM107.755 28.8302C108.115 28.8302 108.295 29.1002 108.375 29.4102C108.375 29.5202 108.375 29.6702 108.455 29.7502H107.055C107.115 29.6302 107.145 28.8302 107.755 28.8302ZM105.975 30.0802C105.925 30.4864 106.006 30.8979 106.207 31.2546C106.408 31.6114 106.717 31.8947 107.09 32.0633C107.463 32.2319 107.88 32.2769 108.28 32.1918C108.68 32.1067 109.043 31.8959 109.315 31.5902C109.152 31.3829 109.002 31.1659 108.865 30.9402C108.735 30.9402 108.765 30.9402 108.685 31.0402C108.495 31.1971 108.256 31.2829 108.01 31.2829C107.764 31.2829 107.525 31.1971 107.335 31.0402C107.199 30.8819 107.112 30.6873 107.085 30.4802H109.475C109.475 30.3102 109.475 30.3302 109.475 30.1802C109.475 29.0602 108.995 27.8902 107.855 27.8902C107.572 27.8646 107.287 27.9139 107.029 28.0333C106.771 28.1527 106.549 28.3378 106.385 28.5702C106.092 29.0076 105.938 29.5237 105.945 30.0502L105.975 30.0802ZM138.045 30.0802C138.045 29.5202 138.285 28.9002 138.805 28.9002H138.965C139.405 28.9002 139.725 29.4502 139.725 29.9002V30.2602C139.725 31.5602 138.045 31.6602 138.045 30.0602V30.0802ZM138.865 32.2502C139.121 32.2567 139.375 32.2094 139.611 32.1112C139.847 32.0129 140.059 31.8661 140.235 31.6802C140.603 31.2369 140.809 30.6817 140.82 30.1057C140.831 29.5297 140.646 28.9671 140.295 28.5102C140.004 28.2003 139.618 27.9959 139.198 27.9289C138.778 27.862 138.348 27.9363 137.975 28.1402C137.767 28.2581 137.587 28.4183 137.445 28.6102C137.286 28.8013 137.167 29.0223 137.095 29.2602C137.015 29.547 136.972 29.8426 136.965 30.1402C136.969 30.6823 137.156 31.2073 137.495 31.6302C137.667 31.8237 137.878 31.9789 138.114 32.0857C138.35 32.1925 138.606 32.2485 138.865 32.2502ZM116.085 31.2502H115.425V30.4002C115.765 30.4002 116.535 30.3002 116.535 30.8302C116.538 30.8889 116.529 30.9476 116.507 31.0021C116.485 31.0567 116.452 31.1057 116.409 31.1458C116.366 31.1859 116.314 31.2161 116.258 31.2341C116.202 31.2521 116.143 31.2576 116.085 31.2502ZM115.995 29.6502H115.425V28.8202H115.995C116.05 28.8161 116.106 28.8234 116.159 28.8415C116.211 28.8596 116.26 28.8883 116.301 28.9257C116.342 28.9631 116.375 29.0085 116.398 29.0592C116.421 29.1098 116.434 29.1646 116.435 29.2202C116.44 29.2787 116.431 29.3376 116.411 29.3926C116.39 29.4476 116.358 29.4974 116.316 29.5384C116.274 29.5795 116.223 29.6107 116.168 29.6301C116.112 29.6494 116.053 29.6563 115.995 29.6502ZM114.305 32.1402H116.375C116.67 32.1609 116.961 32.0693 117.191 31.8838C117.421 31.6983 117.573 31.4327 117.615 31.1402C117.638 30.9966 117.629 30.8497 117.589 30.7098C117.55 30.5699 117.48 30.4404 117.385 30.3302C117.235 30.1602 117.025 30.1002 116.945 29.9902C117.695 29.7902 117.735 27.9902 116.285 27.9902H114.285V32.1602L114.305 32.1402ZM128.215 32.1402H129.215C129.215 32.0502 130.415 29.9202 130.485 29.8802V32.1402H131.565V28.0002H130.485C130.454 28.1038 130.407 28.2017 130.345 28.2902L129.345 30.0102L129.255 30.1602L129.175 30.3002V28.0002H128.175V32.1702L128.215 32.1402ZM118.215 32.1402C119.525 32.1402 119.215 32.2802 119.565 31.6002C119.715 31.3502 120.445 29.9902 120.565 29.8402V32.1402H121.565V28.0002C120.365 28.0002 120.565 27.9202 120.395 28.2402L119.295 30.2402C119.295 30.3002 119.295 30.2402 119.245 30.3202V28.0002H118.165V32.1702L118.215 32.1402ZM132.365 32.1402H133.455V29.7902C133.546 29.8982 133.621 30.0196 133.675 30.1502L133.905 30.5302L134.345 31.3302C134.495 31.2202 135.145 29.8702 135.295 29.7502V32.1502H136.375V28.0002H135.265C135.207 28.1427 135.137 28.2799 135.055 28.4102L134.835 28.8102C134.755 28.9502 134.435 29.5002 134.405 29.6102C134.375 29.7202 134.315 29.5602 134.255 29.4402L133.755 28.3602C133.475 27.8502 133.755 27.9802 132.435 27.9802V32.1502L132.365 32.1402ZM111.495 28.9202H112.325V31.2002H111.215C111.215 31.0502 111.305 30.8702 111.335 30.7002C111.439 30.1158 111.492 29.5237 111.495 28.9302V28.9202ZM110.495 28.9902C110.493 29.562 110.429 30.1319 110.305 30.6902C110.255 30.8502 110.185 31.0202 110.145 31.1902H109.755V33.0002H110.675L110.735 32.2702C110.735 32.1702 110.735 32.1102 110.835 32.1102H112.905V32.9002C112.905 32.9702 112.905 33.0002 112.995 33.0002H113.755V32.5402C113.755 32.1402 113.855 31.6302 113.855 31.1602H113.405V28.0002H110.405V29.0002L110.495 28.9902ZM101.395 32.1402H102.515V30.0002H104.235V32.2002H105.345V26.7002H104.235V28.9002H102.515V26.8002C102.515 26.7202 102.515 26.7002 102.415 26.7002H101.415L101.395 32.1402Z" fill="#F20017"/>
<path fill-rule="evenodd" clip-rule="evenodd" d="M15.795 26.3098H2.09497V21.0298L15.795 18.3198V26.3098Z" fill="#585251"/>
<path fill-rule="evenodd" clip-rule="evenodd" d="M29.495 21.5198V26.3098H15.795V18.3198L29.495 21.5198Z" fill="#181719"/>
<path fill-rule="evenodd" clip-rule="evenodd" d="M15.795 7.48L4.375 12.71L7.255 5.83L16.535 0L15.795 7.48Z" fill="#FA1E38"/>
<path fill-rule="evenodd" clip-rule="evenodd" d="M25.525 12.82L15.795 7.48L16.535 0L25.525 12.82Z" fill="#FA002A"/>
<path fill-rule="evenodd" clip-rule="evenodd" d="M28.015 15.3801L15.795 9.33008V16.7301L28.015 20.1401V15.3801Z" fill="#C4002A"/>
<path fill-rule="evenodd" clip-rule="evenodd" d="M9.54498 16.5701L7.47499 17.1501V14.2101L9.54498 13.4601V16.5701ZM0.36499 15.6601V20.3201L15.755 16.7301V9.33008L0.36499 15.6601Z" fill="#F21035"/>
</svg>
