<svg width="265" height="265" viewBox="0 0 265 265" fill="none" xmlns="http://www.w3.org/2000/svg">
<g clip-path="url(#clip0)">
<path d="M132.05 260.6C203.046 260.6 260.6 203.046 260.6 132.05C260.6 61.0538 203.046 3.5 132.05 3.5C61.0538 3.5 3.5 61.0538 3.5 132.05C3.5 203.046 61.0538 260.6 132.05 260.6Z" stroke="#E50C30" stroke-width="7" stroke-miterlimit="10"/>
<path d="M132.05 236.05C189.488 236.05 236.05 189.488 236.05 132.05C236.05 74.6124 189.488 28.05 132.05 28.05C74.6124 28.05 28.05 74.6124 28.05 132.05C28.05 189.488 74.6124 236.05 132.05 236.05Z" stroke="#E50C30" stroke-width="6" stroke-miterlimit="10"/>
<path d="M132.05 211.51C175.935 211.51 211.51 175.935 211.51 132.05C211.51 88.1655 175.935 52.59 132.05 52.59C88.1655 52.59 52.59 88.1655 52.59 132.05C52.59 175.935 88.1655 211.51 132.05 211.51Z" stroke="#E50C30" stroke-width="5" stroke-miterlimit="10"/>
<path d="M132.05 186.97C162.381 186.97 186.97 162.381 186.97 132.05C186.97 101.719 162.381 77.13 132.05 77.13C101.719 77.13 77.13 101.719 77.13 132.05C77.13 162.381 101.719 186.97 132.05 186.97Z" stroke="#E50C30" stroke-width="4" stroke-miterlimit="10"/>
</g>
<defs>
<clipPath id="clip0">
<rect width="264.09" height="264.09" fill="white"/>
</clipPath>
</defs>
</svg>
