<svg width="324" height="215" viewBox="0 0 324 215" fill="none" xmlns="http://www.w3.org/2000/svg">
<path d="M213.444 73.0888C214.115 70.7001 214.34 68.2252 213.878 65.7835C212.926 60.7659 208.258 56.2527 203.196 56.8989C193.362 58.1556 189.432 72.3669 190.52 80.5202C190.785 82.5108 191.315 84.5226 192.439 86.1933C197.651 93.9406 206.859 85.344 210.116 80.2615C211.53 78.0466 212.739 75.6142 213.444 73.0888Z" fill="#84C2B0"/>
<path d="M156.117 27.6589C154.19 32.0381 151.762 36.6828 150.827 41.403C150.367 43.7254 150.607 46.11 150.222 48.4363C149.809 50.9378 148.754 53.288 147.306 55.3582C146.046 57.1616 144.498 58.778 143.491 60.75C142.592 62.507 142.363 64.4033 142.155 66.3394C141.624 71.4584 139.973 76.3972 137.318 80.8042C137.095 81.1744 137.673 81.5115 137.896 81.1426C140.263 77.2529 141.848 72.9374 142.562 68.4388C142.93 66.0502 142.885 63.5513 143.944 61.3272C144.934 59.2451 146.574 57.569 147.882 55.6939C149.104 53.9677 150.011 52.0391 150.562 49.9969C151.122 47.8737 151.057 45.7199 151.225 43.5449C151.421 40.9067 152.346 38.5021 153.313 36.0736C154.39 33.3567 155.518 30.6624 156.698 27.9906C156.87 27.6005 156.3 27.2594 156.12 27.6536L156.117 27.6589Z" fill="#CEDCF0"/>
<path d="M172.187 16.1681C172.932 13.1996 173.061 10.1115 172.32 7.14428C170.862 1.29336 164.382 -1.71371 158.998 1.01866C154.329 3.38743 151.639 8.61597 150.263 13.4477C148.964 18.0141 148.524 23.3063 150.638 27.7041C151.778 30.0729 153.765 32.074 156.557 32.009C160.676 31.9121 164.452 29.339 167.003 26.2497C169.367 23.3899 171.258 19.8719 172.187 16.1681Z" fill="#FFD5D4"/>
<path d="M155.323 34.334C155.159 33.6413 155.346 32.3939 155.431 31.656C155.506 31.1337 155.548 30.6071 155.557 30.0795C155.597 30.0203 155.618 29.9494 155.615 29.8776C155.612 29.8057 155.585 29.7368 155.539 29.6814L155.457 29.5938C155.43 29.5649 155.393 29.5463 155.354 29.5412C155.314 29.5361 155.274 29.5449 155.24 29.5659C155.214 29.553 155.186 29.5456 155.158 29.5444C155.129 29.5431 155.1 29.548 155.074 29.5587C155.047 29.5693 155.023 29.5856 155.003 29.6063C154.984 29.627 154.968 29.6517 154.959 29.6787C154.571 30.3874 154.142 31.0724 153.673 31.7303C153.327 32.228 152.959 32.7429 152.398 33.4648C152.133 33.8045 152.59 33.7713 152.902 33.8735C153.621 34.1057 154.262 34.5052 154.988 34.7321C155.203 34.8038 155.378 34.5636 155.323 34.334Z" fill="#FFD5D4"/>
<path d="M109.258 15.8417C111.018 14.5136 112.865 13.3042 114.786 12.2215C116.034 11.5182 114.919 9.59398 113.664 10.2986C111.742 11.3816 109.895 12.5909 108.134 13.9188C107.004 14.7708 108.111 16.7056 109.256 15.8417H109.258Z" fill="#FFE3C2"/>
<path d="M94.7411 5.48932C95.372 7.36045 96.0838 9.282 96.2826 11.2593C96.4231 12.6713 98.6485 12.6859 98.5054 11.2593C98.2854 9.06304 97.5869 6.97959 96.8844 4.89746C96.4297 3.54654 94.2812 4.12645 94.7411 5.48932Z" fill="#FFE3C2"/>
<path d="M110.435 27.943L116.474 29.4624C117.861 29.8128 118.454 27.6656 117.065 27.3166L111.026 25.7971C109.638 25.4481 109.046 27.594 110.435 27.9443V27.943Z" fill="#FFE3C2"/>
<path d="M100.728 32.9128C100.806 35.017 101.103 37.1074 101.615 39.1499C101.962 40.5379 104.107 39.9461 103.758 38.5567C103.293 36.7088 103.023 34.8171 102.952 32.9128C102.898 31.4849 100.674 31.4769 100.728 32.9128Z" fill="#FFE3C2"/>
<path d="M83.053 16.4574C85.0726 17.2061 87.1446 17.8044 89.2522 18.2476C90.648 18.5409 91.2405 16.3964 89.8434 16.1005C87.736 15.6571 85.664 15.0592 83.6441 14.3116C82.3001 13.8126 81.7209 15.9638 83.053 16.4574Z" fill="#FFE3C2"/>
<path d="M87.3992 33.5364L92.102 30.3661C93.283 29.5699 92.1709 27.6417 90.9793 28.4445L86.2766 31.6135C85.0956 32.4097 86.2076 34.3392 87.3992 33.5364Z" fill="#FFE3C2"/>
<path d="M212.991 8.87869C213.787 10.9381 214.375 13.0719 214.747 15.2485C215.036 16.9405 217.61 16.2225 217.321 14.5372C216.95 12.3605 216.361 10.2266 215.565 8.1674C214.953 6.57495 212.369 7.26899 212.991 8.87869Z" fill="#AAC3EB"/>
<path d="M201.545 23.2452C203.75 22.9903 205.982 23.1046 208.149 23.5836C209.823 23.9578 210.535 21.3807 208.859 21.0052C206.462 20.4568 203.991 20.3102 201.545 20.5712C199.855 20.7557 199.837 23.431 201.545 23.2452Z" fill="#AAC3EB"/>
<path d="M226.524 17.7631C227.875 15.8387 229.492 14.1154 231.326 12.6448C232.664 11.5632 230.764 9.6828 229.439 10.755C227.44 12.3843 225.682 14.29 224.219 16.4149C223.234 17.8295 225.545 19.1672 226.524 17.7631Z" fill="#AAC3EB"/>
<path d="M211.648 30.5651C210.568 32.6087 209.488 34.6524 208.41 36.696C207.607 38.2155 209.911 39.5677 210.715 38.0443L213.953 31.9147C214.756 30.3952 212.453 29.0417 211.648 30.5651Z" fill="#AAC3EB"/>
<path d="M222.468 33.5152C223.431 34.6621 224.271 35.9076 224.973 37.2309C225.79 38.7463 228.095 37.3981 227.28 35.8813C226.456 34.3671 225.476 32.9437 224.356 31.6348C223.242 30.3223 221.361 32.22 222.468 33.5245V33.5152Z" fill="#AAC3EB"/>
<path d="M227.962 25.9737C230.366 25.8255 232.775 25.7981 235.181 25.8914C236.904 25.9578 236.904 23.2851 235.181 23.2188C232.775 23.1247 230.366 23.1522 227.962 23.301C226.255 23.4059 226.239 26.0799 227.962 25.9737Z" fill="#AAC3EB"/>
<path d="M312.122 36.6524L318.039 32.3169C319.762 31.0575 318.092 28.1513 316.352 29.4253L310.433 33.7621C308.71 35.0214 310.382 37.9276 312.122 36.6524Z" fill="#FFD5D4"/>
<path d="M294.569 27.0631L295.475 32.9246C295.615 33.8244 296.732 34.3047 297.533 34.0938C298.487 33.8416 298.837 32.9233 298.7 32.0342L297.794 26.1727C297.654 25.2729 296.537 24.7925 295.737 25.0035C294.781 25.2557 294.431 26.174 294.569 27.0631Z" fill="#FFD5D4"/>
<path d="M282.111 44.0718L287.088 44.6929C287.985 44.8044 288.76 43.8436 288.76 43.0182C288.76 42.0216 287.988 41.4576 287.088 41.3448L282.111 40.7237C281.213 40.6122 280.439 41.573 280.439 42.3984C280.439 43.395 281.211 43.959 282.111 44.0718Z" fill="#FFD5D4"/>
<path d="M288.843 63.4492L294.648 57.804C296.194 56.3005 293.829 53.9343 292.284 55.4366L286.478 61.0831C284.931 62.5867 287.297 64.9528 288.843 63.4492Z" fill="#FFD5D4"/>
<path d="M306.228 58.8378L307.743 65.1226C308.248 67.2154 311.473 66.3289 310.966 64.2322L309.451 57.9473C308.948 55.8546 305.723 56.741 306.228 58.8378Z" fill="#FFD5D4"/>
<path d="M314.3 49.9838L320.816 51.7926C322.893 52.3685 323.778 49.1385 321.705 48.5639L315.188 46.7551C313.112 46.1792 312.226 49.4092 314.3 49.9838Z" fill="#FFD5D4"/>
<path d="M27.082 121.948C29.163 124.001 31.332 125.955 33.5888 127.811C35.239 129.167 37.6183 126.813 35.9535 125.443C33.6957 123.585 31.5268 121.631 29.4467 119.582C27.9118 118.067 25.5458 120.434 27.082 121.948Z" fill="#FFD5D4"/>
<path d="M48.9233 123.398C49.6176 120.652 50.6412 118.001 51.9718 115.501C52.9832 113.599 50.0989 111.907 49.085 113.81C47.6139 116.564 46.4791 119.484 45.705 122.509C45.1748 124.597 48.3957 125.488 48.9286 123.398H48.9233Z" fill="#FFD5D4"/>
<path d="M58.2732 135.722L67.2931 133.35C69.3728 132.803 68.486 129.573 66.4037 130.121L57.3838 132.494C55.3041 133.042 56.1909 136.271 58.2732 135.722Z" fill="#FFD5D4"/>
<path d="M54.0688 148.174L59.5364 154.715C60.9188 156.37 63.2742 153.991 61.901 152.349L56.4334 145.807C55.0509 144.152 52.6969 146.531 54.0688 148.174Z" fill="#FFD5D4"/>
<path d="M39.8437 150.333C39.257 153.116 38.6693 155.898 38.0808 158.682C37.6368 160.784 40.8643 161.682 41.3044 159.572C41.8929 156.789 42.481 154.006 43.0686 151.222C43.5127 149.122 40.2851 148.223 39.8437 150.333Z" fill="#FFD5D4"/>
<path d="M23.8584 144.517L32.474 142.228C34.5524 141.676 33.667 138.446 31.586 138.999L22.9704 141.289C20.892 141.841 21.7774 145.07 23.8598 144.517H23.8584Z" fill="#FFD5D4"/>
<path d="M182.105 141.185L185.111 147.366C185.943 149.075 188.489 147.578 187.661 145.873L184.655 139.692C183.822 137.982 181.276 139.479 182.105 141.185Z" fill="#84C2B0"/>
<path d="M171.059 156.46C173.843 157.027 176.508 157.345 179.34 157.215C181.232 157.129 181.243 154.172 179.34 154.26C176.763 154.378 174.373 154.127 171.844 153.611C169.988 153.233 169.193 156.081 171.059 156.46Z" fill="#84C2B0"/>
<path d="M198.195 150.009C200.189 148.26 202.124 146.447 204 144.568C205.347 143.223 203.259 141.131 201.913 142.478C200.036 144.353 198.101 146.167 196.107 147.919C194.675 149.176 196.77 151.259 198.195 150.009Z" fill="#84C2B0"/>
<path d="M201.597 158.861C204.397 158.86 207.192 159.11 209.948 159.607C211.803 159.945 212.599 157.097 210.732 156.756C207.719 156.201 204.661 155.916 201.597 155.905C199.698 155.905 199.695 158.858 201.597 158.861Z" fill="#84C2B0"/>
<path d="M193.829 166.635L197.515 173.858C198.379 175.552 200.926 174.058 200.064 172.366L196.379 165.143C195.513 163.448 192.966 164.943 193.829 166.635Z" fill="#84C2B0"/>
<path d="M183.844 164.308C182.13 166.495 180.416 168.681 178.699 170.866C177.54 172.346 179.614 174.449 180.787 172.957C182.502 170.771 184.217 168.585 185.931 166.398C187.092 164.919 185.017 162.815 183.844 164.308Z" fill="#84C2B0"/>
<path d="M26.642 58.7249C25.1362 61.3976 23.4489 63.9734 22.0757 66.7203C20.7648 69.3439 20.1246 71.9396 19.5573 74.7967C18.9316 77.9285 17.3384 80.0186 15.4788 82.5174C13.9545 84.565 13.1711 86.602 12.8981 89.138C12.5495 92.3853 12.4739 95.3645 9.98202 97.7823C8.16346 99.5433 6.13814 100.894 4.92797 103.19C2.45331 107.855 2.96494 113.524 0.0555168 118.013C-0.180418 118.374 0.39749 118.712 0.6321 118.351C3.54815 113.853 3.02989 108.189 5.49793 103.528C6.85124 100.971 9.27819 99.6627 11.1339 97.5501C12.6953 95.7692 13.1512 93.5982 13.3713 91.2997C13.6775 88.1002 14.0923 85.486 16.0554 82.8545C17.6764 80.6821 19.2922 78.7486 19.9668 76.0574C20.3247 74.6268 20.4652 73.1512 20.8311 71.7219C21.2486 70.1003 21.91 68.553 22.6562 67.0587C24.0294 64.3104 25.7154 61.736 27.2225 59.062C27.4333 58.6864 26.8567 58.348 26.6446 58.7249H26.642Z" fill="#CEDCF0"/>
<path d="M26.2894 63.2568C26.361 62.4805 26.4047 61.7427 26.5624 60.9862C26.6866 60.4396 26.7528 59.8814 26.7599 59.3208C26.777 59.2639 26.7821 59.2041 26.7748 59.1451C26.7675 59.0862 26.748 59.0294 26.7175 58.9784C26.7056 58.9585 26.6937 58.9386 26.6831 58.9187C26.6677 58.8821 26.6447 58.8491 26.6156 58.8221C26.5865 58.795 26.552 58.7746 26.5143 58.762C26.4767 58.7494 26.4367 58.7451 26.3973 58.7492C26.3578 58.7533 26.3196 58.7659 26.2854 58.786C26.237 58.7617 26.1821 58.7537 26.1288 58.7633C26.0755 58.7729 26.0268 58.7995 25.9898 58.8391C25.7856 59.0576 25.6035 59.2958 25.4464 59.5504C25.2621 59.8158 25.058 60.0666 24.8486 60.3121C24.3714 60.8655 23.775 61.3406 23.3548 61.9351C23.2845 62.0359 23.5072 62.1328 23.6026 62.2177C23.8545 62.4433 25.2714 63.1029 25.7406 63.3086C25.9593 63.3948 26.2655 63.5036 26.2894 63.2568Z" fill="#AAC3EB"/>
<path d="M44.9826 45.3656C47.2266 38.6176 42.9321 28.8453 34.909 29.1505C24.6816 29.5394 21.0272 43.4826 21.7284 51.6916C21.9007 53.6981 22.3328 55.7272 23.376 57.4497C28.214 65.4358 37.8237 57.2864 41.3137 52.3644C42.8353 50.2279 44.1542 47.8552 44.9826 45.3656Z" fill="#AAC3EB"/>
<path d="M303.842 97.3762C301.934 102.237 299.958 107.08 296.651 111.177C293.976 114.495 291.268 117.383 290.459 121.715C290.017 124.08 289.842 126.582 288.431 128.616C287.076 130.569 285.061 131.92 283.868 134.01C281.694 137.822 281.692 142.409 279.916 146.376C277.913 150.848 274.216 154.358 272.883 159.159C272.767 159.576 273.413 159.752 273.527 159.338C274.773 154.853 278.114 151.509 280.154 147.416C282.113 143.495 282.182 138.956 284.088 135.027C285.175 132.784 287.117 131.374 288.623 129.463C289.936 127.797 290.428 125.845 290.781 123.79C291.193 121.378 291.612 119.118 292.921 117.002C294.167 114.991 295.817 113.286 297.295 111.441C300.601 107.314 302.576 102.43 304.49 97.55C304.648 97.1519 304.001 96.9754 303.846 97.3722L303.842 97.3762Z" fill="#CEDCF0"/>
<path d="M322.002 87.6623C322.921 85.3413 323.387 82.885 323.204 80.4326C322.729 73.9859 315.568 68.9378 309.323 71.3225C301.559 74.2858 298.189 84.849 298.321 92.4105C298.36 94.4249 298.656 96.4765 299.584 98.2654C302.402 103.698 308.25 102.077 312.418 99.2673C316.391 96.5933 320.132 92.3932 322.002 87.6623Z" fill="#FFE3C2"/>
<path d="M303.191 103.19C303.261 102.343 303.324 101.425 303.481 100.6C303.487 100.557 303.484 100.514 303.473 100.472C303.462 100.431 303.442 100.392 303.415 100.359C303.388 100.325 303.355 100.298 303.317 100.277C303.279 100.257 303.238 100.245 303.195 100.241C303.136 100.179 303.056 100.141 302.971 100.135C302.885 100.129 302.8 100.155 302.734 100.209C302.261 100.63 302.042 101.284 301.66 101.783C301.194 102.396 300.537 102.829 299.9 103.613C299.823 103.709 300.055 103.921 300.165 104.011C300.895 104.577 301.836 104.822 302.659 105.215C302.826 105.295 303.068 105.268 303.084 105.105C303.146 104.505 303.137 103.777 303.191 103.19Z" fill="#FFE3C2"/>
<path d="M292.912 44.6915C292.912 44.6915 289.492 44.4619 289.535 46.8413C289.577 49.2207 289.535 49.3932 289.903 49.8935C289.992 50.0028 290.107 50.0886 290.237 50.1435C290.366 50.1983 290.508 50.2204 290.648 50.208C290.698 50.192 290.676 50.3938 290.659 50.4442L290.683 52.4878L294.626 54.6429C294.626 54.6429 294.667 52.237 294.75 51.2324C294.776 50.9432 294.77 49.9811 294.77 49.9811C294.77 49.9811 295.189 49.1198 294.981 47.0908C294.793 45.2594 294.48 44.8282 294.48 44.8282C294.48 44.8282 294.434 44.4871 294.383 44.235C294.09 42.7752 293.58 41.7454 293.121 42.5403C292.663 43.3352 292.912 44.6915 292.912 44.6915Z" fill="#D77B52"/>
<path d="M290.265 46.9939C290.473 46.7629 290.719 46.5682 290.991 46.418C291.368 46.2096 291.03 45.631 290.653 45.8407C290.331 46.0186 290.04 46.2486 289.792 46.5215C289.504 46.8386 289.975 47.3177 290.265 46.9939Z" fill="#A8522C"/>
<path d="M290.28 48.2268C290.474 48.0259 290.697 47.8555 290.942 47.7212C291.321 47.5155 290.983 46.9369 290.606 47.1439C290.308 47.3054 290.037 47.5107 289.801 47.753C289.5 48.0609 289.972 48.5346 290.274 48.2268H290.28Z" fill="#A8522C"/>
<path d="M290.599 49.3574C290.706 49.2521 290.823 49.1578 290.949 49.0761C291.308 48.8412 290.974 48.2613 290.612 48.4975C290.437 48.6097 290.274 48.7396 290.126 48.885C289.817 49.1862 290.29 49.6587 290.599 49.3574Z" fill="#A8522C"/>
<path d="M291.18 50.4495C291.678 50.3739 292.209 50.3526 292.68 50.1629C293.078 50.0036 292.903 49.356 292.502 49.5166C292.032 49.7064 291.499 49.7276 291.002 49.8032C290.578 49.8683 290.758 50.5132 291.18 50.4495Z" fill="#A8522C"/>
<path d="M293.133 45.1838C293.366 45.1624 293.599 45.1575 293.832 45.1692C294.261 45.1931 294.26 44.5229 293.832 44.5057C293.599 44.4933 293.366 44.4982 293.133 44.5203C293.045 44.522 292.961 44.5579 292.898 44.6205C292.836 44.6831 292.8 44.7675 292.798 44.856C292.799 44.9445 292.834 45.0292 292.897 45.0917C292.959 45.1543 293.044 45.1898 293.132 45.1905L293.133 45.1838Z" fill="#A8522C"/>
<path d="M282.806 177.361C282.874 177.729 283.734 184.232 283.734 184.232C283.734 184.232 284.862 186.488 287.181 187.174C289.499 187.86 290.903 183.776 290.903 183.776L290.249 173.016L282.806 177.361Z" fill="#D68968"/>
<path d="M283.476 183.755C283.99 183.829 284.66 185.38 285.558 185.528C286.457 185.675 285.248 183.237 287.198 182.543C289.148 181.849 290.971 181.691 291.4 182.081C291.828 182.471 296.613 192.947 297.232 194.712C297.851 196.477 297.314 199.168 294.011 198.324C291.661 197.741 289.571 196.391 288.073 194.486C287.36 193.585 286.564 191.402 286.2 191.014C285.023 189.76 283.092 189.708 282.621 188.462C282.15 187.216 282.963 183.679 283.476 183.755Z" fill="#FCBBB9"/>
<path d="M289.906 187.17C290.764 186.597 291.784 186.318 292.814 186.374C293.243 186.395 293.243 185.725 292.814 185.711C291.665 185.651 290.528 185.961 289.568 186.594C289.209 186.829 289.544 187.409 289.906 187.172V187.17Z" fill="#C4827F"/>
<path d="M291.738 189.769C292.406 189.437 293.107 189.173 293.829 188.982C294.244 188.872 294.068 188.225 293.65 188.337C292.872 188.544 292.117 188.831 291.397 189.192C291.011 189.383 291.35 189.961 291.735 189.769H291.738Z" fill="#C4827F"/>
<path d="M262.047 84.7906C263.461 92.2658 264.49 94.693 266.12 102.515C267.711 110.149 271.23 117.415 273.629 124.854C279.271 142.355 278.39 151.618 281.449 176.711C281.449 176.711 283.444 179.217 286.848 178.948C290.252 178.679 291.355 176.598 291.355 176.598C292.093 175.199 291.885 172.397 292.06 170.865C293.345 159.541 294.365 147.869 293.701 136.362C293.026 124.684 289.474 113.692 286.76 102.39C285.518 97.2144 282.398 87.1143 281.036 81.3536C271.91 78.7327 271.578 84.3049 262.047 84.7906Z" fill="#7996C2"/>
<path d="M285.561 133.287C285.995 134.525 286.616 135.689 287.403 136.738C287.659 137.077 288.24 136.744 287.98 136.399C287.224 135.401 286.625 134.293 286.205 133.114C286.062 132.715 285.41 132.884 285.561 133.291V133.287Z" fill="#3F5F8F"/>
<path d="M252.949 183.315H262.638L262.185 195.644C262.185 195.644 260.197 197.456 257.387 197.004C254.576 196.551 253.675 195.734 253.675 195.734L252.949 183.315Z" fill="#D68968"/>
<path d="M274.046 36.9694C274.015 36.8367 273.826 36.4903 273.807 36.3709C273.743 36.0059 273.91 35.8984 274.003 35.6012C274.184 35.0213 274.061 34.3564 273.533 34.0008C273.242 33.8241 272.91 33.725 272.57 33.7128C271.946 33.665 271.569 33.1926 271.084 32.8648C270.523 32.4866 269.85 32.3221 269.185 32.261C267.943 32.1496 265.924 32.1788 265.794 33.8535C265.793 33.9555 265.78 34.0571 265.756 34.156C265.721 34.2431 265.672 34.3241 265.612 34.3962C265.465 34.594 265.251 34.805 265.155 35.0306C265.077 35.2571 265.028 35.4925 265.009 35.7312C264.944 36.2488 265.009 36.7504 265.009 37.2666C265.117 38.7424 265.597 40.1667 266.405 41.4057C266.982 42.2248 267.731 42.9078 268.599 43.4068C269.092 43.7014 270.35 44.2323 270.967 43.8501C270.984 43.8521 271 43.8521 271.016 43.8501C272.74 43.6178 273.29 41.3353 273.437 39.9287C273.518 39.1497 274.062 38.5711 274.111 37.7802C274.129 37.5082 274.107 37.235 274.046 36.9694Z" fill="#383B5C"/>
<path d="M272.689 36.7186C272.749 37.8094 272.563 39.0489 272.391 40.1318C272.192 41.3871 271.861 42.8416 270.933 43.7586C269.882 44.8016 268.008 44.9529 266.714 44.2894C265.225 43.5237 265.215 41.8596 265.216 40.3932C265.216 39.0807 265.207 37.7192 265.399 36.4121C265.823 33.5496 269.419 33.4395 271.418 34.5993C272.349 35.1461 272.651 35.8746 272.689 36.7186Z" fill="#D77B52"/>
<path d="M267.257 43.2397C267.257 43.2397 267.272 44.2523 267.257 45.5966C267.243 46.9409 267.257 48.1498 267.257 48.1498L271.855 48.3064C271.855 48.3064 271.885 47.3987 271.946 45.0405C271.971 43.7211 272.076 42.4044 272.262 41.0979L267.257 43.2397Z" fill="#D77B52"/>
<path d="M265.551 39.6408C265.491 39.5028 265.395 39.3829 265.274 39.2931C264.958 39.0648 264.583 39.2281 264.419 39.5479C264.295 39.7734 264.253 40.0355 264.302 40.2886C264.35 40.5417 264.486 40.7698 264.685 40.9333C264.95 41.1576 265.384 41.1921 265.558 40.8364C265.639 40.6473 265.68 40.4436 265.679 40.2379C265.677 40.0323 265.634 39.829 265.551 39.6408Z" fill="#D77B52"/>
<path d="M272.783 34.7334C272.772 34.7094 272.754 34.6887 272.732 34.6734C272.711 34.6581 272.685 34.6486 272.659 34.6458C272.261 33.693 271.095 33.4581 270.081 33.4435C268.396 33.4183 266.968 32.4748 265.38 32.0674C265.082 31.9886 264.77 31.973 264.465 32.0214C264.16 32.0698 263.868 32.1813 263.608 32.3487C262.946 32.7866 262.548 33.5828 262.507 34.3804C262.474 35.0926 262.649 35.7989 263.011 36.4134C263.356 36.9947 263.861 37.2494 264.406 37.5958C264.499 37.6542 264.594 37.7112 264.691 37.763C264.787 37.8131 264.886 37.8575 264.987 37.8957C265.017 38.2845 264.848 39.447 265.281 39.2891C265.414 39.24 265.764 38.2354 265.974 37.8771C266.53 36.927 267.924 37.203 268.815 36.8765C269.641 36.5727 270.083 35.7167 270.868 35.3823C271.366 36.0962 271.539 36.8739 271.52 37.7511C271.508 38.2898 271.37 38.8658 271.462 39.4032C271.529 39.8013 271.891 40.6785 272.425 40.2645C272.72 40.0362 272.755 39.3475 272.823 39.0277C272.956 38.392 273.101 37.7458 273.186 37.1021C273.236 36.7898 273.268 36.4747 273.282 36.1586C273.283 35.5668 273.039 35.235 272.783 34.7334Z" fill="#383B5C"/>
<path d="M272.038 39.8929C272.126 39.7701 272.244 39.6718 272.38 39.6076C272.738 39.4497 273.071 39.6872 273.165 40.0349C273.241 40.2809 273.228 40.5457 273.129 40.7831C273.029 41.0206 272.85 41.2155 272.621 41.3341C272.315 41.4999 271.883 41.4442 271.788 41.0607C271.747 40.8593 271.748 40.6516 271.791 40.4506C271.834 40.2497 271.918 40.0598 272.038 39.8929Z" fill="#D77B52"/>
<path d="M283.558 50.2425C283.362 49.6148 283.232 49.0548 282.606 48.7562C282.209 48.5652 281.822 48.3648 281.38 48.3369C279.405 48.2042 273.747 48.2042 273.044 48.1405C273.03 47.3602 272.964 46.6117 272.922 45.8328C272.921 45.785 272.902 45.7395 272.868 45.7057C272.834 45.6719 272.789 45.6523 272.741 45.651C271.842 45.6218 270.914 45.7837 270.01 45.8062C269.34 45.8222 268.669 45.8248 267.997 45.8142C267.777 45.8142 266.592 45.647 266.592 46.0663C266.592 46.7299 266.56 47.408 266.603 48.0728C266.188 48.1126 265.762 48.11 265.41 48.1206C262.858 48.1962 260.322 48.2414 257.797 48.6448C257.759 48.6437 257.721 48.6503 257.685 48.6642C257.649 48.6781 257.616 48.699 257.588 48.7256C257.561 48.7523 257.538 48.7842 257.523 48.8196C257.508 48.8549 257.5 48.8929 257.499 48.9314C257.379 49.4476 257.078 50.1257 257.078 50.6566C256.984 51.2006 256.913 51.7487 256.836 52.2955C256.673 53.4513 256.48 54.6032 256.215 55.7458C255.73 57.8199 255.579 59.9657 255.419 62.089C255.262 64.2574 255.362 66.4589 255.362 68.6326C255.362 69.8588 255.009 73.0119 256.821 73.2667C256.862 73.2721 256.903 73.2642 256.94 73.2442C256.976 73.2241 257.005 73.1929 257.022 73.1552C257.048 73.1579 257.073 73.1547 257.098 73.1459C257.717 72.9322 258.362 73.061 259.001 72.9973C259.585 72.9402 260.171 72.8818 260.756 72.8155C261.684 72.7106 262.604 72.5912 263.531 72.5315C264.641 72.4598 265.785 72.6084 266.892 72.6084C267.882 72.6084 268.844 72.5952 269.823 72.7292C270.803 72.8632 271.804 72.9123 272.761 73.1618C273.718 73.4113 274.616 73.6276 275.597 73.6356C276.269 73.6356 277.246 73.824 277.804 73.333C277.895 73.2635 277.971 73.1767 278.029 73.0777C278.086 72.9786 278.123 72.8692 278.138 72.7557C278.138 72.7557 278.884 72.3736 278.957 72.3178C279.227 72.1005 279.464 71.8452 279.661 71.5601C280.104 70.9417 280.373 70.1985 280.6 69.4753C281.09 67.9147 281.293 66.2838 281.61 64.682C282.088 62.2522 282.834 59.8782 283.211 57.4271C283.563 55.1499 284.261 52.4905 283.558 50.2425Z" fill="#FABE78"/>
<path d="M253.076 87.4951C253.076 87.4951 252.358 93.3421 252.134 96.243C251.814 100.399 251.011 112.863 250.866 126.076C250.572 152.782 251.153 186.244 251.153 186.244C251.153 186.244 253.433 189.487 257.78 189.125C262.128 188.763 263.816 187.4 263.816 187.4L272.151 81.0219L253.076 87.4951Z" fill="#7996C2"/>
<path d="M273.323 72.3974C275.362 71.2842 276.886 69.4183 277.572 67.1968C277.705 66.7854 277.057 66.6089 276.928 67.0189C276.29 69.073 274.875 70.7957 272.985 71.8188C272.608 72.0272 272.945 72.6044 273.323 72.3974Z" fill="#B58348"/>
<path d="M265.581 71.4486C258.699 71.4486 255.934 72.7451 255.934 72.7451C255.934 72.7451 254.501 77.0208 252.99 88.1282C260.708 89.2469 275.229 88.9244 283.044 88.7147C280.333 77.9856 278.139 72.7451 278.139 72.7451C274.007 71.8935 269.8 71.4592 265.581 71.4486Z" fill="#7996C2"/>
<path d="M257.793 48.6448C257.793 48.6448 253.613 48.8465 251.984 52.7148C250.355 56.5831 248.445 68.3221 248.445 68.3221C248.445 68.3221 257.869 66.9168 257.793 66.7297C257.718 66.5426 257.793 48.6448 257.793 48.6448Z" fill="#FABE78"/>
<path d="M281.053 48.3369C281.053 48.3369 283.245 48.0835 285.389 50.4841C287.924 53.3253 288.981 55.2972 288.981 55.2972C288.981 55.2972 289.221 51.8655 289.535 51.6943C289.961 51.4621 296.14 51.7859 296.171 51.9743C296.729 55.2097 296.569 62.9622 294.75 64.9342C293.839 65.9202 292.817 66.8637 291.502 67.2233C290.015 67.6105 288.438 67.4209 287.085 66.6925C283.171 64.6051 279.751 60.2113 279.751 60.2113L281.053 48.3369Z" fill="#FABE78"/>
<path d="M252.949 192.743C253.479 192.435 257.295 192.108 258.383 192.743C259.471 193.377 258.383 195.644 259.65 195.553C260.918 195.463 261.914 192.562 262.639 193.287C263.364 194.011 264.344 197.455 264.136 198.653C263.566 201.94 260.737 202.356 260.292 203.165C260.061 203.582 259.446 205.672 258.285 207.852C257.34 209.628 255.934 211.994 253.716 212.707C251.817 213.316 247.619 214.131 247.705 209.325C247.791 204.52 252.469 193.021 252.949 192.743Z" fill="#FCBBB9"/>
<path d="M268.012 49.5724C269.589 49.9141 271.23 49.8266 272.762 49.3189C273.169 49.1862 272.994 48.5373 272.584 48.6726C271.169 49.1508 269.651 49.2388 268.191 48.9274C267.77 48.8385 267.59 49.4848 268.012 49.5724Z" fill="#B58348"/>
<path d="M288.188 56.7344C287.699 57.3121 287.419 58.0375 287.393 58.794C287.375 59.2253 288.042 59.2717 288.055 58.8418C288.079 58.2004 288.323 57.5868 288.746 57.1046C289.027 56.7782 288.466 56.4106 288.189 56.7344H288.188Z" fill="#B58348"/>
<path d="M256.16 58.8496C255.872 61.3479 255.828 63.8683 256.028 66.3753C256.062 66.8026 256.73 66.8052 256.691 66.3753C256.491 63.8683 256.535 61.3479 256.823 58.8496C256.874 58.4223 256.204 58.4263 256.16 58.8496Z" fill="#B58348"/>
<path d="M280.763 59.4853C280.895 60.147 281.128 60.7847 281.452 61.3763C281.657 61.7545 282.235 61.4161 282.029 61.0379C281.735 60.4978 281.526 59.9161 281.408 59.3128C281.323 58.8908 280.679 59.0699 280.763 59.4906V59.4853Z" fill="#B58348"/>
<path d="M262.089 76.3547C264.825 76.0495 267.688 76.3122 270.428 76.4263C273.201 76.5418 276.008 76.6161 278.766 76.9572C279.192 77.0102 279.188 76.3401 278.766 76.2936C276.008 75.9539 273.199 75.8809 270.428 75.7628C267.688 75.6474 264.825 75.3846 262.089 75.6912C261.666 75.7376 261.661 76.4078 262.089 76.3547Z" fill="#3F5F8F"/>
<path d="M251.994 197.2C253.577 196.944 255.192 196.793 256.681 197.509C257.067 197.695 257.408 197.118 257.019 196.931C255.352 196.135 253.596 196.267 251.817 196.554C251.394 196.623 251.573 197.268 251.994 197.2Z" fill="#C4827F"/>
<path d="M250.866 200.458C251.96 200.367 253.061 200.465 254.122 200.747C254.538 200.859 254.716 200.217 254.299 200.102C253.182 199.801 252.02 199.695 250.866 199.789C250.44 199.824 250.436 200.494 250.866 200.453V200.458Z" fill="#C4827F"/>
<path d="M268.05 41.1788C267.955 41.1503 267.857 41.1333 267.758 41.1284C267.493 41.1098 267.215 41.1165 266.943 41.1284C266.73 41.1284 266.453 41.0727 266.28 41.2412C266.133 41.3885 266.269 41.6725 266.359 41.8158C266.723 42.3944 267.671 42.4979 268.111 41.9485C268.221 41.8158 268.355 41.6154 268.309 41.427C268.291 41.3668 268.257 41.3123 268.212 41.2688C268.167 41.2253 268.111 41.1943 268.05 41.1788Z" fill="white"/>
<path d="M265.636 92.7913C268.918 103.662 272.96 114.289 276.154 125.187C277.825 130.893 279.371 136.663 280.301 142.545C281.216 148.332 281.681 154.184 282.015 160.03C282.331 165.549 282.479 171.077 282.81 176.595C282.837 177.024 283.506 177.026 283.473 176.595C282.829 166.029 282.736 155.434 281.309 144.928C279.692 133.017 275.864 121.477 272.05 110.12C270.095 104.294 268.045 98.4976 266.269 92.6135C266.144 92.2021 265.498 92.3773 265.624 92.7913H265.636Z" fill="#3F5F8F"/>
<path d="M44.6433 100.951L39.6754 89.5587L46.6765 86.1469L52.893 96.9304L44.6433 100.951Z" fill="#D77B52"/>
<path d="M110.899 177.604L110.386 190.024H102.6L101.724 177.604H110.899Z" fill="#D77B52"/>
<path d="M90.0568 82.7509L107.393 80.6277C107.393 80.6277 111.536 98.2773 112.501 123.665C113.466 149.053 112.501 182.65 112.501 182.65C112.501 182.65 111.427 183.433 105.587 183.314C101.694 183.234 100.578 182.457 100.578 182.457C100.578 182.457 96.9996 136.426 94.7463 120.712C92.493 104.999 90.0568 82.7509 90.0568 82.7509Z" fill="#FFD4A1"/>
<path d="M82.6182 84.5027L99.5207 82.751C99.5207 82.751 102.172 101.392 95.8982 116.413C92.4758 124.607 84.0007 132.795 76.5223 133.818C55.3346 136.719 41.7524 98.2827 41.7524 98.2827C41.7524 98.2827 41.7524 96.1063 45.7368 93.9313C49.7212 91.7563 51.712 91.5745 51.712 91.5745C51.712 91.5745 63.6639 116.232 70.6359 114.782C77.6079 113.331 82.6182 84.5027 82.6182 84.5027Z" fill="#FFD4A1"/>
<path d="M71.2191 45.1068C71.208 45.0666 71.1943 45.0272 71.178 44.9887C70.0805 42.4682 68.9826 39.9469 67.8842 37.4246C67.8471 37.3397 67.8047 37.2494 67.7662 37.1592C68.2381 36.1692 68.1042 34.9032 67.6774 33.9146C67.5886 33.7115 67.4614 33.4634 67.2612 33.3493C67.2086 33.3213 67.1504 33.3055 67.0909 33.303C67.0314 33.3006 66.9721 33.3115 66.9174 33.3351C66.8627 33.3587 66.814 33.3942 66.7748 33.4392C66.7357 33.4841 66.7071 33.5373 66.6913 33.5948C66.6524 33.7137 66.6438 33.8405 66.6661 33.9637C66.6833 34.0645 66.7416 34.241 66.674 34.3353C66.6064 34.4295 66.5415 34.4242 66.4819 34.322C66.2472 33.9239 66.0285 33.5059 65.8191 33.0878C65.6349 32.7083 65.5063 32.2505 65.2465 31.9161C65.0412 31.654 64.7848 31.4365 64.4929 31.2768C64.201 31.1171 63.8797 31.0186 63.5486 30.9871C63.2172 30.9553 62.919 31.1716 62.7016 31.4012C62.0388 32.0992 61.9646 32.9591 62.0799 33.8628C62.3835 36.2409 63.2384 38.4836 64.088 40.709C64.4048 41.5358 64.7349 42.3585 65.0649 43.18C65.5951 44.507 66.0922 46.0822 66.9471 47.2381C66.9704 47.2687 67.0029 47.2911 67.0399 47.3018C67.0542 47.3276 67.0751 47.3493 67.1005 47.3644C67.1259 47.3796 67.1548 47.3877 67.1844 47.388H67.2241C67.2298 47.3886 67.2356 47.3886 67.2413 47.388C68.2381 47.3946 68.7842 46.6369 69.6497 46.2972C70.0474 46.1419 71.1197 45.7757 71.231 45.2687C71.241 45.2146 71.2369 45.1589 71.2191 45.1068Z" fill="#D77B52"/>
<path d="M62.3053 33.2856C62.5423 33.9311 62.849 34.5487 63.2198 35.1276C63.4518 35.4899 64.0297 35.1541 63.7964 34.7905C63.455 34.2616 63.1715 33.6975 62.9508 33.1078C62.801 32.7097 62.1555 32.8809 62.3053 33.2856Z" fill="#A8522C"/>
<path d="M63.0926 32.3155C63.4098 32.9578 63.7328 33.5961 64.0615 34.2304C64.259 34.6126 64.8369 34.2742 64.6381 33.892C64.3094 33.2577 63.9868 32.6198 63.6705 31.9784C63.4796 31.5923 62.903 31.9307 63.0926 32.3155Z" fill="#A8522C"/>
<path d="M64.3996 32.3156C64.7084 32.8225 64.9231 33.3772 65.1948 33.908C65.3884 34.2929 65.9649 33.9545 65.7714 33.571C65.5063 33.0402 65.2916 32.4868 64.9828 31.9785C64.7588 31.6109 64.1795 31.9467 64.4049 32.3156H64.3996Z" fill="#A8522C"/>
<path d="M66.1174 36.7784C66.0689 36.4324 66.0783 36.0808 66.1452 35.738C66.2314 35.3173 65.5872 35.1368 65.501 35.5602C65.4156 35.9605 65.3982 36.3723 65.4493 36.7784C65.452 36.8664 65.488 36.95 65.55 37.0124C65.612 37.0748 65.6955 37.1111 65.7833 37.1141C65.872 37.1138 65.957 37.0782 66.0196 37.0153C66.0822 36.9524 66.1174 36.8672 66.1174 36.7784Z" fill="#A8522C"/>
<path d="M95.8465 50.0739C95.364 49.3905 94.8431 48.7283 94.5555 47.9348C94.3659 47.4159 94.2904 46.8373 94.0637 46.3423C94.0523 46.3144 94.0325 46.2908 94.0071 46.2747C93.9817 46.2585 93.952 46.2506 93.9219 46.2521C93.9069 46.2184 93.88 46.1915 93.8464 46.1764C92.847 45.7027 91.3982 46.1459 90.4598 46.5745C89.288 47.1133 88.5206 48.3289 87.6763 49.2525C87.4019 49.5511 87.0559 49.916 86.9048 50.2969C86.6967 50.8277 86.8187 51.4793 86.877 52.022C86.9645 52.8501 87.2455 53.6503 87.435 54.4585C87.5411 54.9057 87.557 55.4033 87.7796 55.8134C87.798 55.8507 87.8301 55.8793 87.8692 55.8932C87.9084 55.9071 87.9514 55.9051 87.9891 55.8877C88.0148 55.8994 88.043 55.9049 88.0713 55.9036C88.3393 55.8683 88.6118 55.9145 88.8533 56.0363C89.0193 56.1317 89.1978 56.2035 89.3835 56.25C90.6347 56.5645 92.452 56.3163 93.3904 55.3688C93.7416 55.0145 93.9789 54.554 94.3606 54.2329C94.8524 53.8188 95.5138 53.6914 96.1288 53.5057C96.435 53.4128 96.8234 53.4234 96.8645 53.1938C97.0249 52.2304 96.2985 50.7122 95.8465 50.0739Z" fill="#5C2A2A"/>
<path d="M85.9664 48.3859C86.0989 49.4701 86.4966 50.6578 86.8518 51.6943C87.2654 52.8952 87.8472 54.27 88.9169 55.0118C90.1324 55.8545 92.0053 55.6754 93.1584 54.8009C94.4919 53.787 94.2188 52.1468 93.9537 50.703C93.7257 49.4104 93.4991 48.0688 93.0842 46.82C92.1696 44.0744 88.6094 44.5919 86.8412 46.0822C86.0234 46.7762 85.8643 47.5459 85.9664 48.3859Z" fill="#D77B52"/>
<path d="M92.4811 54.1719C92.4811 54.1719 92.4652 55.1844 92.4811 56.5287C92.497 57.873 92.4745 59.0819 92.4745 59.0819L88.1799 59.2332C88.1799 59.2332 88.2396 58.1463 88.1799 55.7829C88.1203 53.4194 88.1799 53.7286 88.1799 53.7286L92.4811 54.1719Z" fill="#D77B52"/>
<path d="M84.9272 59.6035C86.9553 59.0368 89.0106 58.5731 91.0854 58.2141C93.0238 57.8888 94.9781 57.6673 96.94 57.5505L97.3629 69.9371L96.8194 76.222L91.145 71.2642L84.9272 59.6035Z" fill="#D77B52"/>
<path d="M48.4329 98.0902C50.7736 102.714 53.1264 107.345 55.9178 111.716C58.358 115.538 61.2701 119.909 64.947 122.652C66.2022 123.589 68.0141 124.128 69.3502 123.016C69.8605 122.593 70.1455 121.964 70.449 121.393C70.8467 120.645 70.9699 120.308 71.858 120.143C72.5857 120.01 72.8534 120.187 73.5268 120.227C75.1585 120.323 76.2387 118.9 76.916 117.594C78.109 115.29 79.0143 112.782 79.9646 110.371C82.3956 104.192 84.5177 97.8965 86.6397 91.609C86.7723 91.1989 86.1321 91.0237 85.9942 91.4298C83.9411 97.5183 81.8853 103.608 79.5537 109.594C78.8645 111.364 78.1487 113.121 77.4065 114.867C76.8763 116.103 76.4084 117.535 75.5057 118.565C73.939 120.351 71.7414 118.3 70.3205 120.265C69.3926 121.548 69.0997 123.352 66.9378 122.919C65.4321 122.613 64.2591 121.194 63.2451 120.132C61.1686 117.938 59.2798 115.573 57.5985 113.062C54.3127 108.212 51.6538 102.976 49.0121 97.7585C48.8172 97.375 48.2407 97.7134 48.4342 98.0969L48.4329 98.0902Z" fill="#CC995C"/>
<path d="M93.2565 44.8627C92.8244 44.4274 92.2823 44.1726 91.7083 43.9736C91.0947 43.7599 90.5379 43.8263 89.9229 43.9019C89.5491 43.7491 89.1489 43.6717 88.7451 43.6743C88.3414 43.6768 87.9421 43.7591 87.5702 43.9165C86.852 44.1095 86.1962 44.4859 85.6668 45.0087C84.7536 45.8964 84.1253 46.191 83.8629 47.4332C83.676 48.3156 83.6813 49.2844 83.558 50.1987C83.3287 51.9106 82.0827 53.4141 82.3836 55.2136C82.3971 55.3287 82.439 55.4386 82.5056 55.5334C82.6885 55.7617 83.1087 55.7723 83.3738 55.8094C83.7477 55.8598 84.1055 55.9935 84.4209 56.2009C85.1393 56.6548 85.9624 57.0489 86.8359 56.9215C87.1355 56.8777 87.4112 56.7291 87.6975 56.6375C87.8404 56.5823 87.9911 56.5496 88.1441 56.5406C88.2767 56.5406 88.4397 56.6296 88.5603 56.5566C88.8254 56.392 88.5829 55.694 88.5723 55.4445C88.5511 54.9588 88.5723 54.4625 88.4119 53.9967C88.2131 53.4393 87.8035 52.9948 87.5437 52.4719C87.5307 52.4419 87.5082 52.417 87.4798 52.4009C87.4513 52.3849 87.4184 52.3786 87.386 52.383C87.3691 52.2601 87.3777 52.1351 87.4113 52.0157C87.4448 51.8963 87.5025 51.7851 87.5808 51.689C87.5424 51.4448 87.4072 51.8854 87.3873 51.6412C87.6299 51.4687 88.0871 50.7123 88.1534 50.6446C88.7234 50.0143 91.4446 46.5918 91.5002 46.5308C91.5069 46.5423 91.5149 46.553 91.5241 46.5626C91.7362 46.7471 93.3546 49.1012 93.6144 49.2101C93.8742 49.3189 93.515 46.9329 93.7695 46.905L94.134 46.9382C94.0558 45.9084 94.0319 45.6523 93.2565 44.8627Z" fill="#5C2A2A"/>
<path d="M87.5994 51.3267C87.5142 51.202 87.3982 51.1014 87.2627 51.0347C86.9101 50.8702 86.5708 51.0998 86.4674 51.4448C86.3865 51.6892 86.3938 51.9543 86.4881 52.1938C86.5823 52.4334 86.7574 52.6323 86.983 52.7559C87.2879 52.9284 87.72 52.8886 87.8234 52.4998C87.8685 52.2993 87.872 52.0917 87.8334 51.8899C87.7949 51.688 87.7152 51.4963 87.5994 51.3267Z" fill="#D77B52"/>
<path d="M93.4023 49.6056C93.437 49.4566 93.5101 49.3193 93.6144 49.2075C93.8861 48.9288 94.2851 49.0243 94.5011 49.311C94.6629 49.5112 94.7494 49.7619 94.7456 50.0195C94.7417 50.277 94.6477 50.525 94.4799 50.7203C94.2572 50.9857 93.8358 51.0972 93.6038 50.7773C93.4923 50.6061 93.4169 50.4138 93.3822 50.2123C93.3476 50.0108 93.3544 49.8043 93.4023 49.6056Z" fill="#D77B52"/>
<path d="M103.097 56.3827C100.743 56.1744 95.9897 57.1591 95.8067 57.1869C95.4528 57.24 94.9836 57.0662 94.6363 57.0064C94.464 56.9759 94.1353 56.8538 93.963 56.9016C93.9246 56.9106 93.8893 56.9299 93.8609 56.9573C93.8026 57.0197 93.8159 57.1166 93.8225 57.2228C93.8344 57.4218 93.8517 57.6209 93.8676 57.8186C93.9193 58.4529 93.9776 59.0859 94.0372 59.7202C94.2056 61.533 94.3845 63.347 94.5674 65.1611C94.7442 66.9367 94.9209 68.7118 95.0976 70.4865C95.1546 71.0717 95.2116 71.6583 95.2646 72.2449C95.2819 72.4267 95.254 72.7053 95.2275 72.6576C94.5939 71.5362 93.8132 70.241 93.2035 69.1077C92.3048 67.4489 91.4106 65.7848 90.5207 64.1154C89.7255 62.6203 88.9302 61.1247 88.1349 59.6287L87.3953 58.2366C87.3475 58.1053 87.2819 57.9812 87.2004 57.8677C87.0427 57.7257 86.8346 57.8677 86.6702 57.9287L85.3606 58.3919L84.2578 57.7576C83.9411 57.5771 82.8555 56.8512 81.9489 56.4889C81.0422 56.1266 79.9116 56.0815 79.5047 56.262C79.0978 56.4425 78.4443 76.8789 78.207 80.6251C77.9698 84.3713 76.8179 104.61 77.0605 105.093C77.2726 105.519 94.1207 103.473 98.8779 102.649C101.77 102.82 112.389 102.491 112.493 101.543C112.619 100.459 105.383 56.5858 103.097 56.3827Z" fill="#51917F"/>
<path d="M87.7372 44.2032C87.5119 43.4879 86.5443 42.49 85.7782 42.3533C84.8066 42.1821 83.9225 42.8695 84.0551 43.8953C84.1134 44.3903 84.4143 44.734 84.792 45.0392C85.0202 45.2048 85.2578 45.3568 85.5038 45.4944C85.7106 45.6271 85.9412 45.8487 86.201 45.8753C86.8638 45.9456 87.781 45.079 87.671 44.3956C87.7013 44.375 87.7241 44.3451 87.7361 44.3104C87.748 44.2757 87.7484 44.2381 87.7372 44.2032Z" fill="#5C2A2A"/>
<path d="M70.2502 41.5942C70.6107 41.9379 73.088 46.0053 73.9324 46.8519C74.7767 47.6986 74.717 49.5976 75.2578 50.4349C75.7986 51.2723 77.1692 51.9331 77.6026 52.3551C78.036 52.7771 78.1553 54.5315 78.5185 55.0092C78.8817 55.487 79.6346 56.384 79.6346 56.384L82.7428 75.7389L79.9063 85.9571C79.9063 85.9571 64.4486 46.7312 64.5692 46.3689C64.6898 46.0066 65.7396 43.89 67.1048 42.7421C68.7922 41.3221 69.8883 41.2545 70.2502 41.5942Z" fill="#51917F"/>
<path d="M101.151 56.4769C101.151 56.4769 105.195 55.2666 106.221 55.5612C107.247 55.8558 110.024 61.4772 111.895 68.6697C113.767 75.8623 114.732 81.542 114.732 81.542L107.941 82.751L101.151 56.4769Z" fill="#51917F"/>
<path d="M104.808 70.046C105.226 71.8478 105.77 73.618 106.436 75.3435C106.588 75.7416 107.231 75.5678 107.08 75.1657C106.413 73.4398 105.868 71.6692 105.45 69.8668C105.353 69.4475 104.707 69.6253 104.805 70.046H104.808Z" fill="#1B5C49"/>
<path d="M101.232 188.651C101.249 188.377 101.208 188.261 101.429 188.301C103.041 188.587 104.674 188.731 106.311 188.731C107.14 188.731 109.979 188.8 111.473 188.618C111.663 188.596 111.86 188.57 111.856 188.637C111.67 191.786 111.793 194.286 111.793 197.435C111.793 197.7 120.165 212.55 119.848 213.865C119.531 215.18 106.311 206.613 106.311 206.159C106.311 205.705 104.954 201.338 104.323 201.78C103.692 202.222 104.141 205.21 103.915 205.21C103.688 205.21 102.059 204.666 101.926 204.486C101.794 204.305 101.203 201.266 101.248 195.691C101.248 194.797 101.216 188.902 101.232 188.651Z" fill="#FABE78"/>
<path d="M48.7218 87.162C48.8292 87.4168 48.918 87.5017 48.7019 87.5601C47.1309 88.0284 45.6038 88.6337 44.1383 89.3688C43.3973 89.7391 40.8246 90.952 39.5747 91.7841C39.4143 91.8902 39.2499 91.999 39.2234 91.938C37.9814 89.0397 36.7527 86.8594 35.3451 84.0434C35.2231 83.8006 23.2633 70.4546 22.9585 69.1368C22.6536 67.8191 37.9085 73.7854 38.1166 74.1835C38.3247 74.5817 40.2957 77.9258 40.6655 77.249C41.0353 76.5722 40.4853 74.0641 40.6881 73.9593C40.8909 73.8544 42.5915 73.6129 42.7929 73.7138C42.9944 73.8146 43.8798 75.5716 45.5658 80.8731C45.8362 81.7238 48.6237 86.9311 48.7218 87.162Z" fill="#FABE78"/>
<path d="M84.8914 58.8497C84.3798 60.7686 84.0272 62.7234 83.5143 64.6409C83.4639 64.8334 83.615 65.0881 83.8377 65.0643C85.0478 64.9395 86.197 64.6476 87.378 64.3556L87.052 63.7956C86.0088 64.7789 84.7907 65.883 84.0034 67.092C83.9667 67.1561 83.9519 67.2304 83.9613 67.3037C83.9706 67.377 84.0035 67.4452 84.0551 67.498C85.0584 68.427 86.7378 69.0003 87.9321 69.6346C90.3418 70.9138 92.7621 72.1759 95.2037 73.3941C95.588 73.5852 95.9274 73.0079 95.5417 72.8155C92.5249 71.312 89.5372 69.7461 86.5695 68.1483C86.1042 67.8975 85.6417 67.648 85.1777 67.3906C85.0227 67.3043 84.8649 67.2034 84.7045 67.1252C84.3188 66.9367 84.8199 67.0668 84.6383 67.3534C85.3553 66.2228 86.5629 65.181 87.5318 64.2694C87.7823 64.0332 87.5199 63.6324 87.2057 63.7107C86.0844 63.988 84.9975 64.276 83.8443 64.3954L84.1664 64.8188C84.678 62.9012 85.0319 60.9465 85.5436 59.0276C85.6549 58.6109 85.0134 58.433 84.8981 58.8497H84.8914Z" fill="#1B5C49"/>
<path d="M95.8319 57.9937C97.0342 59.0795 98.2986 60.0942 99.6188 61.0327V60.4554C98.8964 60.8893 98.2045 61.3644 97.4543 61.7506C97.2436 61.8594 97.229 62.2244 97.4543 62.3292C98.6936 62.9011 99.9873 63.3311 101.227 63.9031L101.107 63.4452C99.0528 66.5412 96.6418 69.4169 95.1612 72.8553C94.9929 73.2534 95.5682 73.5878 95.7391 73.1937C97.2197 69.7553 99.6307 66.8783 101.684 63.7823C101.728 63.7057 101.741 63.6145 101.719 63.5288C101.696 63.443 101.641 63.3696 101.565 63.3245C100.325 62.7525 99.0303 62.3225 97.7923 61.7506V62.3292C98.5425 61.943 99.2344 61.4679 99.9568 61.0327C100.006 61.0024 100.047 60.96 100.075 60.9095C100.104 60.8589 100.118 60.802 100.118 60.744C100.118 60.6861 100.104 60.6291 100.075 60.5786C100.047 60.5281 100.006 60.4856 99.9568 60.4554C98.684 59.5484 97.4647 58.5683 96.3051 57.52C95.9857 57.232 95.5098 57.7045 95.8319 57.9937Z" fill="#1B5C49"/>
<path d="M69.3542 49.9757C70.6257 50.5357 71.9937 50.8435 73.3823 50.8821C73.8131 50.894 73.8131 50.2186 73.3823 50.2119C72.1108 50.1817 70.8572 49.905 69.6908 49.3971C69.2998 49.2273 68.9592 49.8045 69.3542 49.9757Z" fill="#1B5C49"/>
<path d="M74.5633 56.112C75.3764 56.2951 76.2197 56.2978 77.034 56.1199C77.4542 56.0297 77.2766 55.3834 76.8564 55.475C76.1573 55.6272 75.4335 55.6245 74.7356 55.467C74.3168 55.3728 74.1378 56.0191 74.558 56.112H74.5633Z" fill="#1B5C49"/>
<path d="M76.745 71.4579C79.1683 75.0503 80.9381 79.0433 81.9727 83.2527C82.0761 83.672 82.7216 83.4942 82.6182 83.0748C81.5697 78.8088 79.7771 74.7615 77.3229 71.1195C77.0844 70.7652 76.5038 71.0996 76.745 71.4579Z" fill="#1B5C49"/>
<path d="M95.0366 73.1511C95.4785 74.7622 95.8761 76.3838 96.2296 78.0161C96.321 78.4367 96.9665 78.2589 96.8737 77.8382C96.5203 76.2077 96.1226 74.5861 95.6808 72.9733C95.5681 72.5579 94.9226 72.7344 95.0366 73.1511Z" fill="#1B5C49"/>
<path d="M92.7237 52.6855C92.7634 52.1255 92.0265 52.383 91.7508 52.4984C91.4751 52.6139 90.2755 53.0292 90.9687 53.4685C91.2749 53.6645 91.6457 53.7322 92.0013 53.6569C92.2823 53.5773 92.6972 53.0531 92.7237 52.6855Z" fill="white"/>
<path d="M102.469 189.302C102.357 190.396 102.071 195.161 104.059 195.074C104.881 195.04 105.153 193.921 105.329 193.303C105.695 192.022 105.772 190.683 105.778 189.359C105.778 188.927 105.116 188.926 105.116 189.359C105.125 190.196 105.073 191.033 104.962 191.863C104.889 192.339 104.748 193.887 104.31 194.156L103.631 194.023C103.494 193.744 103.394 193.448 103.333 193.143C103.217 192.66 103.141 192.168 103.106 191.672C103.045 190.884 103.058 190.093 103.146 189.308C103.19 188.88 102.52 188.882 102.483 189.308L102.469 189.302Z" fill="#B58348"/>
<path d="M42.2415 89.1619C41.9764 88.6085 40.02 84.0276 41.8572 84.5518C42.4775 84.7296 43.1826 85.8642 43.5047 86.3499C43.8798 86.9219 44.1953 87.531 44.5121 88.1348C44.7122 88.517 45.2901 88.1786 45.09 87.7977C44.5134 86.6976 42.7399 82.966 40.9532 83.8166C40.199 84.1762 40.3541 85.2325 40.4415 85.904C40.6046 87.1727 41.1202 88.3537 41.665 89.499C41.8492 89.8878 42.4258 89.5494 42.2415 89.1619Z" fill="#B58348"/>
<path d="M98.4179 114.244C99.7328 131.445 101.166 148.637 102.605 165.828C102.926 169.66 103.252 173.492 103.583 177.323C103.62 177.749 104.288 177.752 104.246 177.323C102.746 160.137 101.363 142.94 99.9873 125.744C99.6798 121.91 99.378 118.077 99.082 114.244C99.0489 113.817 98.3795 113.813 98.4193 114.244H98.4179Z" fill="#CC995C"/>
<path d="M269.808 133.797C269.561 134.087 269.129 134.134 268.615 134.163L267.538 134.226L264.575 134.394L255.715 134.9L243.537 135.594L228.755 136.436L212.08 137.387L194.227 138.404L175.909 139.449L157.838 140.479L140.726 141.454L125.287 142.335L112.235 143.078L102.28 143.646L96.1381 143.996C95.771 144.018 95.4091 144.103 95.0406 144.099C94.4455 144.091 94.4362 143.924 94.3991 143.259C94.3019 141.568 94.2056 139.878 94.1101 138.189L93.5335 128.052L92.3857 107.776L91.2325 87.5018C91.0911 85.0016 90.9489 82.501 90.8057 80C90.4505 73.7496 90.2755 75.9791 99.0436 74.7555C102.665 74.2513 106.334 74.3402 109.984 74.1318L141.116 72.3576L216.64 68.0513L264.644 65.315L265.571 65.2619C266.152 65.2287 266.182 65.4132 266.216 65.9997C266.229 66.2479 266.243 66.4947 266.257 66.7429L266.38 68.8927C266.504 71.0796 266.629 73.2675 266.752 75.4562C266.92 78.3978 267.088 81.3399 267.255 84.2824C267.448 87.6743 267.641 91.0671 267.834 94.4608L268.438 105.077L269.015 115.236C269.182 118.165 269.349 121.093 269.515 124.021L269.884 130.523C269.93 131.301 269.974 132.079 270.017 132.859C270.047 133.319 269.967 133.61 269.808 133.797Z" fill="#FFF1E8"/>
<path d="M263.022 86.1429C263.438 93.4452 263.853 100.749 264.268 108.054C264.473 111.653 264.677 115.251 264.882 118.849C264.978 120.535 265.074 122.222 265.17 123.909L265.313 126.431C265.378 127.557 265.843 128.77 264.418 129.269C263.827 129.476 262.887 129.357 262.259 129.392L259.91 129.525L254.053 129.86L243.38 130.469L221.377 131.723L133.006 136.765C127.589 137.074 122.171 137.387 116.755 137.702L113.167 137.911C112.268 137.962 110.913 138.302 110.042 138.091C109.172 137.88 109.414 136.919 109.38 136.111C109.356 135.193 109.209 134.281 108.944 133.401C108.582 132.333 107.987 131.359 107.201 130.55C106.416 129.741 105.46 129.117 104.404 128.725C103.384 128.366 102.295 128.249 101.223 128.385C100.352 128.486 99.367 129.049 98.52 129.049C97.9341 129.049 97.9686 129.065 97.8453 128.385C97.7433 127.828 97.7777 127.205 97.7459 126.64L97.4954 122.246L96.9904 113.37C96.6237 106.923 96.257 100.477 95.8902 94.0308C95.6817 90.3779 95.474 86.7237 95.2673 83.0682C95.2142 82.1472 94.745 80.2071 95.7034 79.647C96.1408 79.3909 96.8963 79.4546 97.3788 79.4254C98.4391 79.3631 99.5075 79.3166 100.569 79.2211C103.944 78.9212 107.272 78.6053 110.663 78.4885C118.142 78.2231 125.621 77.6724 133.094 77.2464L222.34 72.1586L233.505 71.5216C233.934 71.4977 233.936 70.8275 233.505 70.8581L139.705 76.206C125.459 77.0182 111.207 77.7202 96.9957 78.7858C96.2309 78.8429 95.258 78.8495 94.7835 79.5608C94.2056 80.4287 94.5343 81.9495 94.5886 82.8996C95.026 90.5372 95.4603 98.1743 95.8916 105.811L96.9135 123.772L97.1402 127.754C97.1693 128.26 96.9824 129.354 97.4715 129.718C97.7671 129.937 98.1422 129.824 98.4683 129.759C99.6228 129.53 100.633 129.047 101.839 129.008C105.467 128.89 108.269 131.81 108.655 135.285C108.75 136.142 108.367 138.143 109.303 138.675C109.76 138.941 110.55 138.722 111.04 138.694L114.916 138.468L123.071 137.994C152.854 136.264 182.64 134.565 212.428 132.897L258.609 130.264L263.39 129.991C264.213 129.945 265.437 130.102 265.928 129.282C266.449 128.412 266.001 126.761 265.946 125.796C265.839 123.906 265.731 122.015 265.623 120.123L264.327 97.3206L263.691 86.1416C263.667 85.7129 262.997 85.7103 263.028 86.1416L263.022 86.1429Z" fill="#FABE78"/>
<path d="M251.361 76.5591C251.291 76.0166 251.165 75.4829 250.984 74.9666C249.363 70.4242 243.959 68.9538 239.823 70.8727C235.733 72.7677 233.599 78.1993 236.18 82.1247C237.339 83.8857 239.229 85.0999 241.278 85.6082C243.957 86.2717 247.343 85.6321 249.329 83.603C251.007 81.8898 251.687 79.0181 251.361 76.5591Z" fill="#FABE78"/>
<path d="M261.138 78.0719C260.578 76.8258 259.658 75.7629 258.427 75.1604C255.423 73.6887 251.565 74.3177 249.452 77.0182C247.899 78.9982 247.616 81.9442 248.922 84.0967C250.367 86.4774 253.332 87.8429 256.08 87.4143C260.507 86.7309 262.975 82.1565 261.138 78.0719Z" fill="#51917F"/>
<path d="M115.24 106.915C117.948 104.503 119.18 101.111 120.18 97.7147L119.517 97.6258C119.77 103.164 119.934 108.704 120.112 114.244C120.127 114.674 120.796 114.676 120.775 114.244C120.596 108.704 120.431 103.164 120.178 97.6258C120.176 97.5461 120.146 97.4697 120.093 97.4103C120.04 97.3509 119.967 97.3124 119.888 97.3017C119.809 97.291 119.729 97.3088 119.662 97.3519C119.595 97.395 119.545 97.4606 119.522 97.5369C118.553 100.828 117.38 104.102 114.75 106.441C114.428 106.728 114.903 107.2 115.224 106.915H115.24Z" fill="#96523F"/>
<path d="M135.603 97.2025C134.151 96.3823 132.297 96.2218 131.045 97.5501C129.726 98.9502 129.968 102.168 130.058 103.867C130.191 106.481 130.769 115.959 135.686 113.456C137.246 112.66 137.382 110.696 137.462 109.131C137.595 106.509 137.368 103.749 137.016 101.15C136.751 99.2196 136.723 97.3949 134.588 96.6955C133.088 96.2045 131.242 96.7022 130.667 98.2734C130.518 98.6794 131.164 98.8533 131.311 98.4525C131.819 97.0684 133.729 96.8826 134.859 97.5369C136.032 98.215 135.999 98.8758 136.165 99.9614C136.389 101.432 136.551 102.897 136.647 104.382C136.73 105.624 136.809 106.874 136.813 108.12C136.813 109.422 136.911 111.585 135.861 112.55C133.551 114.673 131.974 111.386 131.565 109.54C131.185 107.884 130.919 106.204 130.77 104.512C130.638 102.852 130.541 100.929 130.982 99.2992C131.548 97.221 133.444 96.7513 135.266 97.7797C135.641 97.992 135.978 97.4135 135.603 97.2025Z" fill="#96523F"/>
<path d="M146.366 96.5867C144.908 95.7679 143.06 95.606 141.807 96.9357C140.489 98.3357 140.731 101.554 140.821 103.252C140.954 105.867 141.532 115.344 146.451 112.842C148.009 112.045 148.145 110.08 148.225 108.517C148.358 105.895 148.131 103.134 147.78 100.536C147.515 98.6051 147.486 96.7804 145.35 96.0811C143.851 95.5901 142.005 96.0811 141.43 97.6589C141.281 98.0637 141.927 98.2388 142.074 97.8368C142.582 96.454 144.492 96.2682 145.622 96.9224C146.795 97.5992 146.762 98.2601 146.928 99.3469C147.152 100.817 147.314 102.282 147.41 103.766C147.492 105.009 147.572 106.259 147.576 107.506C147.576 108.807 147.674 110.97 146.624 111.935C144.314 114.058 142.737 110.771 142.328 108.926C141.948 107.27 141.682 105.59 141.533 103.897C141.401 102.237 141.304 100.314 141.745 98.6847C142.311 96.6066 144.207 96.1368 146.029 97.1653C146.404 97.3776 146.741 96.799 146.366 96.5867Z" fill="#96523F"/>
<path d="M157.069 95.9763C155.611 95.1575 153.763 94.9956 152.511 96.324C151.185 97.724 151.433 100.942 151.525 102.642C151.657 105.255 152.234 114.733 157.152 112.23C158.711 111.434 158.848 109.47 158.929 107.906C159.061 105.284 158.835 102.524 158.482 99.9242C158.217 97.9934 158.188 96.1701 156.052 95.4694C154.553 94.9784 152.708 95.4773 152.132 97.0485C151.983 97.4533 152.63 97.6285 152.777 97.2264C153.283 95.8436 155.193 95.6578 156.325 96.3107C157.498 96.9888 157.464 97.6497 157.63 98.7365C157.855 100.206 158.017 101.672 158.113 103.156C158.194 104.398 158.275 105.649 158.278 106.895C158.278 108.197 158.376 110.359 157.327 111.324C155.017 113.447 153.439 110.161 153.03 108.315C152.649 106.66 152.383 104.979 152.235 103.287C152.102 101.626 152.006 99.704 152.447 98.0744C153.012 95.9949 154.907 95.5264 156.73 96.5549C157.105 96.7659 157.443 96.1886 157.068 95.9763H157.069Z" fill="#96523F"/>
<path d="M174.129 95.0009C172.671 94.1821 170.824 94.0203 169.571 95.3499C168.245 96.75 168.495 99.968 168.585 101.667C168.717 104.281 169.295 113.759 174.213 111.256C175.772 110.46 175.908 108.496 175.989 106.931C176.121 104.309 175.895 101.549 175.542 98.9502C175.277 97.0194 175.248 95.1947 173.113 94.4953C171.614 94.0043 169.768 94.502 169.193 96.0732C169.045 96.4713 169.69 96.6531 169.837 96.251C170.344 94.8682 172.255 94.6824 173.386 95.3367C174.559 96.0148 174.524 96.6743 174.69 97.7612C174.915 99.2315 175.077 100.697 175.174 102.18C175.255 103.424 175.335 104.674 175.338 105.92C175.338 107.222 175.436 109.385 174.388 110.349C172.077 112.473 170.499 109.186 170.092 107.34C169.711 105.684 169.445 104.004 169.297 102.312C169.164 100.651 169.067 98.722 169.509 97.099C170.073 95.0208 171.969 94.5511 173.791 95.5795C174.168 95.7918 174.504 95.2133 174.129 95.0009Z" fill="#96523F"/>
<path d="M184.892 94.3865C183.434 93.5677 181.586 93.4058 180.334 94.7355C179.008 96.1355 179.258 99.3523 179.348 101.052C179.487 103.666 180.058 113.143 184.976 110.64C186.534 109.844 186.671 107.88 186.752 106.317C186.884 103.694 186.658 100.934 186.305 98.3358C186.04 96.4036 186.011 94.5802 183.875 93.8809C182.376 93.3886 180.531 93.8875 179.956 95.4587C179.808 95.8569 180.453 96.0387 180.6 95.6366C181.108 94.2538 183.018 94.068 184.149 94.7209C185.322 95.399 185.287 96.0599 185.453 97.1467C185.678 98.6158 185.84 100.082 185.937 101.566C186.019 102.808 186.098 104.059 186.101 105.305C186.101 106.607 186.199 108.77 185.151 109.735C182.84 111.858 181.262 108.571 180.855 106.725C180.473 105.07 180.208 103.39 180.059 101.697C179.927 100.036 179.83 98.1075 180.272 96.4845C180.837 94.4051 182.732 93.9366 184.554 94.9651C184.931 95.1761 185.267 94.5988 184.892 94.3865Z" fill="#96523F"/>
<path d="M195.59 93.776C194.132 92.9572 192.283 92.7953 191.032 94.1237C189.706 95.5237 189.954 98.7418 190.044 100.44C190.177 103.055 190.755 112.532 195.674 110.03C197.232 109.233 197.369 107.269 197.448 105.705C197.581 103.083 197.354 100.324 197.003 97.7239C196.738 95.7931 196.709 93.9697 194.573 93.2691C193.074 92.7781 191.229 93.277 190.653 94.8482C190.504 95.2463 191.151 95.4268 191.298 95.0261C191.804 93.6433 193.715 93.4575 194.845 94.1104C196.02 94.7885 195.985 95.4494 196.151 96.5349C196.375 98.0053 196.536 99.4716 196.635 100.955C196.715 102.197 196.795 103.449 196.799 104.694C196.799 105.995 196.897 108.158 195.847 109.123C193.537 111.246 191.96 107.959 191.551 106.115C191.17 104.459 190.904 102.778 190.756 101.085C190.623 99.4252 190.525 97.5023 190.967 95.874C191.533 93.7946 193.428 93.3261 195.251 94.3532C195.626 94.5656 195.964 93.987 195.589 93.776H195.59Z" fill="#96523F"/>
<path d="M109.724 89.4949L131.682 88.2409L166.654 86.2503L174.642 85.7938C175.07 85.7686 175.073 85.0998 174.642 85.1237L152.684 86.3777L117.713 88.3696L109.724 88.8248C109.296 88.85 109.293 89.5202 109.724 89.4883V89.4949Z" fill="#96523F"/>
<path d="M195.928 103.511C191.341 107.851 189.509 115.025 192.046 120.923C194.86 127.467 201.821 130.7 208.7 129.856C215.146 129.059 221.747 125.188 223.403 118.536C225.024 112.019 222.04 105.082 216.269 101.714C210.201 98.1725 201.283 98.9701 195.928 103.511C195.599 103.791 196.074 104.262 196.401 103.985C200.868 100.196 208.108 99.1691 213.572 101.174C216.494 102.256 218.997 104.241 220.719 106.841C222.44 109.441 223.291 112.523 223.148 115.639C222.833 122.382 217.63 126.968 211.424 128.644C204.872 130.41 197.667 128.635 193.795 122.78C189.898 116.881 191.383 108.73 196.397 103.988C196.71 103.692 196.237 103.218 195.924 103.514L195.928 103.511Z" fill="#93B5E6"/>
<path d="M200.615 108.132C197.88 110.786 196.79 115.051 198.42 118.598C200.203 122.476 204.419 124.254 208.515 123.628C212.27 123.055 215.99 120.708 216.859 116.802C217.263 114.944 217.073 113.006 216.317 111.262C215.56 109.519 214.275 108.057 212.644 107.085C209.021 104.948 203.832 105.483 200.615 108.132C200.284 108.405 200.758 108.876 201.088 108.606C204.435 105.848 210.071 105.632 213.44 108.461C217.032 111.476 217.508 117.32 213.899 120.523C210.377 123.646 204.302 124.151 200.789 120.788C197.275 117.425 197.732 111.873 201.088 108.61C201.398 108.308 200.925 107.835 200.615 108.136V108.132Z" fill="#93B5E6"/>
<path d="M213.359 125.736C213.816 119.016 215.559 112.447 218.494 106.386H217.916C219.382 109.694 218.15 113.432 219.267 116.836C219.347 117.079 219.756 117.201 219.878 116.916C220.794 114.76 221.811 112.653 222.927 110.596L222.316 110.517C222.647 111.731 223.066 112.919 223.571 114.072C223.646 114.243 223.884 114.267 224.03 114.191C224.521 113.936 224.789 113.638 225.09 113.165C225.25 112.909 225.355 112.502 225.568 112.288C226.221 111.749 226.767 111.655 227.207 112.008C227.313 112.092 227.421 112.17 227.533 112.247C228.608 112.125 228.914 111.335 229.864 110.787C230.748 110.275 231.609 110.689 232.531 110.49C233.186 110.349 233.659 109.781 234.122 109.341C235.822 107.73 237.503 106.099 239.194 104.477C239.506 104.179 239.033 103.706 238.721 104.004C237.044 105.612 235.431 107.378 233.649 108.867C233.023 109.39 232.489 109.738 231.602 109.724C231.35 109.724 231.11 109.598 230.84 109.617C230.31 109.654 229.863 109.938 229.451 110.238C228.646 110.825 228.523 111.448 227.37 111.179C226.94 111.078 226.931 110.852 226.442 110.898C224.951 111.03 224.851 113.021 223.701 113.618L224.158 113.737C223.677 112.637 223.278 111.502 222.965 110.343C222.946 110.28 222.91 110.225 222.86 110.183C222.81 110.141 222.75 110.114 222.685 110.105C222.62 110.097 222.555 110.107 222.496 110.135C222.437 110.162 222.387 110.207 222.353 110.262C221.237 112.321 220.221 114.428 219.304 116.583L219.915 116.662C218.778 113.195 220.001 109.443 218.498 106.046C218.399 105.822 218.024 105.834 217.92 106.046C214.933 112.213 213.159 118.897 212.695 125.735C212.666 126.165 213.334 126.164 213.358 125.735L213.359 125.736Z" fill="#96523F"/>
<path d="M234.368 119.239L257.393 117.924C257.821 117.899 257.824 117.23 257.393 117.254L234.368 118.569C233.94 118.594 233.937 119.263 234.368 119.233V119.239Z" fill="#96523F"/>
<path d="M249.878 66.3979C249.756 64.4578 246.94 64.7855 245.636 64.9381C244.397 65.0801 243.283 66.1816 243.446 67.4874C243.552 68.342 244.189 68.983 244.995 69.2351C246.329 69.6531 247.696 69.3001 248.764 68.4389C249.294 68.0142 249.791 67.4635 249.862 66.788C249.878 66.6587 249.883 66.5282 249.878 66.3979Z" fill="#D77B52"/>
<path d="M244.635 65.7901C244.301 66.3633 244.129 67.0173 244.14 67.6811C244.14 68.1111 244.814 68.1124 244.802 67.6811C244.789 67.1371 244.926 66.6 245.2 66.1298C245.416 65.7569 244.838 65.4199 244.622 65.7914L244.635 65.7901Z" fill="#A8522C"/>
<path d="M246.131 65.8406C245.828 66.6039 245.645 67.4098 245.588 68.2293C245.555 68.6592 246.225 68.6566 246.251 68.2293C246.311 67.4722 246.486 66.7288 246.771 66.025C246.931 65.6269 246.284 65.4518 246.125 65.8472L246.131 65.8406Z" fill="#A8522C"/>
<path d="M247.843 65.7968C247.675 66.3046 247.53 66.8186 247.407 67.3388C247.308 67.7582 247.952 67.936 248.051 67.5167C248.174 66.9965 248.32 66.4825 248.489 65.9746C248.621 65.5646 247.98 65.3894 247.843 65.7968Z" fill="#A8522C"/>
<path d="M116.736 72.6059C115.615 71.4872 113.903 71.9742 112.528 72.655C111.467 73.1765 110.356 74.0523 111.376 75.236C112.465 76.502 114.822 76.0973 116.175 75.463C117.812 74.6986 117.305 73.1698 116.736 72.6059Z" fill="#D77B52"/>
<path d="M115.449 73.2998C115.864 73.6327 116.205 74.0484 116.451 74.5207C116.662 74.8962 117.246 74.5592 117.029 74.1823C116.721 73.6142 116.298 73.1169 115.787 72.7225C115.71 72.6787 115.619 72.6666 115.534 72.6889C115.449 72.7113 115.375 72.7662 115.33 72.842C115.287 72.9193 115.276 73.0099 115.298 73.0953C115.32 73.1807 115.374 73.2544 115.449 73.3011V73.2998Z" fill="#A8522C"/>
<path d="M113.894 73.9514C114.318 74.2967 114.689 74.7027 114.994 75.1564C115.233 75.512 115.812 75.1776 115.572 74.818C115.238 74.315 114.832 73.8638 114.367 73.479C114.037 73.207 113.562 73.6781 113.894 73.9514Z" fill="#A8522C"/>
<path d="M112.293 74.4756C112.72 74.8021 113.119 75.1634 113.486 75.5558C113.782 75.869 114.255 75.3953 113.958 75.0821C113.55 74.6512 113.106 74.2552 112.632 73.8983C112.288 73.6329 111.955 74.2195 112.294 74.4756H112.293Z" fill="#A8522C"/>
</svg>
