<svg width="208" height="278" viewBox="0 0 208 278" fill="none" xmlns="http://www.w3.org/2000/svg">
<path d="M202.215 103.764H184.885V80.5255C184.676 59.0965 176.062 38.6166 160.915 23.5377C145.768 8.45885 125.313 0 103.996 0C82.6794 0 62.2243 8.45885 47.0775 23.5377C31.9306 38.6166 23.3165 59.0965 23.1077 80.5255V103.764H5.77692C4.24478 103.764 2.7754 104.376 1.69202 105.465C0.608638 106.554 0 108.031 0 109.571L0 254.762C0.00616297 260.922 2.44245 266.828 6.77441 271.184C11.1064 275.541 16.9803 277.992 23.1077 278H184.885C191.013 277.994 196.889 275.543 201.223 271.187C205.556 266.83 207.994 260.923 208 254.762V109.571C208 108.808 207.85 108.052 207.56 107.347C207.269 106.642 206.842 106.001 206.305 105.462C205.768 104.923 205.13 104.495 204.428 104.204C203.727 103.912 202.975 103.763 202.215 103.764ZM121.3 225.099C121.387 225.911 121.303 226.732 121.054 227.509C120.805 228.286 120.397 229.001 119.855 229.609C119.313 230.217 118.65 230.704 117.909 231.038C117.168 231.372 116.366 231.545 115.554 231.547H92.4462C91.6335 231.547 90.8298 231.376 90.0876 231.043C89.3455 230.71 88.6816 230.223 88.1393 229.615C87.597 229.006 87.1885 228.289 86.9406 227.511C86.6926 226.733 86.6107 225.911 86.7003 225.099L90.3419 192.15C87.405 190.012 85.0158 187.202 83.3715 183.953C81.7271 180.704 80.8747 177.108 80.8846 173.463C80.9956 167.375 83.4793 161.573 87.8015 157.307C92.1237 153.041 97.9389 150.651 103.996 150.651C110.053 150.651 115.869 153.041 120.191 157.307C124.513 161.573 126.997 167.375 127.108 173.463C127.119 177.109 126.267 180.705 124.622 183.954C122.978 187.204 120.588 190.013 117.65 192.15L121.3 225.099ZM150.223 103.764H57.7769V80.5255C57.7769 68.2012 62.6468 56.3817 71.3153 47.6671C79.9839 38.9526 91.7409 34.0568 104 34.0568C116.259 34.0568 128.016 38.9526 136.685 47.6671C145.353 56.3817 150.223 68.2012 150.223 80.5255V103.764Z" fill="#F8F5EA"/>
</svg>
