<svg width="516" height="322" viewBox="0 0 516 322" fill="none" xmlns="http://www.w3.org/2000/svg">
<g clip-path="url(#clip0)">
<path d="M394.776 273.672C394.776 273.672 452.467 277.303 460.913 280.95C477.772 288.233 481.144 306.836 433.464 314.25C385.785 321.665 166.969 322.918 125.588 321.473C84.2064 320.027 3.60507 317.524 0.503528 305.816C-4.20823 288.011 25.4326 281.687 37.1277 279.15C58.4711 274.521 80.9125 272.364 102.591 270.106C110.346 269.298 118.112 268.617 125.888 268.064C141.666 266.936 157.5 266.4 173.308 266.94C233.098 268.982 394.776 273.672 394.776 273.672Z" fill="#F0DCC0"/>
<path d="M463.062 20.7464C462.197 17.1201 460.538 13.8914 457.78 11.4278C448.814 3.42105 431.53 9.61252 425.623 18.5831C420.503 26.363 423.094 36.3645 420.274 44.8575C417.531 53.1149 416.699 60.8494 420.014 69.2776C422.627 75.9121 429.524 81.4337 436.514 80.003C439.992 79.2899 442.944 77.0186 445.475 74.529C451.544 68.5623 455.94 61.0137 458.744 52.981C461.64 44.6824 465.556 31.0936 463.062 20.7464Z" fill="#75A2A5"/>
<path d="M438.779 240.378C438.596 240.378 438.418 240.316 438.275 240.203C438.132 240.089 438.031 239.93 437.99 239.752C437.891 239.319 427.972 196.578 425.454 179.89C422.675 161.398 422.673 129.342 425.454 94.1472C428.443 56.2484 439.04 39.9583 439.49 39.284C439.609 39.1055 439.794 38.9815 440.004 38.9394C440.215 38.8972 440.433 38.9403 440.612 39.0593C440.79 39.1782 440.914 39.3632 440.956 39.5735C440.999 39.7839 440.955 40.0023 440.837 40.1809C440.728 40.3429 430.019 56.8535 427.069 94.2747C424.302 129.355 424.3 161.268 427.069 179.65C429.567 196.29 439.471 238.963 439.572 239.391C439.62 239.6 439.583 239.82 439.47 240.002C439.357 240.184 439.176 240.314 438.967 240.363C438.905 240.375 438.842 240.38 438.779 240.378Z" fill="#2F6A6E"/>
<path d="M515.246 72.0178C516.681 65.8047 516.201 59.2372 512.652 54.0614C509.138 48.9354 503.12 45.9487 497.006 44.8358C482.901 42.2684 467.547 49.5297 460.585 62.0596C457.099 68.3267 455.638 75.549 452.359 81.9414C449.91 86.7088 446.454 91.005 444.829 96.1116C439.961 111.399 455.225 126.996 469.425 129.848C477.748 131.521 486.564 130.144 494.235 126.509C501.951 122.855 508.995 116.136 509.825 107.637C510.489 100.853 507.125 93.9246 508.878 87.3355C510.307 81.9436 513.988 77.4659 515.246 72.0178Z" fill="#75A2A5"/>
<path d="M432.012 117.143C431.4 112.685 430.296 108.464 428.318 105.203C425.921 101.249 421.858 98.8022 418.706 95.5325C414.939 91.6231 412.307 86.4257 407.56 83.7914C400.676 79.9728 391.532 83.2209 386.487 89.2654C381.732 94.9706 379.806 102.547 378.87 109.772C377.833 117.794 376.625 125.993 377.1 134.108C377.548 141.751 379.646 149.495 384.343 155.541C388.437 160.81 394.335 164.536 400.696 166.563C407.106 168.592 414.407 168.862 420.291 165.605C425.262 162.85 428.72 157.843 430.544 152.462C432.368 147.081 432.753 141.317 432.76 135.633C432.764 130.363 432.887 123.508 432.012 117.143Z" fill="#75A2A5"/>
<path d="M498.571 159.429C494.698 155.323 489.355 152.315 484.487 151.865C472.555 150.763 457.961 164.274 454.68 175.012C454.006 177.221 453.753 179.6 454.293 181.844C455.223 185.703 458.445 188.731 462.13 190.205C465.815 191.679 469.911 191.782 473.864 191.372C483.178 190.386 492.002 186.706 499.256 180.783C506.944 174.461 504.461 165.668 498.571 159.429Z" fill="#75A2A5"/>
<path d="M434.143 224.868C433.946 224.868 433.756 224.796 433.608 224.665C433.461 224.535 433.366 224.355 433.341 224.16C433.317 223.967 430.747 204.554 418.212 182.667C405.341 160.192 400.705 116.257 401.057 115.209C401.119 115.014 401.253 114.851 401.431 114.751C401.609 114.651 401.819 114.622 402.017 114.67C402.216 114.719 402.389 114.84 402.501 115.011C402.614 115.181 402.658 115.388 402.624 115.589C402.568 117.714 407.163 160.138 419.614 181.863C432.321 204.038 434.921 223.753 434.945 223.95C434.972 224.163 434.913 224.377 434.782 224.547C434.65 224.716 434.457 224.826 434.244 224.853L434.143 224.868Z" fill="#2F6A6E"/>
<path d="M438.779 227.269C438.583 227.27 438.393 227.198 438.246 227.069C438.098 226.94 438.003 226.761 437.977 226.567C437.953 226.394 435.755 209.062 443.164 192.437C450.628 175.685 481.204 165.726 482.501 165.311C482.602 165.279 482.709 165.267 482.815 165.276C482.921 165.285 483.024 165.314 483.118 165.363C483.213 165.412 483.297 165.478 483.365 165.559C483.434 165.641 483.486 165.734 483.518 165.836C483.551 165.937 483.563 166.043 483.554 166.149C483.545 166.255 483.515 166.358 483.467 166.452C483.418 166.547 483.351 166.631 483.27 166.699C483.189 166.768 483.095 166.82 482.994 166.852C482.683 166.952 451.814 177.009 444.647 193.096C437.435 209.304 439.566 226.185 439.587 226.355C439.615 226.568 439.557 226.783 439.427 226.953C439.296 227.123 439.104 227.234 438.891 227.263C438.854 227.268 438.817 227.27 438.779 227.269Z" fill="#2F6A6E"/>
<path d="M438.448 231.818C438.262 231.818 438.081 231.753 437.937 231.635C437.793 231.517 437.694 231.353 437.657 231.17C437.32 229.532 429.479 190.803 435.448 169.545C438.978 156.987 445.257 148.047 451.907 138.583C456.647 131.836 461.549 124.858 465.811 116.082C475.97 95.1651 487.172 65.9949 487.282 65.701C487.359 65.5004 487.512 65.3385 487.709 65.251C487.905 65.1634 488.128 65.1574 488.328 65.2342C488.529 65.311 488.691 65.4644 488.778 65.6605C488.866 65.8567 488.872 66.0796 488.795 66.2802C488.685 66.5741 477.457 95.8091 467.27 116.789C462.947 125.682 458.011 132.714 453.234 139.513C446.666 148.861 440.463 157.689 437.009 169.984C431.145 190.866 439.17 230.446 439.244 230.844C439.265 230.948 439.266 231.055 439.246 231.159C439.226 231.264 439.186 231.363 439.127 231.452C439.069 231.541 438.994 231.617 438.906 231.676C438.818 231.736 438.719 231.778 438.615 231.799C438.56 231.811 438.504 231.817 438.448 231.818Z" fill="#2F6A6E"/>
<path d="M400.588 217.888C397.387 224.253 401.573 272.308 409.851 279.008C418.129 285.707 455.387 285.491 461.839 280.267C468.29 275.044 475.356 224.631 472.144 218.53C468.932 212.429 403.791 211.524 400.588 217.888Z" fill="#382732"/>
<path d="M460.976 224.968C460.771 224.685 460.574 224.384 460.349 224.116C460.126 223.863 459.876 223.635 459.604 223.436C459.476 223.361 459.331 223.322 459.183 223.322C459.036 223.322 458.891 223.361 458.763 223.436C458.688 223.47 458.62 223.519 458.565 223.58C458.509 223.642 458.467 223.714 458.441 223.792C458.352 223.971 458.334 224.177 458.389 224.369C458.603 224.941 458.903 225.477 459.277 225.96C459.576 226.381 460.155 226.621 460.63 226.314C461.035 226.048 461.3 225.417 460.976 224.968Z" fill="white"/>
<path d="M466.395 241.217C466.178 240.932 465.993 240.633 465.766 240.353C465.544 240.099 465.295 239.871 465.022 239.674C464.895 239.599 464.75 239.559 464.602 239.559C464.454 239.559 464.309 239.599 464.181 239.674C464.106 239.708 464.038 239.758 463.983 239.819C463.927 239.881 463.885 239.954 463.859 240.033C463.771 240.211 463.752 240.416 463.807 240.608C464.022 241.18 464.321 241.716 464.696 242.198C464.994 242.63 465.573 242.859 466.049 242.552C466.453 242.302 466.719 241.664 466.395 241.217Z" fill="white"/>
<path d="M456.522 276.129C456.305 275.846 456.12 275.548 455.893 275.278C455.671 275.024 455.42 274.796 455.147 274.599C455.02 274.524 454.875 274.484 454.728 274.484C454.58 274.484 454.435 274.524 454.308 274.599C454.233 274.633 454.165 274.683 454.11 274.745C454.054 274.806 454.012 274.879 453.986 274.958C453.895 275.136 453.877 275.342 453.934 275.533C454.149 276.105 454.448 276.641 454.823 277.123C455.121 277.555 455.7 277.784 456.176 277.478C456.58 277.216 456.846 276.579 456.522 276.129Z" fill="white"/>
<path d="M443.757 221.832C443.551 221.549 443.355 221.249 443.13 220.981C442.907 220.727 442.657 220.498 442.384 220.3C442.257 220.226 442.112 220.187 441.965 220.187C441.818 220.187 441.673 220.226 441.546 220.3H441.535C441.46 220.334 441.393 220.383 441.337 220.445C441.282 220.506 441.241 220.578 441.215 220.657C441.124 220.835 441.106 221.042 441.163 221.234C441.376 221.806 441.676 222.342 442.051 222.824C442.347 223.256 442.927 223.485 443.402 223.178C443.817 222.919 444.083 222.279 443.757 221.832Z" fill="white"/>
<path d="M426.12 232.657C425.904 232.372 425.718 232.073 425.491 231.803C425.27 231.55 425.02 231.322 424.748 231.125C424.505 230.939 424.153 231.006 423.907 231.125C423.831 231.159 423.764 231.208 423.708 231.27C423.653 231.332 423.611 231.405 423.585 231.483C423.495 231.662 423.476 231.867 423.533 232.058C423.747 232.63 424.047 233.166 424.421 233.649C424.719 234.081 425.299 234.31 425.774 234.003C426.178 233.742 426.436 233.104 426.12 232.657Z" fill="white"/>
<path d="M412.573 221.832C412.356 221.549 412.168 221.249 411.944 220.981C411.721 220.727 411.471 220.498 411.198 220.3C411.071 220.226 410.926 220.187 410.779 220.187C410.631 220.187 410.487 220.226 410.359 220.3C410.284 220.334 410.217 220.383 410.162 220.445C410.107 220.506 410.065 220.578 410.039 220.657C409.949 220.835 409.93 221.042 409.988 221.234C410.202 221.805 410.501 222.342 410.876 222.824C411.172 223.256 411.753 223.485 412.227 223.178C412.631 222.919 412.897 222.279 412.573 221.832Z" fill="white"/>
<path d="M441.407 244.106C441.191 243.821 441.005 243.523 440.78 243.242C440.558 242.988 440.308 242.76 440.035 242.563C439.908 242.488 439.763 242.448 439.615 242.448C439.468 242.448 439.323 242.488 439.196 242.563C439.121 242.598 439.053 242.647 438.998 242.709C438.943 242.771 438.902 242.843 438.876 242.922C438.785 243.1 438.767 243.306 438.824 243.497C439.037 244.069 439.336 244.606 439.711 245.087C440.009 245.509 440.588 245.749 441.064 245.442C441.468 245.191 441.731 244.554 441.407 244.106Z" fill="white"/>
<path d="M455.134 257.6C454.918 257.315 454.732 257.017 454.507 256.749C454.285 256.495 454.035 256.266 453.761 256.068C453.522 255.884 453.167 255.949 452.921 256.068C452.846 256.103 452.779 256.153 452.723 256.214C452.668 256.276 452.626 256.348 452.599 256.427C452.51 256.606 452.492 256.812 452.549 257.004C452.762 257.576 453.061 258.112 453.435 258.594C453.733 259.026 454.313 259.255 454.788 258.949C455.194 258.681 455.458 258.032 455.134 257.6Z" fill="white"/>
<path d="M418.771 253.014C418.555 252.731 418.369 252.431 418.142 252.163C417.92 251.908 417.67 251.68 417.397 251.482C417.27 251.408 417.125 251.369 416.977 251.369C416.83 251.369 416.685 251.408 416.558 251.482C416.483 251.517 416.416 251.567 416.36 251.628C416.305 251.69 416.263 251.762 416.236 251.841C416.145 252.019 416.127 252.226 416.184 252.418C416.398 252.99 416.698 253.526 417.073 254.008C417.371 254.43 417.95 254.67 418.426 254.363C418.83 254.099 419.087 253.462 418.771 253.014Z" fill="white"/>
<path d="M435.388 268.507C435.172 268.222 434.986 267.923 434.759 267.643C434.537 267.389 434.287 267.161 434.013 266.964C433.773 266.778 433.421 266.845 433.175 266.964C433.099 266.998 433.031 267.048 432.976 267.109C432.92 267.171 432.878 267.244 432.852 267.323C432.762 267.501 432.743 267.708 432.801 267.9C433.015 268.471 433.315 269.006 433.689 269.488C433.987 269.92 434.567 270.149 435.042 269.843C435.446 269.592 435.712 268.954 435.388 268.507Z" fill="white"/>
<path d="M417.929 274.044C417.712 273.761 417.526 273.462 417.3 273.192C417.078 272.939 416.829 272.711 416.556 272.514C416.429 272.438 416.284 272.399 416.136 272.399C415.988 272.399 415.843 272.438 415.715 272.514C415.64 272.548 415.572 272.597 415.517 272.658C415.462 272.72 415.419 272.792 415.393 272.87C415.304 273.049 415.285 273.255 415.341 273.447C415.555 274.019 415.855 274.555 416.23 275.038C416.528 275.47 417.107 275.699 417.583 275.392C417.987 275.131 418.253 274.493 417.929 274.044Z" fill="white"/>
<path d="M469.896 110.135C469.702 110.134 469.515 110.063 469.369 109.935C469.222 109.808 469.127 109.632 469.099 109.44C469.071 109.248 469.113 109.053 469.217 108.889C469.322 108.725 469.481 108.605 469.667 108.549L494.071 101.37C494.274 101.319 494.488 101.349 494.669 101.453C494.851 101.557 494.985 101.727 495.044 101.928C495.102 102.128 495.082 102.344 494.985 102.529C494.889 102.715 494.725 102.856 494.527 102.923L470.123 110.102C470.049 110.124 469.973 110.135 469.896 110.135Z" fill="#2F6A6E"/>
<path d="M480.781 84.9691C480.611 84.969 480.446 84.9158 480.309 84.8169C480.171 84.7181 480.068 84.5786 480.013 84.4181L476.916 75.2054C476.859 75.0051 476.882 74.7906 476.979 74.6063C477.076 74.422 477.24 74.2822 477.437 74.2157C477.635 74.1493 477.85 74.1614 478.039 74.2495C478.227 74.3376 478.375 74.4949 478.451 74.6889L481.55 83.9016C481.584 84.0024 481.598 84.109 481.591 84.2152C481.583 84.3214 481.555 84.4251 481.508 84.5205C481.46 84.6158 481.395 84.7008 481.315 84.7708C481.234 84.8407 481.141 84.8942 481.04 84.9281C480.956 84.9554 480.869 84.9693 480.781 84.9691Z" fill="#2F6A6E"/>
<path d="M434.043 54.351C433.859 54.3521 433.679 54.2898 433.534 54.1745C433.39 54.0592 433.289 53.8979 433.249 53.7174C433.209 53.537 433.233 53.3483 433.315 53.1828C433.397 53.0173 433.534 52.885 433.702 52.808L444.831 47.6409C445.026 47.5503 445.248 47.5408 445.45 47.6144C445.651 47.6879 445.816 47.8385 445.906 48.0331C445.997 48.2277 446.006 48.4503 445.933 48.6519C445.859 48.8536 445.709 49.0177 445.514 49.1083L434.385 54.2776C434.278 54.3257 434.161 54.3508 434.043 54.351Z" fill="#2F6A6E"/>
<path d="M409.231 157.817C409.068 157.817 408.909 157.767 408.775 157.674C408.687 157.615 408.612 157.538 408.553 157.45C408.494 157.361 408.454 157.261 408.434 157.157C408.414 157.053 408.414 156.945 408.436 156.841C408.457 156.737 408.499 156.638 408.559 156.55L416.083 145.596C416.143 145.508 416.22 145.434 416.309 145.376C416.398 145.318 416.498 145.278 416.602 145.259C416.706 145.239 416.814 145.241 416.918 145.263C417.022 145.285 417.12 145.327 417.208 145.387C417.295 145.448 417.37 145.524 417.428 145.613C417.486 145.703 417.526 145.802 417.545 145.907C417.564 146.011 417.563 146.118 417.541 146.222C417.519 146.326 417.476 146.425 417.416 146.512L409.892 157.465C409.819 157.573 409.721 157.661 409.605 157.722C409.49 157.784 409.362 157.816 409.231 157.817Z" fill="#2F6A6E"/>
<path d="M404.143 134.203C404.009 134.202 403.877 134.169 403.759 134.105L388.437 125.826C388.337 125.779 388.249 125.712 388.176 125.63C388.104 125.547 388.049 125.451 388.014 125.346C387.98 125.242 387.968 125.131 387.978 125.022C387.987 124.912 388.02 124.806 388.072 124.709C388.124 124.613 388.195 124.528 388.282 124.459C388.368 124.391 388.467 124.341 388.573 124.312C388.679 124.284 388.79 124.277 388.899 124.292C389.008 124.308 389.112 124.345 389.206 124.402L404.528 132.681C404.683 132.768 404.805 132.904 404.875 133.068C404.945 133.231 404.959 133.413 404.915 133.585C404.872 133.757 404.772 133.91 404.633 134.02C404.493 134.131 404.321 134.192 404.143 134.194V134.203Z" fill="#2F6A6E"/>
<path d="M479.233 176.8C479.17 176.8 479.107 176.793 479.045 176.778L466.351 173.753C466.143 173.703 465.962 173.572 465.85 173.389C465.738 173.206 465.703 172.987 465.753 172.778C465.803 172.569 465.933 172.389 466.116 172.277C466.299 172.164 466.519 172.129 466.728 172.179L479.419 175.205C479.61 175.252 479.778 175.368 479.89 175.53C480.003 175.692 480.052 175.889 480.029 176.085C480.007 176.281 479.913 176.462 479.767 176.594C479.62 176.726 479.43 176.8 479.233 176.802V176.8Z" fill="#2F6A6E"/>
<path d="M402.423 201.728C402.423 201.728 399.864 154.283 392.159 148.987C384.453 143.69 332.676 141.522 332.676 141.522C332.676 141.522 334.362 165.119 335.566 166.807C336.769 168.495 361.091 182.293 369.763 185.747C378.434 189.2 394.491 190.162 394.77 190.886C395.048 191.609 402.423 201.728 402.423 201.728Z" fill="#783B36"/>
<path d="M399.382 284.549C392.159 289.856 76.7779 294.662 72.4422 291.68C68.1065 288.698 62.8112 237.359 53.66 201.732C44.5088 166.104 20.6475 109.149 32.4679 101.59C36.6199 98.9318 43.1796 96.6973 51.5505 94.8085C113.121 80.9301 272.225 86.4105 283.399 89.9353C307.963 97.6978 342.067 165.119 347.847 169.232C347.898 169.272 347.953 169.307 348.011 169.337C354.35 173.402 394.132 176.754 399.382 185.546C404.679 194.389 406.607 279.252 399.382 284.549Z" fill="#783B36"/>
<path d="M393.438 278.402C391.512 280.918 137.521 285.486 132.647 284.551C127.773 283.615 108.859 175.211 108.859 175.211C108.859 175.211 82.8751 155.165 76.7671 143.428C70.6591 131.692 57.7925 108.659 57.7925 108.659C57.7925 108.659 54.8985 102.465 51.5505 94.8085C113.121 80.9301 309.21 86.4105 320.393 89.9353C344.957 97.6978 344.315 168.268 350.094 172.382C355.779 175.661 364.277 175.464 370.549 177.137C378.473 179.261 390.203 183.114 392.68 191.944C393.89 196.267 393.719 201.349 393.957 205.775C394.726 220.084 394.837 234.442 394.754 248.768C394.713 255.547 394.636 262.333 394.342 269.108C394.249 271.299 394.88 276.522 393.438 278.402Z" fill="#965853"/>
<path d="M114.184 182.699C114.041 182.701 113.903 182.646 113.8 182.546C113.697 182.447 113.639 182.31 113.637 182.167C113.635 182.023 113.69 181.885 113.789 181.782C113.889 181.68 114.026 181.621 114.169 181.619L346.867 174.671C347.008 174.675 347.142 174.73 347.245 174.827C347.347 174.923 347.411 175.054 347.423 175.194C347.425 175.265 347.413 175.335 347.388 175.402C347.363 175.468 347.325 175.529 347.277 175.58C347.228 175.632 347.17 175.673 347.105 175.702C347.04 175.731 346.971 175.747 346.9 175.749L114.202 182.699H114.184Z" fill="#382732"/>
<path d="M112.542 209.229C112.542 209.229 109.983 161.784 102.278 156.498C94.5724 151.213 42.7949 149.023 42.7949 149.023C42.7949 149.023 44.4808 172.62 45.6847 174.308C46.8885 175.996 71.2103 189.796 79.8816 193.25C88.553 196.703 104.61 197.663 104.889 198.387C105.167 199.111 112.542 209.229 112.542 209.229Z" fill="#783B36"/>
<path d="M116.914 278.275C116.793 278.275 116.676 278.234 116.58 278.159C116.485 278.084 116.418 277.98 116.389 277.862C116.315 277.555 108.949 246.872 104.307 226.375C99.6643 205.877 92.776 168.734 92.7069 168.361C92.6941 168.291 92.6951 168.22 92.7099 168.151C92.7248 168.081 92.753 168.016 92.7932 167.958C92.8333 167.9 92.8845 167.85 92.9439 167.811C93.0032 167.773 93.0696 167.747 93.1391 167.734C93.2087 167.721 93.28 167.722 93.3492 167.737C93.4183 167.752 93.4838 167.78 93.5421 167.82C93.6003 167.86 93.65 167.912 93.6884 167.971C93.7268 168.03 93.7531 168.097 93.7659 168.166C93.8372 168.538 100.719 205.656 105.357 226.137C109.996 246.617 117.366 277.302 117.439 277.609C117.472 277.748 117.448 277.894 117.373 278.016C117.298 278.137 117.178 278.224 117.039 278.258C116.998 278.269 116.956 278.274 116.914 278.275Z" fill="#382732"/>
<path d="M74.2078 285.353C74.0645 285.353 73.9271 285.296 73.8257 285.194C73.7244 285.093 73.6675 284.956 73.6675 284.812C73.6675 284.669 73.7244 284.532 73.8257 284.43C73.9271 284.329 74.0645 284.272 74.2078 284.272L125.583 284.013C125.727 284.013 125.864 284.07 125.965 284.171C126.067 284.272 126.124 284.41 126.124 284.553C126.124 284.696 126.067 284.834 125.965 284.935C125.864 285.036 125.727 285.093 125.583 285.093L74.2078 285.355V285.353Z" fill="#382732"/>
<path d="M134.685 277.45C134.542 277.452 134.403 277.397 134.301 277.297C134.198 277.197 134.139 277.06 134.137 276.917C134.135 276.774 134.19 276.635 134.29 276.533C134.39 276.43 134.526 276.371 134.67 276.369C136.023 276.332 270.325 272.626 300.895 271.742C331.466 270.858 386.485 267.805 387.032 267.774C387.103 267.769 387.174 267.778 387.241 267.801C387.309 267.824 387.371 267.86 387.424 267.908C387.477 267.955 387.52 268.013 387.55 268.077C387.581 268.141 387.598 268.211 387.6 268.282C387.604 268.353 387.594 268.424 387.571 268.491C387.547 268.558 387.511 268.62 387.464 268.673C387.416 268.725 387.359 268.768 387.295 268.799C387.231 268.829 387.161 268.847 387.09 268.851C386.539 268.883 331.504 271.937 300.928 272.821C270.351 273.704 136.051 277.411 134.7 277.447L134.685 277.45Z" fill="#382732"/>
<path d="M142.961 52.9463C144.005 52.4342 158.834 52.1446 160.329 52.5465C161.825 52.9485 161.626 65.9906 152.051 65.8717C142.079 65.7572 141.919 53.4672 142.961 52.9463Z" fill="#382732"/>
<path d="M147.093 63.7279H156.465C156.522 63.7279 156.577 63.7507 156.618 63.7912C156.658 63.8317 156.681 63.8867 156.681 63.944V64.5578C156.681 65.0375 156.49 65.4976 156.151 65.8368C155.812 66.176 155.352 66.3666 154.872 66.3666H148.677C148.198 66.3666 147.738 66.176 147.398 65.8368C147.059 65.4976 146.868 65.0375 146.868 64.5578V63.944C146.868 63.9149 146.874 63.8861 146.886 63.8593C146.897 63.8325 146.914 63.8083 146.935 63.7881C146.956 63.7679 146.981 63.7522 147.008 63.7418C147.035 63.7315 147.064 63.7268 147.093 63.7279Z" fill="#382732"/>
<path d="M156.841 64.4757L156.534 62.3405C156.605 62.3297 163.617 61.2254 163.617 57.9298C163.617 56.7109 163.154 56.3673 163.003 56.2549C162.201 55.6585 160.664 55.9308 160.193 56.0734L159.573 54.0074C159.867 53.9188 162.497 53.184 164.295 54.5239C164.972 55.0274 165.778 56.0258 165.778 57.9298C165.776 63.1401 157.206 64.4238 156.841 64.4757Z" fill="#382732"/>
<path d="M151.779 51.5243C151.705 51.5248 151.632 51.5098 151.563 51.4805C151.495 51.4511 151.434 51.4079 151.384 51.3536C150.778 50.7053 149.99 48.9397 151.327 46.8975C152.527 45.067 151.39 43.7574 151.343 43.7034C151.246 43.5979 151.195 43.4584 151.202 43.3156C151.208 43.1727 151.271 43.0382 151.376 42.9416C151.482 42.845 151.621 42.7943 151.764 42.8006C151.907 42.8069 152.041 42.8697 152.138 42.9751C152.754 43.6451 153.567 45.4496 152.229 47.4896C151.016 49.3416 152.16 50.6059 152.173 50.6167C152.245 50.6932 152.293 50.7893 152.311 50.893C152.33 50.9968 152.317 51.1036 152.275 51.2002C152.233 51.2968 152.164 51.379 152.076 51.4367C151.988 51.4943 151.884 51.5248 151.779 51.5243Z" fill="#FAEDDC"/>
<path d="M155.322 51.5243C155.248 51.525 155.175 51.5102 155.107 51.4808C155.039 51.4513 154.978 51.408 154.928 51.3536C154.323 50.7053 153.532 48.9397 154.87 46.8975C154.95 46.7821 155.073 46.7026 155.211 46.6759C155.349 46.6492 155.492 46.6774 155.609 46.7545C155.727 46.8316 155.81 46.9515 155.841 47.0888C155.871 47.2261 155.847 47.3698 155.773 47.4896C154.561 49.3417 155.704 50.6059 155.715 50.6167C155.787 50.6932 155.836 50.7893 155.854 50.893C155.872 50.9968 155.859 51.1036 155.818 51.2002C155.776 51.2968 155.706 51.379 155.618 51.4367C155.53 51.4943 155.427 51.5248 155.322 51.5243Z" fill="#FAEDDC"/>
<path d="M147.962 51.5243C147.888 51.5247 147.815 51.5098 147.747 51.4804C147.68 51.451 147.619 51.4078 147.569 51.3536C146.964 50.7053 146.172 48.9397 147.512 46.8975C147.551 46.8383 147.602 46.7874 147.66 46.7476C147.719 46.7078 147.785 46.6799 147.854 46.6656C147.923 46.6512 147.995 46.6507 148.064 46.664C148.134 46.6772 148.2 46.7041 148.259 46.743C148.318 46.7818 148.369 46.832 148.409 46.8906C148.449 46.9491 148.477 47.0149 148.491 47.0843C148.506 47.1536 148.506 47.2251 148.493 47.2946C148.48 47.3642 148.453 47.4304 148.414 47.4896C147.201 49.3416 148.345 50.6059 148.358 50.6167C148.429 50.6937 148.476 50.7899 148.494 50.8935C148.512 50.9971 148.499 51.1035 148.457 51.1999C148.415 51.2962 148.346 51.3782 148.258 51.4358C148.17 51.4934 148.067 51.5242 147.962 51.5243Z" fill="#FAEDDC"/>
<path d="M109.633 59.1638C109.417 50.9517 108.187 41.5078 105.513 33.7668C105.485 33.501 105.461 33.2331 105.427 32.9673C105.786 32.9284 105.84 32.5242 105.84 32.5242C105.84 32.5242 102.064 28.3404 92.8152 30.039C92.2255 30.1538 91.6419 30.298 91.0667 30.4712C86.2036 31.8759 81.3968 34.2963 77.904 38.035C76.1317 39.9167 74.7821 42.1554 73.9456 44.6012C73.1091 47.0469 72.8051 49.6431 73.0539 52.2159C73.6029 57.7137 75.3125 63.0991 75.4919 68.6401C75.7794 77.4227 69.7406 86.0432 72.9351 94.8626C72.9872 95.0118 73.0792 95.1439 73.2011 95.2445C73.3231 95.3451 73.4703 95.4103 73.6267 95.4331C74.101 96.1325 74.7197 96.7223 75.4411 97.1625C76.1625 97.6028 76.9699 97.8833 77.8089 97.9853C80.4177 98.3549 84.2562 97.8103 86.8542 97.4321C88.0141 97.2572 89.1547 96.9721 90.2605 96.5806C92.8541 97.1101 95.9405 96.9523 98.4045 96.3775C98.9816 96.2413 99.1566 95.6125 99.7013 95.4137C102.943 94.2207 102.226 95.4137 104.024 94.8475C105.615 94.3439 106.544 93.2072 107.219 91.688C108.453 88.9023 108.572 85.2047 109.181 82.1965C109.942 78.4471 108.943 74.7732 108.831 71.0216C108.716 67.0366 109.741 63.1575 109.633 59.1638Z" fill="#331F17"/>
<path d="M121.944 80.5713L130.481 105.162L103.65 85.021C103.65 85.021 97.7839 72.1345 95.6528 69.2063C90.0332 64.6896 81.6947 60.24 80.7697 53.5363C79.1054 41.3911 89.0477 28.5262 102.042 31.2492C104.354 31.7311 106.581 32.6647 108.429 34.1666C108.645 34.3395 108.841 34.5145 109.055 34.6874C109.704 35.2558 110.352 35.8631 110.962 36.5179C116.769 42.5559 121.604 50.4503 120.15 58.4441C119.389 62.615 114.26 65.7377 114.26 65.7377L121.944 80.5713Z" fill="#FF9A75"/>
<path d="M258.436 225.039C258.436 225.039 240.559 177.817 239.225 175.635C239.05 175.35 238.588 175.503 238.553 175.81C238.482 176.507 238.471 177.209 238.521 177.908C236.249 176.311 232.614 175.149 231.252 174.904C229.52 174.598 227.74 174.697 226.052 175.194C224.365 175.692 222.816 176.573 221.526 177.77C221.378 177.602 221.212 177.45 221.031 177.316C220.945 177.67 220.903 178.033 220.906 178.397C220.711 178.6 220.508 178.79 220.329 179.008C219.749 179.706 220.519 180.737 221.269 180.575C221.775 182.228 222.687 183.879 223.318 185.18C224.926 188.498 226.821 191.676 228.641 194.881C231.667 200.195 234.715 205.484 237.667 210.834C240.155 215.342 249.159 228.838 249.159 228.838L258.436 225.039Z" fill="#FF9A75"/>
<path d="M242.267 277.698C242.267 277.698 237.54 227.429 236.833 224.968C236.742 224.646 236.254 224.672 236.139 224.968C235.887 225.622 235.69 226.295 235.551 226.982C233.785 224.842 230.58 222.759 229.339 222.161C227.75 221.406 226.007 221.03 224.247 221.063C222.488 221.095 220.759 221.534 219.198 222.346C219.1 222.145 218.98 221.955 218.842 221.778C218.663 222.096 218.526 222.435 218.433 222.787C218.191 222.932 217.945 223.064 217.713 223.22C216.972 223.738 217.441 224.931 218.206 224.979C218.254 226.707 218.697 228.54 218.961 229.962C219.633 233.588 220.618 237.154 221.524 240.729C223.022 246.65 224.569 252.56 225.998 258.501C227.202 263.506 232.311 278.906 232.311 278.906L242.267 277.698Z" fill="#FF9A75"/>
<path d="M98.0498 44.2069C96.9216 43.5716 95.2206 44.4468 94.4145 45.2659C94.006 45.6808 94.5787 46.3724 95.0132 45.9618C95.4228 45.5605 95.9157 45.2543 96.4569 45.0649C96.967 44.892 97.5095 44.9482 98.0066 44.7645C98.0575 44.7398 98.1009 44.7022 98.1327 44.6554C98.1645 44.6087 98.1836 44.5545 98.1879 44.4981C98.1923 44.4417 98.1819 44.3852 98.1576 44.3342C98.1334 44.2831 98.0963 44.2392 98.0498 44.2069Z" fill="#331F17"/>
<path d="M112.762 40.1441C111.725 39.3683 109.926 40.021 109.021 40.732C108.563 41.0907 109.042 41.8492 109.527 41.497C109.984 41.1512 110.511 40.91 111.072 40.7903C111.599 40.6866 112.131 40.8097 112.648 40.6909C112.701 40.6728 112.749 40.6411 112.786 40.5989C112.824 40.5567 112.849 40.5055 112.861 40.4502C112.873 40.395 112.87 40.3377 112.852 40.284C112.835 40.2304 112.804 40.1821 112.762 40.1441Z" fill="#331F17"/>
<path d="M110.854 48.0817C110.812 48.0819 110.769 48.0768 110.728 48.0666C110.66 48.0503 110.595 48.0207 110.537 47.9793C110.48 47.9379 110.431 47.8856 110.394 47.8253C110.357 47.7651 110.332 47.6982 110.321 47.6283C110.31 47.5585 110.312 47.4871 110.329 47.4183C110.569 46.3982 110.629 45.2291 110.452 45.013C110.08 44.7018 107.182 43.9152 104.718 43.3749C104.646 43.3622 104.578 43.3351 104.517 43.2954C104.456 43.2556 104.403 43.2039 104.363 43.1434C104.323 43.0829 104.295 43.0149 104.281 42.9434C104.268 42.8718 104.269 42.7983 104.284 42.7272C104.3 42.6561 104.33 42.5889 104.372 42.5296C104.414 42.4703 104.468 42.4202 104.53 42.3822C104.592 42.3442 104.661 42.3191 104.733 42.3085C104.805 42.2978 104.879 42.3019 104.949 42.3203C107.056 42.7849 110.681 43.6558 111.254 44.2912C111.902 45.026 111.561 46.8953 111.379 47.6668C111.351 47.7849 111.284 47.8901 111.188 47.9654C111.093 48.0406 110.975 48.0816 110.854 48.0817Z" fill="#F07A50"/>
<path d="M113.592 50.541C113.57 50.2837 113.472 50.0386 113.311 49.8365C113.138 49.6271 112.911 49.4696 112.654 49.3815C112.398 49.2934 112.121 49.2781 111.856 49.3373C110.633 49.5534 109.565 50.2709 108.398 50.6556C107.635 50.9063 106.855 51.0705 106.094 51.2823C105.576 51.4163 104.921 51.4465 104.458 51.7728C104.324 51.868 104.213 51.9934 104.136 52.1391C104.059 52.2848 104.018 52.4466 104.015 52.6113C104 52.7917 104.023 52.9731 104.083 53.1439C104.143 53.3147 104.237 53.4712 104.361 53.6033C105.854 55.2695 108.984 55.3321 110.921 54.6341C112.619 54.0269 113.784 52.419 113.592 50.541Z" fill="white"/>
<path d="M110.923 54.6341C108.978 55.3278 105.857 55.2695 104.363 53.6033C104.239 53.4712 104.145 53.3148 104.085 53.1439C104.026 52.9731 104.003 52.7917 104.017 52.6114C105.914 52.6702 107.803 52.359 109.581 51.6951C110.884 51.208 112.133 50.585 113.307 49.8365C113.468 50.0386 113.566 50.2837 113.588 50.5411C113.784 52.419 112.619 54.0269 110.923 54.6341Z" fill="#D96249"/>
<path d="M96.8287 39.9367C96.8423 39.8023 96.8136 39.6671 96.7466 39.5498C96.5045 39.1371 95.9058 39.15 95.4497 39.2603C94.0891 39.5903 92.8368 40.2662 91.8143 41.2225C90.9887 41.9897 89.5946 43.537 89.6681 44.7667C89.6696 44.8678 89.7007 44.9663 89.7576 45.05C89.8144 45.1337 89.8945 45.199 89.988 45.2378C90.2603 45.3264 90.5218 45.093 90.7207 44.8834C92.1783 43.3452 93.8762 42.0541 95.748 41.0604C96.0583 40.9254 96.34 40.7325 96.578 40.4921C96.7183 40.3381 96.8061 40.1437 96.8287 39.9367Z" fill="#331F17"/>
<path d="M110.962 36.5222C109.623 36.6365 108.3 36.8878 107.013 37.2721C106.7 37.3951 106.366 37.4574 106.03 37.4557C105.824 37.4382 105.629 37.3574 105.472 37.2245C105.371 37.1371 105.296 37.0234 105.256 36.896C105.139 36.4249 105.574 36.0208 105.986 35.7701C106.921 35.1997 107.965 34.8316 109.051 34.6896C109.7 35.2558 110.346 35.8738 110.962 36.5222Z" fill="#331F17"/>
<path d="M159.681 132.232C159.249 126.996 156.826 121.898 155.791 116.722C154.647 111.027 154.783 105.192 153.677 99.5218C152.283 92.3643 146.674 86.9876 141.636 81.801C141.478 81.4855 141.331 81.2002 141.204 80.9582C139.269 77.3514 132.046 73.2605 127.952 74.2221C123.859 75.1838 118.581 74.0795 118.581 74.0795C118.581 74.0795 127.831 99.7574 126.385 101.322C124.939 102.887 99.3683 75.9942 99.3683 75.9942C98.681 75.3891 94.2546 76.5604 93.457 76.6814C91.1271 77.033 88.8101 77.4565 86.5061 77.9521C82.9785 78.731 79.5085 79.7513 76.1208 81.0057C73.1078 82.0992 69.8809 83.0933 67.2333 84.9475C65.8327 85.9265 64.4667 87.1454 62.6771 87.4998C60.3883 87.9558 57.9956 87.2837 55.7457 88.053C54.0685 88.6235 52.5036 89.7365 50.9561 90.5188C48.1982 91.917 46.052 95.3034 48.0728 98.3937C48.4792 99.0118 48.6824 99.0053 49.2335 99.4743C51.7882 101.685 52.8667 104.754 55.5836 106.692C57.2975 107.913 58.5425 109.564 60.1224 110.9C60.6015 111.329 61.1667 111.65 61.7802 111.842C65.3421 112.847 69.5135 110.178 73.2635 110.453C75.7015 110.63 78.0422 111.146 80.4846 110.684C83.0782 110.193 85.6588 108.994 88.3584 109.37C90.2258 112.933 91.9441 116.486 93.2279 119.6C97.609 130.205 107.119 145.008 111.094 147.42C113.432 148.85 115.94 149.982 118.559 150.791L159.257 137.176C159.257 137.176 159.08 135.78 158.745 133.686C159.051 133.599 159.316 133.404 159.488 133.136C159.66 132.868 159.729 132.547 159.681 132.232Z" fill="white"/>
<path d="M100.317 30.2053C100.276 30.1924 97.4187 29.9373 96.1608 30.2615C93.6493 30.7153 91.0255 31.6079 89.4606 33.287L89.4347 33.3021C89.4498 33.2395 89.4714 33.1768 89.4866 33.1141C89.5903 32.6581 88.9505 32.3513 88.7085 32.7878C88.4415 33.2758 88.2076 33.7812 88.0082 34.3006C84.9585 36.6086 82.5184 39.7292 81.2864 43.3771C79.9896 47.1914 78.9089 52.4968 81.0702 56.149C82.135 57.9587 83.358 59.6705 84.7251 61.2643C85.3496 61.9953 86.0414 62.666 86.7914 63.2676C87.9325 64.1644 89.5039 64.7025 90.3641 65.9171C90.434 66.0214 90.5319 66.104 90.6466 66.1552C90.7613 66.2064 90.8881 66.2242 91.0125 66.2066C91.3107 66.6389 91.6047 67.0884 91.8878 67.5292C92.1256 67.8988 95.6248 69.2041 95.6291 69.2062C95.5643 69.1824 95.4389 68.0241 95.413 67.9225C95.1612 66.8638 94.7626 65.8454 94.2286 64.897C93.487 63.5801 92.4784 62.4325 91.2675 61.5279C89.8 60.4323 87.9066 60.0562 86.7611 58.55C86.507 58.2172 86.295 57.8542 86.13 57.4694C85.6164 56.2261 85.6032 54.8323 86.0932 53.5795C86.5255 52.4817 87.3792 51.6064 87.4441 50.3789C87.5111 49.1017 86.7395 47.9456 86.5558 46.7051C86.104 43.6796 86.7849 39.9734 88.0493 37.1964C89.5471 33.9202 94.1573 31.7224 97.6025 31.2102C98.491 31.0694 99.3876 30.985 100.287 30.9574C101.063 30.9379 100.888 30.3933 100.317 30.2053Z" fill="#331F17"/>
<path d="M173.161 107.736C172.467 104.08 169.571 102.033 166.547 100.35C160.984 97.2549 155.771 93.5011 152.559 87.9169C144.85 74.5074 132.026 74.5074 132.026 74.5074C132.026 74.5074 126.809 75.7911 127.17 75.83C130.278 76.1563 133.137 76.3443 135.843 77.0575C135.785 80.822 137.356 84.6839 138.037 88.3491C139.072 93.8382 138.845 99.7444 140.402 105.087C140.42 105.169 140.457 105.246 140.509 105.313C140.561 105.379 140.627 105.434 140.702 105.472C140.777 105.51 140.86 105.532 140.944 105.534C141.029 105.537 141.113 105.522 141.19 105.489C143.434 109.512 144.925 113.523 148.755 116.491C152.665 119.516 157.308 123.728 162.268 124.783C165.274 125.431 168.847 124.625 170.857 122.148C172.249 120.435 172.212 118.617 172.37 116.529C172.608 113.696 173.702 110.593 173.161 107.736Z" fill="white"/>
<path d="M163.911 97.2483C163.767 99.2149 163.607 101.181 163.433 103.148C163.04 107.459 162.004 111.82 162.465 116.166C162.638 117.798 162.971 119.233 164.138 120.46C164.956 121.303 165.965 121.938 167.079 122.31C168.193 122.683 169.381 122.783 170.542 122.602C174.398 121.954 177.026 118.675 177.713 114.982C178.686 109.746 177.713 103.829 177.583 98.5277C177.367 88.6645 174.791 64.4648 174.791 64.4648L165.432 67.4428C165.432 67.4428 164.533 86.2441 164.417 88.6905C164.281 91.5489 164.113 94.4015 163.911 97.2483Z" fill="#FF9A75"/>
<path d="M174.791 64.4692C174.791 64.4692 174.642 59.4598 174.188 57.7266C172.805 52.445 168.854 47.4205 163.837 52.097C162.67 53.1776 161.112 54.7422 161.175 56.4775C161.174 56.6893 161.229 56.8976 161.335 57.0812C161.44 57.2648 161.592 57.4174 161.775 57.5235C161.821 57.5451 161.864 57.5516 161.909 57.571C161.771 57.731 161.633 57.8952 161.497 58.0573C160.872 58.7921 160.364 59.7861 160.935 60.5641C160.399 61.7203 160.87 62.4897 161.402 63.5896C162.007 64.8474 162.32 65.5886 163.623 66.3083C164.927 67.0279 166.703 69.042 168.208 69.1998C172.135 69.6147 174.791 64.4692 174.791 64.4692Z" fill="#FF9A75"/>
<path d="M88.9397 107.267H88.8813C88.8103 107.26 88.7414 107.239 88.6786 107.205C88.6157 107.171 88.5603 107.125 88.5154 107.07C88.4706 107.014 88.4372 106.95 88.4173 106.882C88.3974 106.813 88.3913 106.742 88.3993 106.671C88.3993 106.638 88.7235 103.308 87.0917 97.4818C85.4015 91.4416 80.0803 83.6703 79.527 83.2014C79.418 83.1113 79.3478 82.9828 79.3309 82.8424C79.314 82.702 79.3517 82.5605 79.4362 82.4472C79.5186 82.3361 79.6414 82.2619 79.778 82.2404C79.9147 82.219 80.0543 82.2521 80.1667 82.3326C81.0464 82.968 86.4606 91.193 88.14 97.1922C89.8345 103.243 89.4973 106.643 89.4822 106.785C89.4677 106.919 89.4041 107.042 89.3039 107.131C89.2036 107.22 89.0738 107.268 88.9397 107.267Z" fill="#F0DCC0"/>
<path d="M86.0479 107.267C85.9311 107.266 85.8176 107.228 85.7244 107.158C85.6313 107.087 85.5636 106.988 85.5313 106.876C85.5119 106.811 83.571 100.304 76.767 96.7297C69.8399 93.0905 59.6123 92.105 59.5107 92.0964C59.4398 92.09 59.3708 92.0697 59.3077 92.0367C59.2445 92.0036 59.1886 91.9585 59.1429 91.9038C59.0972 91.8491 59.0628 91.7859 59.0415 91.718C59.0203 91.65 59.0126 91.5784 59.019 91.5075C59.0254 91.4365 59.0457 91.3676 59.0788 91.3044C59.1118 91.2413 59.157 91.1854 59.2117 91.1397C59.2664 91.0941 59.3295 91.0596 59.3975 91.0384C59.4655 91.0171 59.537 91.0095 59.608 91.0159C60.0403 91.0569 70.1533 92.0337 77.2684 95.7702C84.4939 99.565 86.4866 106.288 86.5623 106.576C86.5818 106.644 86.5876 106.715 86.5796 106.785C86.5716 106.855 86.5498 106.923 86.5154 106.985C86.4811 107.047 86.4349 107.101 86.3796 107.145C86.3242 107.189 86.2607 107.222 86.1927 107.241C86.1459 107.257 86.0971 107.266 86.0479 107.267Z" fill="#F0DCC0"/>
<path d="M68.5883 109.193C68.4612 109.192 68.3383 109.147 68.2413 109.065C68.1444 108.982 68.0798 108.869 68.0588 108.743C67.4207 105.515 66.4239 102.369 65.087 99.3619C62.9256 94.4584 61.6439 93.3368 61.6288 93.326C61.5323 93.2314 61.4747 93.1042 61.4673 92.9693C61.46 92.8344 61.5035 92.7016 61.5892 92.5972C61.6749 92.4928 61.7967 92.4243 61.9304 92.4052C62.0642 92.386 62.2002 92.4177 62.3118 92.494C62.4566 92.6107 63.7966 93.7798 66.0725 98.9296C67.4538 102.016 68.4771 105.251 69.1222 108.57C69.134 108.64 69.1318 108.712 69.1159 108.781C69.1 108.85 69.0706 108.915 69.0294 108.972C68.9883 109.03 68.9361 109.079 68.876 109.116C68.8159 109.154 68.749 109.179 68.6791 109.19L68.5883 109.193Z" fill="#F0DCC0"/>
<path d="M156.249 119.788C156.143 119.788 156.04 119.757 155.951 119.699C155.863 119.641 155.794 119.559 155.752 119.462C155.739 119.427 154.275 116.004 152.231 109.91C150.949 106.094 147.502 96.8377 143.153 93.3303C139.276 90.1946 132.45 77.3081 132.16 76.7614C132.124 76.6984 132.101 76.6288 132.092 76.5567C132.084 76.4846 132.089 76.4114 132.11 76.3416C132.13 76.2719 132.164 76.2069 132.21 76.1506C132.256 76.0942 132.312 76.0477 132.377 76.0139C132.441 75.98 132.511 75.9594 132.584 75.9534C132.656 75.9474 132.729 75.956 132.798 75.9788C132.867 76.0016 132.931 76.038 132.985 76.086C133.04 76.1339 133.084 76.1924 133.116 76.2578C133.185 76.3897 140.125 89.4944 143.832 92.4918C148.392 96.1764 151.933 105.659 153.244 109.564C155.274 115.615 156.72 119 156.735 119.034C156.791 119.166 156.793 119.314 156.74 119.447C156.687 119.58 156.583 119.686 156.452 119.743C156.388 119.771 156.319 119.787 156.249 119.788Z" fill="#F0DCC0"/>
<path d="M160.686 122.47C160.592 122.47 160.5 122.446 160.418 122.399C160.337 122.353 160.269 122.285 160.221 122.204C160.076 121.958 156.67 116.104 156.67 110.841C156.67 101.16 161.594 99.3143 161.803 99.2408C161.937 99.1983 162.082 99.2095 162.208 99.2718C162.333 99.3342 162.43 99.443 162.476 99.5751C162.523 99.7073 162.517 99.8525 162.459 99.98C162.4 100.108 162.295 100.208 162.164 100.259C162.095 100.285 157.751 102.013 157.751 110.848C157.751 115.818 161.116 121.608 161.151 121.664C161.199 121.746 161.225 121.839 161.226 121.934C161.227 122.029 161.202 122.123 161.155 122.206C161.108 122.288 161.039 122.357 160.957 122.404C160.875 122.452 160.781 122.477 160.686 122.477V122.47Z" fill="#F0DCC0"/>
<path d="M127.153 104.86C127.078 104.859 127.004 104.843 126.936 104.812C126.869 104.782 125.255 104.049 122.125 102.003C120.024 100.63 114.024 94.5665 109.641 90.1384C107.949 88.429 106.343 86.8061 105.872 86.3911C105.223 86.5122 102.859 87.2988 101.102 87.8823C97.2113 89.1789 96.4526 89.395 96.1306 89.3194C95.8085 89.2438 95.2876 89.1314 91.8079 77.628C91.7828 77.5589 91.772 77.4855 91.7763 77.4121C91.7806 77.3387 91.7998 77.267 91.8327 77.2013C91.8657 77.1356 91.9117 77.0773 91.9679 77.03C92.0242 76.9827 92.0895 76.9474 92.1599 76.9262C92.2302 76.905 92.3042 76.8984 92.3772 76.9067C92.4502 76.9151 92.5208 76.9383 92.5846 76.9748C92.6483 77.0114 92.7039 77.0606 92.748 77.1194C92.7921 77.1782 92.8238 77.2454 92.841 77.3168C94.2459 81.9674 95.9382 87.154 96.498 88.2367C97.0859 88.0854 99.1111 87.4112 100.767 86.8601C105.379 85.3236 105.887 85.209 106.237 85.3365C106.477 85.4251 106.78 85.7061 110.415 89.3799C114.522 93.5248 120.718 99.7898 122.722 101.099C125.769 103.092 127.371 103.82 127.386 103.827C127.498 103.877 127.59 103.965 127.646 104.074C127.702 104.184 127.718 104.31 127.693 104.43C127.668 104.551 127.602 104.659 127.507 104.737C127.412 104.815 127.293 104.858 127.17 104.86H127.153Z" fill="#F0DCC0"/>
<path d="M141.074 136.764C140.95 136.763 140.83 136.719 140.734 136.641C140.638 136.562 140.572 136.453 140.546 136.331C139.532 131.87 137.972 127.55 135.899 123.471C134.46 120.64 133.187 118.522 132.165 116.821C130.691 114.366 129.625 112.594 129.113 110.47C128.59 108.309 128.434 106.098 128.268 103.757C128.162 102.277 128.052 100.747 127.835 99.1868C127.384 95.8004 124.769 88.4463 123.783 85.6758C123.623 85.2263 123.508 84.9043 123.457 84.7508C123.416 84.6371 123.406 84.5148 123.427 84.3959C123.448 84.277 123.499 84.1655 123.575 84.0723C123.969 83.599 124.82 83.6746 127.356 84.029C128.912 84.2451 131.804 84.6536 132.258 84.1976C132.498 83.5169 129.986 79.8366 126.757 76.2016C126.67 76.0934 126.628 75.9558 126.64 75.8175C126.651 75.6791 126.716 75.5506 126.82 75.4586C126.924 75.3666 127.059 75.3181 127.198 75.3233C127.337 75.3284 127.468 75.3868 127.565 75.4863C130.766 79.0996 134.311 83.679 133.021 84.9713C132.245 85.7493 130.211 85.531 127.207 85.1096C126.347 84.9707 125.482 84.8762 124.613 84.8265L124.79 85.3257C125.787 88.1243 128.43 95.5562 128.897 99.055C129.113 100.648 129.219 102.195 129.329 103.69C129.491 105.986 129.645 108.155 130.146 110.228C130.619 112.19 131.596 113.815 133.075 116.279C134.106 117.995 135.389 120.13 136.846 122.995C138.963 127.164 140.557 131.578 141.59 136.137C141.604 136.207 141.603 136.279 141.589 136.349C141.574 136.418 141.546 136.485 141.506 136.543C141.466 136.602 141.414 136.653 141.355 136.691C141.295 136.73 141.228 136.757 141.158 136.77C141.13 136.77 141.102 136.768 141.074 136.764Z" fill="#F0DCC0"/>
<path d="M118.559 150.791L158.745 133.697C175.794 128.465 189.992 124.214 207.572 121.089C222.574 118.423 227.902 136.001 231.142 147.158C235.236 161.266 253.538 212.073 253.538 212.073L218.917 223.946C218.917 223.946 211.396 205.242 207.782 201.146C204.168 197.051 202.003 185.014 200.79 178.505C199.577 171.996 199.796 165.346 191.669 166.852C183.542 168.358 163.874 182.941 142.433 184.221C120.928 185.504 118.559 150.791 118.559 150.791Z" fill="#382732"/>
<path d="M147.837 183.177C147.837 183.177 189.726 180.53 191.894 180.53C193.755 180.53 194.887 202.14 195.497 204.641C197.349 212.269 199.552 223.41 201.205 231.094C203.053 239.687 201.929 241.932 202.489 250.598C202.971 258.062 207.065 264.323 207.065 264.323L240.782 262.637C240.782 262.637 234.28 190.159 231.149 177.398C228.017 164.637 209.219 147.541 208.506 147.541C207.793 147.541 170.25 152.598 165.659 157.413C161.069 162.228 147.837 183.177 147.837 183.177Z" fill="#382732"/>
<path d="M127.753 145.309C125.808 145.309 121.001 144.9 114.731 141.514C106.678 137.166 99.5844 126.537 99.2861 126.088C99.2163 125.969 99.1947 125.827 99.2258 125.693C99.257 125.558 99.3384 125.441 99.4535 125.364C99.5686 125.288 99.7086 125.259 99.8447 125.282C99.9808 125.306 100.103 125.381 100.185 125.491C100.257 125.6 107.43 136.347 115.243 140.565C123.003 144.753 128.519 144.202 128.575 144.196C128.718 144.18 128.862 144.221 128.975 144.311C129.087 144.401 129.16 144.532 129.176 144.675C129.192 144.819 129.15 144.962 129.06 145.075C128.97 145.188 128.839 145.26 128.696 145.276C128.382 145.304 128.068 145.315 127.753 145.309Z" fill="#F0DCC0"/>
<path d="M248.323 227.587L257.856 223.507C257.856 223.507 262.689 228.847 265.259 230.772C267.829 232.698 280.911 237.595 281.713 240.806C282.515 244.018 278.815 246.103 275.372 246.579C271.929 247.054 264.215 243.337 260.039 242.285C255.863 241.232 253.378 240.076 251.45 238.872C249.522 237.668 248.323 227.587 248.323 227.587Z" fill="white"/>
<path d="M232.13 278.359L242.189 276.911C242.189 276.911 251.286 282.381 255.373 283.179C259.46 283.976 261.314 284.944 261.796 287.272C262.278 289.599 259.226 291.399 255.053 291.622C250.879 291.844 233.807 292.769 232.737 291.622C230.26 288.964 232.13 278.359 232.13 278.359Z" fill="white"/>
<path d="M235.955 214.128C235.825 214.127 235.699 214.079 235.601 213.993C235.503 213.907 235.439 213.788 235.421 213.659C235.372 213.298 230.833 178.505 227.85 170.816C224.999 163.44 217.171 159.716 211.923 160.987C208.897 161.722 193.722 167.062 166.824 176.864L164.607 177.671C164.471 177.714 164.324 177.702 164.198 177.638C164.071 177.574 163.974 177.463 163.929 177.328C163.884 177.193 163.894 177.046 163.956 176.919C164.019 176.791 164.129 176.693 164.263 176.646C164.341 176.62 165.127 176.333 166.452 175.851C193.389 166.035 208.599 160.682 211.666 159.939C217.348 158.56 225.803 162.532 228.855 170.427C231.881 178.239 236.303 212.081 236.491 213.519C236.509 213.661 236.47 213.804 236.382 213.917C236.295 214.031 236.166 214.105 236.024 214.124L235.955 214.128Z" fill="#F2E7E5"/>
<path d="M66.5049 114.839C65.8766 112.967 65.2657 111.094 64.672 109.221C63.3752 105.089 62.6512 100.665 60.5503 96.8334C59.7636 95.3941 58.9034 94.1991 57.3537 93.514C56.2735 93.0518 55.0982 92.8553 53.9263 92.9411C52.7545 93.0268 51.6203 93.3922 50.6189 94.0067C48.9871 95.0289 47.8091 96.68 47.1261 98.4758C45.235 103.405 46.843 108.935 48.7558 113.854C54.3753 128.29 68.5906 150.962 68.5906 150.962L77.6683 145.918L69.3341 122.933C68.3557 120.246 67.4126 117.548 66.5049 114.839Z" fill="#FF9A75"/>
<path d="M92.709 160.916C94.3214 159.012 91.1161 155.532 89.9857 154.216C88.9758 153.016 87.8722 151.899 86.6853 150.873C85.4131 149.79 84.0233 148.853 82.542 148.079C80.9297 147.232 79.1487 146.041 77.3548 145.728C77.2992 145.719 77.2425 145.723 77.1889 145.74C77.1353 145.757 77.0863 145.786 77.0457 145.825C76.3108 145.825 75.2647 146.32 74.9254 146.441C73.1185 147.089 68.5991 150.96 68.5991 150.96C68.5991 150.96 70.5249 155.437 72.6927 156.939C74.0392 157.875 76.434 159.1 77.6941 160.181C78.8267 161.162 79.8987 162.225 81.1393 163.075C82.0903 163.723 84.1522 164.847 84.4246 162.848C84.578 161.724 83.5146 161.024 82.7798 160.388L81.4354 159.234C81.8996 159.401 82.344 159.618 82.7603 159.883C84.6234 161.14 86.4346 163.829 88.6803 164.296C89.0585 164.376 89.5448 164.131 89.5448 163.701C89.807 163.9 90.1094 164.04 90.431 164.11C91.5419 164.326 91.9439 163.693 91.905 162.647C91.8812 162.128 91.7724 161.617 91.583 161.134C91.6738 161.378 92.5686 161.08 92.709 160.916Z" fill="#FF9A75"/>
<path d="M299.406 3.2719C297.126 2.37722 294.377 2.16111 291.602 2.4723C282.785 0.799632 274.352 8.7848 272.48 17.4788C270.904 24.7832 274.153 30.7262 274.533 37.8577C274.886 44.4663 272.882 52.4471 277.514 58.0616C278.071 58.7359 279.381 58.3879 279.533 57.5278C279.617 57.0574 279.668 56.5814 279.684 56.1037C280.675 58.0253 281.851 59.8462 283.194 61.5409C284.275 62.8894 286.639 61.5604 286.311 59.9915C286.341 59.9695 286.37 59.9457 286.397 59.9201C286.605 59.6858 286.782 59.4258 286.924 59.1465C287.746 59.5938 288.889 59.2178 289.341 58.4247C289.666 57.8345 289.896 57.1973 290.024 56.5359C290.672 56.1923 291.13 55.4554 290.921 54.4418C290.77 53.6861 290.489 52.9623 290.091 52.3024C289.751 49.6226 288.885 46.8737 288.293 44.8812C287.925 43.6494 286.358 43.3858 285.483 44.0038C285.483 43.7877 285.468 43.6084 285.463 43.4419C285.433 42.3614 284.599 41.8211 283.76 41.8276C283.639 41.497 283.518 41.1663 283.395 40.8227C283.043 39.8416 281.588 39.7227 281.283 40.8227C281.166 41.2488 281.077 41.6819 281.015 42.1194C280.917 41.9216 280.768 41.7538 280.583 41.6336C280.397 41.5134 280.183 41.4454 279.963 41.4365C279.747 36.7815 278.532 32.7468 277.676 28.1437C276.502 21.8398 277.259 14.637 281.862 9.81131C287 4.42375 293.21 6.45949 299.398 4.42808C299.996 4.23142 299.947 3.48585 299.406 3.2719Z" fill="#783B36"/>
<path d="M290.313 63.1833L306.88 60.3739C306.88 60.3739 305.352 44.5981 305.778 41.002C306.677 38.7459 307.844 36.3449 308.907 33.9115C309.123 32.0854 309.389 30.2615 309.435 28.4289C309.538 24.2472 308.503 20.1023 308.464 15.8947C304.611 11.1771 298.001 6.89596 292.92 5.55394C291.805 5.25904 290.638 5.22722 289.509 5.46101C287.981 5.4202 286.467 5.77372 285.115 6.48752C284.858 6.61718 284.609 6.75333 284.367 6.89812C281.7 7.26551 279.828 9.56489 278.56 11.7584C274.369 19.0455 274.993 26.3824 275.966 34.5296C276.429 38.3547 278.071 41.2289 280.574 44.2372C283.289 47.4982 288.307 49.132 288.307 49.132L290.313 63.1833Z" fill="#FF9A75"/>
<path d="M289.118 51.6324C289.118 51.6324 289.457 54.1803 286.159 56.3975C282.861 58.6148 280.587 59.4576 280.587 59.4576C280.587 59.4576 289.604 63.5507 290.927 64.1536C292.25 64.7566 301.645 66.0792 304.174 65.2968C306.703 64.5145 314.408 57.772 314.047 57.772C313.686 57.772 310.299 56.2009 308.212 53.8648C306.124 51.5286 305.908 48.2611 305.908 48.2611C305.908 48.2611 295.498 50.9862 294.898 50.8868C294.297 50.7874 289.118 51.6324 289.118 51.6324Z" fill="#FF9A75"/>
<path d="M220.627 28.9066L235.696 62.4637L223.037 68.3224L212.358 34.2509L220.627 28.9066Z" fill="#FF9A75"/>
<path d="M361.874 185.785C361.874 185.785 311.376 185.757 308.862 185.284C308.534 185.221 308.514 184.735 308.789 184.593C309.414 184.281 310.065 184.023 310.734 183.821C308.437 182.261 306.066 179.272 305.352 178.086C304.454 176.573 303.917 174.872 303.786 173.118C303.654 171.363 303.931 169.602 304.594 167.972C304.384 167.891 304.184 167.79 303.995 167.669C304.296 167.462 304.621 167.294 304.963 167.168C305.084 166.915 305.192 166.658 305.333 166.411C305.78 165.625 307.012 165.979 307.131 166.738C308.86 166.625 310.723 166.895 312.163 167.025C315.837 167.358 319.479 168.006 323.121 168.575C329.157 169.517 335.188 170.507 341.235 171.384C346.332 172.117 362.144 175.767 362.144 175.767L361.874 185.785Z" fill="#FF9A75"/>
<path d="M361.059 175.492L361.738 185.801C361.738 185.801 369.216 187.382 372.155 188.673C375.095 189.963 385.791 198.951 388.981 198.071C392.172 197.192 392.176 192.951 390.898 189.71C389.621 186.468 382.584 181.591 379.623 178.472C376.662 175.354 374.425 173.75 372.43 172.67C370.435 171.589 361.059 175.492 361.059 175.492Z" fill="white"/>
<path d="M294.647 27.1388C294.62 26.6893 294.747 26.244 295.008 25.8767C295.838 24.9301 296.657 26.3478 296.473 27.4392C296.376 28.014 295.825 28.5737 295.282 28.3619C294.85 28.1934 294.66 27.6747 294.647 27.1388Z" fill="#331F17"/>
<path d="M277.775 27.4046C277.712 26.9754 277.798 26.5373 278.019 26.1642C278.741 25.1895 279.641 26.484 279.552 27.5473C279.504 28.107 279.022 28.6905 278.484 28.5306C278.054 28.4031 277.829 27.919 277.775 27.4046Z" fill="#331F17"/>
<path d="M289.118 49.6788C288.975 49.6788 288.837 49.6219 288.736 49.5206C288.635 49.4192 288.578 49.2818 288.578 49.1385C288.578 48.9952 288.635 48.8578 288.736 48.7565C288.837 48.6552 288.975 48.5983 289.118 48.5983C289.142 48.5983 291.591 48.5594 295.472 46.5431C297.915 45.261 300.174 43.6568 302.19 41.7736C302.293 41.6821 302.428 41.6337 302.566 41.6383C302.704 41.643 302.835 41.7003 302.932 41.7984C303.029 41.8966 303.085 42.0283 303.088 42.1663C303.091 42.3044 303.041 42.4384 302.949 42.5408C300.86 44.5048 298.511 46.1735 295.97 47.5004C291.826 49.6507 289.228 49.6766 289.12 49.6766L289.118 49.6788Z" fill="#F07A50"/>
<path d="M290.741 39.0744C290.399 39.5915 289.936 40.0179 289.393 40.317C288.474 40.8339 287.406 41.0207 286.367 40.8465C285.329 40.6631 284.383 40.1337 283.685 39.3445C283.513 39.1711 283.383 38.9613 283.304 38.7308L283.265 38.6076C283.235 38.4686 283.247 38.3237 283.3 38.1915C283.352 38.0594 283.444 37.9461 283.561 37.8664C283.619 37.8339 283.682 37.812 283.747 37.8015C283.833 37.7809 283.921 37.7701 284.009 37.7691C284.897 37.7173 285.764 37.9658 286.635 38.009C287.52 38.0473 288.407 37.9644 289.269 37.7626C289.566 37.6815 289.872 37.6394 290.179 37.6373C290.332 37.6415 290.481 37.6853 290.611 37.7645C290.741 37.8437 290.849 37.9555 290.923 38.089C290.954 38.1574 290.974 38.2303 290.983 38.3051C290.986 38.5806 290.901 38.8499 290.741 39.0744Z" fill="white"/>
<path d="M290.741 39.0744C290.399 39.5916 289.936 40.0179 289.393 40.317C288.474 40.8339 287.406 41.0207 286.367 40.8465C285.329 40.6631 284.383 40.1338 283.685 39.3446C283.513 39.1711 283.383 38.9613 283.304 38.7308C283.875 38.8799 284.99 39.0442 287.017 39.0247C288.371 39.0327 289.715 38.7917 290.981 38.3137C290.983 38.5861 290.899 38.852 290.741 39.0744Z" fill="#D96249"/>
<path d="M281.257 20.3012C279.513 20.1369 276.502 19.869 275.247 21.3688C274.734 21.9803 275.018 23.1149 275.951 23.0695C276.801 23.0285 277.574 22.6892 278.43 22.6373C279.373 22.5768 280.317 22.6092 281.257 22.5249C281.552 22.5249 281.835 22.4078 282.044 22.1993C282.252 21.9908 282.369 21.708 282.369 21.4131C282.369 21.1182 282.252 20.8354 282.044 20.6268C281.835 20.4183 281.552 20.3012 281.257 20.3012Z" fill="#783B36"/>
<path d="M293.279 19.709C295.008 19.3827 297.966 18.823 299.363 20.206C299.929 20.7679 299.754 21.9349 298.82 21.9652C297.973 22.0041 297.169 21.7491 296.313 21.7642C295.369 21.7923 294.43 21.9133 293.486 21.9176C293.202 21.9289 292.924 21.8308 292.71 21.6437C292.497 21.4566 292.363 21.1945 292.336 20.9116C292.309 20.6286 292.392 20.3462 292.568 20.1225C292.743 19.8988 292.997 19.7508 293.279 19.709Z" fill="#783B36"/>
<path d="M286.004 35.4416C285.946 35.4416 285.888 35.4321 285.833 35.4135C285.66 35.3552 284.104 34.8063 283.741 33.5485C283.419 32.4485 285.126 28.578 285.876 26.9659C285.941 26.8436 286.05 26.7508 286.181 26.7066C286.312 26.6624 286.455 26.6702 286.581 26.7284C286.707 26.7866 286.805 26.8907 286.856 27.0194C286.907 27.148 286.907 27.2913 286.855 27.4197C285.751 29.7969 284.653 32.7057 284.778 33.2546C284.955 33.8619 285.859 34.2854 286.177 34.3956C286.298 34.4365 286.401 34.5192 286.467 34.6291C286.534 34.739 286.559 34.8688 286.538 34.9954C286.517 35.122 286.452 35.237 286.354 35.32C286.256 35.4029 286.132 35.4483 286.004 35.4481V35.4416Z" fill="#F07A50"/>
<path d="M356.328 182.944C356.781 179.112 356.682 175.244 356.464 171.401C356.354 169.476 356.213 167.555 356.096 165.629C355.988 163.85 355.5 162.902 353.704 162.31C352.163 161.804 350.269 162.262 348.687 162.027C346.701 161.733 344.849 160.851 342.852 160.542C340.913 160.265 338.949 160.222 337.001 160.414C337.083 157.992 337.117 154.549 336.821 151.785C336.309 146.996 332.689 138.034 331.033 138.406C329.378 138.778 308.858 142.78 308.858 142.78C306.264 142.218 273.496 139.988 266.863 153.49C260.229 166.993 272.266 183.298 287.164 185.822C300.975 188.167 349.161 185.867 356.07 185.522C356.146 184.646 356.226 183.782 356.328 182.944Z" fill="#F0DCC0"/>
<path d="M294.055 142.875C294.055 142.875 262.172 142.199 246.773 152.204C231.373 162.21 241.875 181.515 253.538 183.659C265.201 185.803 300.91 184.355 300.91 184.355L294.055 142.875Z" fill="#F0DCC0"/>
<path d="M281.352 58.0897L286.65 56.0431C286.65 56.0431 290.032 59.2329 296.499 59.4728C302.966 59.7126 308.974 56.8989 308.974 56.8989C308.974 56.8989 309.787 60.979 308.633 62.723C307.479 64.467 308.551 66.7577 302.568 67.7799C296.586 68.8021 291.889 70.4899 287.854 67.7799C283.818 65.0699 281.352 58.0897 281.352 58.0897Z" fill="white"/>
<path d="M235.957 59.4728L232.497 55.3387L220.154 59.1227L221.208 64.4692L235.957 59.4728Z" fill="white"/>
<path d="M336.919 133.803C336.63 128.874 336.244 123.952 335.76 119.036C335.328 114.792 334.976 110.537 334.377 106.312C333.83 102.433 332.754 99.0442 331.654 95.3164C330.925 92.8527 330.428 90.3308 329.827 87.8347C328.702 83.1645 327.866 78.4292 327.324 73.6559C326.855 69.5131 326.529 65.1197 324.117 61.7181C321.035 57.3722 320.034 56.296 314.706 56.1858C309.379 56.0756 307.915 65.4633 290.231 62.0985C284.581 61.018 284.884 55.9848 279.688 54.8092C274.492 53.6336 245.971 61.0871 241.017 62.8052C240.2 60.4993 238.787 58.6991 236.303 58.4311C233.145 58.0962 230.072 59.4469 227.143 60.3437C224.958 61.0115 222.116 60.4517 220.493 62.414C219.196 63.9786 219.557 65.9927 220.37 67.6784C221.831 70.7039 223.354 74.1443 224.299 77.4378C225.38 81.2089 229.216 86.5013 233.128 87.677C234.47 88.0789 235.882 88.174 237.271 88.3555C245.422 89.421 248.154 90.3783 255.967 92.9154C256.747 93.1683 266.681 94.6205 267.505 94.7523C268.224 100.803 270.55 116.778 271.116 118.602C273.111 125.033 272.063 130.952 272.923 137.431C273.647 142.871 279.407 143.482 279.407 143.482C279.407 143.482 288.701 146.292 293.268 146.873C298.174 147.506 303.009 148.284 307.835 149.393C311.968 150.342 316.129 151.195 319.84 153.354C324.346 155.978 329.172 159.161 334.321 158.307C335.168 158.167 336.05 157.892 336.623 157.261C337.444 156.378 337.487 155.048 337.487 153.843C337.489 147.155 337.299 140.475 336.919 133.803Z" fill="#D96249"/>
<path d="M349.178 101.501C348.59 96.5806 346.498 88.6257 343.725 83.1322C332.871 61.623 318.422 56.5899 318.422 56.5899C318.422 56.5899 312.506 58.8201 313.222 59.127C317.112 60.7954 320.605 62.5069 323.715 64.7155C323.54 64.8867 323.42 65.1064 323.371 65.3464C323.321 65.5863 323.345 65.8355 323.438 66.0619C329.335 80.5173 328.827 96.546 332.795 111.619C332.827 111.728 332.865 111.834 332.909 111.937C332.493 111.908 332.078 112.003 331.716 112.212L331.524 112.326C331.177 112.54 330.899 112.849 330.724 113.216C330.549 113.584 330.483 113.995 330.536 114.399C323.806 112.985 317.503 109.136 310.727 108.132C308.845 107.855 307.825 110.051 309.431 111.207C313.723 114.295 319.157 116.106 324.147 117.731C328.639 119.194 336.467 123.693 341.248 122.701C350.423 120.774 350.038 108.702 349.178 101.501Z" fill="#D96249"/>
<path d="M221.26 25.183C220.97 24.2105 220.348 23.3893 219.661 22.6351C219.498 22.4579 219.332 22.2829 219.166 22.11C217.548 20.4375 215.832 18.8622 214.028 17.3924C213.282 16.7851 212.429 16.1649 211.469 16.2124C211.097 16.2319 210.695 16.3875 210.55 16.7289C210.406 17.0704 210.57 17.4615 210.767 17.7835C210.963 18.1055 213.576 20.8306 212.606 20.9236C212.511 20.9267 212.416 20.9158 212.325 20.8911C209.88 20.3379 207.65 19.1623 205.426 17.9672C205.16 17.777 204.901 17.5739 204.626 17.3967C203.483 16.6598 201.414 15.3048 200.701 17.1374C200.356 16.9878 199.974 16.9442 199.603 17.012C199.037 17.1374 198.767 17.6603 198.773 18.1768C198.664 18.4095 198.622 18.6682 198.653 18.9234C198.683 19.1786 198.785 19.4201 198.946 19.6204C199.146 19.8633 199.39 20.0658 199.666 20.2169C197.82 20.7183 198.948 23.0047 200.005 23.7891C200.245 23.9685 200.539 24.163 200.85 24.3618C200.596 24.5827 200.436 24.8916 200.401 25.2263C200.338 25.8746 200.721 26.5229 201.222 26.94C201.724 27.3571 202.342 27.6315 202.93 27.9298C205.249 29.1011 207.228 30.8321 209.34 32.347C211.452 33.8619 213.808 35.2083 216.399 35.4157C218.042 35.5475 219.942 35.0397 220.661 33.5572C220.944 32.9759 221.009 32.3167 221.07 31.6749C221.176 30.5569 221.281 29.4389 221.383 28.3209C221.47 27.2641 221.558 26.1879 221.26 25.183Z" fill="#FF9A75"/>
<path d="M289.309 186.22H289.289C289.209 186.22 281.238 185.928 273.907 184.975C269.673 184.426 265.337 181.262 262.862 176.916C260.143 172.143 259.944 166.496 262.304 161.017C267.561 148.812 288.144 148.956 289.002 148.971C289.073 148.972 289.143 148.987 289.208 149.015C289.273 149.043 289.332 149.084 289.382 149.134C289.431 149.185 289.47 149.245 289.497 149.311C289.523 149.377 289.536 149.447 289.535 149.518C289.521 149.657 289.459 149.786 289.359 149.883C289.259 149.98 289.128 150.039 288.989 150.05C288.785 150.05 268.268 149.899 263.294 161.445C261.072 166.604 261.252 171.909 263.8 176.383C266.113 180.445 270.135 183.397 274.045 183.905C281.327 184.852 289.248 185.139 289.328 185.144C289.471 185.146 289.608 185.206 289.707 185.309C289.807 185.412 289.861 185.55 289.859 185.694C289.856 185.837 289.797 185.973 289.693 186.073C289.59 186.172 289.452 186.227 289.309 186.224V186.22Z" fill="white"/>
<path d="M334.066 161.216C334.018 161.216 333.971 161.209 333.925 161.197C333.821 161.169 323.429 158.387 317.33 157.94C311.194 157.495 307.172 157.434 307.135 157.434C306.992 157.434 306.854 157.377 306.753 157.276C306.652 157.175 306.595 157.037 306.595 156.894C306.595 156.751 306.652 156.613 306.753 156.512C306.854 156.411 306.992 156.354 307.135 156.354C307.174 156.354 311.224 156.414 317.393 156.862C323.596 157.311 333.761 160.038 334.191 160.153C334.317 160.188 334.426 160.267 334.498 160.375C334.57 160.484 334.6 160.615 334.583 160.745C334.566 160.874 334.502 160.993 334.405 161.079C334.307 161.165 334.181 161.213 334.05 161.214L334.066 161.216Z" fill="white"/>
<path d="M301.172 21.6432C303.374 25.2025 303.765 29.2069 303.962 33.2914C304.191 38.3007 304.295 43.4484 303.746 48.501C303.219 53.4045 300.72 57.6834 299.825 62.5177C299.093 66.5092 298.187 70.4661 297.472 74.4576C296.92 76.3208 296.53 78.2282 296.307 80.1585C296.182 80.9168 296.131 81.6855 296.155 82.4536C296.231 83.5666 296.404 83.8583 297.415 83.9275C301.606 84.2062 305.776 84.5758 309.951 85.0599C310.384 85.1096 310.933 85.3278 311.345 85.2976C312.707 85.196 312.8 78.3973 312.783 77.3146C312.806 78.9051 312.856 80.4978 312.897 82.0884C312.919 82.9442 312.937 83.8007 312.951 84.6579C312.966 85.5223 315.301 86.9811 316.083 86.4927C316.651 86.1382 316.37 83.9642 316.409 83.3007C316.483 82.0041 316.597 80.7075 316.753 79.4108C317.357 74.3731 318.645 69.4414 320.583 64.7523C321.679 62.1222 323.019 59.4922 323.218 56.6007C323.3 55.195 323.187 53.7848 322.88 52.4104C322.524 48.5831 320.765 44.6629 319.855 40.9567C319.621 39.9928 319.399 39.0268 319.178 38.0587C318.923 35.5432 318.644 33.032 318.372 30.5209C318.132 28.2971 317.989 25.9826 317.745 23.6962C317.685 22.8505 317.613 22.0041 317.529 21.1569C317.492 20.6837 317.443 20.2104 317.391 19.7393L317.332 19.2055C317.302 18.9634 317.265 18.7214 317.231 18.4815C316.74 14.7342 315.744 10.9286 313.675 7.71505C312.121 5.30114 309.971 3.9094 307.444 2.69704C301.76 -0.0302329 293.112 -1.13238 286.665 1.4782C284.829 2.14949 283.082 3.04366 281.465 4.14064C277.416 6.95003 274.116 11.9205 273.29 16.7656C273.28 16.8285 273.283 16.8928 273.298 16.9547C273.312 17.0166 273.339 17.075 273.377 17.1265C272.958 17.9416 272.622 18.7967 272.374 19.6788C272.143 20.5086 273.336 21.0251 273.768 20.2666C274.189 19.5396 274.659 18.8415 275.173 18.1768C274.316 19.7881 273.725 21.527 273.422 23.3266C273.412 23.3692 273.418 23.4139 273.438 23.4528C273.458 23.4917 273.491 23.5224 273.531 23.5394C273.571 23.5564 273.616 23.5587 273.658 23.5459C273.7 23.5331 273.736 23.5059 273.759 23.4693C275.447 20.6599 276.027 17.7338 278.398 15.2939C280.027 13.6169 281.951 12.4219 283.79 11.0842C286.109 12.1344 288.545 12.705 291.106 13.3576C295.621 14.5095 298.749 17.7208 301.172 21.6432Z" fill="#783B36"/>
<path d="M283.639 10.1095C283.545 10.1096 283.453 10.0853 283.372 10.0388C283.29 9.99232 283.222 9.92536 283.175 9.84456C283.127 9.76375 283.101 9.6719 283.1 9.57812C283.099 9.48434 283.122 9.39188 283.168 9.30991C283.254 9.15431 285.282 5.48697 286.855 4.00015C288.293 2.64516 291.178 1.02435 291.649 1.02435C291.782 1.02628 291.91 1.07741 292.008 1.1679C292.106 1.25839 292.167 1.38186 292.179 1.51457C292.192 1.64729 292.155 1.77987 292.075 1.88685C291.996 1.99382 291.879 2.06763 291.749 2.09408C291.377 2.22807 288.978 3.48149 287.597 4.78462C286.144 6.1569 284.138 9.79399 284.112 9.83072C284.066 9.91557 283.998 9.98627 283.914 10.0354C283.831 10.0844 283.736 10.1101 283.639 10.1095Z" fill="#331F17"/>
<path d="M313.423 75.3631C313.395 75.3653 313.368 75.3653 313.341 75.3631C313.271 75.3526 313.203 75.3283 313.143 75.2917C313.082 75.2552 313.029 75.207 312.987 75.15C312.945 75.093 312.915 75.0282 312.898 74.9595C312.881 74.8907 312.878 74.8193 312.889 74.7494C312.889 74.6694 314.127 66.6756 316.444 60.1232C318.24 55.0469 318.634 50.5302 317.614 46.6965C317.397 45.8537 317.11 45.013 316.84 44.2004C316.487 43.1415 316.124 42.0394 315.867 40.9134C315.387 38.7913 315.003 36.6929 314.707 34.9186C314.261 32.3253 313.866 29.758 313.524 27.2684C313.505 27.1269 313.542 26.9833 313.629 26.8695C313.715 26.7556 313.843 26.6807 313.985 26.6612C314.126 26.6417 314.27 26.6792 314.384 26.7655C314.498 26.8519 314.572 26.9799 314.592 27.1215C314.931 29.6002 315.327 32.1611 315.77 34.7371C316.072 36.4962 316.446 38.5773 316.92 40.6757C317.164 41.7563 317.521 42.826 317.864 43.859C318.139 44.6867 318.424 45.5446 318.657 46.4177C319.738 50.4675 319.332 55.1981 317.462 60.482C315.178 66.9414 313.967 74.8315 313.954 74.9093C313.934 75.0359 313.87 75.1511 313.772 75.2343C313.675 75.3175 313.551 75.3632 313.423 75.3631Z" fill="#331F17"/>
<path d="M305.877 45.0238H305.832C305.761 45.0176 305.693 44.9975 305.63 44.9646C305.567 44.9318 305.511 44.8869 305.466 44.8324C305.42 44.778 305.386 44.7152 305.365 44.6475C305.344 44.5799 305.337 44.5087 305.343 44.4382C305.343 44.3863 305.814 39.0895 305.343 31.6878C304.881 24.4288 303.428 21.9349 303.415 21.9111C303.341 21.7893 303.317 21.6428 303.35 21.5038C303.384 21.3648 303.471 21.2447 303.593 21.1699C303.714 21.0951 303.861 21.0717 304 21.105C304.139 21.1382 304.259 21.2253 304.334 21.3471C304.399 21.453 305.936 24.0268 306.42 31.6187C306.899 39.1176 306.42 44.49 306.42 44.5441C306.405 44.677 306.341 44.7996 306.241 44.8883C306.14 44.9769 306.011 45.0252 305.877 45.0238Z" fill="#331F17"/>
<path d="M305.717 81.3018C305.693 81.304 305.668 81.304 305.644 81.3018C305.502 81.2825 305.374 81.208 305.288 81.0946C305.201 80.9813 305.163 80.8382 305.181 80.6967C306.085 74.697 307.488 68.7832 309.376 63.017C312.344 54.122 311.611 48.7539 311.603 48.6977C311.589 48.5598 311.63 48.422 311.715 48.3128C311.8 48.2037 311.924 48.1315 312.062 48.1113C312.199 48.091 312.338 48.1242 312.452 48.204C312.565 48.2838 312.643 48.404 312.67 48.5399C312.703 48.756 313.457 54.1911 310.401 63.3584C308.533 69.0597 307.145 74.907 306.251 80.8394C306.232 80.9677 306.168 81.085 306.07 81.1699C305.972 81.2548 305.847 81.3016 305.717 81.3018Z" fill="#331F17"/>
<path d="M266.404 87.9103C267.448 87.3982 282.277 87.1086 283.773 87.5105C285.269 87.9125 285.07 100.955 275.495 100.836C265.522 100.706 265.363 88.4247 266.404 87.9103Z" fill="#382732"/>
<path d="M270.537 98.6855H279.908C279.966 98.6855 280.021 98.7082 280.061 98.7488C280.102 98.7893 280.125 98.8443 280.125 98.9016V99.5153C280.125 99.995 279.934 100.455 279.595 100.794C279.255 101.134 278.795 101.324 278.316 101.324H272.115C271.635 101.324 271.175 101.134 270.836 100.794C270.496 100.455 270.306 99.995 270.306 99.5153V98.9016C270.306 98.8719 270.312 98.8425 270.323 98.8152C270.335 98.788 270.353 98.7634 270.374 98.7432C270.396 98.7229 270.422 98.7073 270.45 98.6974C270.478 98.6874 270.507 98.6834 270.537 98.6855Z" fill="#382732"/>
<path d="M280.284 99.4332L279.978 97.2981C280.049 97.2873 287.06 96.1829 287.06 92.8873C287.06 91.6684 286.598 91.3248 286.447 91.2125C285.647 90.616 284.106 90.8883 283.637 91.0309L283.016 88.9649C283.31 88.8763 285.941 88.1416 287.739 89.4814C288.416 89.985 289.222 90.9834 289.222 92.8873C289.218 98.0977 280.648 99.3813 280.284 99.4332Z" fill="#382732"/>
<path d="M275.218 86.4818C275.145 86.4816 275.073 86.4663 275.005 86.4369C274.938 86.4076 274.877 86.3648 274.827 86.3111C274.222 85.6628 273.433 83.8972 274.771 81.855C275.969 80.0246 274.834 78.715 274.786 78.6609C274.69 78.5555 274.639 78.416 274.645 78.2731C274.651 78.1303 274.714 77.9957 274.82 77.8992C274.925 77.8026 275.065 77.7519 275.208 77.7582C275.35 77.7644 275.485 77.8272 275.582 77.9327C276.198 78.6026 277.01 80.4071 275.672 82.4471C274.477 84.2732 275.573 85.5267 275.618 85.5785C275.689 85.656 275.735 85.7522 275.752 85.8554C275.768 85.9587 275.755 86.0646 275.712 86.1602C275.67 86.2559 275.601 86.3372 275.513 86.3943C275.425 86.4514 275.323 86.4818 275.218 86.4818Z" fill="white"/>
<path d="M278.763 86.4818C278.689 86.4818 278.616 86.4667 278.549 86.4373C278.481 86.408 278.42 86.365 278.37 86.3111C277.767 85.6628 276.976 83.8972 278.313 81.855C278.352 81.7958 278.402 81.7449 278.461 81.7051C278.52 81.6653 278.585 81.6374 278.655 81.6231C278.724 81.6087 278.796 81.6082 278.865 81.6214C278.935 81.6347 279.001 81.6616 279.06 81.7004C279.119 81.7393 279.17 81.7895 279.21 81.848C279.25 81.9066 279.278 81.9724 279.292 82.0418C279.306 82.1111 279.307 82.1826 279.294 82.2521C279.28 82.3217 279.254 82.3879 279.215 82.4471C278.019 84.2732 279.115 85.5266 279.163 85.5785C279.233 85.656 279.279 85.7522 279.296 85.8554C279.313 85.9587 279.299 86.0646 279.257 86.1602C279.214 86.2559 279.145 86.3372 279.058 86.3943C278.97 86.4513 278.868 86.4818 278.763 86.4818Z" fill="white"/>
<path d="M271.406 86.4818C271.332 86.4823 271.259 86.4673 271.191 86.4379C271.123 86.4085 271.063 86.3653 271.013 86.3111C270.407 85.6628 269.616 83.8972 270.954 81.855C271.035 81.7396 271.157 81.6601 271.295 81.6334C271.433 81.6067 271.576 81.6349 271.694 81.712C271.811 81.7891 271.894 81.9091 271.925 82.0463C271.956 82.1836 271.931 82.3274 271.858 82.4472C270.645 84.2992 271.788 85.5634 271.799 85.5742C271.872 85.6508 271.92 85.7468 271.938 85.8506C271.956 85.9543 271.944 86.0611 271.902 86.1577C271.86 86.2543 271.791 86.3365 271.703 86.3942C271.614 86.4518 271.511 86.4823 271.406 86.4818Z" fill="white"/>
<path d="M300.065 95.7983C299.231 92.9889 297.137 90.0671 295.626 88.7531C294.86 88.0983 294.061 87.4838 293.231 86.9119C291.083 85.3992 289.03 86.3435 287.089 87.9255C286.146 88.6948 283.656 90.951 285.096 92.3297C285.221 92.4421 285.368 92.5268 285.528 92.5783C285.096 93.0926 284.945 93.836 285.411 94.3806C285.339 94.4291 285.271 94.484 285.208 94.5448C285.032 94.7561 284.925 95.0171 284.903 95.2916C284.882 95.5662 284.946 95.8407 285.087 96.077C285.329 96.479 285.79 96.7124 286.203 96.9177C286.44 97.8513 287.804 98.4737 288.861 98.6638C291.688 99.1717 294.496 102.9 297.647 101.847C300.526 100.883 300.839 98.4002 300.065 95.7983Z" fill="#FF9A75"/>
<path d="M298.079 91.6857L333.728 100.771L330.439 114.327L297.117 101.484L298.079 91.6857Z" fill="#FF9A75"/>
<path d="M324.902 97.458L319.827 97.2289L316.539 108.97L321.249 113.268L324.902 97.458Z" fill="white"/>
<path d="M318.711 92.7619C318.711 92.7619 324.448 96.6519 323.25 101.335C322.053 106.018 320.551 105.471 319.766 112.434C318.982 119.397 318.75 120.646 321.063 121.943C323.376 123.24 339.51 111.786 340.474 108.304C341.438 104.823 342.16 97.5465 338.427 93.5939C334.695 89.6413 318.711 92.7619 318.711 92.7619Z" fill="#D96249"/>
<path d="M235.957 80.258C235.849 80.2584 235.744 80.2264 235.654 80.1661C235.565 80.1057 235.496 80.0199 235.455 79.9197C235.415 79.8195 235.406 79.7096 235.43 79.6042C235.453 79.4988 235.507 79.4028 235.586 79.3287C235.586 79.3179 237.055 77.8332 238.763 72.3355C240.492 66.7642 240.241 63.9505 240.239 63.9224C240.224 63.7791 240.267 63.6359 240.358 63.5243C240.449 63.4126 240.581 63.3417 240.724 63.3271C240.868 63.3124 241.011 63.3553 241.122 63.4463C241.234 63.5373 241.305 63.6689 241.32 63.8122C241.333 63.9332 241.609 66.8377 239.807 72.6553C238.004 78.4729 236.407 80.0483 236.349 80.111C236.297 80.1607 236.235 80.1993 236.168 80.2245C236.101 80.2498 236.029 80.2612 235.957 80.258Z" fill="#382732"/>
<path d="M233.63 74.6176C233.535 74.6183 233.443 74.5936 233.362 74.5463C233.3 74.5111 233.246 74.4641 233.203 74.4079C233.159 74.3517 233.127 74.2875 233.109 74.2189C233.091 74.1504 233.086 74.0789 233.096 74.0086C233.106 73.9383 233.129 73.8705 233.165 73.8094L237.92 65.6103C237.953 65.5444 237.999 65.4861 238.055 65.4388C238.112 65.3914 238.177 65.3561 238.248 65.3351C238.319 65.314 238.393 65.3075 238.466 65.3161C238.539 65.3247 238.61 65.3482 238.673 65.3851C238.737 65.422 238.793 65.4715 238.837 65.5306C238.88 65.5898 238.912 65.6572 238.929 65.7289C238.946 65.8006 238.948 65.875 238.935 65.9475C238.922 66.02 238.894 66.0891 238.853 66.1505L234.099 74.3496C234.051 74.4318 233.983 74.4999 233.9 74.547C233.818 74.5941 233.724 74.6185 233.63 74.6176Z" fill="#382732"/>
<path d="M43.4259 184.063C41.5023 183.462 39.9332 184.279 38.6904 185.729C37.8259 186.754 37.0391 188.841 35.9844 189.922C35.2466 188.423 34.206 187.094 32.9282 186.019C32.1436 185.37 30.8036 184.359 29.5716 183.91C29.8332 183.145 29.4376 182.073 28.3699 181.965C27.5637 181.889 26.7251 181.809 25.8779 181.761C25.893 181.699 25.8973 181.627 25.9103 181.563C25.9103 181.53 25.9233 181.496 25.9319 181.461C25.9492 181.355 25.9708 181.245 25.9816 181.137C26.0335 180.543 25.478 180.007 24.9247 179.94C24.2763 179.864 23.8267 180.236 23.5868 180.804C23.4593 181.099 23.4065 181.42 23.4334 181.74C22.5216 181.789 21.6197 181.953 20.749 182.228C20.1546 182.423 19.8628 183.155 20.0271 183.704C19.625 183.817 19.2301 183.954 18.8448 184.115C17.9478 184.502 17.1125 185.019 16.3657 185.649C15.5012 184.739 14.3449 184.052 13.3939 183.832C10.3377 183.129 7.8219 185.323 7.62522 188.351C7.40908 191.514 9.29811 194.559 12.0257 196.083C12.1619 196.159 12.3154 196.236 12.4775 196.314C12.59 196.702 12.7346 197.079 12.9097 197.442C13.7548 199.188 15.2743 200.496 17.0163 201.406C16.4738 202.236 15.834 203.221 16.0005 204.135C16.128 204.842 17.0595 205.147 17.628 204.799C18.097 204.513 18.3888 203.999 18.6654 203.541C18.901 203.15 19.1388 202.756 19.3679 202.359C20.0942 202.583 20.8351 202.757 21.5854 202.88C23.6236 203.431 26.3058 203.037 27.9852 202.778C28.495 202.698 29.0001 202.591 29.4981 202.456C29.5738 202.56 29.6516 202.672 29.7316 202.769C30.2045 203.544 30.9061 204.152 31.7395 204.511C32.1826 204.68 32.7748 204.239 32.7229 203.761C32.6386 202.959 32.2906 202.248 31.9383 201.531L31.8886 201.427C32.0917 201.297 32.2853 201.153 32.4678 200.995C36.5917 198.486 38.055 194.209 39.4209 189.362C40.0326 187.201 41.297 185.831 43.4519 185.094C43.562 185.058 43.6576 184.987 43.7244 184.893C43.7912 184.798 43.8258 184.685 43.8229 184.569C43.8199 184.453 43.7797 184.341 43.7082 184.25C43.6367 184.159 43.5377 184.093 43.4259 184.063ZM13.8326 188.558C13.0088 189.879 12.4699 191.357 12.2505 192.898C11.4726 192.22 10.8929 191.344 10.5733 190.363C9.886 188.201 11.0402 185.193 13.7591 186.736C14.0819 186.926 14.3687 187.171 14.6064 187.46C14.3295 187.812 14.0713 188.179 13.8326 188.558Z" fill="#382732"/>
<path d="M3.32201 303.691L19.9148 210.847L11.3082 210.631L0.263694 303.199C0.221331 303.552 0.302018 303.909 0.492165 304.21C0.682312 304.51 0.970302 304.736 1.30763 304.85C1.51582 304.92 1.73669 304.946 1.95552 304.925C2.17435 304.903 2.38612 304.836 2.57672 304.726C2.76732 304.616 2.93237 304.467 3.06088 304.289C3.18939 304.111 3.27841 303.907 3.32201 303.691Z" fill="#382732"/>
<path d="M106.313 303.691L89.72 210.847L98.3265 210.631L109.365 303.199C109.407 303.552 109.327 303.909 109.137 304.21C108.948 304.51 108.66 304.736 108.323 304.85C108.115 304.919 107.894 304.944 107.676 304.922C107.458 304.9 107.247 304.832 107.057 304.723C106.867 304.613 106.702 304.465 106.574 304.287C106.446 304.109 106.357 303.906 106.313 303.691Z" fill="#382732"/>
<path d="M105.584 204.286H4.05254C3.13698 204.286 2.39478 205.028 2.39478 205.944V213.097C2.39478 214.012 3.13698 214.755 4.05254 214.755H105.584C106.5 214.755 107.242 214.012 107.242 213.097V205.944C107.242 205.028 106.5 204.286 105.584 204.286Z" fill="#B0969B"/>
<path d="M42.1464 183.043C42.0726 183.043 41.9995 183.028 41.9318 182.999C41.8641 182.969 41.8033 182.926 41.7531 182.872C41.1479 182.224 40.359 180.458 41.6969 178.416C42.8943 176.586 41.7574 175.276 41.7098 175.222C41.6187 175.115 41.5726 174.978 41.5813 174.838C41.5899 174.698 41.6526 174.567 41.7562 174.472C41.8597 174.378 41.996 174.327 42.1362 174.331C42.2763 174.335 42.4094 174.393 42.5074 174.494C43.1234 175.164 43.936 176.968 42.5981 179.008C41.3856 180.86 42.529 182.125 42.5419 182.135C42.6134 182.212 42.6608 182.309 42.6785 182.412C42.6961 182.516 42.6831 182.622 42.6411 182.719C42.5992 182.815 42.53 182.897 42.4421 182.954C42.3543 183.012 42.2515 183.043 42.1464 183.043Z" fill="#FAEDDC"/>
<path d="M60.0986 179.227C59.9746 179.226 59.8545 179.182 59.7585 179.104C59.6626 179.025 59.5965 178.916 59.5713 178.794L55.1599 158.087C55.144 158.017 55.1422 157.945 55.1545 157.874C55.1669 157.804 55.1931 157.736 55.2317 157.676C55.2703 157.616 55.3206 157.564 55.3795 157.523C55.4384 157.482 55.5048 157.453 55.5749 157.439C55.7159 157.408 55.8631 157.435 55.9845 157.513C56.1059 157.59 56.1918 157.713 56.2233 157.854L60.6347 178.561C60.6505 178.631 60.6524 178.703 60.64 178.774C60.6277 178.844 60.6015 178.912 60.5629 178.972C60.5243 179.032 60.474 179.084 60.4151 179.125C60.3562 179.166 60.2898 179.194 60.2197 179.209C60.1802 179.22 60.1395 179.226 60.0986 179.227Z" fill="#F0DCC0"/>
<path d="M63.2283 177.902C63.095 177.902 62.9665 177.852 62.8678 177.763C62.7691 177.673 62.7073 177.55 62.6944 177.418L60.0446 151.005C60.0376 150.934 60.0447 150.862 60.0654 150.794C60.0862 150.726 60.1201 150.663 60.1654 150.608C60.2107 150.552 60.2663 150.507 60.3292 150.473C60.3921 150.44 60.461 150.419 60.532 150.412C60.6029 150.405 60.6746 150.412 60.7428 150.433C60.811 150.453 60.8745 150.487 60.9296 150.533C60.9847 150.578 61.0303 150.634 61.0639 150.696C61.0974 150.759 61.1183 150.828 61.1253 150.899L63.76 177.31C63.7671 177.38 63.7604 177.451 63.74 177.519C63.7196 177.587 63.6861 177.65 63.6414 177.705C63.5966 177.759 63.5414 177.805 63.4791 177.838C63.4167 177.872 63.3484 177.893 63.278 177.9L63.2283 177.902Z" fill="#F0DCC0"/>
<path d="M66.1202 179.665H66.0834C65.9408 179.655 65.8079 179.589 65.7139 179.481C65.6199 179.374 65.5725 179.233 65.582 179.09L67.0258 157.942C67.0306 157.871 67.0494 157.802 67.081 157.738C67.1126 157.674 67.1564 157.618 67.21 157.571C67.2636 157.524 67.3259 157.488 67.3933 157.466C67.4607 157.443 67.5319 157.434 67.6029 157.439C67.6738 157.443 67.7431 157.462 67.8068 157.494C67.8706 157.525 67.9274 157.569 67.9742 157.623C68.0209 157.676 68.0567 157.739 68.0794 157.806C68.1021 157.873 68.1113 157.945 68.1065 158.016L66.6605 179.164C66.6507 179.3 66.5894 179.428 66.4891 179.521C66.3888 179.614 66.257 179.666 66.1202 179.665Z" fill="#F0DCC0"/>
<path d="M69.5957 186.326H69.5589C69.4882 186.321 69.4191 186.302 69.3555 186.271C69.292 186.24 69.2353 186.196 69.1887 186.142C69.1421 186.089 69.1066 186.027 69.084 185.96C69.0615 185.893 69.0525 185.822 69.0575 185.751L70.5034 164.603C70.5135 164.459 70.58 164.326 70.6884 164.232C70.7969 164.137 70.9383 164.09 71.0816 164.1C71.2249 164.11 71.3584 164.177 71.4526 164.285C71.5468 164.393 71.5941 164.535 71.5841 164.678L70.1382 185.824C70.1283 185.961 70.0667 186.089 69.966 186.182C69.8652 186.275 69.7329 186.327 69.5957 186.326Z" fill="#F0DCC0"/>
<path d="M73.6048 175.788V203.709C73.6043 203.863 73.5431 204.01 73.4346 204.118C73.3261 204.227 73.1791 204.288 73.0256 204.289H57.2196C57.1442 204.288 57.0697 204.272 57.0002 204.243C56.9308 204.214 56.8679 204.171 56.8151 204.117C56.7623 204.063 56.7206 203.999 56.6925 203.929C56.6643 203.86 56.6503 203.785 56.6512 203.709V175.788C56.6503 175.713 56.6643 175.638 56.6925 175.568C56.7206 175.498 56.7623 175.434 56.8151 175.381C56.8679 175.327 56.9308 175.284 57.0002 175.255C57.0697 175.225 57.1442 175.21 57.2196 175.209H73.0256C73.1791 175.21 73.3261 175.271 73.4346 175.379C73.5431 175.488 73.6043 175.635 73.6048 175.788Z" fill="white"/>
<path d="M73.6048 182.511H56.6511V186.036H73.6048V182.511Z" fill="#382732"/>
<path d="M57.492 155.759C57.4142 155.185 57.2758 154.653 56.8609 154.216C56.5999 153.95 56.2702 153.76 55.9083 153.668C55.5464 153.577 55.1662 153.587 54.8097 153.698C54.6407 153.757 54.4812 153.841 54.3364 153.946C53.4416 154.32 52.9445 155.336 53.0547 156.323C53.193 157.557 53.9538 158.608 55.2982 158.629C55.497 158.631 55.695 158.604 55.8861 158.549C56.1292 158.506 56.3593 158.409 56.5592 158.264C56.7591 158.119 56.9236 157.931 57.0402 157.713C57.0469 157.7 57.0527 157.687 57.0575 157.674C57.4242 157.107 57.5781 156.429 57.492 155.759Z" fill="#D96249"/>
<path d="M58.0909 162.962C57.8738 162.731 57.6045 162.554 57.3054 162.448C57.0063 162.341 56.6861 162.308 56.3715 162.35C56.0568 162.392 55.7569 162.509 55.4965 162.691C55.2362 162.873 55.023 163.114 54.8748 163.395C54.7796 163.56 54.7069 163.737 54.6586 163.922C54.511 164.286 54.4593 164.682 54.5085 165.071C54.5577 165.461 54.7062 165.832 54.9396 166.148C55.1337 166.391 55.3779 166.589 55.6557 166.729C55.9335 166.869 56.2382 166.948 56.5491 166.959C56.8599 166.971 57.1696 166.915 57.457 166.796C57.7444 166.677 58.0026 166.497 58.2141 166.269C58.6186 165.806 58.831 165.206 58.8082 164.591C58.7853 163.977 58.5287 163.394 58.0909 162.962Z" fill="#D96249"/>
<path d="M62.0761 148.062C61.8003 147.823 61.4729 147.651 61.1197 147.56C60.7665 147.469 60.397 147.461 60.0401 147.537C59.8572 147.534 59.6745 147.552 59.4955 147.591C58.1295 147.893 57.5265 149.427 57.9393 150.674C58.2743 151.684 59.0502 152.691 60.1007 152.993C61.4364 153.378 62.7181 152.245 62.9817 150.981C63.2022 149.933 62.9277 148.764 62.0761 148.062Z" fill="#D96249"/>
<path d="M63.8896 158.569C63.1958 157.272 61.296 156.887 60.2412 157.99C59.5042 158.763 59.3767 159.909 59.6577 160.911C59.7615 161.299 59.9592 161.655 60.2333 161.948C60.5073 162.24 60.8493 162.461 61.229 162.591C61.6075 162.708 62.013 162.708 62.3912 162.589C62.7693 162.47 63.1021 162.238 63.3449 161.925C63.7671 161.488 64.0456 160.932 64.1429 160.332C64.2403 159.732 64.1519 159.117 63.8896 158.569Z" fill="#D96249"/>
<path d="M68.8975 166.822C68.476 166.275 68.0005 165.888 67.2678 165.888C67.0929 165.889 66.9189 165.914 66.7512 165.964C64.5013 166.113 63.9847 169.478 65.9926 170.502C66.2759 170.644 66.5845 170.727 66.9004 170.749C67.3246 170.811 67.7577 170.73 68.1302 170.517C68.2348 170.454 68.3339 170.382 68.4263 170.301L68.4846 170.249C68.6997 170.079 68.8852 169.875 69.0336 169.644C69.2917 169.213 69.4165 168.715 69.3922 168.213C69.368 167.71 69.1959 167.227 68.8975 166.822Z" fill="#D96249"/>
<path d="M69.0444 155.861C68.6742 155.642 68.2474 155.538 67.8181 155.562C67.3887 155.586 66.9761 155.737 66.6324 155.995C66.3057 156.197 66.0342 156.477 65.8422 156.81C65.6503 157.142 65.5437 157.517 65.5322 157.901C65.5311 158.401 65.68 158.891 65.9597 159.305C66.2394 159.72 66.6371 160.042 67.1014 160.229C67.2683 160.334 67.4441 160.424 67.6266 160.499C68.0589 160.672 68.6122 160.499 68.9753 160.218C69.2741 160.09 69.537 159.891 69.7409 159.639C69.9448 159.386 70.0835 159.087 70.1446 158.768C70.3499 157.67 70.0689 156.462 69.0444 155.861Z" fill="#D96249"/>
<path d="M73.9527 162.744C73.8247 162.324 73.5763 161.95 73.2383 161.67C72.9002 161.39 72.4873 161.215 72.0507 161.166C71.94 161.133 71.8274 161.106 71.7136 161.086C70.8058 160.944 69.8851 161.156 69.3728 161.994C69.0054 162.593 69.0076 163.321 69.1351 163.987C69.4052 165.387 70.8252 166.377 72.2323 166.016C73.6393 165.655 74.3504 164.06 73.9527 162.744Z" fill="#D96249"/>
</g>
<defs>
<clipPath id="clip0">
<rect width="516" height="322" fill="white"/>
</clipPath>
</defs>
</svg>
