<svg width="702" height="1002" viewBox="0 0 702 1002" fill="none" xmlns="http://www.w3.org/2000/svg">
<g clip-path="url(#clip0)">
<path d="M494.76 313.582C495.292 312.774 495.851 311.988 496.438 311.224C501.611 304.514 526.148 274.013 543.777 275.716C563.578 277.63 550.356 309.271 542.598 321.07C534.841 332.869 488.339 407.209 488.339 407.209L441.167 395.104L494.76 313.582Z" fill="#FEB098"/>
<g style="mix-blend-mode:multiply" opacity="0.2">
<path d="M542.598 321.07C534.844 332.869 488.339 407.209 488.339 407.209L441.164 395.103L441.458 394.66L482.08 405.087C482.08 405.087 528.58 330.743 536.335 318.941C543.092 308.662 554 283.322 543.599 275.699L543.772 275.727C563.579 277.621 550.359 309.271 542.598 321.07Z" fill="#FEB098"/>
</g>
<path d="M359.381 412.424C359.381 412.424 227.79 438.093 214.83 492.288C201.869 546.484 293.101 551.57 293.101 551.57L359.381 412.424Z" fill="#FEB098"/>
<path d="M359.381 412.424C359.381 412.424 227.79 438.093 214.83 492.288C201.869 546.484 293.101 551.57 293.101 551.57L359.381 412.424Z" fill="#FEB098"/>
<path d="M451.786 631.56C451.786 631.56 451.221 632.418 450.117 633.989C442.798 644.363 411.734 685.935 363.272 716.943C358.421 720.05 355.206 724.755 354.392 729.964L347.932 790.06L329.076 965.45L268.702 956.011L266.856 916.029L262.331 769.507L258.201 635.875L268.674 632.726L298.981 623.632L304.717 621.909L308.628 620.736L311.969 619.73L398.163 622.029L398.225 622.039C411.813 622.399 421.537 622.659 421.735 622.661C421.883 622.661 423.475 623.108 425.847 623.808C430.579 625.182 438.393 627.536 444.21 629.298L451.786 631.56Z" fill="#FEB098"/>
<g style="mix-blend-mode:multiply" opacity="0.3">
<path d="M448.513 633.997C448.513 633.997 329.082 656.293 284.007 661.503C284.007 661.503 299.969 643.421 298.923 634.702C297.877 625.984 374.07 629.1 374.07 629.1L448.513 633.997Z" fill="#FEB098"/>
</g>
<path d="M526.209 527.187C526.209 527.187 522.939 511.087 504.193 513.774C491.93 515.534 456.297 525.361 456.297 525.361C456.297 525.361 428.746 578.748 435.397 576.056C438.299 574.877 478.944 571.474 497.55 559.599C521.478 544.326 526.209 527.187 526.209 527.187Z" fill="#F2977B"/>
<path d="M548.272 475.721C547.738 474.375 543.236 456.886 525.227 456.743C512.371 456.631 456.204 472.807 456.204 472.807L463.838 496.968L497.046 489.905L548.272 475.721Z" fill="#F2977B"/>
<path d="M554.096 428.797L514.33 450.879L476.618 447.28L450.833 444.814C450.833 444.814 507.042 404.812 537.201 410.416C543.988 411.675 548.452 416.474 551.171 420.8C552.175 422.403 553.046 424.086 553.774 425.832C554.005 426.803 554.113 427.799 554.096 428.797Z" fill="#F2977B"/>
<path d="M251.024 211.038L253.064 211.048L252.962 232.521L250.921 232.512C250.802 232.511 250.689 232.464 250.606 232.38C250.523 232.296 250.476 232.182 250.477 232.063L250.575 211.482C250.576 211.364 250.623 211.251 250.707 211.167C250.791 211.084 250.905 211.038 251.024 211.038Z" fill="url(#paint0_linear)"/>
<path d="M251.452 236.846L253.49 236.849L253.46 258.295L251.422 258.292C251.305 258.29 251.193 258.243 251.111 258.159C251.029 258.076 250.983 257.963 250.983 257.846L251.012 237.291C251.012 237.174 251.058 237.062 251.141 236.978C251.223 236.895 251.335 236.847 251.452 236.846Z" fill="url(#paint1_linear)"/>
<path d="M501.829 266.093L498.914 266.089L498.954 237.122L501.87 237.126C502.063 237.126 502.249 237.204 502.386 237.341C502.522 237.478 502.599 237.664 502.599 237.858L502.56 265.363C502.56 265.557 502.483 265.743 502.346 265.88C502.209 266.016 502.023 266.093 501.829 266.093Z" fill="url(#paint2_linear)"/>
<path d="M260.871 608.225L261.033 426.224L261.123 357.831L261.454 175.789C261.701 156.907 280.357 155.387 280.867 155.511C280.444 155.351 267.731 153.733 261.391 162.7C259.275 165.685 257.87 169.849 257.862 175.635L257.281 608.371C257.273 614.157 258.667 618.325 260.786 621.317C267.101 630.298 279.82 628.712 280.243 628.554C279.733 628.672 261.071 627.119 260.871 608.225Z" fill="#060606"/>
<path d="M490.979 608.506L491.295 426.488L491.385 358.095L491.547 176.079C491.349 157.185 472.688 155.633 472.189 155.753C472.612 155.598 485.328 154.008 491.647 162.99C493.754 165.98 495.148 170.148 495.151 175.935L494.57 608.672C494.562 614.457 493.154 618.621 491.04 621.609C484.692 630.572 471.988 628.955 471.564 628.799C472.066 628.906 490.726 627.399 490.979 608.506Z" fill="#060606"/>
<path d="M488.752 551.587L488.765 540.638L488.79 522.704C489.357 522.484 489.922 522.273 490.484 522.064C490.185 522.116 489.861 522.159 489.554 522.21C489.342 522.241 489.131 522.269 488.921 522.291C488.878 522.3 488.834 522.306 488.791 522.309L488.796 518.345C489.022 518.299 489.244 518.258 489.47 518.206C489.696 518.154 489.918 518.113 490.15 518.059C490.271 518.031 490.398 518.004 490.516 517.973C490.702 517.935 490.887 517.886 491.075 517.842L491.141 517.827L491.145 516.427L491.158 512.621L491.195 491.165L488.956 491.642L488.841 491.667L488.855 479.054C489.241 478.765 489.635 478.477 490.03 478.204C490.425 477.931 490.746 477.702 491.11 477.453L491.222 477.374L491.223 475.82C491.068 475.842 490.925 475.864 490.763 475.876L490.317 475.923C489.973 475.959 489.629 475.987 489.291 476.007C489.159 476.015 489.028 476.03 488.9 476.033C488.886 476.032 488.873 476.03 488.86 476.027L488.865 470.523C489.164 470.471 489.493 470.417 489.813 470.36L490.038 470.319L490.638 470.201L491.239 470.076L491.242 467.416L491.251 463.374L491.279 448.681L488.9 448.452L488.905 446.185L488.922 433.351L488.934 422.384L488.93 406.257C488.895 406.315 488.857 406.371 488.822 406.423C488.788 406.476 488.76 406.527 488.732 406.575C488.704 406.623 488.69 406.636 488.668 406.667C488.645 406.699 488.64 406.718 488.627 406.742C488.627 406.748 488.626 406.754 488.624 406.759C488.62 406.788 488.59 406.809 488.574 406.839C488.563 406.855 488.552 406.872 488.543 406.889L488.492 406.974L488.472 407.006C488.468 407.035 488.44 407.062 488.425 407.086C488.409 407.11 488.425 407.086 488.422 407.103L488.359 407.207L484.586 406.238L484.559 424.573L484.544 437.396L484.529 448.028L484.523 450.204L484.508 465.097L484.505 467.425L484.501 470.947L484.496 475.895L484.485 482.588L484.451 492.594L484.437 494.545L484.412 514.044L484.407 518.04L484.407 518.966L484.4 522.551L484.391 524.465L484.377 536.357L484.353 553.801L484.349 557.264C485.775 556.894 487.236 556.464 488.732 555.976L488.752 551.587ZM267.541 442.573L267.607 393.389C266.321 396.181 264.855 398.888 263.218 401.491C262.596 402.478 261.875 403.399 261.066 404.24L261.035 426.21L261.01 445.895C261.718 445.517 262.434 445.143 263.152 444.775L263.055 517.696C264.488 519.882 265.945 522.142 267.425 524.475L267.541 442.573ZM488.752 551.587L488.765 540.638L488.79 522.704C489.357 522.484 489.922 522.273 490.484 522.064C490.185 522.116 489.861 522.159 489.554 522.21C489.342 522.241 489.131 522.269 488.921 522.291C488.878 522.3 488.834 522.306 488.791 522.309L488.796 518.345C489.022 518.299 489.244 518.258 489.47 518.206C489.696 518.154 489.918 518.113 490.15 518.059C490.271 518.031 490.398 518.004 490.516 517.973L491.075 517.842L491.141 517.827L491.145 516.427L491.158 512.621L491.195 491.165L488.956 491.642L488.841 491.667L488.855 479.054C489.241 478.765 489.635 478.477 490.03 478.204C490.21 478.072 490.387 477.945 490.57 477.822C490.752 477.7 490.926 477.587 491.11 477.453L491.222 477.374L491.223 475.82C491.068 475.842 490.925 475.864 490.763 475.876L490.317 475.923C489.973 475.959 489.629 475.987 489.291 476.007C489.159 476.015 489.028 476.03 488.9 476.033C488.886 476.032 488.873 476.03 488.86 476.027L488.865 470.523C489.164 470.471 489.493 470.417 489.813 470.36L490.038 470.319L490.638 470.201L491.239 470.076L491.242 467.416L491.251 463.374L491.279 448.681L488.9 448.452L488.905 446.185L488.922 433.351L488.934 422.384L488.93 406.257C488.895 406.315 488.857 406.371 488.822 406.423C488.788 406.476 488.76 406.527 488.732 406.575C488.704 406.623 488.69 406.636 488.668 406.667C488.645 406.699 488.64 406.718 488.627 406.742C488.627 406.748 488.626 406.754 488.624 406.759C488.62 406.788 488.59 406.809 488.574 406.839C488.563 406.855 488.552 406.872 488.543 406.889L488.492 406.974L488.472 407.006C488.468 407.035 488.44 407.062 488.425 407.086C488.409 407.11 488.425 407.086 488.422 407.103L488.359 407.207L484.586 406.238L484.559 424.573L484.544 437.396L484.529 448.028L484.523 450.204L484.508 465.097L484.505 467.425L484.501 470.947L484.496 475.895L484.485 482.588L484.451 492.594L484.437 494.545L484.412 514.044L484.407 518.04L484.407 518.966L484.4 522.551L484.391 524.465L484.377 536.357L484.353 553.801L484.349 557.264C485.775 556.894 487.236 556.464 488.732 555.976L488.752 551.587ZM267.541 442.57L267.608 393.386C266.321 396.179 264.855 398.885 263.219 401.488C262.596 402.475 261.875 403.396 261.066 404.237L261.036 426.207L261.01 445.895C261.718 445.517 262.434 445.143 263.152 444.775L263.055 517.696C264.488 519.882 265.945 522.142 267.425 524.475L267.532 442.572L267.541 442.57ZM498.607 612.516L498.678 558.859L498.686 556.761L498.691 552.131L498.732 519.971L498.733 519.313L498.736 515.402L498.737 514.744L498.748 509.258L498.771 489.427L498.772 489.194L498.792 474.177L498.795 472.798L498.804 467.868L498.805 463.691L498.811 461.514L498.829 449.396L498.841 441.538L498.859 426.404L498.871 417.86L498.904 390.351L498.918 378.214L499.016 307.989L499.07 266.126L499.106 237.159L499.205 168.526C499.219 156.634 489.082 146.989 476.565 146.971L276.29 146.726C263.78 146.714 253.613 156.338 253.593 168.226L253.534 210.309L253.508 231.263L253.51 231.758L253.5 236.842L253.473 258.292L253.377 335.204L253.336 364.222L253.239 444.866L253.232 450.271L253.162 503.07L253.106 543.681L253.013 612.219C253.001 621.805 259.589 629.935 268.701 632.719C270.954 633.413 273.298 633.765 275.655 633.763L299.129 633.792L310.433 633.812L448.36 633.985L448.386 633.989L450.131 633.991L475.925 634.019C488.429 634.032 498.588 624.405 498.607 612.516ZM469.731 622.102L469.335 622.104L398.231 622.02L398.169 622.01L308.818 621.902L304.702 621.896L282.228 621.875C279.848 621.879 277.498 621.342 275.356 620.305C275.348 620.302 275.339 620.3 275.33 620.301C273.96 619.629 272.7 618.752 271.593 617.7C271.441 617.557 271.293 617.408 271.148 617.258C268.697 614.764 267.322 611.409 267.319 607.912L267.399 547.697L267.431 524.49L267.539 442.587L267.605 393.403L267.693 332.951L267.904 173.636C267.914 168.739 272.218 164.658 277.475 164.534L277.737 164.531L475.056 164.774C480.476 164.777 484.89 168.873 484.869 173.897L484.661 328.933L484.567 401.109L484.558 406.246L484.531 424.581L484.517 437.404L484.502 448.035L484.496 450.212L484.481 465.104L484.477 467.433L484.474 470.954L484.468 475.902L484.458 482.596L484.451 492.594L484.437 494.545L484.412 514.044L484.407 518.04L484.407 518.966L484.4 522.551L484.391 524.465L484.377 536.357L484.353 553.801L484.349 557.264L484.344 561.616L484.339 565.722L484.28 608.178C484.262 609.995 483.876 611.789 483.146 613.454C482.416 615.118 481.358 616.617 480.034 617.862L480.007 617.884C479.002 618.851 477.866 619.671 476.632 620.32C474.502 621.445 472.139 622.055 469.731 622.102ZM267.541 442.573L267.607 393.389C266.321 396.181 264.855 398.888 263.218 401.491C262.596 402.478 261.875 403.399 261.066 404.24L261.035 426.21L261.01 445.895C261.718 445.517 262.434 445.143 263.152 444.775L263.055 517.696C264.488 519.882 265.945 522.142 267.425 524.475L267.541 442.573ZM488.752 551.587L488.765 540.638L488.79 522.704C489.357 522.484 489.922 522.273 490.484 522.064C490.185 522.116 489.861 522.159 489.554 522.21C489.342 522.241 489.131 522.269 488.921 522.291C488.878 522.3 488.834 522.306 488.791 522.309L488.796 518.345C489.022 518.299 489.244 518.258 489.47 518.206C489.696 518.154 489.918 518.113 490.15 518.059C490.271 518.031 490.398 518.004 490.516 517.973L491.075 517.842L491.141 517.827L491.145 516.427L491.158 512.621L491.195 491.165L488.956 491.642L488.841 491.667L488.855 479.054C489.241 478.765 489.635 478.477 490.03 478.204C490.21 478.072 490.387 477.945 490.57 477.822C490.752 477.7 490.926 477.587 491.11 477.453L491.222 477.374L491.223 475.82C491.068 475.842 490.925 475.864 490.763 475.876L490.317 475.923C489.973 475.959 489.629 475.987 489.291 476.007C489.159 476.015 489.028 476.03 488.9 476.033C488.886 476.032 488.873 476.03 488.86 476.027L488.865 470.523C489.164 470.471 489.493 470.417 489.813 470.36L490.038 470.319L490.638 470.201L491.239 470.076L491.242 467.416L491.251 463.374L491.279 448.681L488.9 448.452L488.905 446.185L488.922 433.351L488.934 422.384L488.93 406.257C488.895 406.315 488.857 406.371 488.822 406.423C488.788 406.476 488.76 406.527 488.732 406.575C488.704 406.623 488.69 406.636 488.668 406.667C488.645 406.699 488.64 406.718 488.627 406.742C488.627 406.748 488.626 406.754 488.624 406.759C488.62 406.788 488.59 406.809 488.574 406.839C488.563 406.855 488.552 406.872 488.543 406.889L488.492 406.974L488.472 407.006C488.468 407.035 488.44 407.062 488.425 407.086C488.409 407.11 488.425 407.086 488.422 407.103L488.359 407.207L484.586 406.238L484.559 424.573L484.544 437.396L484.529 448.028L484.523 450.204L484.508 465.097L484.505 467.425L484.501 470.947L484.496 475.895L484.485 482.588L484.451 492.594L484.437 494.545L484.412 514.044L484.407 518.04L484.407 518.966L484.4 522.551L484.391 524.465L484.377 536.357L484.353 553.801L484.349 557.264C485.775 556.894 487.236 556.464 488.732 555.976L488.752 551.587Z" fill="url(#paint3_linear)"/>
<path d="M489.246 180.22L489.232 192.505L489.203 214.795L488.688 597.238L488.693 599.067C488.684 605.644 486.064 611.948 481.409 616.593C476.753 621.238 470.445 623.843 463.87 623.835L287.716 623.618C281.307 623.611 275.15 621.121 270.536 616.67C265.923 612.219 263.213 606.153 262.974 599.746C262.963 599.427 262.963 599.112 262.961 598.789L263.462 217.307L263.498 193.222L263.515 179.957C263.517 177.354 264.032 174.778 265.03 172.374C266.028 169.971 267.489 167.788 269.33 165.949C271.172 164.111 273.357 162.653 275.762 161.66C278.166 160.667 280.743 160.157 283.344 160.16L469.468 160.387C472.069 160.389 474.644 160.904 477.045 161.902C479.447 162.9 481.628 164.362 483.465 166.204C485.302 168.046 486.758 170.231 487.75 172.636C488.742 175.041 489.25 177.618 489.246 180.22Z" fill="white"/>
<path d="M463.865 623.834L287.711 623.614C281.302 623.608 275.144 621.118 270.531 616.668C265.918 612.217 263.207 606.152 262.968 599.744C262.957 599.425 262.957 599.111 262.955 598.787L262.957 597.172C265.279 597.706 267.65 597.999 270.031 598.045L477.739 602.075C481.439 602.155 485.127 601.627 488.656 600.513C488.276 606.83 485.498 612.763 480.889 617.098C476.28 621.433 470.19 623.843 463.865 623.834Z" fill="#BAE2FF"/>
<path d="M489.236 187.3C488.544 187.245 266.506 188.164 263.508 189.419L263.516 179.948C263.525 174.694 265.618 169.658 269.337 165.948C273.056 162.237 278.095 160.155 283.347 160.16L469.468 160.387C472.068 160.39 474.642 160.905 477.043 161.904C479.443 162.902 481.624 164.364 483.46 166.205C485.296 168.047 486.751 170.232 487.742 172.637C488.734 175.041 489.242 177.617 489.238 180.218L489.236 187.3Z" fill="#BAE2FF"/>
<path d="M360.513 156.55C360.379 156.549 360.243 156.545 360.113 156.54C359.55 156.512 358.993 156.415 358.453 156.251C358.186 156.169 357.927 156.063 357.679 155.935C357.338 155.77 357.036 155.535 356.792 155.246C356.653 155.08 356.555 154.883 356.506 154.672C356.488 154.591 356.48 154.508 356.481 154.426C356.483 154.343 356.496 154.261 356.519 154.182C356.568 153.971 356.667 153.775 356.806 153.609C357.046 153.326 357.341 153.096 357.674 152.933L357.7 152.919C357.947 152.793 358.206 152.689 358.473 152.609C359.012 152.445 359.569 152.349 360.132 152.325C360.261 152.319 360.396 152.313 360.532 152.314L392.961 152.355L393.361 152.365C393.923 152.39 394.48 152.487 395.018 152.653C395.286 152.735 395.546 152.841 395.795 152.969C396.136 153.134 396.438 153.369 396.682 153.658C396.82 153.825 396.918 154.022 396.968 154.233C396.986 154.313 396.994 154.396 396.994 154.478C396.991 154.561 396.978 154.643 396.955 154.723C396.906 154.933 396.807 155.129 396.668 155.295C396.428 155.577 396.132 155.807 395.8 155.971L395.772 155.984C395.525 156.111 395.267 156.215 395.002 156.295C394.463 156.459 393.905 156.555 393.342 156.58L392.942 156.59L360.513 156.55Z" fill="#404094"/>
<path d="M396.461 154.477C396.459 154.549 396.448 154.62 396.428 154.69C396.385 154.872 396.299 155.043 396.179 155.186C395.97 155.434 395.712 155.634 395.42 155.775C395.415 155.776 395.411 155.775 395.406 155.773C395.189 155.884 394.962 155.976 394.729 156.048C394.259 156.19 393.774 156.272 393.285 156.294L392.937 156.304L360.515 156.276L360.165 156.265C359.676 156.243 359.191 156.159 358.723 156.016C358.49 155.945 358.264 155.853 358.047 155.742C357.748 155.598 357.483 155.393 357.268 155.14C357.147 154.995 357.061 154.824 357.017 154.641C357.003 154.57 356.995 154.497 356.996 154.425C356.998 154.353 357.009 154.281 357.029 154.212C357.071 154.029 357.157 153.858 357.278 153.715C357.487 153.468 357.745 153.267 358.034 153.123L358.051 153.126C358.269 153.014 358.496 152.922 358.729 152.85C359.198 152.708 359.683 152.625 360.173 152.605L360.52 152.595L392.949 152.635L393.297 152.646C393.787 152.668 394.272 152.752 394.742 152.895C394.974 152.966 395.201 153.058 395.417 153.169C395.716 153.314 395.981 153.519 396.196 153.771C396.317 153.916 396.402 154.087 396.444 154.27C396.458 154.338 396.464 154.407 396.461 154.477Z" fill="url(#paint4_linear)"/>
<path d="M521.792 463.597C498.683 477.405 479.459 480.716 472.911 468.622C469.895 463.054 471.716 455.124 476.618 447.28C481.248 439.87 488.629 432.542 497.292 427.364C520.149 413.697 536.385 401.806 551.171 420.8C551.341 421.016 551.51 421.237 551.681 421.462C553.298 423.559 554.151 426.146 554.096 428.794C553.94 439.453 540.368 452.505 521.792 463.597Z" fill="#FEB098"/>
<g style="mix-blend-mode:multiply" opacity="0.2">
<path d="M521.792 463.597C498.666 477.403 479.459 480.716 472.911 468.622C472.707 468.25 472.528 467.865 472.373 467.47C480.805 474.581 497.954 470.512 518.076 458.498C536.651 447.412 550.224 434.357 550.377 423.7C550.396 422.704 550.288 421.709 550.057 420.739C549.874 419.99 549.615 419.261 549.286 418.564C549.918 419.245 550.542 420.003 551.17 420.806C551.343 421.022 551.509 421.243 551.68 421.468C552.669 422.765 553.381 424.252 553.773 425.835C554.004 426.805 554.112 427.8 554.093 428.796C553.94 439.453 540.368 452.508 521.792 463.597Z" fill="#FEB098"/>
</g>
<path d="M517.943 510.9C540.09 497.666 554.591 484.144 546.007 470.017C536.285 454.036 516.043 462.421 493.889 475.669C476.806 485.885 464.908 504.829 470.539 515.208C476.802 526.795 495.783 524.13 517.943 510.9Z" fill="#FEB098"/>
<g style="mix-blend-mode:multiply" opacity="0.2">
<path d="M517.944 510.897C496.139 523.918 477.413 526.707 470.843 515.759C479.121 522.366 495.843 518.795 514.92 507.421C537.066 494.189 551.57 480.668 542.981 466.54C542.748 466.169 542.513 465.809 542.276 465.466C543.744 466.788 545.003 468.325 546.012 470.024C554.591 484.144 540.107 497.668 517.944 510.897Z" fill="#FEB098"/>
</g>
<path d="M498.332 556.918C518.182 548.567 529.97 537.675 526.3 526.61C521.352 511.727 502.424 516.848 482.581 525.212C467.277 531.663 455.243 545.931 458.694 555.163C462.516 565.465 478.485 565.272 498.332 556.918Z" fill="#FEB098"/>
<g style="mix-blend-mode:multiply" opacity="0.2">
<path d="M498.332 556.918C478.485 565.273 462.516 565.466 458.68 555.161C458.46 554.571 458.301 553.961 458.205 553.34C463.388 561.428 478.435 560.698 496.802 552.971C515.92 544.927 527.562 534.522 525.111 523.883C525.59 524.759 525.987 525.678 526.297 526.627C529.97 537.675 518.182 548.564 498.332 556.918Z" fill="#FEB098"/>
</g>
<path d="M504.783 459.476C505.837 458.619 506.611 455.509 506.223 453.172C505.456 448.584 502.767 443.899 499.536 441.836C495.285 439.105 480.244 452.356 479.935 457.402C479.626 462.447 481.259 468.009 487.708 468.06C492.705 468.093 501.022 462.541 504.783 459.476Z" fill="#FAD0CB"/>
<path d="M504.44 505.89C505.545 505.09 506.327 502.159 505.885 499.941C505.02 495.591 502.108 491.136 498.662 489.136C494.128 486.497 478.273 497.901 476.627 502.379C474.981 506.858 477.735 513.905 484.577 514.029C489.86 514.127 500.487 508.744 504.44 505.89Z" fill="#FAD0CB"/>
<path d="M488.956 551.473C489.964 550.888 490.881 548.464 490.687 546.542C490.311 542.772 488.197 538.744 485.418 536.749C481.756 534.122 467.254 543.274 466.639 547.3C466.024 551.325 467.108 555.969 472.936 556.659C477.441 557.192 485.34 553.571 488.956 551.473Z" fill="#FAD0CB"/>
<path d="M299.96 960.898L139.948 935.88C156.924 877.442 177.451 804.141 189.66 751.307C193.008 736.816 195.728 723.868 197.579 713.186C197.632 712.847 197.69 712.512 197.753 712.183C197.768 712.086 197.783 711.989 197.798 711.899C200.975 692.843 202.121 646.004 197.384 627.559C192.233 607.542 186.536 570.556 185.71 545.305L184.02 500.541C182.922 489.477 184.797 478.32 189.451 468.223C189.501 468.129 189.546 468.028 189.592 467.934C197.061 451.991 216.501 402.057 232.921 368.072C233.549 366.771 234.173 365.495 234.792 364.243C235.016 363.792 235.224 363.338 235.462 362.892C235.532 362.743 235.608 362.595 235.686 362.45C235.818 362.179 235.948 361.926 236.076 361.666C236.09 361.635 236.106 361.604 236.125 361.575C236.498 360.83 236.87 360.102 237.237 359.379C237.3 359.255 237.362 359.137 237.421 359.018C237.911 358.061 238.397 357.133 238.88 356.222C238.997 355.993 239.117 355.764 239.239 355.544C239.592 354.869 239.952 354.2 240.3 353.556C240.535 353.133 240.758 352.714 240.991 352.305C241.504 351.369 242.014 350.465 242.515 349.588C242.716 349.233 242.917 348.883 243.122 348.539C243.299 348.241 243.474 347.939 243.648 347.649C244.169 346.773 244.682 345.928 245.186 345.124C245.688 344.33 246.18 343.568 246.662 342.852C246.824 342.612 246.984 342.372 247.142 342.144C247.512 341.634 247.849 341.137 248.208 340.663L248.516 340.26C248.629 340.112 248.742 339.966 248.861 339.819C248.98 339.672 249.144 339.464 249.287 339.289C249.606 338.905 249.92 338.538 250.237 338.186L250.586 337.812C250.702 337.688 250.815 337.557 250.934 337.448L251.28 337.094C251.453 336.923 251.625 336.752 251.798 336.593L252.316 336.109C252.656 335.798 253.007 335.504 253.347 335.228C253.347 335.228 253.347 335.228 253.364 335.231L253.695 334.974C253.861 334.846 254.024 334.734 254.193 334.604C254.527 334.365 254.859 334.14 255.188 333.93C255.35 333.827 255.512 333.721 255.681 333.628L256.091 333.401C256.283 333.292 256.476 333.194 256.666 333.098C256.855 333.003 256.982 332.938 257.156 332.866C257.33 332.794 257.47 332.72 257.643 332.651C257.817 332.582 257.955 332.52 258.121 332.464C258.979 332.138 259.871 331.908 260.78 331.779C260.914 331.76 261.038 331.744 261.171 331.733C261.88 331.658 262.594 331.651 263.304 331.711C264.835 331.844 266.323 332.281 267.683 332.996C277.771 338.171 283.497 357.545 275.843 373.86C275.144 375.349 271.524 385.14 267.586 393.429C266.3 396.222 264.834 398.928 263.197 401.531C262.575 402.518 261.854 403.439 261.045 404.28C260.637 404.721 260.141 405.072 259.589 405.31C259.589 405.31 259.544 416.763 257.498 428.66C256.627 433.764 255.398 438.928 253.654 443.327L253.202 444.898L251.326 451.425L241.617 485.179C241.183 486.276 246.037 492.9 253.125 503.099C254.472 505.039 255.903 507.105 257.393 509.297C258.54 510.984 259.721 512.737 260.936 514.555C261.629 515.595 262.336 516.658 263.043 517.737C264.476 519.923 265.932 522.183 267.412 524.516C272.451 532.485 277.639 541.252 282.372 550.457C284.203 554.006 285.963 557.615 287.624 561.268C299.896 588.262 305.676 604.553 308.599 620.773C308.669 621.165 308.738 621.56 308.805 621.952C308.903 622.532 309.002 623.106 309.093 623.682C309.439 625.844 309.74 628.01 309.999 630.228C310.145 631.415 310.27 632.64 310.393 633.867C310.583 635.812 310.756 637.795 310.915 639.832C311.014 641.224 311.055 647.643 311.01 657.836C310.913 682.648 310.349 729.84 309.037 781.388C307.393 846.281 304.547 918.14 299.96 960.898Z" fill="#FEB098"/>
<g style="mix-blend-mode:screen" opacity="0.2">
<path d="M210.786 756.345C200.773 803.636 183.785 871.902 167.255 940.15L139.948 935.88C156.924 877.443 177.451 804.141 189.66 751.307C193.008 736.816 195.728 723.868 197.579 713.186C197.632 712.847 197.69 712.513 197.753 712.183C197.768 712.086 197.783 711.99 197.798 711.899C200.975 692.843 202.121 646.004 197.384 627.559C192.233 607.542 186.536 570.556 185.71 545.305L184.02 500.541C182.922 489.477 184.797 478.32 189.451 468.223C189.501 468.129 189.546 468.028 189.592 467.934C197.061 451.991 216.501 402.057 232.921 368.072C233.549 366.771 234.173 365.495 234.792 364.243C234.941 363.937 235.093 363.638 235.224 363.338C235.355 363.038 235.517 362.746 235.671 362.453C235.824 362.16 235.933 361.929 236.061 361.67C236.075 361.638 236.091 361.608 236.11 361.579C236.483 360.833 236.855 360.106 237.222 359.383C237.285 359.259 237.347 359.14 237.406 359.022L243.816 364.548C243.816 364.548 243.081 366.179 241.813 369.04C233.153 388.622 199.5 466.592 202.002 490.193C204.868 517.252 205.253 542.876 207.4 569.099C209.533 595.156 223.941 655.66 219.358 706.973C218.404 717.839 215.308 734.943 210.786 756.345Z" fill="#FEB098"/>
</g>
<path d="M232.928 368.067C238.638 369.473 246.89 369.234 249.085 368.111C253.794 365.703 261.524 352.773 263.794 343.598C265.226 337.825 261.26 334.268 258.126 332.427C254.546 333.757 250.806 336.834 247.155 342.134C243.769 347.043 239.862 354.108 235.689 362.447C235.403 363.037 235.106 363.633 234.799 364.235C234.178 365.489 233.554 366.766 232.928 368.067Z" fill="#FAD0CB"/>
<path d="M345.237 967.977L127.624 933.953C140.446 888.384 157.811 830.619 170.181 792.204C170.406 791.509 170.63 790.819 170.847 790.137C178.082 767.742 183.494 752.374 185.085 750.644C185.244 750.468 186.861 750.715 189.657 751.309C194.095 752.239 201.504 754.035 210.784 756.341C224.935 759.887 243.421 764.646 262.331 769.507C278.403 773.629 294.787 777.806 309.055 781.332C320.091 784.054 329.864 786.382 337.271 787.991C338.397 788.237 339.478 788.465 340.49 788.678C340.904 788.766 341.307 788.847 341.702 788.926L341.779 788.938C342.192 789.029 342.602 789.107 343.006 789.185C343.534 789.288 344.042 789.388 344.526 789.475C344.773 789.514 345.009 789.55 345.235 789.612L345.962 789.726L346.482 789.807C347.004 789.889 347.484 789.964 347.933 790.034C350.023 790.343 351.324 790.416 351.689 790.208C355.047 788.308 351.341 899.98 345.237 967.977Z" fill="#FFD447"/>
<g style="mix-blend-mode:multiply" opacity="0.3">
<g style="mix-blend-mode:multiply" opacity="0.3">
<path d="M447.389 434.833C447.393 431.512 444.951 428.816 441.929 428.812L289.056 428.591C286.042 428.588 283.594 431.277 283.587 434.597L283.53 473.073C283.526 476.394 285.965 479.09 288.99 479.094L296.187 479.104C295.037 482.328 293.736 485.833 292.638 488.779C291.597 491.544 293.882 494.425 296.512 493.663L346.497 479.178L441.871 479.317C444.888 479.32 447.337 476.632 447.341 473.311L447.389 434.833Z" fill="#A1D7FF"/>
</g>
<g style="mix-blend-mode:multiply" opacity="0.3">
<path d="M506.759 338.117L350.729 337.844C347.651 337.837 345.153 340.681 345.147 344.193L345.095 384.892C345.091 388.402 347.592 391.255 350.661 391.261L448.006 391.431L498.982 406.917C501.662 407.732 504.005 404.693 502.95 401.763C501.829 398.647 500.509 394.933 499.344 391.52L506.691 391.533C509.769 391.54 512.268 388.697 512.27 385.183L512.322 344.485C512.327 340.975 509.837 338.123 506.759 338.117Z" fill="#A1D7FF"/>
</g>
<g style="mix-blend-mode:multiply" opacity="0.3">
<path d="M514.607 291.083C509.643 295.784 504.965 300.779 500.601 306.042L389.883 305.885L328.066 324.508C324.811 325.49 321.986 321.785 323.273 318.228C324.644 314.446 326.254 309.938 327.678 305.794L318.779 305.783C315.046 305.781 312.03 302.311 312.038 298.034L312.115 248.56C312.122 244.293 315.15 240.837 318.88 240.841L507.936 241.113C511.666 241.114 514.682 244.584 514.673 248.862L514.607 291.083Z" fill="#A1D7FF"/>
</g>
<g style="mix-blend-mode:multiply" opacity="0.5">
<path d="M507.833 306.052L500.601 306.042C504.965 300.779 509.643 295.784 514.607 291.083L514.6 298.333C514.593 302.603 511.562 306.058 507.833 306.052Z" fill="#FEB098"/>
</g>
<g style="mix-blend-mode:multiply" opacity="0.3">
<path d="M315.33 384.532C314.788 385.003 314.224 385.444 313.641 385.863C313.558 385.923 313.473 385.985 313.392 386.036C312.993 386.321 312.584 386.59 312.166 386.843C311.066 387.528 309.914 388.127 308.721 388.633C307.29 389.235 305.806 389.7 304.287 390.021C300.366 390.871 296.299 390.764 292.428 389.711C288.557 388.657 284.996 386.687 282.046 383.968C281.499 383.466 280.972 382.926 280.472 382.388C278.884 380.643 277.548 378.683 276.505 376.566C276.168 375.876 275.851 375.169 275.585 374.446C275.695 374.172 275.788 373.954 275.853 373.812C279.188 366.6 280.194 358.528 278.731 350.719C278.731 350.719 278.731 350.719 278.731 350.719C280.813 347.853 283.478 345.461 286.551 343.701C289.624 341.94 293.035 340.85 296.559 340.502C300.083 340.155 303.64 340.558 306.997 341.685C310.354 342.811 313.434 344.637 316.035 347.04C318.636 349.444 320.699 352.371 322.087 355.63C323.476 358.888 324.159 362.404 324.091 365.946C324.024 369.488 323.207 372.975 321.696 376.179C320.184 379.383 318.011 382.23 315.321 384.533L315.33 384.532Z" fill="#A1D7FF"/>
</g>
<g style="mix-blend-mode:multiply" opacity="0.5">
<path d="M275.861 373.817C275.796 373.958 275.704 374.17 275.594 374.45C274.1 370.546 273.606 366.33 274.155 362.186C274.705 358.042 276.28 354.1 278.739 350.72C280.202 358.531 279.196 366.603 275.861 373.817Z" fill="#FEB098"/>
</g>
<g style="mix-blend-mode:multiply" opacity="0.3">
<path d="M311.921 545.241C308.983 548.989 305.041 551.826 300.554 553.42C296.067 555.014 291.22 555.301 286.577 554.247C285.69 554.045 284.814 553.794 283.954 553.496C283.44 552.467 282.921 551.441 282.398 550.418C277.71 541.321 272.59 532.641 267.604 524.741C268.364 521.034 269.951 517.547 272.248 514.541C274.545 511.534 277.491 509.086 280.867 507.38C284.243 505.673 287.961 504.753 291.743 504.687C295.525 504.621 299.273 505.411 302.706 506.999C306.138 508.587 309.168 510.931 311.567 513.856C313.966 516.781 315.673 520.211 316.56 523.889C317.447 527.567 317.491 531.398 316.689 535.096C315.886 538.794 314.258 542.262 311.927 545.242L311.921 545.241Z" fill="#A1D7FF"/>
</g>
<g style="mix-blend-mode:multiply" opacity="0.3">
<path d="M283.954 553.496C280.178 552.183 276.771 549.988 274.014 547.092C273.469 546.521 272.952 545.925 272.467 545.305C268.973 540.873 267.083 535.387 267.104 529.743C267.108 528.063 267.278 526.388 267.613 524.743C272.599 532.642 277.721 541.323 282.407 550.419C282.925 551.437 283.44 552.463 283.954 553.496Z" fill="#FEB098"/>
</g>
<g style="mix-blend-mode:multiply" opacity="0.5">
<path d="M536.419 436.766C536.424 432.699 535.441 428.693 533.555 425.091C531.669 421.489 528.936 418.4 525.592 416.09C522.247 413.779 518.391 412.317 514.356 411.828C510.321 411.339 506.227 411.839 502.428 413.284C498.629 414.729 495.237 417.077 492.545 420.124C489.854 423.171 487.943 426.827 486.977 430.777C486.011 434.727 486.019 438.852 487.001 442.798C487.982 446.744 489.908 450.392 492.612 453.428C493.14 454.021 493.692 454.586 494.27 455.122C494.601 455.426 494.942 455.724 495.294 456.016C496.814 457.286 498.48 458.369 500.257 459.243C500.838 459.531 501.433 459.796 502.036 460.033C504.558 461.045 507.23 461.634 509.943 461.776C510.393 461.803 510.842 461.815 511.296 461.816C514.479 461.823 517.634 461.223 520.593 460.047C524.36 458.547 527.707 456.156 530.348 453.078C534.26 448.544 536.414 442.755 536.419 436.766Z" fill="#FEB098"/>
</g>
</g>
<path d="M449.631 417.776L296.76 417.546C293.746 417.541 291.298 420.229 291.291 423.549L291.231 462.025C291.227 465.346 293.666 468.042 296.691 468.049L303.888 468.056C302.738 471.279 301.434 474.787 300.339 477.73C299.298 480.499 301.583 483.377 304.213 482.615L354.198 468.133L449.553 468.277C452.57 468.283 455.018 465.595 455.022 462.274L455.082 423.798C455.088 420.469 452.645 417.781 449.631 417.776Z" fill="#FF7387"/>
<path d="M358.422 326.806L514.452 327.082C517.53 327.086 520.02 329.938 520.015 333.45L519.964 374.14C519.96 377.65 517.464 380.494 514.386 380.49L507.038 380.476C508.204 383.887 509.523 387.601 510.645 390.716C511.697 393.646 509.357 396.686 506.676 395.871L455.7 380.393L358.355 380.223C355.277 380.216 352.784 377.367 352.789 373.854L352.834 333.163C352.846 329.643 355.345 326.802 358.422 326.806Z" fill="#4DB5FF"/>
<path d="M331.793 354.48C331.79 358.093 331.005 361.663 329.492 364.943C327.979 368.224 325.774 371.139 323.028 373.486C322.483 373.954 321.919 374.396 321.336 374.814C321.257 374.874 321.168 374.936 321.087 374.99C320.688 375.271 320.279 375.542 319.865 375.795C318.763 376.48 317.61 377.078 316.416 377.584C314.986 378.186 313.503 378.651 311.986 378.973C308.064 379.82 303.997 379.713 300.126 378.658C296.256 377.604 292.695 375.635 289.745 372.916C289.195 372.414 288.671 371.875 288.167 371.336C285.423 368.321 283.455 364.683 282.433 360.735C281.412 356.787 281.367 352.65 282.304 348.681C283.24 344.712 285.13 341.031 287.809 337.957C290.488 334.883 293.875 332.509 297.678 331.039C301.48 329.57 305.583 329.049 309.632 329.523C313.681 329.998 317.553 331.452 320.913 333.76C324.273 336.069 327.02 339.162 328.915 342.771C330.811 346.381 331.799 350.399 331.793 354.477L331.793 354.48Z" fill="#A1D7FF"/>
<path d="M515.63 230.09L326.571 229.82C322.843 229.82 319.813 233.27 319.809 237.54L319.729 287.013C319.722 291.282 322.739 294.746 326.467 294.762L335.372 294.774C333.944 298.917 332.335 303.425 330.966 307.208C329.677 310.767 332.502 314.469 335.755 313.487L397.575 294.862L515.524 295.031C519.254 295.032 522.282 291.579 522.288 287.312L522.368 237.839C522.376 233.561 519.356 230.096 515.63 230.09Z" fill="#87CCFF"/>
<path d="M510.111 249.176L333.82 248.926C333.751 248.926 333.682 248.912 333.619 248.886C333.555 248.859 333.497 248.82 333.448 248.771C333.399 248.722 333.36 248.664 333.334 248.6C333.308 248.536 333.294 248.468 333.294 248.398L333.307 241.208C333.307 241.138 333.32 241.07 333.347 241.005C333.373 240.941 333.412 240.883 333.461 240.834C333.51 240.785 333.568 240.747 333.632 240.72C333.697 240.694 333.765 240.681 333.835 240.682L510.126 240.932C510.266 240.933 510.4 240.989 510.499 241.088C510.598 241.188 510.654 241.322 510.654 241.463L510.642 248.651C510.642 248.72 510.628 248.789 510.602 248.853C510.575 248.917 510.536 248.976 510.487 249.025C510.437 249.073 510.379 249.112 510.314 249.138C510.25 249.164 510.181 249.177 510.111 249.176Z" fill="white"/>
<path d="M509.25 259.833L334.635 259.581C333.879 259.579 333.266 260.192 333.264 260.948L333.256 266.455C333.255 267.211 333.866 267.825 334.622 267.826L509.237 268.078C509.993 268.079 510.606 267.467 510.607 266.711L510.616 261.204C510.617 260.448 510.006 259.834 509.25 259.833Z" fill="white"/>
<path d="M323.42 366.587C322.545 368.849 322.28 370.621 323.024 373.511C322.479 373.979 321.915 374.422 321.332 374.839C321.253 374.9 321.165 374.961 321.083 375.016C320.684 375.297 320.275 375.568 319.861 375.82C318.759 376.505 317.606 377.103 316.412 377.61C314.982 378.211 313.499 378.676 311.982 378.998C308.06 379.846 303.993 379.738 300.122 378.684C296.252 377.63 292.691 375.661 289.741 372.942C289.191 372.439 288.667 371.901 288.163 371.362C286.579 369.621 285.247 367.665 284.207 365.553C284.239 365.456 284.275 365.357 284.311 365.255C285.331 362.457 285.955 363.672 288.053 361.218C290.151 358.763 288.089 358.603 288.155 354.984C288.22 351.364 290.43 350.615 291.939 348.426C293.448 346.237 291.746 341.244 293.254 338.918C294.761 336.592 296.818 337.167 299.365 334.855C301.912 332.543 306.268 334.252 306.268 334.252C314.261 332.803 318.518 339.928 320.826 342.492C323.134 345.057 322.962 348.13 322.468 353.19C321.973 358.251 323.803 357.475 324.386 360.576C324.732 362.397 324.312 364.287 323.42 366.587Z" fill="url(#paint5_linear)"/>
<g style="mix-blend-mode:multiply" opacity="0.3">
<g style="mix-blend-mode:multiply" opacity="0.3">
<path d="M319.863 375.806C318.761 376.491 317.608 377.089 316.414 377.595C314.985 378.197 313.501 378.662 311.984 378.984C310.247 378.462 308.808 377.801 308.616 377.002C308.339 375.905 306.951 373.004 305.866 370.078C305.51 369.144 305.201 368.192 304.942 367.226C304.492 365.526 304.332 364.036 304.794 363.165C304.977 362.829 305.186 362.508 305.419 362.204C306.114 361.303 306.879 360.459 307.707 359.68C308.013 359.381 308.336 359.085 308.666 358.796C309.277 358.257 309.914 357.739 310.541 357.282C312.485 355.868 314.327 355.029 315.042 355.817C315.388 356.216 315.696 356.648 315.96 357.107C316.319 357.76 316.719 358.39 317.155 358.994C317.966 360.038 318.924 361.192 318.744 362.508C318.609 363.518 317.814 364.328 317.558 365.313C317.254 366.458 317.71 367.651 318.108 368.769C318.452 369.737 318.754 370.718 319.016 371.712C319.203 372.378 319.351 373.048 319.49 373.724C319.628 374.401 319.759 375.111 319.863 375.806Z" fill="#3B1105"/>
</g>
</g>
<g style="mix-blend-mode:multiply" opacity="0.3">
<path d="M299.444 376.709C299.07 377.155 298.741 377.635 298.46 378.144C295.228 377.017 292.261 375.239 289.744 372.919C289.194 372.417 288.671 371.878 288.167 371.339C288.213 371.071 288.226 370.798 288.207 370.527C287.972 367.545 291.638 364.025 294.084 362.713C296.53 361.402 296.755 359.347 296.292 356.596C296.16 355.954 296.238 355.285 296.514 354.69C296.791 354.095 297.251 353.605 297.827 353.291C298.016 353.173 298.216 353.076 298.425 353C298.425 353 300.027 353.155 300.723 353.918C301.226 354.584 301.608 355.334 301.852 356.132C302.238 357.273 302.526 358.445 302.712 359.635C302.762 359.934 302.804 360.205 302.839 360.481C303.114 362.443 303.213 364.269 303.592 367.222C303.686 367.961 303.796 368.764 303.932 369.665C303.935 369.684 303.94 369.703 303.946 369.722C304.716 374.794 300.36 376.02 299.444 376.709Z" fill="#3B1105"/>
</g>
<path d="M321.086 375.001C320.687 375.283 320.278 375.553 319.863 375.806C318.761 376.491 317.608 377.089 316.414 377.595C314.985 378.197 313.501 378.662 311.984 378.984C308.063 379.831 303.995 379.724 300.125 378.67C296.254 377.616 292.693 375.646 289.743 372.927C291.911 370.431 295.132 368.239 299.903 367.498L299.951 367.505L302.195 367.335C302.654 367.302 303.118 367.278 303.589 367.262C304.06 367.245 304.465 367.239 304.926 367.25C306.927 367.255 308.918 367.527 310.846 368.059C311.353 368.207 311.852 368.383 312.341 368.584C312.341 368.584 316.408 369.668 318.993 371.746C319.524 372.165 319.993 372.658 320.385 373.209L320.439 373.293C320.792 373.8 321.014 374.387 321.086 375.001Z" fill="url(#paint6_linear)"/>
<path d="M310.849 368.877L310.957 361.658L300.14 355.114L299.951 367.491L300.703 368.057C302.053 369.055 303.619 369.722 305.273 370.005C306.928 370.288 308.626 370.179 310.231 369.686C310.407 369.634 310.561 369.528 310.672 369.383C310.783 369.237 310.845 369.06 310.849 368.877Z" fill="url(#paint7_linear)"/>
<path d="M310.646 341.369C312.662 342.267 315.04 344.068 316.38 347.683C316.38 347.683 318.505 363.254 309.358 363.003C309.358 363.003 302.294 363.52 300.065 355.632C300.065 355.632 296.873 354.513 297.718 350.433C298.322 347.514 300.122 348.532 300.765 349.256C300.803 349.29 300.849 349.314 300.898 349.324C300.948 349.335 301 349.332 301.048 349.316C301.096 349.301 301.14 349.272 301.173 349.234C301.207 349.196 301.23 349.15 301.24 349.1C301.396 347.489 301.984 343.584 304.046 342.323C304.958 341.775 308.954 340.616 310.646 341.369Z" fill="url(#paint8_linear)"/>
<path d="M309.785 357.262C310.254 357.302 310.725 357.305 311.195 357.27C311.658 357.2 312.116 357.093 312.563 356.951C312.789 357.159 312.413 358.116 311.671 358.71C311.354 358.98 310.974 359.164 310.566 359.244C308.773 359.546 306.742 357.351 307.007 356.901C307.014 356.887 307.024 356.874 307.036 356.865C307.178 356.759 307.709 357.156 309.785 357.262Z" fill="white"/>
<path d="M321.336 374.814C321.257 374.874 321.168 374.936 321.087 374.99C320.688 375.271 320.279 375.542 319.865 375.795C318.763 376.48 317.61 377.078 316.416 377.584C317.258 376.165 318.292 374.869 319.489 373.733C319.88 373.39 320.205 373.19 320.407 373.184L320.46 373.268C320.696 373.619 320.894 373.956 321.066 374.268L321.336 374.814Z" fill="url(#paint9_linear)"/>
<path d="M503.027 347.133L364.576 346.89C364.396 346.89 364.217 346.854 364.051 346.785C363.885 346.716 363.734 346.614 363.607 346.486C363.48 346.358 363.38 346.206 363.312 346.039C363.244 345.872 363.21 345.693 363.211 345.513L363.219 340.344C363.219 340.163 363.255 339.985 363.324 339.818C363.393 339.651 363.495 339.5 363.623 339.372C363.751 339.245 363.903 339.145 364.07 339.077C364.238 339.009 364.417 338.974 364.597 338.976L503.063 339.221C503.243 339.222 503.421 339.258 503.588 339.327C503.754 339.397 503.905 339.498 504.032 339.626C504.159 339.754 504.26 339.906 504.328 340.073C504.396 340.24 504.431 340.419 504.43 340.599L504.422 345.768C504.422 345.95 504.385 346.129 504.314 346.297C504.244 346.464 504.141 346.616 504.011 346.743C503.881 346.87 503.727 346.97 503.558 347.037C503.389 347.104 503.209 347.137 503.027 347.133Z" fill="white"/>
<path d="M503.014 357.678L364.563 357.435C364.383 357.434 364.204 357.398 364.038 357.329C363.872 357.259 363.721 357.157 363.594 357.029C363.468 356.901 363.367 356.749 363.299 356.583C363.231 356.416 363.197 356.237 363.198 356.057L363.204 350.885C363.204 350.705 363.24 350.526 363.31 350.36C363.379 350.194 363.481 350.043 363.609 349.916C363.737 349.789 363.889 349.689 364.055 349.621C364.222 349.553 364.401 349.519 364.581 349.52L503.032 349.763C503.212 349.763 503.391 349.799 503.557 349.869C503.723 349.938 503.874 350.04 504.001 350.168C504.127 350.296 504.228 350.448 504.296 350.615C504.364 350.782 504.398 350.96 504.397 351.14L504.392 356.309C504.392 356.49 504.356 356.669 504.287 356.835C504.217 357.002 504.115 357.153 503.987 357.28C503.859 357.407 503.707 357.508 503.54 357.576C503.373 357.644 503.194 357.679 503.014 357.678Z" fill="white"/>
<path d="M503.001 368.868L364.55 368.625C364.37 368.625 364.192 368.589 364.026 368.519C363.859 368.45 363.709 368.348 363.582 368.22C363.455 368.092 363.355 367.94 363.287 367.773C363.219 367.606 363.184 367.428 363.186 367.248L363.191 362.079C363.191 361.898 363.227 361.72 363.297 361.553C363.366 361.387 363.468 361.236 363.596 361.109C363.724 360.982 363.876 360.881 364.043 360.813C364.21 360.744 364.388 360.71 364.569 360.71L503.02 360.953C503.2 360.954 503.378 360.99 503.544 361.059C503.711 361.129 503.861 361.231 503.988 361.359C504.115 361.487 504.215 361.639 504.283 361.805C504.351 361.972 504.386 362.151 504.384 362.331L504.379 367.5C504.379 367.681 504.343 367.859 504.274 368.026C504.205 368.192 504.103 368.344 503.975 368.471C503.847 368.598 503.695 368.699 503.528 368.767C503.361 368.835 503.182 368.869 503.001 368.868Z" fill="white"/>
<path d="M441.265 444.093L312.393 443.906C312.212 443.906 312.034 443.87 311.868 443.8C311.702 443.731 311.551 443.629 311.424 443.501C311.298 443.373 311.197 443.221 311.129 443.054C311.061 442.888 311.027 442.709 311.028 442.529L311.033 438.163C311.033 437.983 311.069 437.805 311.139 437.638C311.208 437.472 311.31 437.321 311.438 437.194C311.566 437.068 311.718 436.967 311.884 436.899C312.051 436.831 312.23 436.797 312.41 436.798L441.282 436.984C441.463 436.984 441.641 437.019 441.808 437.089C441.974 437.158 442.126 437.26 442.252 437.388C442.379 437.516 442.48 437.668 442.547 437.835C442.615 438.002 442.649 438.181 442.647 438.362L442.642 442.727C442.641 443.091 442.495 443.439 442.236 443.695C441.978 443.951 441.629 444.094 441.265 444.093Z" fill="white"/>
<path d="M324.945 518.776C324.941 523.789 323.436 528.685 320.624 532.834C317.812 536.982 313.823 540.194 309.17 542.053C304.517 543.912 299.414 544.335 294.519 543.266C289.624 542.196 285.162 539.685 281.708 536.055C281.166 535.484 280.645 534.887 280.16 534.267C277.685 531.123 275.998 527.432 275.24 523.503C274.481 519.574 274.673 515.52 275.8 511.679C276.927 507.839 278.955 504.324 281.716 501.428C284.478 498.532 287.891 496.338 291.672 495.03C295.453 493.723 299.492 493.338 303.451 493.91C307.411 494.482 311.176 495.993 314.432 498.317C317.689 500.641 320.342 503.711 322.171 507.27C324 510.829 324.951 514.774 324.945 518.776Z" fill="#A1D7FF"/>
<path d="M315.795 538.124C310.904 542.154 304.669 544.181 298.344 543.798C292.02 543.414 286.075 540.649 281.708 536.058C281.901 535.657 282.198 535.315 282.569 535.069C286.071 532.79 289.328 531.759 293.103 530.486L293.137 530.474L293.383 530.425L293.409 530.429L293.538 530.403L293.575 530.409C296.196 529.855 301.095 528.674 304.793 529.252C305.173 529.306 305.549 529.385 305.92 529.486L305.954 529.491L306.132 529.545C306.142 529.55 306.154 529.552 306.166 529.551C306.695 529.713 307.198 529.948 307.663 530.248C310.131 531.842 313.642 531.887 315.795 538.124Z" fill="white"/>
<path d="M304.073 515.673C304.565 518.215 304.86 520.792 304.954 523.379C305.018 525.18 304.985 526.984 304.857 528.781C304.635 535.267 298.49 536.341 295.585 534.751C294.652 534.242 294.107 533.647 293.721 531.989C293.453 530.817 293.581 528.826 293.693 527.795C293.998 524.985 293.625 524.373 293.969 523.126L304.073 515.673Z" fill="url(#paint10_linear)"/>
<path d="M290.518 509.112C289.559 512.935 290.161 516.214 290.499 518.205C291.004 521.172 291.39 522.551 292.324 523.896C295.887 529.023 301.476 528.055 304.917 524.992C306.977 523.154 307.197 519.081 307.663 517.763C308.221 516.185 309.7 511.951 308.212 508.365C305.676 502.254 295.661 500.837 292.209 504.943C291.295 506.022 290.972 507.36 290.518 509.112Z" fill="url(#paint11_linear)"/>
<path d="M288.47 505.182C286.719 511.763 290.348 516.007 290.635 517.647C290.734 518.207 289.995 515.53 290.153 515.52C290.312 515.51 290.049 513.192 290.644 509.926C290.958 508.194 290.898 508.708 291.301 508.046C293.348 504.693 299.302 505.263 300.643 505.528C303.182 506.032 304.502 504.83 305.244 506.396C305.752 507.465 303.812 510.136 306.887 513.738C307.034 513.912 306.988 514.504 307.342 514.973C307.628 515.344 308.105 515.675 308.426 515.655C309.442 515.575 311.376 510.725 310.669 507.674C309.55 502.862 307.179 501.016 304.279 499.931C299.33 498.083 289.786 500.224 288.47 505.182Z" fill="url(#paint12_linear)"/>
<path d="M307.224 514.784C307.171 514.684 307.127 514.58 307.095 514.472C307.151 514.537 307.193 514.614 307.217 514.698C307.227 514.725 307.229 514.755 307.224 514.784Z" fill="url(#paint13_linear)"/>
<path d="M305.478 506.779C305.434 506.838 305.386 506.894 305.333 506.945C305.344 506.778 305.322 506.61 305.267 506.452C305.327 506.396 305.382 506.334 305.43 506.268L305.429 506.16C305.46 506.365 305.477 506.572 305.478 506.779Z" fill="url(#paint14_linear)"/>
<path d="M306.487 515.174C306.839 514.173 307.757 512.968 308.507 513.196C309.257 513.424 309.551 514.876 309.369 515.951C309.1 517.521 307.641 518.851 306.89 518.515C306.192 518.199 306.044 516.429 306.487 515.174Z" fill="url(#paint15_linear)"/>
<path d="M290.602 513.448C290.103 512.918 289.102 512.401 288.466 512.782C287.741 513.213 287.848 514.574 288.025 515.266C288.508 517.131 290.479 517.902 290.794 518.027C291.597 516.226 291.538 514.424 290.602 513.448Z" fill="url(#paint16_linear)"/>
<path d="M294.275 543.201C289.477 542.104 285.109 539.615 281.718 536.047C281.176 535.476 280.655 534.88 280.17 534.26C280.564 533.962 281.007 533.736 281.479 533.591C283.555 533.005 285.384 532.455 286.916 531.984C287.659 531.675 291.815 530.855 293.116 530.462L293.161 530.449C293.25 530.419 293.324 530.395 293.377 530.372C293.43 530.348 293.513 530.338 293.566 530.334C293.619 530.331 293.589 530.338 293.589 530.338L293.603 530.358C293.741 530.612 293.718 531.374 293.82 532.362C294.052 534.637 294.193 538.568 294.275 543.201Z" fill="url(#paint17_linear)"/>
<path d="M319.614 534.206C315.996 538.832 310.871 542.042 305.131 543.277C304.965 536.265 304.836 530.833 304.824 529.312L304.824 529.091L304.841 529.093C305.04 529.174 305.437 529.297 305.949 529.447L305.983 529.452L306.161 529.506C306.172 529.511 306.183 529.513 306.195 529.512C307.925 530.021 310.634 530.75 311.227 530.994C312.754 531.463 315.225 532.015 317.308 532.6C318.214 532.904 319.014 533.462 319.614 534.206Z" fill="url(#paint18_linear)"/>
<g style="mix-blend-mode:multiply" opacity="0.3">
<path d="M305.478 506.779C305.434 506.838 305.386 506.894 305.333 506.945C304.864 507.41 303.17 508.607 298.966 507.228C296.851 506.536 291.774 508.688 290.573 510.32L290.635 509.925C290.654 509.802 290.672 509.691 290.687 509.592C292.142 507.992 296.88 506.049 298.901 506.711C303.053 508.073 304.757 506.925 305.25 506.449C305.31 506.393 305.365 506.331 305.413 506.265L305.412 506.157C305.449 506.362 305.471 506.57 305.478 506.779Z" fill="#F08A71"/>
</g>
<path d="M305.43 506.268C305.43 506.268 304.024 508.376 298.919 506.705C296.592 505.942 290.659 508.636 290.291 510.281C289.924 511.927 290.193 507.355 290.193 507.355C290.193 507.355 293.5 504.554 294.571 504.18C295.642 503.806 301.29 501.961 303.388 502.799C305.486 503.636 305.43 506.268 305.43 506.268Z" fill="url(#paint19_linear)"/>
<path d="M301.526 522.567C299.749 522.879 297.928 522.838 296.167 522.445C296.137 522.438 296.105 522.44 296.076 522.449C296.046 522.459 296.02 522.476 295.999 522.499C295.978 522.522 295.964 522.55 295.958 522.581C295.951 522.611 295.953 522.643 295.963 522.672C296.101 523.27 296.405 523.817 296.841 524.249C297.276 524.682 297.825 524.982 298.424 525.115C300.291 525.57 301.422 523.619 301.718 522.809C301.729 522.78 301.733 522.748 301.728 522.717C301.724 522.686 301.711 522.657 301.692 522.632C301.672 522.608 301.647 522.589 301.617 522.577C301.588 522.566 301.557 522.562 301.526 522.567Z" fill="white"/>
<g style="mix-blend-mode:multiply" opacity="0.3">
<path d="M307.095 514.469C306.918 514.262 306.707 514.085 306.473 513.946C305.632 513.405 304.765 510.853 304.731 509.788C304.753 508.934 304.831 508.083 304.966 507.24C305.097 507.153 305.22 507.055 305.333 506.945C305.302 508.241 304.248 510.647 306.889 513.741C306.985 513.975 307.055 514.219 307.095 514.469Z" fill="#F08A71"/>
</g>
<g style="mix-blend-mode:multiply" opacity="0.3">
<path d="M307.224 514.784L307.217 514.695C307.228 514.723 307.23 514.754 307.224 514.784Z" fill="#F08A71"/>
</g>
<path d="M544.112 425.728C544.11 429.023 543.457 432.286 542.193 435.328C540.929 438.371 539.077 441.135 536.745 443.462C534.412 445.789 531.643 447.633 528.598 448.888C525.552 450.144 522.289 450.786 518.995 450.779C518.541 450.781 518.092 450.769 517.643 450.739C514.929 450.596 512.258 450.009 509.735 449C509.132 448.763 508.536 448.498 507.956 448.206C506.179 447.334 504.513 446.251 502.993 444.982C502.65 444.694 502.309 444.395 501.969 444.085C501.39 443.547 500.837 442.982 500.311 442.391C497.606 439.356 495.679 435.709 494.696 431.763C493.713 427.818 493.704 423.692 494.669 419.742C495.634 415.792 497.544 412.135 500.235 409.088C502.926 406.04 506.318 403.692 510.117 402.246C513.916 400.801 518.01 400.3 522.045 400.789C526.08 401.278 529.936 402.74 533.281 405.05C536.626 407.361 539.358 410.45 541.244 414.052C543.13 417.654 544.113 421.661 544.107 425.727L544.112 425.728Z" fill="#A1D7FF"/>
<path d="M538.038 442.043C535.398 445.12 532.052 447.51 528.286 449.009C527.786 448.249 527.377 447.433 527.066 446.577C526.338 444.562 525.916 442.449 525.814 440.309C525.802 439.999 525.797 439.695 525.796 439.401L523.684 432.108L522.259 427.19L521.805 425.605L521.077 423.096C520.93 423.94 520.73 424.775 520.48 425.596C520.238 426.399 519.948 427.283 519.609 428.222C519.347 428.953 519.057 429.725 518.738 430.522C518.524 431.071 518.296 431.635 518.054 432.214C517.747 432.949 517.426 433.703 517.088 434.465C516.243 436.394 515.311 438.388 514.347 440.35C514.234 440.586 514.116 440.821 514.001 441.053C513.378 442.303 512.74 443.537 512.108 444.727C511.305 446.235 510.503 447.679 509.725 449.012C509.121 448.775 508.526 448.51 507.946 448.219C506.168 447.346 504.502 446.264 502.982 444.995C502.639 444.706 502.298 444.408 501.959 444.098C501.379 443.559 500.827 442.995 500.3 442.404C500.314 442.319 500.326 442.236 500.34 442.151C500.907 439.396 506.615 423.92 506.509 417.747C506.344 408.325 512.267 408.258 516.396 406.808C520.525 405.357 522.755 407.08 522.755 407.08C523.493 407.003 524.235 406.973 524.977 406.991C533.56 407.168 533.497 422.997 534.644 426.457C535.79 429.917 536.099 437.859 537.098 439.791C537.478 440.508 537.785 441.261 538.015 442.039L538.038 442.043Z" fill="url(#paint20_linear)"/>
<g style="mix-blend-mode:multiply" opacity="0.3">
<path d="M528.082 424.412C528.082 424.412 528.165 428.253 529.528 431.374C530.89 434.495 533.451 438.735 531.696 441.697C529.941 444.66 525.939 447.624 525.619 447.384C525.298 447.145 520.324 436.583 520.89 434.102C521.455 431.62 521.927 427.86 522.485 426.579C523.043 425.298 528.082 424.412 528.082 424.412Z" fill="#702222"/>
</g>
<g style="mix-blend-mode:multiply" opacity="0.3">
<path d="M510.756 418.612C510.866 418.824 511.407 432.43 510.18 435.696C508.954 438.963 506.238 441.461 506.292 442.901C506.346 444.342 514.08 445.574 515.84 444.068C517.6 442.562 521.653 441.877 520.422 437.449C519.191 433.021 516.686 431.043 515.774 427.049C514.863 423.056 510.756 418.612 510.756 418.612Z" fill="#702222"/>
</g>
<path d="M526.196 448.7C523.881 449.942 520.716 450.513 517.643 450.739C514.929 450.596 512.258 450.009 509.735 448.999C509.132 448.763 508.536 448.498 507.956 448.206L508.831 444.268L510.028 438.883L510.315 438.797C511.338 438.486 512.478 438.192 513.732 437.937C513.89 438.751 514.099 439.555 514.356 440.343C514.443 440.624 514.555 440.933 514.658 441.263C514.824 441.764 515.021 442.327 515.265 442.959C515.412 443.346 515.617 443.709 515.875 444.033C518.426 447.369 526.196 448.7 526.196 448.7Z" fill="#FFDCC0"/>
<path d="M535 439.606C534.834 441.856 534.335 444.068 533.519 446.171C529.275 449.182 524.198 450.793 518.995 450.779C518.541 450.781 518.092 450.769 517.643 450.739C514.929 450.596 512.258 450.009 509.735 448.999C509.132 448.763 508.536 448.498 507.956 448.206C506.179 447.334 504.513 446.251 502.993 444.982L502.758 443.135L502.725 443.106C502.725 443.097 502.726 443.089 502.729 443.081C502.759 443.006 502.8 442.937 502.851 442.876C502.865 442.855 502.882 442.836 502.901 442.819L502.931 442.789L502.935 442.766C502.963 442.739 503.006 442.702 503.014 442.689C503.016 442.683 503.017 442.677 503.017 442.672L503.074 442.619L503.112 442.582L503.154 442.542C503.181 442.517 503.209 442.486 503.239 442.462C503.269 442.437 503.3 442.407 503.333 442.377C503.347 442.36 503.363 442.345 503.381 442.333L503.435 442.289L503.575 442.171L503.636 442.116C503.662 442.1 503.68 442.079 503.706 442.063C503.735 442.035 503.766 442.01 503.799 441.987C503.809 441.977 503.82 441.968 503.832 441.961L503.966 441.851C504.027 441.809 504.085 441.763 504.141 441.715C504.173 441.697 504.203 441.672 504.236 441.651C504.268 441.63 504.35 441.57 504.406 441.529L504.433 441.507L504.635 441.364L504.961 441.142C505.117 441.041 505.284 440.939 505.451 440.837L505.717 440.681C505.749 440.659 505.781 440.644 505.819 440.624C505.979 440.529 506.139 440.438 506.316 440.349L506.496 440.255L506.708 440.148L506.831 440.086L507.146 439.935L507.284 439.872C507.472 439.785 507.663 439.698 507.863 439.613L508 439.556C508.13 439.5 508.261 439.445 508.401 439.391C508.54 439.337 508.742 439.256 508.919 439.181L509.157 439.096C509.305 439.044 509.464 438.993 509.606 438.939C509.748 438.886 509.993 438.811 510.193 438.74C511.472 438.341 512.775 438.026 514.094 437.796C514.306 437.759 514.496 437.642 514.625 437.469C514.754 437.297 514.811 437.081 514.786 436.868L515.023 433.49L515.307 429.349L515.4 428.03L515.521 426.27L515.568 425.559L520.442 425.596L521.767 425.605L523.715 425.618L524.528 425.626L524.908 430.532L525.332 435.987C525.352 436.107 525.391 436.223 525.447 436.331C525.6 436.651 525.833 436.926 526.123 437.128C526.414 437.331 526.753 437.454 527.105 437.487C527.624 437.539 528.153 437.595 528.693 437.659L528.938 437.697L529.153 437.731L529.58 437.798L529.636 437.807L530.295 437.91L530.63 437.962C530.744 437.98 530.855 437.997 530.968 438.015L531.679 438.126C531.719 438.129 531.759 438.136 531.798 438.145L532.414 438.241L532.531 438.259L532.692 438.285L532.727 438.29L532.815 438.304L532.835 438.307L532.894 438.336C532.931 438.342 532.975 438.375 533.032 438.404L533.219 438.507C533.77 438.938 534.367 439.307 535 439.606Z" fill="url(#paint21_linear)"/>
<path d="M520.223 412.087C520.223 412.087 514.689 410.057 511.497 416.253C510.93 417.352 510.621 421.018 510.723 422.245C510.958 425.117 511.256 428.407 513.703 432.052C514.18 432.754 514.801 433.345 515.524 433.788C516.247 434.231 517.056 434.516 517.897 434.622C518.739 434.729 519.593 434.655 520.404 434.406C521.214 434.157 521.963 433.739 522.6 433.178C523.057 432.781 523.486 432.353 523.885 431.898C525.303 430.254 526.402 428.359 527.124 426.312C527.124 426.312 529.771 426.021 529.11 421.965C528.45 417.908 526.103 421.029 526.103 421.029C526.103 421.029 526.313 416.745 524.163 414.397C522.136 412.173 520.223 412.087 520.223 412.087Z" fill="url(#paint22_linear)"/>
<path d="M517.984 428.344C517.467 428.372 516.949 428.355 516.435 428.294C515.583 428.16 514.979 427.798 514.935 427.841C514.686 428.093 515.101 429.27 515.919 430.032C516.254 430.369 516.672 430.611 517.13 430.734C519.112 431.198 521.323 428.595 521.044 428.036C521.035 428.019 521.024 428.004 521.01 427.99C520.856 427.841 520.274 428.306 517.984 428.344Z" fill="white"/>
<path d="M538.038 442.043C535.683 444.79 532.76 446.994 529.471 448.502C526.182 450.01 522.605 450.787 518.987 450.778C518.533 450.779 518.083 450.767 517.634 450.738C514.921 450.595 512.25 450.007 509.727 448.998C509.124 448.761 508.528 448.496 507.948 448.205C506.171 447.332 504.504 446.25 502.985 444.981C502.642 444.692 502.3 444.393 501.961 444.084L501.99 444.03C502.238 443.619 502.523 443.232 502.843 442.874C502.857 442.853 502.873 442.834 502.892 442.818C502.892 442.818 502.892 442.818 502.912 442.801L502.916 442.778C502.943 442.75 502.987 442.713 502.995 442.7C502.997 442.695 502.998 442.689 502.998 442.683L503.055 442.631L503.093 442.593L503.134 442.553C503.161 442.528 503.189 442.498 503.219 442.473C503.249 442.449 503.28 442.419 503.314 442.389C503.328 442.372 503.344 442.357 503.362 442.344L503.415 442.3L503.556 442.182L503.617 442.128C503.643 442.111 503.66 442.091 503.686 442.075C503.715 442.047 503.747 442.022 503.78 441.999C503.789 441.988 503.8 441.979 503.813 441.972L503.946 441.862C504.007 441.82 504.066 441.775 504.122 441.726C504.154 441.708 504.184 441.684 504.216 441.663C504.249 441.641 504.328 441.581 504.387 441.541L504.413 441.519L504.616 441.376L504.942 441.153C505.097 441.052 505.265 440.95 505.432 440.848L505.698 440.692C505.73 440.671 505.762 440.655 505.8 440.635C505.96 440.541 506.12 440.449 506.297 440.361L506.477 440.267L506.689 440.16L506.812 440.098L507.127 439.946L507.265 439.883C507.453 439.796 507.644 439.71 507.843 439.624L507.98 439.567C508.111 439.512 508.242 439.457 508.381 439.403C508.521 439.349 508.723 439.267 508.9 439.193L509.137 439.108C509.285 439.055 509.445 439.004 509.587 438.951C509.729 438.897 509.974 438.822 510.174 438.752C510.196 438.774 510.22 438.795 510.245 438.815C511.32 439.798 512.575 440.561 513.941 441.064C514.153 441.141 514.371 441.218 514.588 441.284C516.064 441.737 517.607 441.937 519.151 441.875C519.575 441.858 519.999 441.816 520.418 441.751C521.272 441.616 522.037 441.465 522.729 441.3C523.764 441.066 524.774 440.737 525.746 440.316C527.694 439.439 528.407 438.45 528.663 437.669L528.907 437.707L529.123 437.741L529.549 437.807L529.606 437.816L530.267 437.905L530.602 437.958C530.716 437.975 530.826 437.993 530.94 438.01L531.65 438.121C531.69 438.125 531.73 438.131 531.769 438.14L532.386 438.236L532.502 438.255L532.616 438.272L532.653 438.278L532.687 438.284L532.775 438.297L532.795 438.3L532.854 438.33C532.891 438.336 532.935 438.369 532.992 438.398L533.18 438.5C534.152 439.039 536.528 440.479 537.078 441.13L537.518 441.569C537.669 441.72 537.817 441.871 537.956 442.024L538.038 442.043Z" fill="url(#paint23_linear)"/>
<g style="mix-blend-mode:multiply" opacity="0.3">
<path d="M307.109 962.016C313.433 923.43 324.746 843.029 311.964 827.006C300.271 812.349 219.69 797.771 170.847 790.137C178.082 767.742 183.494 752.374 185.085 750.644C185.244 750.468 186.861 750.715 189.657 751.309C194.095 752.239 201.504 754.035 210.784 756.341C224.935 759.887 243.421 764.646 262.331 769.507C278.403 773.629 294.787 777.806 309.055 781.333C320.091 784.054 329.864 786.382 337.271 787.991C338.396 788.237 339.478 788.465 340.49 788.678C340.903 788.766 341.307 788.847 341.702 788.926L341.779 788.938C342.192 789.029 342.602 789.107 343.006 789.185C343.534 789.288 344.042 789.388 344.526 789.475C344.773 789.514 345.009 789.55 345.235 789.612L345.962 789.726L346.482 789.807C347.004 789.889 347.484 789.964 347.933 790.034C350.023 790.343 351.324 790.416 351.689 790.208C355.056 788.283 351.353 899.941 345.247 967.952L307.109 962.016Z" fill="#FFD447"/>
</g>
<path d="M342.055 36.7486L286.797 27.0639C285.247 26.7951 283.654 27.1524 282.367 28.0573C281.08 28.9623 280.204 30.341 279.932 31.891L272.807 72.5489C272.538 74.0995 272.895 75.6934 273.799 76.9808C274.704 78.2682 276.082 79.1441 277.631 79.4162L293.688 82.2179L302.542 94.9141C302.631 95.0418 302.745 95.1506 302.876 95.2343C303.008 95.3179 303.155 95.3747 303.308 95.4014C303.462 95.4281 303.619 95.4242 303.771 95.3899C303.923 95.3555 304.066 95.2915 304.194 95.2014L316.835 86.2764L332.892 89.0781C334.442 89.3469 336.036 88.9897 337.323 88.0847C338.61 87.1798 339.485 85.801 339.758 84.251L346.892 43.6266C347.027 42.8571 347.009 42.0685 346.839 41.306C346.668 40.5436 346.35 39.8222 345.9 39.1833C345.451 38.5444 344.88 38.0004 344.22 37.5826C343.56 37.1648 342.824 36.8814 342.055 36.7486Z" fill="#FF5970"/>
<path d="M320.582 44.1269C319.094 43.8581 317.562 43.987 316.139 44.5005C314.516 45.0938 312.644 47.1851 311.73 48.6578C311.449 49.1145 311.297 49.082 311.199 48.5544C310.811 46.494 310.153 44.5223 308.532 43.1684C307.369 42.2026 305.972 41.5596 304.482 41.3039C300.036 40.5243 295.847 43.2287 295.125 47.3454C295.078 47.6466 294.91 49.4833 294.917 50.1481C294.965 54.8683 296.632 58.1972 299.402 62.2194L307.135 73.4479L318.227 65.5179C322.201 62.6781 324.891 60.1151 326.549 55.6906C326.783 55.0693 327.254 53.2857 327.307 52.9854C328.049 48.8718 325.029 44.9037 320.582 44.1269Z" fill="white"/>
<path d="M241.099 17.1828L180.464 55.4417C179.621 55.9735 178.891 56.6662 178.316 57.4801C177.74 58.2941 177.331 59.2135 177.111 60.1857C176.891 61.158 176.864 62.164 177.033 63.1465C177.201 64.1289 177.562 65.0684 178.094 65.9115L206.223 110.55C207.297 112.253 209.003 113.46 210.966 113.904C212.929 114.349 214.989 113.995 216.691 112.921L234.308 101.802L253.597 106.212C253.791 106.256 253.993 106.261 254.189 106.228C254.385 106.194 254.573 106.122 254.742 106.015C254.91 105.909 255.056 105.77 255.171 105.608C255.286 105.445 255.368 105.261 255.411 105.066L259.705 85.7539L277.322 74.6348C279.025 73.5604 280.231 71.8534 280.676 69.8894C281.12 67.9254 280.767 65.8653 279.693 64.1622L251.569 19.5417C250.494 17.84 248.786 16.6356 246.823 16.1932C244.859 15.7508 242.801 16.1068 241.099 17.1828Z" fill="#FF7387"/>
<path d="M227.095 42.6033C225.456 43.6278 224.117 45.0658 223.21 46.7728C222.177 48.7275 222.201 52.3146 222.602 54.4965C222.724 55.1676 222.554 55.2662 222.008 54.8519C219.875 53.2347 217.559 51.9323 214.862 52.0433C212.931 52.1255 211.056 52.716 209.426 53.7551C204.545 56.8344 202.899 62.9926 205.748 67.5077C205.957 67.8313 207.378 69.7187 207.957 70.3389C212.051 74.7633 216.484 76.4897 222.559 77.92L239.516 81.9102L239.533 81.9129L239.536 81.8958L243.237 64.8663C244.564 58.7656 244.933 54.0232 242.687 48.415C242.374 47.6266 241.29 45.533 241.083 45.2037C238.236 40.6862 231.973 39.5236 227.095 42.6033Z" fill="white"/>
<path d="M652.509 228.681L618.27 204.098C617.794 203.756 617.256 203.512 616.686 203.378C616.115 203.245 615.524 203.225 614.946 203.32C614.368 203.415 613.815 203.623 613.317 203.932C612.819 204.242 612.388 204.646 612.046 205.122L593.968 230.316C593.627 230.792 593.382 231.331 593.249 231.901C593.115 232.472 593.095 233.063 593.19 233.641C593.285 234.22 593.493 234.773 593.802 235.271C594.111 235.769 594.515 236.201 594.991 236.542L604.931 243.686L606.785 255.165C606.803 255.281 606.844 255.393 606.906 255.493C606.967 255.594 607.048 255.681 607.143 255.75C607.238 255.819 607.346 255.868 607.461 255.895C607.575 255.922 607.694 255.927 607.81 255.908L619.274 253.989L629.215 261.132C629.69 261.473 630.229 261.718 630.799 261.852C631.369 261.985 631.961 262.005 632.539 261.91C633.117 261.815 633.67 261.607 634.168 261.298C634.665 260.988 635.097 260.584 635.439 260.108L653.53 234.922C653.873 234.445 654.119 233.906 654.254 233.334C654.389 232.762 654.409 232.169 654.315 231.589C654.22 231.01 654.012 230.454 653.702 229.955C653.392 229.456 652.987 229.023 652.509 228.681Z" fill="#FF7387"/>
<path d="M635.572 226.668C634.652 226.003 633.574 225.591 632.445 225.474C631.153 225.345 629.202 226.149 628.103 226.851C627.764 227.066 627.674 226.993 627.778 226.605C628.187 225.085 628.386 223.536 627.731 222.088C627.257 221.056 626.522 220.165 625.597 219.505C622.842 217.528 619.124 217.992 617.289 220.534C617.155 220.72 616.448 221.914 616.235 222.364C614.729 225.575 614.772 228.373 615.334 231.998L616.908 242.121L627.018 240.383C630.633 239.757 633.295 238.905 635.853 236.446C636.198 236.101 637.116 235.048 637.247 234.862C639.077 232.319 638.327 228.647 635.572 226.668Z" fill="white"/>
<path d="M582.905 109.689C586.028 95.2997 608.379 87.9395 632.826 93.2464C657.273 98.5533 674.56 114.521 671.437 128.911C668.314 143.3 645.963 150.661 621.516 145.354C618.826 144.77 616.17 144.043 613.558 143.175C612.937 142.96 612.256 143 611.664 143.286L600.862 148.799C598.867 149.818 596.157 148.561 595.93 146.511L594.526 133.865C594.459 133.37 594.202 132.92 593.808 132.612C585.551 125.819 581.212 117.523 582.905 109.689Z" fill="#5EBCFF"/>
<path d="M606.724 104.721C610.112 89.1216 591.37 71.7967 564.861 66.0539C538.352 60.3111 514.13 68.2813 510.734 83.8798C507.338 99.4783 526.09 116.793 552.597 122.547C555.512 123.184 558.459 123.661 561.426 123.977C562.136 124.044 562.79 124.389 563.246 124.937L571.426 135.24C572.935 137.144 576.175 137.121 577.319 135.201L584.391 123.356C584.679 122.897 585.136 122.569 585.663 122.443C596.862 119.446 604.874 113.206 606.724 104.721Z" fill="#87CCFF"/>
<path d="M538.356 92.8835C540.767 91.3157 541.451 88.0897 539.884 85.678C538.318 83.2663 535.093 82.5822 532.682 84.15C530.271 85.7178 529.587 88.9438 531.154 91.3555C532.721 93.7672 535.945 94.4513 538.356 92.8835Z" fill="white"/>
<path d="M561.528 98.0336C564.003 96.5699 564.824 93.3759 563.362 90.8996C561.899 88.4234 558.706 87.6025 556.231 89.0663C553.755 90.53 552.934 93.724 554.397 96.2002C555.86 98.6765 559.053 99.4973 561.528 98.0336Z" fill="white"/>
<path d="M585.087 103.072C587.512 101.526 588.226 98.3066 586.681 95.8808C585.136 93.4549 581.917 92.7416 579.492 94.2874C577.067 95.8333 576.354 99.0529 577.899 101.479C579.444 103.905 582.662 104.618 585.087 103.072Z" fill="white"/>
<path d="M193.305 224.255C193.067 224.466 192.764 224.589 192.447 224.604L118.061 228.486C117.753 228.494 117.451 228.403 117.199 228.226C117.026 228.102 116.883 227.941 116.782 227.754C116.68 227.567 116.622 227.36 116.611 227.147L114.453 185.643L114.424 185.118C114.411 184.855 114.472 184.594 114.6 184.365C114.728 184.135 114.918 183.946 115.148 183.819C115.335 183.714 115.544 183.654 115.758 183.644L190.126 179.765L190.154 179.769C190.366 179.762 190.577 179.803 190.77 179.889C191.008 179.994 191.212 180.163 191.359 180.377C191.506 180.592 191.591 180.843 191.605 181.102L191.634 181.642L193.792 223.132C193.8 223.344 193.761 223.554 193.676 223.749C193.592 223.943 193.465 224.116 193.305 224.255Z" fill="#FFC817"/>
<path d="M193.305 224.255C193.067 224.466 192.764 224.589 192.447 224.604L118.06 228.486C117.753 228.494 117.451 228.403 117.199 228.226L152.125 205.634L153.989 204.429L154.115 204.347L154.266 204.423L156.242 205.428L193.305 224.255Z" fill="#FFCF36"/>
<path d="M191.625 181.624L156.242 205.428L154.255 206.765L152.125 205.634L114.453 185.643L114.424 185.118C114.411 184.855 114.472 184.594 114.6 184.365C114.728 184.135 114.918 183.946 115.148 183.819C115.335 183.714 115.544 183.654 115.758 183.644L190.126 179.765L190.154 179.769C190.366 179.762 190.577 179.803 190.77 179.889C191.008 179.994 191.212 180.163 191.359 180.377C191.506 180.592 191.591 180.843 191.605 181.102L191.625 181.624Z" fill="#FFC300"/>
<path d="M190.76 179.881L154.266 204.423L154.137 204.508L153.989 204.429L115.148 183.819C115.335 183.714 115.544 183.654 115.758 183.644L190.126 179.765L190.154 179.769C190.362 179.761 190.569 179.799 190.76 179.881Z" fill="#FFD757"/>
<g style="mix-blend-mode:multiply">
<path d="M197.664 184.219C198.89 180.218 196.641 175.98 192.641 174.754C188.641 173.528 184.405 175.778 183.179 179.78C181.953 183.782 184.201 188.019 188.201 189.245C192.201 190.471 196.438 188.221 197.664 184.219Z" fill="#E3F3FF"/>
</g>
<path d="M199.285 186.952C202.368 181.421 200.386 174.437 194.857 171.353C189.329 168.27 182.347 170.253 179.264 175.784C176.18 181.315 178.163 188.299 183.691 191.383C189.22 194.467 196.201 192.484 199.285 186.952Z" fill="#FF5970"/>
<path d="M189.62 174.271L185.328 177.792L185.967 178.838L188.72 177.277C188.786 177.746 188.849 178.331 188.908 179.033C188.952 179.552 188.993 180.144 189.03 180.799C189.055 181.201 189.078 181.627 189.103 182.082C189.124 182.472 189.142 182.86 189.153 183.254C189.169 183.58 189.182 183.905 189.192 184.233C189.228 185.356 189.249 186.457 189.257 187.535L191.376 187.424C191.239 185.978 191.126 184.555 191.036 183.156C191.044 183.107 191.029 183.053 191.028 183C191.005 182.665 190.985 182.33 190.97 181.996C190.926 181.2 190.892 180.394 190.859 179.583C190.848 179.371 190.841 179.158 190.833 178.944C190.772 177.403 190.727 175.831 190.698 174.227L189.62 174.271Z" fill="white"/>
<path d="M657.275 347.156L609.349 318.94C608.683 318.548 607.946 318.291 607.181 318.183C606.416 318.076 605.637 318.12 604.888 318.314C604.14 318.508 603.437 318.848 602.82 319.313C602.203 319.779 601.684 320.361 601.292 321.028L580.542 356.295C580.149 356.961 579.892 357.699 579.784 358.464C579.677 359.23 579.721 360.01 579.915 360.758C580.109 361.507 580.448 362.21 580.913 362.827C581.379 363.445 581.962 363.964 582.628 364.356L596.553 372.553L600.357 387.411C600.396 387.561 600.463 387.702 600.556 387.825C600.649 387.949 600.765 388.053 600.899 388.131C601.032 388.21 601.179 388.261 601.332 388.283C601.486 388.304 601.641 388.295 601.791 388.255L616.631 384.366L630.555 392.563C631.9 393.355 633.505 393.58 635.016 393.188C636.527 392.797 637.821 391.821 638.613 390.476L659.362 355.208C660.151 353.863 660.374 352.26 659.983 350.75C659.591 349.241 658.618 347.948 657.275 347.156Z" fill="#FF7387"/>
<path d="M605.276 368.421C604.915 367.768 604.756 367.022 604.819 366.279C604.882 365.535 605.164 364.827 605.629 364.243C606.094 363.66 606.721 363.227 607.432 363.001C608.143 362.774 608.905 362.763 609.622 362.97C610.339 363.176 610.978 363.591 611.459 364.161C611.941 364.731 612.242 365.431 612.326 366.173C612.409 366.914 612.271 367.664 611.929 368.327C611.586 368.99 611.055 369.537 610.402 369.898C609.526 370.38 608.495 370.495 607.534 370.218C606.574 369.941 605.762 369.295 605.276 368.421ZM610.417 365.577C610.216 365.213 609.912 364.917 609.543 364.726C609.173 364.535 608.756 364.458 608.342 364.504C607.929 364.551 607.539 364.719 607.221 364.987C606.904 365.256 606.673 365.612 606.558 366.012C606.443 366.412 606.449 366.837 606.575 367.233C606.702 367.629 606.943 367.979 607.268 368.238C607.593 368.497 607.988 368.654 608.402 368.689C608.816 368.723 609.232 368.634 609.595 368.433C610.082 368.162 610.442 367.71 610.596 367.175C610.75 366.639 610.685 366.065 610.417 365.577Z" fill="white"/>
<path d="M607.964 370.585C607.794 370.558 607.626 370.521 607.46 370.474C606.951 370.328 606.475 370.083 606.06 369.752C605.645 369.422 605.3 369.012 605.044 368.548C604.606 367.752 604.449 366.83 604.601 365.934C604.752 365.038 605.202 364.219 605.878 363.611C606.553 363.003 607.415 362.642 608.322 362.585C609.229 362.529 610.128 362.782 610.873 363.302C611.618 363.823 612.165 364.58 612.425 365.451C612.685 366.322 612.643 367.255 612.306 368.099C611.968 368.943 611.355 369.648 610.567 370.099C609.778 370.551 608.859 370.722 607.961 370.584L607.964 370.585ZM609.13 363.129C608.481 363.027 607.817 363.11 607.214 363.367C606.61 363.624 606.09 364.046 605.714 364.584C605.337 365.122 605.119 365.755 605.085 366.41C605.05 367.066 605.2 367.718 605.517 368.293C605.805 368.815 606.221 369.256 606.726 369.573C607.231 369.89 607.808 370.074 608.404 370.106C608.999 370.138 609.593 370.017 610.129 369.756C610.666 369.495 611.126 369.101 611.468 368.612C611.81 368.123 612.022 367.555 612.084 366.962C612.146 366.369 612.055 365.769 611.821 365.221C611.587 364.672 611.217 364.192 610.746 363.826C610.275 363.46 609.719 363.22 609.13 363.129ZM608.223 368.931C607.826 368.87 607.452 368.708 607.135 368.462C606.818 368.216 606.569 367.893 606.411 367.524C606.253 367.155 606.192 366.751 606.233 366.352C606.275 365.953 606.417 365.57 606.647 365.241C606.876 364.912 607.186 364.647 607.547 364.471C607.907 364.294 608.307 364.213 608.708 364.234C609.108 364.255 609.497 364.378 609.837 364.591C610.178 364.804 610.458 365.1 610.652 365.451C610.867 365.838 610.969 366.277 610.946 366.719C610.924 367.161 610.777 367.588 610.524 367.95C610.271 368.313 609.921 368.597 609.514 368.771C609.107 368.944 608.659 369 608.223 368.931ZM608.871 364.783C608.461 364.719 608.042 364.797 607.681 365.003C607.321 365.208 607.04 365.53 606.886 365.915C606.732 366.301 606.712 366.727 606.831 367.125C606.95 367.523 607.2 367.869 607.54 368.106C607.88 368.344 608.291 368.459 608.705 368.433C609.119 368.407 609.513 368.242 609.821 367.964C610.129 367.686 610.334 367.312 610.403 366.902C610.471 366.493 610.399 366.072 610.199 365.709C610.083 365.497 609.927 365.311 609.739 365.161C609.55 365.01 609.334 364.899 609.102 364.833C609.022 364.809 608.94 364.792 608.857 364.78L608.871 364.783Z" fill="white"/>
<path d="M612.627 348.579C612.577 348.49 612.545 348.392 612.532 348.291C612.517 348.182 612.523 348.071 612.55 347.965C612.577 347.858 612.625 347.758 612.692 347.67C612.758 347.582 612.841 347.508 612.936 347.453C613.031 347.397 613.135 347.361 613.244 347.346C615.57 347.023 617.938 347.229 620.173 347.948C622.408 348.667 624.451 349.881 626.153 351.5C627.854 353.118 629.168 355.099 629.998 357.296C630.828 359.493 631.153 361.848 630.947 364.188C630.683 367.283 629.499 370.229 627.547 372.645C627.484 372.744 627.4 372.829 627.301 372.893C627.203 372.957 627.092 373 626.976 373.018C626.86 373.037 626.741 373.031 626.628 373C626.514 372.97 626.408 372.916 626.317 372.842C626.226 372.767 626.151 372.675 626.098 372.57C626.045 372.465 626.014 372.35 626.009 372.233C626.003 372.115 626.022 371.998 626.065 371.888C626.108 371.778 626.173 371.679 626.257 371.596C628.003 369.441 629.064 366.813 629.305 364.049C629.546 361.286 628.955 358.513 627.608 356.089C626.235 353.628 624.154 351.636 621.636 350.374C619.117 349.112 616.277 348.637 613.485 349.011C613.315 349.035 613.141 349.007 612.988 348.93C612.834 348.853 612.708 348.731 612.627 348.579Z" fill="white"/>
<path d="M626.723 373.209C626.532 373.179 626.353 373.1 626.203 372.978C626.053 372.857 625.937 372.698 625.868 372.518C625.799 372.338 625.779 372.142 625.809 371.952C625.839 371.761 625.919 371.582 626.041 371.432C627.764 369.294 628.806 366.689 629.031 363.952C629.255 361.216 628.653 358.475 627.302 356.085C625.95 353.696 623.912 351.768 621.451 350.551C618.991 349.335 616.222 348.886 613.503 349.264C613.283 349.294 613.059 349.257 612.86 349.157C612.661 349.057 612.497 348.9 612.389 348.705C612.323 348.588 612.28 348.458 612.262 348.324C612.222 348.035 612.299 347.742 612.475 347.509C612.651 347.276 612.912 347.123 613.201 347.083C615.566 346.755 617.974 346.964 620.246 347.696C622.519 348.427 624.597 349.662 626.326 351.307C628.056 352.953 629.392 354.968 630.236 357.202C631.08 359.436 631.409 361.831 631.2 364.21C630.933 367.357 629.73 370.353 627.746 372.81C627.625 372.96 627.467 373.076 627.288 373.146C627.108 373.216 626.914 373.238 626.723 373.209ZM617.534 348.776C619.682 349.111 621.725 349.93 623.509 351.172C625.293 352.415 626.771 354.047 627.831 355.946C629.201 358.416 629.802 361.239 629.556 364.054C629.311 366.868 628.23 369.545 626.452 371.74C626.405 371.8 626.37 371.867 626.349 371.94C626.329 372.013 626.322 372.089 626.331 372.164C626.347 372.315 626.421 372.453 626.538 372.549C626.597 372.596 626.665 372.631 626.738 372.652C626.811 372.672 626.887 372.679 626.962 372.67C627.112 372.654 627.25 372.58 627.346 372.462C629.28 370.065 630.449 367.142 630.702 364.072C630.955 361.001 630.28 357.926 628.764 355.245C627.248 352.564 624.962 350.4 622.202 349.035C619.442 347.669 616.335 347.165 613.285 347.588C613.21 347.599 613.137 347.626 613.072 347.666C613.007 347.705 612.95 347.758 612.906 347.82C612.813 347.941 612.773 348.093 612.793 348.244C612.803 348.314 612.826 348.382 612.86 348.444C612.917 348.545 613.002 348.627 613.106 348.678C613.21 348.73 613.326 348.749 613.441 348.733C614.8 348.55 616.179 348.566 617.533 348.782L617.534 348.776Z" fill="white"/>
<path d="M614.5 339.074C614.449 338.985 614.416 338.887 614.403 338.785C614.388 338.675 614.396 338.564 614.425 338.457C614.453 338.35 614.503 338.25 614.571 338.162C614.639 338.074 614.723 338.001 614.82 337.946C614.916 337.891 615.022 337.856 615.132 337.842C619.83 337.194 624.614 337.972 628.864 340.076C633.114 342.18 636.634 345.513 638.967 349.642C641.301 353.772 642.34 358.508 641.951 363.236C641.562 367.964 639.761 372.466 636.783 376.159C636.72 376.258 636.636 376.342 636.537 376.406C636.439 376.471 636.328 376.513 636.212 376.532C636.096 376.55 635.977 376.544 635.864 376.514C635.75 376.483 635.644 376.429 635.553 376.355C635.462 376.281 635.387 376.188 635.334 376.083C635.281 375.979 635.25 375.864 635.245 375.746C635.239 375.629 635.258 375.511 635.301 375.402C635.344 375.292 635.409 375.193 635.493 375.11C638.259 371.679 639.93 367.497 640.292 363.104C640.653 358.712 639.686 354.312 637.518 350.476C635.349 346.64 632.079 343.545 628.13 341.591C624.182 339.637 619.737 338.915 615.373 339.519C615.199 339.546 615.021 339.518 614.865 339.438C614.708 339.358 614.58 339.231 614.5 339.074Z" fill="white"/>
<path d="M635.945 376.703C635.754 376.674 635.575 376.595 635.425 376.474C635.198 376.29 635.054 376.024 635.023 375.734C634.992 375.443 635.077 375.153 635.26 374.925C637.992 371.536 639.644 367.403 640.001 363.064C640.358 358.724 639.403 354.377 637.261 350.587C635.118 346.797 631.887 343.739 627.986 341.809C624.084 339.879 619.693 339.166 615.382 339.762C615.093 339.802 614.799 339.726 614.567 339.55C614.334 339.373 614.181 339.112 614.141 338.823C614.12 338.68 614.129 338.534 614.165 338.394C614.201 338.254 614.265 338.122 614.352 338.007C614.439 337.892 614.549 337.795 614.673 337.722C614.798 337.648 614.936 337.601 615.08 337.581C619.826 336.931 624.657 337.722 628.949 339.85C633.24 341.977 636.795 345.345 639.152 349.517C641.509 353.688 642.559 358.472 642.168 363.248C641.777 368.024 639.962 372.573 636.958 376.306C636.839 376.455 636.682 376.57 636.504 376.639C636.327 376.709 636.134 376.731 635.945 376.703ZM621.716 339.297C625.077 339.821 628.275 341.104 631.066 343.049C633.858 344.993 636.17 347.548 637.827 350.52C639.976 354.387 640.919 358.81 640.535 363.218C640.15 367.627 638.456 371.82 635.67 375.257C635.576 375.376 635.532 375.527 635.548 375.678C635.564 375.829 635.639 375.967 635.757 376.063C635.875 376.158 636.026 376.202 636.177 376.187C636.252 376.179 636.325 376.157 636.391 376.121C636.457 376.085 636.515 376.035 636.562 375.976C639.501 372.324 641.277 367.874 641.66 363.201C642.042 358.529 641.013 353.849 638.706 349.769C636.4 345.688 632.921 342.394 628.722 340.314C624.522 338.234 619.795 337.464 615.152 338.102C615.002 338.123 614.866 338.204 614.774 338.325C614.683 338.447 614.643 338.6 614.664 338.75C614.674 338.819 614.696 338.886 614.729 338.947C614.785 339.048 614.871 339.13 614.974 339.182C615.078 339.234 615.194 339.254 615.309 339.239C617.436 338.945 619.595 338.965 621.716 339.297Z" fill="white"/>
<path d="M609.52 356.075C609.469 355.981 609.438 355.877 609.428 355.77C609.413 355.66 609.42 355.549 609.449 355.442C609.478 355.335 609.528 355.235 609.595 355.147C609.663 355.06 609.748 354.987 609.844 354.932C609.941 354.878 610.047 354.843 610.157 354.83C612.179 354.551 614.239 354.886 616.068 355.792C617.898 356.697 619.413 358.132 620.418 359.91C621.423 361.688 621.87 363.727 621.703 365.762C621.535 367.798 620.76 369.736 619.478 371.326C619.332 371.47 619.137 371.556 618.931 371.566C618.725 371.576 618.523 371.51 618.363 371.38C618.203 371.25 618.097 371.065 618.064 370.862C618.032 370.658 618.076 370.45 618.187 370.277C619.257 368.961 619.907 367.354 620.054 365.665C620.202 363.976 619.839 362.281 619.015 360.8C618.177 359.298 616.907 358.083 615.37 357.313C613.833 356.542 612.1 356.252 610.396 356.48C610.226 356.511 610.051 356.489 609.894 356.417C609.737 356.344 609.606 356.225 609.52 356.075Z" fill="white"/>
<path d="M618.641 371.899C618.45 371.869 618.271 371.789 618.121 371.668C617.971 371.546 617.856 371.388 617.787 371.207C617.717 371.027 617.696 370.832 617.726 370.642C617.756 370.451 617.835 370.271 617.956 370.121C618.995 368.834 619.623 367.263 619.759 365.615C619.895 363.966 619.532 362.314 618.718 360.874C617.904 359.434 616.677 358.271 615.194 357.538C613.712 356.805 612.043 356.534 610.405 356.761C610.184 356.79 609.96 356.753 609.762 356.653C609.563 356.554 609.399 356.397 609.29 356.203C609.204 356.046 609.157 355.872 609.154 355.693C609.15 355.515 609.19 355.338 609.27 355.179C609.35 355.02 609.468 354.882 609.612 354.778C609.757 354.674 609.926 354.607 610.102 354.583C612.178 354.294 614.293 354.635 616.173 355.563C618.052 356.492 619.609 357.964 620.641 359.789C621.674 361.613 622.134 363.707 621.962 365.796C621.79 367.886 620.994 369.876 619.677 371.508C619.493 371.735 619.226 371.879 618.936 371.91C618.838 371.92 618.738 371.916 618.641 371.899ZM612.86 356.263C614.186 356.47 615.448 356.976 616.55 357.743C617.651 358.511 618.564 359.519 619.218 360.692C620.066 362.219 620.438 363.964 620.286 365.704C620.134 367.444 619.465 369.099 618.366 370.456C618.318 370.514 618.283 370.581 618.261 370.653C618.24 370.726 618.234 370.801 618.242 370.876C618.259 371.027 618.334 371.166 618.453 371.261C618.571 371.356 618.722 371.401 618.873 371.385C619.024 371.369 619.162 371.293 619.258 371.175C620.507 369.626 621.262 367.738 621.425 365.754C621.589 363.771 621.153 361.785 620.173 360.053C619.194 358.321 617.718 356.923 615.935 356.041C614.152 355.159 612.145 354.834 610.175 355.107C610.025 355.128 609.889 355.208 609.798 355.329C609.707 355.45 609.667 355.602 609.687 355.752C609.695 355.822 609.717 355.89 609.751 355.952C609.808 356.053 609.894 356.134 609.997 356.186C610.101 356.237 610.217 356.256 610.332 356.24C611.171 356.124 612.023 356.132 612.86 356.263Z" fill="white"/>
<path d="M146.673 285.374L196.979 279.124C199.919 278.76 202.726 280.314 203.243 282.627L209.776 311.562C210.289 313.86 208.331 316.022 205.39 316.386L190.773 318.202L182.723 327.109C182.523 327.298 182.267 327.418 181.993 327.45C181.72 327.483 181.443 327.426 181.205 327.288L169.685 320.829L155.075 322.62C152.134 322.987 149.328 321.43 148.81 319.12L142.277 290.185C141.768 287.899 143.732 285.738 146.673 285.374Z" fill="#5EBCFF"/>
<path d="M183.904 312.704C183.741 312.722 183.578 312.74 183.411 312.749C182.344 312.809 181.275 312.68 180.252 312.369C176.631 311.337 172.441 308.362 168.152 303.764C164.235 299.56 163.719 297.762 163.744 296.447C163.78 294.354 164.942 292.506 165.288 291.99C166.127 290.77 167.249 289.771 168.557 289.078C168.624 289.041 168.699 289.022 168.775 289.022C169.396 289.011 171.533 289.115 173.029 290.901C173.922 291.963 174.911 294.106 173.991 295.656C173.324 296.774 172.031 296.913 170.992 297.024C170.27 297.1 169.587 297.174 169.412 297.531C169.282 297.802 169.21 298.632 171.31 300.782C172.622 302.079 174.011 303.296 175.468 304.428C177.725 306.236 179.866 307.939 181.043 307.387C181.637 307.107 181.805 306.365 182.004 305.499C182.231 304.495 182.491 303.357 183.585 302.835C184.329 302.486 185.296 302.521 186.311 302.895C187.69 303.414 188.806 304.46 189.415 305.802C190.182 307.593 189.612 309.326 189.344 309.974C189.317 310.04 189.275 310.099 189.221 310.147C187.749 311.518 185.894 312.41 183.904 312.704ZM168.904 289.982C167.781 290.598 166.818 291.47 166.094 292.526C165.781 292.984 164.756 294.628 164.721 296.451C164.709 297.145 164.678 298.59 168.866 303.084C173.055 307.579 177.06 310.435 180.52 311.418C181.436 311.699 182.394 311.817 183.35 311.764C185.614 311.615 187.385 310.468 188.491 309.497C188.933 308.442 188.948 307.257 188.533 306.191C188.026 305.093 187.109 304.238 185.979 303.809C185.223 303.522 184.509 303.492 184.013 303.723C183.348 304.035 183.171 304.811 182.966 305.714C182.745 306.68 182.492 307.776 181.469 308.257C181.263 308.353 181.044 308.417 180.819 308.446C179.208 308.645 177.249 307.087 174.872 305.187C171.023 302.114 167.592 299.007 168.531 297.096C168.953 296.26 169.93 296.151 170.883 296.049C171.836 295.948 172.732 295.852 173.147 295.154C173.712 294.204 173.151 292.561 172.28 291.526C171.127 290.152 169.445 290.005 168.902 289.996L168.904 289.982Z" fill="white"/>
<path d="M442.85 63.9101C440.889 63.0786 438.744 62.7793 436.631 63.0425C434.215 63.346 430.987 65.6387 429.28 67.3804C428.751 67.9177 428.556 67.8232 428.584 67.0707C428.693 64.1186 428.401 61.2057 426.594 58.8418C425.298 57.1509 423.579 55.8319 421.611 55.0179C415.747 52.5641 409.153 54.9737 406.881 60.4026C406.714 60.7986 405.92 63.2739 405.721 64.1889C404.318 70.688 405.574 75.7804 408.127 82.1704L415.256 99.9996L415.254 100.014L415.271 100.016L432.973 92.5785C439.314 89.9109 443.821 87.233 447.461 81.6688C447.978 80.8763 449.18 78.5842 449.345 78.1792C451.628 72.7549 448.715 66.3757 442.85 63.9101Z" fill="#FF7387"/>
</g>
<defs>
<linearGradient id="paint0_linear" x1="250.522" y1="221.772" x2="253.009" y2="221.783" gradientUnits="userSpaceOnUse">
<stop stop-color="#2C2C8C"/>
<stop offset="1" stop-color="#2B3C99"/>
</linearGradient>
<linearGradient id="paint1_linear" x1="630.623" y1="12653.9" x2="652.034" y2="12653.9" gradientUnits="userSpaceOnUse">
<stop stop-color="#2C2C8C"/>
<stop offset="1" stop-color="#2B3C99"/>
</linearGradient>
<linearGradient id="paint2_linear" x1="497.944" y1="253.469" x2="502.176" y2="253.537" gradientUnits="userSpaceOnUse">
<stop stop-color="#2B3C99"/>
<stop offset="1" stop-color="#2C2C8C"/>
</linearGradient>
<linearGradient id="paint3_linear" x1="252.317" y1="392.148" x2="504.503" y2="388.392" gradientUnits="userSpaceOnUse">
<stop stop-color="#3333A1"/>
<stop offset="1" stop-color="#2B3C99"/>
</linearGradient>
<linearGradient id="paint4_linear" x1="380.872" y1="160.58" x2="366.966" y2="140.08" gradientUnits="userSpaceOnUse">
<stop stop-color="#242473"/>
<stop offset="1" stop-color="#192A85"/>
</linearGradient>
<linearGradient id="paint5_linear" x1="306.205" y1="336.476" x2="306.376" y2="369.384" gradientUnits="userSpaceOnUse">
<stop stop-color="#4A1F0D"/>
<stop offset="1" stop-color="#692C12"/>
</linearGradient>
<linearGradient id="paint6_linear" x1="307.42" y1="367.945" x2="307.463" y2="376.24" gradientUnits="userSpaceOnUse">
<stop stop-color="#262666"/>
<stop offset="1" stop-color="#1A2042"/>
</linearGradient>
<linearGradient id="paint7_linear" x1="306.831" y1="372.952" x2="307.255" y2="365.664" gradientUnits="userSpaceOnUse">
<stop stop-color="#FFB894"/>
<stop offset="1" stop-color="#FFA67A"/>
</linearGradient>
<linearGradient id="paint8_linear" x1="309.265" y1="342.823" x2="308.749" y2="361.766" gradientUnits="userSpaceOnUse">
<stop stop-color="#FFB894"/>
<stop offset="1" stop-color="#FFAF87"/>
</linearGradient>
<linearGradient id="paint9_linear" x1="3273.96" y1="6242.47" x2="3263.79" y2="6307.51" gradientUnits="userSpaceOnUse">
<stop stop-color="#262666"/>
<stop offset="1" stop-color="#1A2042"/>
</linearGradient>
<linearGradient id="paint10_linear" x1="304.148" y1="530.59" x2="308.09" y2="540.299" gradientUnits="userSpaceOnUse">
<stop offset="0.01" stop-color="#F09165"/>
<stop offset="1" stop-color="#F0A77D"/>
</linearGradient>
<linearGradient id="paint11_linear" x1="302.035" y1="507.983" x2="302.136" y2="527.448" gradientUnits="userSpaceOnUse">
<stop offset="0.01" stop-color="#F09971"/>
<stop offset="1" stop-color="#F09B73"/>
</linearGradient>
<linearGradient id="paint12_linear" x1="290.573" y1="508.798" x2="313.464" y2="508.682" gradientUnits="userSpaceOnUse">
<stop stop-color="#381D0E"/>
<stop offset="1" stop-color="#3B190A"/>
</linearGradient>
<linearGradient id="paint13_linear" x1="309.761" y1="514.857" x2="309.894" y2="514.856" gradientUnits="userSpaceOnUse">
<stop stop-color="#191942"/>
<stop offset="1" stop-color="#0F1642"/>
</linearGradient>
<linearGradient id="paint14_linear" x1="325.377" y1="1744.37" x2="325.564" y2="1744.4" gradientUnits="userSpaceOnUse">
<stop stop-color="#191942"/>
<stop offset="1" stop-color="#0F1642"/>
</linearGradient>
<linearGradient id="paint15_linear" x1="1418.84" y1="9506.36" x2="1452.05" y2="9511.55" gradientUnits="userSpaceOnUse">
<stop offset="0.01" stop-color="#F09971"/>
<stop offset="1" stop-color="#F09B73"/>
</linearGradient>
<linearGradient id="paint16_linear" x1="1844.32" y1="8795.05" x2="1888.76" y2="8801.99" gradientUnits="userSpaceOnUse">
<stop offset="0.01" stop-color="#F09971"/>
<stop offset="1" stop-color="#F09B73"/>
</linearGradient>
<linearGradient id="paint17_linear" x1="289.893" y1="532.077" x2="289.946" y2="542.33" gradientUnits="userSpaceOnUse">
<stop stop-color="#3B2B73"/>
<stop offset="1" stop-color="#3D1D82"/>
</linearGradient>
<linearGradient id="paint18_linear" x1="9574.63" y1="25002.7" x2="9493.8" y2="25519.6" gradientUnits="userSpaceOnUse">
<stop stop-color="#3B2B73"/>
<stop offset="1" stop-color="#3D1D82"/>
</linearGradient>
<linearGradient id="paint19_linear" x1="9166.21" y1="17274.7" x2="9950.83" y2="17397.4" gradientUnits="userSpaceOnUse">
<stop stop-color="#381D0E"/>
<stop offset="1" stop-color="#3B190A"/>
</linearGradient>
<linearGradient id="paint20_linear" x1="521.953" y1="407.978" x2="522.089" y2="434.039" gradientUnits="userSpaceOnUse">
<stop stop-color="#4A1F0D"/>
<stop offset="1" stop-color="#3B190A"/>
</linearGradient>
<linearGradient id="paint21_linear" x1="521.666" y1="437.759" x2="521.434" y2="433.088" gradientUnits="userSpaceOnUse">
<stop stop-color="#FFB894"/>
<stop offset="1" stop-color="#F5A075"/>
</linearGradient>
<linearGradient id="paint22_linear" x1="-49594.4" y1="28076.4" x2="-49584.8" y2="29919.8" gradientUnits="userSpaceOnUse">
<stop stop-color="#FFB894"/>
<stop offset="1" stop-color="#FFAF87"/>
</linearGradient>
<linearGradient id="paint23_linear" x1="522.776" y1="438.979" x2="523.325" y2="448.583" gradientUnits="userSpaceOnUse">
<stop stop-color="#FF6A87"/>
<stop offset="1" stop-color="#FF5970"/>
</linearGradient>
<clipPath id="clip0">
<rect width="565.114" height="925.17" fill="white" transform="translate(143.339) rotate(8.88632)"/>
</clipPath>
</defs>
</svg>
