<svg width="215" height="237" viewBox="0 0 215 237" fill="none" xmlns="http://www.w3.org/2000/svg">
<path d="M112.46 61.84C110.547 60.0781 108.193 58.8655 105.648 58.3304C103.103 57.7953 100.461 57.9576 98 58.8C97.8252 58.851 97.6676 58.9487 97.5442 59.0826C97.4209 59.2166 97.3364 59.3816 97.3 59.56C97.1878 59.698 97.0875 59.8452 97 60C97 60 97 60.11 96.92 60.16C96.7416 60.2498 96.5995 60.3981 96.5176 60.5802C96.4357 60.7623 96.4189 60.967 96.47 61.16C97.3518 64.6699 98.6757 68.0537 100.41 71.23C100.522 71.4061 100.685 71.5428 100.879 71.6212C101.072 71.6996 101.284 71.7156 101.487 71.6672C101.69 71.6187 101.872 71.5081 102.009 71.3508C102.146 71.1936 102.23 70.9975 102.25 70.79V70.66L103 70.07C103.142 70.1432 103.3 70.1789 103.46 70.1737C103.62 70.1686 103.776 70.1229 103.913 70.0408C104.05 69.9587 104.164 69.843 104.244 69.7047C104.324 69.5663 104.367 69.4098 104.37 69.25C104.375 69.1601 104.375 69.07 104.37 68.98L107.43 66.57C108.443 65.9504 109.351 65.1741 110.12 64.27C110.73 63.98 111.35 63.71 111.99 63.47C112.63 63.23 113.07 62.4 112.46 61.84ZM109.83 62.27C109.622 62.1852 109.403 62.1312 109.18 62.11C109.179 61.9917 109.162 61.874 109.13 61.76C109.38 61.91 109.63 62.08 109.87 62.25L109.83 62.27ZM107.35 61.27C107.435 61.1818 107.5 61.076 107.54 60.96L107.87 61.12L107.35 61.27ZM102.8 60L101.8 60.3L101.62 60.04C102 60 102.41 60 102.8 60Z" fill="#F7D6C4"/>
<path d="M89 76.26H88C87.8 76.07 87.64 75.8 87.4 75.7C85.4 74.92 84.69 73.29 83.99 71.4C83.23 69.35 82.54 67.4 83.19 65.23C83.2339 64.8355 83.1645 64.4366 82.99 64.08C82.5655 62.8542 82.4053 61.5523 82.52 60.26C82.66 58.01 82.89 55.77 82.93 53.52C83.1552 51.4272 82.8096 49.3124 81.93 47.4V40.27C82.52 40.09 82.42 39.54 82.46 39.14C82.82 35.88 83.64 32.7 84.31 29.5C84.4751 28.4928 84.8135 27.5218 85.31 26.63C85.6126 26.0486 86.0839 25.5722 86.6622 25.2635C87.2404 24.9547 87.8985 24.828 88.55 24.9C89.2034 24.9589 89.8211 25.2241 90.3137 25.6574C90.8063 26.0907 91.1483 26.6695 91.29 27.31C91.5544 28.4669 91.6353 29.6581 91.53 30.84C91.53 33.43 90.6 36.07 92.15 38.58C92.38 39.2796 92.4315 40.0255 92.3 40.75C92.3 42.5 92.18 44.25 92.12 46C92.12 46.44 91.95 47 92.38 47.26C93.92 48.36 94.24 49.99 94.27 51.79C94.65 51.71 94.91 51.63 95.18 51.59C96.9268 51.3522 98.7044 51.6596 100.27 52.47C102.5 53.57 102.92 56.34 101.27 58.78C98.92 62.23 96.54 65.67 94.54 69.34C93 72 92 74.93 89 76.26Z" fill="#703535"/>
<path d="M67.52 271.5C67.38 271.23 67.33 241.63 68.8 233.63C69.8 227.99 75.33 205.91 76.38 202.84C76.6618 201.149 76.779 199.434 76.73 197.72C76.709 196.656 76.7424 195.591 76.83 194.53C77.05 192.92 77.77 192.53 79.31 193.02C80.2622 193.457 81.2727 193.753 82.31 193.9C83.17 193.9 84.17 194.51 83.97 195.5C83.75 196.67 84.45 196.5 85.09 196.59C90.52 197.15 95.94 197.72 101.37 198.26C103.501 198.54 105.659 198.54 107.79 198.26C117.29 196.73 126.84 195.35 136.11 192.8C138.23 192.22 140.87 193.27 142.54 191.05C142.66 190.88 143.32 191 143.69 191.11C145.32 191.61 145.93 192.66 146 194.39C146.19 198.8 145.68 197.57 146.82 200.22C152.48 213.4 161.56 231.96 165.18 253.53C165.39 254.8 157.97 252.85 157.05 253.96C155.67 255.61 158.66 249.68 156.75 250.58C152.96 252.35 149.21 254.14 145.27 255.58C140.383 257.352 135.369 258.749 130.27 259.76C126.97 260.41 123.63 260.82 120.27 261.18C118.56 261.37 116.85 261.53 115.13 261.71C113.68 262.007 112.196 262.101 110.72 261.99C104.1 260.77 97.25 260.81 90.59 259.8C83.2218 258.799 75.9832 257.005 69 254.45C67.78 254 68 272.36 67.52 271.5Z" fill="#D45A3B"/>
<path d="M68.61 234.8C69.71 229.38 80.51 243.23 85.89 243.34C94.77 243.52 103.37 245.47 111.89 247.58C115.27 248.41 118.68 248.98 121.12 252.07C122.83 254.23 123.49 254.53 122.12 256.87C120.66 259.43 118.93 261.87 117.31 264.32C117.248 264.451 117.15 264.561 117.028 264.639C116.906 264.717 116.765 264.759 116.62 264.76C114.97 264.68 114.85 265.9 114.62 267.01C114.04 269.88 113.62 272.77 112.87 275.6C111.46 281.13 110.27 286.71 108.72 292.2C108.606 292.896 108.272 293.537 107.766 294.029C107.26 294.52 106.609 294.836 105.91 294.93C100.57 295.93 76.2 296.33 70.06 293.28C67.42 291.96 66.78 274.28 66.58 270.33C65.87 255.2 66.49 245.23 68.61 234.8Z" fill="#D45A3B"/>
<path d="M106.06 207.12C93.52 207.12 84.95 204.91 80.78 203.51L80.37 203.37C80.2925 203.365 80.2184 203.337 80.1576 203.288C80.0969 203.24 80.0523 203.174 80.03 203.1C79.9985 203.002 80.007 202.895 80.0539 202.803C80.1007 202.712 80.182 202.642 80.28 202.61C80.43 202.56 80.48 202.61 81.03 202.77C88.03 205.12 107.56 209.77 137.54 202.16C137.59 202.146 137.642 202.143 137.693 202.15C137.745 202.157 137.794 202.173 137.839 202.199C137.883 202.226 137.922 202.26 137.953 202.302C137.985 202.343 138.007 202.39 138.02 202.44C138.044 202.539 138.029 202.644 137.976 202.732C137.924 202.82 137.839 202.884 137.74 202.91C127.397 205.628 116.754 207.042 106.06 207.12Z" fill="#8F250D"/>
<path d="M114.37 265.6C113.22 265.6 109.93 263.17 109.59 262.73C106.47 258.81 102.13 211.91 101.95 206.73C101.947 206.679 101.955 206.628 101.972 206.579C101.989 206.531 102.016 206.486 102.05 206.448C102.084 206.41 102.126 206.379 102.172 206.357C102.219 206.335 102.269 206.323 102.32 206.32C102.424 206.32 102.524 206.359 102.6 206.429C102.676 206.5 102.722 206.597 102.73 206.7C102.96 213.2 107.36 258.64 110.2 262.21C111.413 263.293 112.795 264.171 114.29 264.81C114.37 264.786 114.455 264.788 114.534 264.815C114.613 264.841 114.681 264.892 114.73 264.96C114.789 265.044 114.812 265.147 114.796 265.249C114.779 265.35 114.723 265.44 114.64 265.5C114.563 265.562 114.468 265.597 114.37 265.6Z" fill="#8F250D"/>
<path d="M105.61 240.31C105.555 240.312 105.5 240.301 105.45 240.279C105.4 240.256 105.355 240.222 105.32 240.18C105.249 240.104 105.209 240.004 105.209 239.9C105.209 239.796 105.249 239.696 105.32 239.62C105.32 239.62 108.32 237.05 108.59 234.28C108.86 231.51 107.45 207.01 107.44 206.77C107.434 206.667 107.469 206.566 107.536 206.488C107.603 206.41 107.697 206.36 107.8 206.35C107.904 206.347 108.005 206.384 108.083 206.452C108.161 206.521 108.21 206.617 108.22 206.72C108.28 207.72 109.69 231.4 109.37 234.37C109.05 237.34 105.96 240.11 105.83 240.22C105.767 240.27 105.69 240.301 105.61 240.31Z" fill="#8F250D"/>
<path d="M104.74 202C104.629 201.916 104.498 201.861 104.36 201.84C104.234 201.816 104.105 201.816 103.98 201.84C103.767 201.859 103.568 201.955 103.42 202.11C103.145 202.355 102.954 202.679 102.874 203.038C102.793 203.396 102.827 203.771 102.97 204.11C103.017 204.504 103.218 204.864 103.53 205.11C104.73 206 105.22 203.91 105.21 203.11C105.219 202.902 105.182 202.694 105.101 202.502C105.019 202.31 104.896 202.138 104.74 202Z" fill="#8F250D"/>
<path d="M202.27 99.63C189.894 101.426 177.294 100.948 165.09 98.22C163.63 97.9 162.09 96.76 160.73 98.43C160.67 98.51 160.32 98.43 160.13 98.31C159.338 97.7672 158.698 97.0315 158.269 96.1724C157.84 95.3133 157.638 94.3591 157.68 93.4C157.94 91.34 159.77 88.94 161.41 88.51C161.847 88.4118 162.301 88.4202 162.734 88.5345C163.167 88.6489 163.566 88.8657 163.898 89.1668C164.229 89.4679 164.483 89.8444 164.639 90.2644C164.794 90.6844 164.846 91.1357 164.79 91.58C164.7 92.13 164.42 92.64 164.31 93.19C164.281 93.2858 164.274 93.3868 164.29 93.4856C164.305 93.5845 164.343 93.6786 164.399 93.761C164.456 93.8435 164.53 93.9123 164.617 93.9623C164.704 94.0123 164.8 94.0422 164.9 94.05C165.39 94.13 165.76 93.87 165.64 93.41C165.04 91.04 166.19 89.16 167.23 87.21C167.95 85.86 168.4 84.41 167.28 82.98C167.187 82.8048 167.13 82.6127 167.113 82.4151C167.096 82.2176 167.119 82.0186 167.18 81.83C167.39 79.83 171.01 76.77 173 76.98C174 77.09 174.62 78.06 175.65 78.33C179.99 79.5 184.43 79.68 188.87 79.96C191.55 80.13 194.34 79.52 196.87 80.75C199.215 81.835 201.301 83.4079 202.989 85.3634C204.677 87.3189 205.929 89.6122 206.66 92.09C207.176 94.1008 206.952 96.2301 206.03 98.09C205.49 99.31 204.07 99.65 202.27 99.63Z" fill="#EE916C"/>
<path d="M14.25 93.56C11.59 93.06 14.77 93.06 12.79 91.86C11.9672 91.3802 11.3351 90.6315 11 89.74C9.99721 87.4501 9.62959 84.9323 9.93576 82.4513C10.2419 79.9702 11.2106 77.6174 12.74 75.64C13.0502 75.1249 13.4911 74.701 14.0179 74.4112C14.5448 74.1214 15.1389 73.9761 15.74 73.99C17.69 74.06 19.74 73.15 21.53 74.7C21.9871 74.9306 22.5095 74.9977 23.01 74.89C33.33 74.11 43.71 74.05 54.01 72.79C54.29 72.79 54.58 72.79 54.86 72.79C55.58 72.79 56.63 72.54 56.86 73.24C57.1 74.14 56.13 74.66 55.36 75.03C53.02 76.1102 50.544 76.8672 48 77.28C46.47 77.55 45.63 78.48 46.09 79.94C46.3575 81.3334 47.0573 82.607 48.09 83.58C49.4 84.58 50.99 86.08 50.61 87.73C50.14 89.73 49.89 90.85 52.14 91.67C53.08 92.01 52.67 93.29 52.38 94.14C52.2549 94.5812 51.982 94.9661 51.607 95.2301C51.2319 95.4941 50.7776 95.6211 50.32 95.59C48.07 95.53 45.82 95.5 43.59 95.29C37.47 94.72 17.88 94.05 14.25 93.56Z" fill="#EE916C"/>
<path d="M73.65 72.2C78.12 72.1 82.45 70.98 86.85 70.31C90.24 69.8 93.67 69.19 97 69C104.59 68.49 112.27 68 119.84 69.54C123.09 70.21 126.25 71.3 129.5 71.96C134.79 73.03 140.11 73.96 145.43 74.86C146.276 74.9051 147.124 74.9051 147.97 74.86C151.44 75.13 152.43 76.72 151.97 79.86C151.571 81.8472 151.016 83.7999 150.31 85.7C150.15 86.26 149.6 86.7 149.2 86.58C147.57 86 146.8 87.26 145.92 88.06C138.834 94.3849 130.001 98.4183 120.58 99.63C117.74 100.05 114.88 100.42 112.02 100.63C110.046 100.764 108.064 100.647 106.12 100.28C102.92 99.63 99.71 99.81 96.5 99.67C92.2226 99.5365 88.0088 98.5967 84.08 96.9C76.39 93.47 72.08 87.44 70.64 79.23C70.5488 78.2114 70.1112 77.2549 69.4 76.52C69.0049 76.189 68.7342 75.7334 68.6325 75.2282C68.5307 74.7229 68.6039 74.1981 68.84 73.74C69.0436 73.2669 69.3857 72.8666 69.8212 72.5917C70.2568 72.3168 70.7653 72.1802 71.28 72.2C72.07 72.18 72.86 72.2 73.65 72.2Z" fill="#EE916C"/>
<path d="M97.73 59.3601C106 57.0001 112.79 53 120.38 48.8C121.05 51.63 121.05 54.3701 121.47 57.0601C122.01 60.3901 122.15 63.8701 123.39 66.9701C124.63 70.0701 123.63 72.19 122.04 74.45C121.734 74.8128 121.504 75.2336 121.365 75.6873C121.226 76.141 121.18 76.6181 121.23 77.09C121.304 77.6298 121.198 78.1788 120.929 78.6524C120.659 79.1259 120.242 79.4976 119.74 79.71C115.563 81.861 111.022 83.2173 106.35 83.71C105.789 83.6665 105.232 83.5897 104.68 83.4801C103.87 83.4801 103.68 83.23 103.83 82.35C104.16 80.5 103.71 80.05 103.41 78.35C102.41 72.99 102.15 67.5 98 60.16C97.9207 60.0134 97.8305 59.873 97.73 59.7401V59.3601Z" fill="#EE916C"/>
<path d="M103.23 78.25C103.141 78.2496 103.054 78.2186 102.985 78.1622C102.916 78.1058 102.868 78.0273 102.85 77.94C102.56 76.45 102.35 75.16 102.14 73.94C101.88 72.35 101.63 70.85 101.25 68.94C101.234 68.8881 101.229 68.8335 101.235 68.7796C101.241 68.7258 101.259 68.6738 101.286 68.627C101.314 68.5802 101.351 68.5397 101.395 68.508C101.439 68.4764 101.489 68.4542 101.542 68.4431C101.595 68.4319 101.65 68.4319 101.703 68.4431C101.756 68.4543 101.806 68.4765 101.85 68.5082C101.894 68.5399 101.931 68.5805 101.959 68.6273C101.986 68.6741 102.004 68.7261 102.01 68.78C102.4 70.66 102.65 72.17 102.91 73.78C103.12 75.02 103.33 76.3 103.62 77.78C103.638 77.8818 103.615 77.9867 103.558 78.0724C103.5 78.1582 103.411 78.2182 103.31 78.24L103.23 78.25Z" fill="#822C25"/>
<path d="M101.08 68.7C100.023 70.4873 99.1743 72.3897 98.55 74.37C98.318 74.9513 97.9614 75.4746 97.5053 75.9031C97.0491 76.3316 96.5046 76.6548 95.91 76.85C94.83 77.31 93.4 77.33 92.91 76.07C92.32 74.64 93.27 73.17 92.3 71.76C91.62 70.76 91.6 71.64 91.55 71.83C91.07 73.6 94.09 65.4 95.15 63.93C97.15 61.15 98.02 60.39 98.33 60.74C99.88 62.58 101.42 68 101.08 68.7Z" fill="#F7D6C4"/>
<path d="M86.81 36.59C86.6503 34.2774 86.822 31.9539 87.32 29.69C87.3943 29.4149 87.3943 29.125 87.32 28.85C86.09 25.55 87.69 22.65 88.8 19.77C90.56 15.2 93.7 11.54 97.31 8.29996C99.07 6.71996 101.47 6.52996 103.64 6.20996C112.05 4.97996 118.64 8.65996 124.19 14.55C126.26 16.74 127.02 19.7 127.42 22.62C128.76 31.2559 126.75 40.0776 121.8 47.28C119.93 50.03 118.5 53.06 116.36 55.63C115.766 56.4102 115.021 57.0631 114.17 57.55C110.86 59.55 110.23 60.09 106.31 60.78C101.8 61.58 97.57 63.56 95.05 60.29C90.3 54.05 86.43 45.68 86.81 36.59Z" fill="#EE916C"/>
<path d="M98.34 45.1701C97.6561 45.2224 96.975 45.0389 96.41 44.6501C96.3026 44.5461 96.2199 44.4193 96.168 44.2791C96.1161 44.1389 96.0963 43.9889 96.11 43.8401C96.25 42.3401 97.61 36.6001 97.66 36.3501C97.6716 36.304 97.6923 36.2607 97.7208 36.2227C97.7492 36.1846 97.7849 36.1526 97.8259 36.1284C97.8668 36.1043 97.912 36.0884 97.9591 36.0818C98.0061 36.0753 98.054 36.0781 98.1 36.0901C98.1457 36.1006 98.1888 36.1202 98.2267 36.1476C98.2647 36.1751 98.2967 36.2099 98.321 36.25C98.3452 36.2901 98.3612 36.3347 98.3679 36.3811C98.3746 36.4275 98.3719 36.4747 98.36 36.5201C98.36 36.5801 96.96 42.4501 96.83 43.9101C96.8226 43.952 96.8261 43.9952 96.8401 44.0355C96.8541 44.0757 96.8782 44.1117 96.91 44.1401C97.26 44.4801 98.44 44.4701 98.91 44.4201C99.0036 44.4113 99.097 44.4384 99.1713 44.496C99.2456 44.5536 99.2952 44.6372 99.31 44.7301C99.3155 44.7774 99.3117 44.8253 99.2985 44.8712C99.2854 44.917 99.2633 44.9597 99.2336 44.9969C99.2038 45.0341 99.1669 45.0651 99.1251 45.0879C99.0833 45.1108 99.0374 45.1251 98.99 45.1301C98.7743 45.1556 98.5572 45.169 98.34 45.1701Z" fill="#822C25"/>
<path d="M99.69 62.36C98.0542 62.4432 96.4282 62.0619 95 61.26C94.9175 61.1998 94.8612 61.1103 94.8427 61.0099C94.8241 60.9095 94.8446 60.8058 94.9 60.72C94.9571 60.6339 95.046 60.5739 95.1472 60.5533C95.2485 60.5327 95.3538 60.5531 95.44 60.61C99.51 63.3 110.73 59.88 114 57.06C116.22 55.14 119.22 50.15 119.25 50.06C119.276 50.016 119.311 49.9777 119.352 49.9471C119.393 49.9165 119.44 49.8943 119.49 49.8817C119.539 49.8692 119.591 49.8666 119.642 49.874C119.692 49.8814 119.741 49.8988 119.785 49.925C119.829 49.9513 119.867 49.986 119.898 50.0271C119.929 50.0682 119.951 50.1149 119.963 50.1646C119.976 50.2143 119.978 50.2659 119.971 50.3166C119.964 50.3673 119.946 50.416 119.92 50.46C119.8 50.67 116.83 55.61 114.51 57.61C112 59.81 105 62.36 99.69 62.36Z" fill="#822C25"/>
<path d="M107.1 33.63C106.742 33.8715 106.472 34.2223 106.33 34.63C106.06 35.31 106.06 37.63 107.33 36.96C107.529 36.8224 107.694 36.6408 107.812 36.4292C107.93 36.2177 107.998 35.9819 108.01 35.74C108.11 35.18 108.19 33.81 107.48 33.56C107.349 33.5326 107.213 33.5577 107.1 33.63Z" fill="#4D2222"/>
<path d="M92.76 33.6001C92.43 32.7901 91.48 33.0701 91.19 33.7401C90.9218 34.4351 90.9218 35.205 91.19 35.9001C91.46 36.6101 92.19 36.9001 92.62 36.1201C92.9794 35.3269 93.0293 34.4281 92.76 33.6001Z" fill="#4D2222"/>
<path d="M111.7 30.61C110.585 29.9284 109.317 29.5373 108.012 29.4727C106.707 29.4081 105.407 29.6719 104.23 30.24C104.155 30.2364 104.081 30.2575 104.02 30.3C103.29 30.78 103.62 31.63 104.43 31.77C105.362 31.7578 106.291 31.6472 107.2 31.44C108.599 31.3419 110.004 31.3989 111.39 31.61C111.444 31.619 111.5 31.6158 111.553 31.6006C111.605 31.5854 111.654 31.5586 111.695 31.5222C111.736 31.4858 111.769 31.4407 111.791 31.3902C111.812 31.3396 111.822 31.2849 111.82 31.23C111.854 31.1817 111.877 31.1272 111.89 31.0696C111.902 31.0119 111.902 30.9525 111.891 30.8946C111.88 30.8368 111.857 30.7818 111.824 30.733C111.792 30.6841 111.749 30.6423 111.7 30.61Z" fill="#703535"/>
<path d="M95.41 29.54C91.95 28.47 90.41 29.62 88.64 30.54C88.6033 30.557 88.5704 30.5814 88.5433 30.6114C88.5163 30.6415 88.4956 30.6768 88.4825 30.7151C88.4694 30.7534 88.4642 30.794 88.4672 30.8343C88.4702 30.8747 88.4814 30.914 88.5 30.95C88.5 31.18 89.1 31.1 89.4 31.01C91.1192 30.6075 92.9148 30.6731 94.6 31.2C94.7876 31.2576 94.984 31.2813 95.18 31.27C95.94 31.15 96.15 29.77 95.41 29.54Z" fill="#703535"/>
<path d="M104.55 50.3001C103.85 49.7601 100.28 50.5601 99.31 50.5701C96.39 50.5701 97.12 50.2101 94.21 49.7701C93.59 49.6701 93.31 50.0501 93.69 50.5701C94.0856 51.2262 94.6105 51.7951 95.2328 52.2421C95.8551 52.6891 96.5618 53.0048 97.31 53.1701C99.38 53.4601 100.1 53.1701 102.57 52.0801C103.4 51.7301 105 50.6501 104.55 50.3001Z" fill="white"/>
<path d="M63 125.16C62.86 121.64 62.78 118.16 62.79 114.62C64.1169 110.985 65.1208 107.241 65.79 103.43C67.42 96.06 68.79 88.65 70.92 81.43C72 78 73.36 67 74.26 66.94C79.8 66.35 88 69.08 93.5 68C93.9367 67.8878 94.3935 67.8789 94.8342 67.9742C95.2749 68.0694 95.6873 68.266 96.0387 68.5485C96.3901 68.831 96.6708 69.1915 96.8585 69.6014C97.0462 70.0114 97.1357 70.4594 97.12 70.91C97.12 73.85 96.98 76.79 96.97 79.71C96.8074 84.3471 97.6323 88.9658 99.39 93.26C100.21 95.11 101.06 96.96 101.81 98.85C102.33 100.17 102.81 100.04 103.63 99.09C106.563 95.5233 109.503 91.9567 112.45 88.39C116.85 83.03 121.27 77.69 125.65 72.32C127.12 70.51 128.47 68.64 131.03 68.25C132.03 68.1 149.19 67.78 151.03 68.73C153.85 70.16 155.34 75.13 155.3 78.19C155.24 81.98 154.54 85.69 154.45 89.48C154.335 94.1675 153.927 98.8433 153.23 103.48C152.917 105.653 152.673 107.833 152.5 110.02C152.258 111.354 152.541 112.73 153.29 113.86C153.95 114.76 153.59 116.19 153.46 117.35C152.21 128.76 152.06 139.35 151.83 150.86C151.69 158 153.41 165.29 153.9 172.36C154.14 175.92 155.3 188.57 152.54 189.7C149.78 190.83 138.36 199 99.16 200.16C91.24 200.4 75.61 196.42 68.27 194.78C63.78 193.78 63.89 145.92 63 125.16Z" fill="#F7D6C4"/>
<path d="M79.29 69.4001C81.3106 69.4916 83.3189 69.766 85.29 70.2201C85.6349 70.2538 85.9723 70.3416 86.29 70.4801C87.29 70.9601 87.29 72.2701 86.89 73.1601C83.89 80.3901 80.24 87.2801 77.13 94.4401C74.13 101.32 72.37 108.55 69.54 115.44C68.6 117.73 67.32 119.94 67.05 122.44C66.7525 124.599 66.3318 126.739 65.79 128.85C65.7 129.25 65.69 129.67 65.25 129.85C64.81 130.03 64.63 129.64 64.39 129.42C57.13 122.81 49.27 116.5 44.44 107.77C40.5657 100.883 37.4828 93.58 35.25 86.0001C35.01 85.1901 32.46 75.1301 32.25 74.3101C32.04 73.4901 64.6 70.1401 72.7 67.0001C75.06 66.1201 75.63 69.5401 79.29 69.4001Z" fill="#F7D6C4"/>
<path d="M146.21 128.79C144.07 127.79 141.87 126.95 139.84 125.79C139.03 125.32 138.84 124.11 138.84 123.02C138.84 118.21 138.66 113.39 138.92 108.6C139.49 97.91 140.71 87.3 143.92 77.02C145.54 71.88 145.37 66.79 150.74 69.02C158.4 73.92 185.9 78.45 185.26 79.77C182.37 85.77 175.39 98.63 170.85 103.53C166.1 108.66 161.58 114.03 156.61 118.93C153.9 121.6 151.79 124.72 149.09 127.34C148.353 128.177 147.321 128.696 146.21 128.79Z" fill="#F7D6C4"/>
<path d="M144 147.57C143.948 147.572 143.895 147.562 143.847 147.542C143.798 147.523 143.754 147.493 143.717 147.455C143.681 147.418 143.652 147.373 143.634 147.324C143.615 147.275 143.607 147.222 143.61 147.17C143.61 146.81 144.8 111.03 157.36 86.6301C157.382 86.5841 157.414 86.5431 157.452 86.5095C157.49 86.4759 157.535 86.4504 157.584 86.4346C157.632 86.4187 157.684 86.4128 157.735 86.4172C157.785 86.4215 157.835 86.4361 157.88 86.4601C157.923 86.4875 157.961 86.5233 157.991 86.5654C158.02 86.6074 158.041 86.6549 158.052 86.7051C158.063 86.7553 158.065 86.8072 158.056 86.8578C158.047 86.9084 158.028 86.9568 158 87.0001C145.52 111.24 144.35 146.85 144.34 147.21C144.334 147.3 144.296 147.385 144.234 147.451C144.172 147.517 144.09 147.559 144 147.57Z" fill="#D49272"/>
<path d="M146.52 123.56H146.39C146.294 123.526 146.215 123.456 146.17 123.364C146.125 123.272 146.118 123.167 146.15 123.07C146.5 122.07 160.52 99.57 166.07 93.13C166.105 93.0927 166.148 93.0631 166.195 93.0429C166.243 93.0226 166.294 93.0122 166.345 93.0122C166.396 93.0122 166.447 93.0226 166.495 93.0429C166.542 93.0631 166.584 93.0927 166.62 93.13C166.693 93.203 166.733 93.3019 166.733 93.405C166.733 93.508 166.693 93.6069 166.62 93.68C161.02 100.18 147.14 122.62 146.85 123.37C146.814 123.425 146.765 123.471 146.708 123.505C146.65 123.538 146.586 123.557 146.52 123.56Z" fill="#D49272"/>
<path d="M58.87 122.22C58.7992 122.221 58.7295 122.202 58.6692 122.165C58.6089 122.128 58.5606 122.074 58.53 122.01C54.86 115.21 53.03 104.22 53.01 104.11C52.9997 104.058 52.9999 104.005 53.0107 103.954C53.0215 103.902 53.0426 103.854 53.0727 103.81C53.1028 103.767 53.1413 103.731 53.186 103.703C53.2306 103.675 53.2804 103.656 53.3324 103.648C53.3844 103.64 53.4375 103.643 53.4884 103.656C53.5394 103.669 53.5873 103.692 53.6291 103.724C53.6709 103.756 53.7058 103.796 53.7318 103.841C53.7577 103.887 53.7741 103.938 53.78 103.99C53.78 104.09 55.61 114.99 59.22 121.64C59.2445 121.685 59.2598 121.735 59.265 121.786C59.2702 121.837 59.2652 121.889 59.2504 121.938C59.2355 121.988 59.211 122.033 59.1783 122.073C59.1457 122.113 59.1054 122.146 59.06 122.17C59.0017 122.202 58.9364 122.219 58.87 122.22Z" fill="#D49272"/>
<path d="M94.88 16.7401C94.7893 16.7392 94.7018 16.7068 94.6324 16.6484C94.5631 16.59 94.5162 16.5093 94.5 16.4201C94.1493 14.691 94.1493 12.9091 94.5 11.1801C94.5136 11.1286 94.5377 11.0805 94.5706 11.0387C94.6036 10.9969 94.6448 10.9623 94.6916 10.937C94.7384 10.9117 94.79 10.8962 94.843 10.8916C94.896 10.887 94.9495 10.8933 95 10.9101C95.1001 10.9402 95.1844 11.0084 95.2349 11.1C95.2854 11.1916 95.2979 11.2993 95.27 11.4001C94.9517 13.0078 94.9517 14.6623 95.27 16.2701C95.2878 16.3719 95.2655 16.4768 95.2077 16.5625C95.1499 16.6483 95.0611 16.7083 94.96 16.7301L94.88 16.7401Z" fill="#4D1612"/>
<path d="M6.06999 92.73C4.57999 92.32 2.92999 92.06 1.94999 90.73C1.12042 89.4155 0.783808 87.8493 0.999988 86.31C1.67999 78.18 4.27999 70.64 7.54999 63.2C11.24 54.8 24.72 30.54 29 25.47C30 24.26 35.5 25.41 36.78 24.47C37.72 23.78 36.96 21.72 37.99 22.71C39.33 23.99 39.29 22.97 39.99 24.82C40.69 26.67 38.99 31.82 38.06 33.76C32.65 44.51 29.84 52.53 25.88 63.88C24.28 68.45 22.97 73.12 21.53 77.75C21.3469 78.7017 20.8245 79.5545 20.06 80.15C19.717 80.4441 19.5018 80.8601 19.46 81.31C18.63 84.14 19.06 87.16 17.96 89.96C17.6 90.9 18.51 91.18 19.34 91.11C20.4734 91.03 21.6057 91.2801 22.6 91.83C22.8123 91.9072 22.9993 92.0413 23.1404 92.2177C23.2815 92.3941 23.3713 92.6059 23.4 92.83C23.4 93.46 33.32 94.6 32.82 94.6C26.49 94.56 7.66999 93.18 6.06999 92.73Z" fill="#EE916C"/>
<path d="M213.94 86.6601C214.412 88.8331 214.547 91.0659 214.34 93.2801C213.92 96.0801 211.57 97.6601 209.05 98.4801C204.38 100 199.26 100.06 194.41 100.48C194.296 100.515 194.174 100.515 194.06 100.48C193.973 100.408 193.91 100.31 193.88 100.2C193.09 98.04 193.17 95.3 193.05 93.0301C193 91.9301 192.95 90.84 192.95 89.7401C192.886 89.1514 192.923 88.5562 193.06 87.9801C193.89 85.7301 193.49 83.4901 192.91 81.3101C192.05 78.0801 191.7 74.7601 191.07 71.4901C189.3 62.43 185.58 44.6001 181.17 36.4901C179.17 32.8201 173.35 31.9501 176.17 30.2501C177.26 29.5801 181.32 26.4301 182.63 26.2501C183.899 26.1933 185.16 26.4644 186.294 27.0372C187.427 27.61 188.393 28.4651 189.1 29.5201C197.28 44.2601 209.43 70.6001 212.53 80.5801C213.139 82.5719 213.61 84.6034 213.94 86.6601Z" fill="#EE916C"/>
<path d="M196.53 92.4401C196.462 92.441 196.394 92.4239 196.335 92.3905C196.275 92.3572 196.225 92.3087 196.19 92.2501C194.243 88.5987 192.935 84.6419 192.32 80.5501C192.313 80.4519 192.344 80.3549 192.406 80.2784C192.468 80.202 192.557 80.1517 192.654 80.1378C192.751 80.1239 192.85 80.1473 192.931 80.2034C193.012 80.2594 193.069 80.344 193.09 80.4401C193.702 84.4283 194.979 88.2854 196.87 91.8501C196.919 91.9411 196.932 92.0474 196.906 92.1475C196.88 92.2477 196.817 92.3343 196.73 92.3901C196.668 92.4207 196.599 92.4378 196.53 92.4401Z" fill="#822C25"/>
<path d="M8.14997 85.59C8.0975 85.6036 8.04245 85.6036 7.98997 85.59C7.93209 85.5718 7.87943 85.5399 7.83638 85.4971C7.79334 85.4543 7.76117 85.4019 7.74257 85.3441C7.72396 85.2863 7.71947 85.2249 7.72945 85.1651C7.73944 85.1052 7.76362 85.0486 7.79997 85C10.5139 80.6584 14.6322 77.3765 19.47 75.7C19.5241 75.6762 19.583 75.6654 19.6421 75.6683C19.7012 75.6713 19.7587 75.688 19.8102 75.7171C19.8616 75.7463 19.9056 75.787 19.9385 75.8361C19.9715 75.8852 19.9925 75.9413 20 76C20.017 76.0485 20.024 76.1 20.0206 76.1513C20.0171 76.2027 20.0033 76.2527 19.9799 76.2986C19.9565 76.3444 19.9241 76.385 19.8846 76.4179C19.8451 76.4508 19.7993 76.4753 19.75 76.49C15.1123 78.111 11.1631 81.2598 8.54997 85.42C8.50678 85.4839 8.44604 85.5339 8.37508 85.5641C8.30411 85.5942 8.22594 85.6032 8.14997 85.59Z" fill="#822C25"/>
<path d="M179.08 34.7801C179.534 34.879 179.961 35.075 180.332 35.3546C180.704 35.6343 181.01 35.9909 181.23 36.4001C182 37.8301 182.67 39.7901 182.77 39.8901C183.48 40.7201 188.77 41.2801 190.13 40.5901C190.6 40.3601 190.71 41.0101 190.88 41.3501C191.21 41.9701 189.64 41.8801 190.32 41.6901C191 41.5001 191.32 35.9301 191.21 35.2901C190.73 31.4901 180.1 11.0701 176.88 10.7101C174.35 10.4201 167.28 11.6301 166.88 11.7101C161.52 12.7101 161.46 12.7101 161.72 18.0801C161.88 21.2801 162.17 21.2601 161.78 22.5301C161.55 23.2801 160.59 25.8201 161.31 26.3301C165.33 29.2201 165.68 31.8601 179.08 34.7801Z" fill="#EE916C"/>
<path d="M46.71 11.4C43.9732 11.2364 41.2273 11.4756 38.56 12.11C37.3203 12.4854 36.2135 13.207 35.37 14.19C31.09 19.49 27.51 26.93 25.17 31.04C24.72 32.19 31.36 30.41 32.76 31.28C34.2896 32.1464 35.8728 32.9146 37.5 33.58C37.876 33.7613 38.2942 33.8374 38.71 33.8C43.57 33.14 48.45 32.5 52.52 29.37C52.8669 29.1741 53.1474 28.8791 53.3256 28.5228C53.5038 28.1665 53.5715 27.7651 53.52 27.37C52.82 24.7 54.18 22.57 55.19 20.37C55.3636 20.0775 55.4388 19.7371 55.4046 19.3987C55.3704 19.0603 55.2286 18.7418 55 18.49C52.74 16.4 51.35 13.49 48.47 11.97C47.9211 11.6787 47.3254 11.4858 46.71 11.4Z" fill="#EE916C"/>
<path d="M49.87 27.3201C49.7699 27.3202 49.6736 27.2819 49.601 27.213C49.5285 27.1441 49.4851 27.05 49.48 26.9501C49.346 25.2252 49.4401 23.4903 49.76 21.7901C49.8902 21.3967 50.1004 21.0346 50.3775 20.7265C50.6546 20.4184 50.9926 20.1711 51.37 20.0001C51.5609 19.9041 51.7694 19.8484 51.9827 19.8363C52.196 19.8243 52.4095 19.8562 52.61 19.9301C52.8 20.0201 53.37 20.2901 53.61 24.4701C53.6141 24.5208 53.6079 24.5718 53.5919 24.6201C53.5759 24.6684 53.5503 24.713 53.5168 24.7513C53.4832 24.7895 53.4423 24.8206 53.3964 24.8427C53.3506 24.8649 53.3008 24.8775 53.25 24.8801C53.1979 24.8841 53.1456 24.8777 53.0961 24.8612C53.0466 24.8447 53.0009 24.8184 52.9617 24.7839C52.9226 24.7494 52.8907 24.7074 52.8681 24.6603C52.8455 24.6133 52.8325 24.5622 52.83 24.5101C52.8014 23.1967 52.6031 21.8926 52.24 20.6301C52.042 20.6014 51.84 20.6327 51.66 20.7201C51.389 20.8421 51.1461 21.0188 50.9465 21.2391C50.7469 21.4593 50.5949 21.7184 50.5 22.0001C50.2195 23.6073 50.1389 25.243 50.26 26.8701C50.2627 26.9213 50.2552 26.9726 50.2381 27.0209C50.2209 27.0693 50.1944 27.1137 50.1601 27.1518C50.1257 27.1899 50.0841 27.2209 50.0378 27.2429C49.9915 27.2649 49.9412 27.2775 49.89 27.2801L49.87 27.3201Z" fill="#822C25"/>
<path d="M38.05 29.38H37.9C37.8527 29.3605 37.8099 29.3316 37.774 29.2951C37.7382 29.2586 37.7101 29.2152 37.6914 29.1676C37.6727 29.12 37.6639 29.0691 37.6653 29.0179C37.6668 28.9668 37.6786 28.9165 37.7 28.87C39.11 25.55 42.99 25.87 44.6 26.17C45.1366 26.2553 45.6834 26.2553 46.22 26.17L49.82 25.98C49.8712 25.9773 49.9225 25.9848 49.9708 26.0019C50.0192 26.0191 50.0637 26.0456 50.1018 26.08C50.1398 26.1143 50.1708 26.1559 50.1928 26.2022C50.2148 26.2486 50.2274 26.2988 50.23 26.35C50.2341 26.4016 50.2276 26.4534 50.211 26.5023C50.1944 26.5513 50.1679 26.5963 50.1333 26.6347C50.0987 26.6731 50.0565 26.704 50.0096 26.7256C49.9626 26.7471 49.9117 26.7588 49.86 26.76L46.29 27C45.678 27.0833 45.0565 27.0665 44.45 26.95C43.04 26.69 39.61 26.39 38.45 29.2C38.409 29.2667 38.349 29.3195 38.2777 29.3516C38.2064 29.3837 38.127 29.3936 38.05 29.38Z" fill="#822C25"/>
<path d="M50.67 21.34C50.6031 21.3424 50.537 21.325 50.48 21.29C50.4352 21.2652 50.396 21.2315 50.3645 21.1911C50.3331 21.1507 50.3101 21.1044 50.2971 21.0549C50.284 21.0054 50.2811 20.9537 50.2884 20.9031C50.2958 20.8524 50.3133 20.8038 50.34 20.76C50.6619 20.1969 50.7752 19.5384 50.66 18.9C49.3527 17.0654 47.887 15.3488 46.28 13.77C46.2067 13.6953 46.1656 13.5947 46.1656 13.49C46.1656 13.3853 46.2067 13.2848 46.28 13.21C46.3548 13.1368 46.4553 13.0957 46.56 13.0957C46.6647 13.0957 46.7652 13.1368 46.84 13.21C47.26 13.65 51.01 17.59 51.38 18.61C51.5849 19.4741 51.4488 20.3838 51 21.15C50.9658 21.2073 50.9175 21.2548 50.8598 21.2881C50.802 21.3213 50.7366 21.3392 50.67 21.34Z" fill="#822C25"/>
<path d="M44.15 26.85C44.0977 26.865 44.0423 26.865 43.99 26.85C43.9427 26.8304 43.8999 26.8015 43.8641 26.765C43.8282 26.7285 43.8001 26.6852 43.7814 26.6376C43.7628 26.5899 43.7539 26.539 43.7554 26.4879C43.7568 26.4368 43.7686 26.3864 43.79 26.34C44.5 24.74 46.38 20.34 46.45 19.34C46.51 18.48 44.76 16.1 43.64 14.8C43.5724 14.7204 43.5391 14.6172 43.5476 14.5132C43.556 14.4091 43.6054 14.3126 43.685 14.245C43.7646 14.1773 43.8677 14.1441 43.9718 14.1525C44.0759 14.161 44.1724 14.2104 44.24 14.29C44.75 14.89 47.32 17.96 47.24 19.4C47.16 20.84 44.77 26 44.5 26.62C44.4706 26.6884 44.4218 26.7467 44.3595 26.7875C44.2973 26.8284 44.2245 26.8501 44.15 26.85Z" fill="#822C25"/>
<path d="M36.56 25.18H36.42C36.3722 25.1623 36.3284 25.1352 36.2913 25.1002C36.2542 25.0653 36.2245 25.0233 36.204 24.9766C36.1835 24.93 36.1725 24.8797 36.1718 24.8287C36.1711 24.7777 36.1807 24.7272 36.2 24.68C36.6489 23.5632 36.9839 22.404 37.2 21.22C36.801 20.3011 36.3365 19.4122 35.81 18.56C35.7583 18.4698 35.7445 18.3628 35.7717 18.2624C35.7989 18.1621 35.8648 18.0767 35.955 18.025C36.0452 17.9733 36.1522 17.9595 36.2525 17.9867C36.3528 18.0139 36.4383 18.0798 36.49 18.17C37.0702 19.0702 37.5752 20.0168 38 21C38.13 21.59 37.3 23.92 36.94 24.89C36.9163 24.9728 36.8665 25.0457 36.7981 25.098C36.7296 25.1502 36.6461 25.179 36.56 25.18Z" fill="#822C25"/>
<path d="M38.83 27.7001C37.8787 27.6611 36.9321 27.544 36 27.3501C35.9375 27.338 35.8791 27.3105 35.83 27.2701L34.83 26.4601C34.83 26.4601 34.83 26.4601 34.78 26.4101C34.73 26.3601 32.78 24.0901 33.52 22.2801C33.5868 22.0937 33.7014 21.9282 33.8524 21.8001C34.0033 21.672 34.1852 21.5857 34.38 21.5501C35.51 21.3501 37.03 22.9101 37.38 23.2201C37.4188 23.2567 37.4497 23.3009 37.4707 23.3499C37.4918 23.399 37.5025 23.4518 37.5023 23.5052C37.5021 23.5585 37.491 23.6113 37.4696 23.6602C37.4482 23.709 37.417 23.753 37.3779 23.7893C37.3388 23.8257 37.2927 23.8536 37.2424 23.8714C37.1921 23.8892 37.1387 23.8965 37.0854 23.8928C37.0322 23.8891 36.9803 23.8746 36.9329 23.85C36.8855 23.8254 36.8437 23.7914 36.81 23.7501C36.2 23.1001 35.09 22.2301 34.56 22.3201C34.51 22.3201 34.39 22.3201 34.29 22.5901C33.75 23.8601 35.21 25.6501 35.4 25.8701L36.29 26.6001C37.2734 26.8258 38.2813 26.9266 39.29 26.9001C40.3643 24.6174 41.1826 22.2228 41.73 19.7601C41.89 18.5601 39.96 15.7601 39.2 14.7601C39.1394 14.6759 39.1139 14.5715 39.1289 14.4689C39.1438 14.3663 39.198 14.2735 39.28 14.2101C39.3204 14.1791 39.3666 14.1565 39.4159 14.1437C39.4652 14.131 39.5166 14.1282 39.5669 14.1357C39.6173 14.1432 39.6657 14.1607 39.7091 14.1872C39.7526 14.2137 39.7903 14.2487 39.82 14.2901C40.12 14.6801 42.74 18.1801 42.51 19.9001C42.33 21.2301 40.42 27.1201 39.73 27.5901C39.4452 27.7066 39.1344 27.7445 38.83 27.7001Z" fill="#822C25"/>
<path d="M161.9 22.46H161.76C161.712 22.4423 161.668 22.4152 161.631 22.3802C161.594 22.3453 161.565 22.3033 161.544 22.2566C161.523 22.21 161.513 22.1597 161.512 22.1087C161.511 22.0577 161.521 22.0072 161.54 21.96C162.092 20.2608 162.546 18.5313 162.9 16.78C162.922 16.6789 162.982 16.5901 163.068 16.5323C163.153 16.4745 163.258 16.4522 163.36 16.47C163.461 16.4916 163.548 16.5521 163.605 16.6382C163.661 16.7244 163.681 16.8292 163.66 16.93C163.304 18.7264 162.84 20.4996 162.27 22.24C162.236 22.3081 162.183 22.365 162.117 22.404C162.052 22.443 161.976 22.4624 161.9 22.46Z" fill="#822C25"/>
<path d="M163.92 16.92H163.82C163.721 16.892 163.636 16.8258 163.586 16.7358C163.535 16.6459 163.522 16.5395 163.55 16.44C164.3 13.74 170.39 12.58 171.08 12.44C171.181 12.4224 171.284 12.4451 171.368 12.503C171.453 12.561 171.511 12.6497 171.53 12.75C171.54 12.8 171.54 12.8515 171.53 12.9015C171.52 12.9514 171.499 12.9988 171.47 13.0408C171.442 13.0828 171.404 13.1185 171.361 13.1459C171.318 13.1732 171.27 13.1916 171.22 13.2C169.47 13.52 164.83 14.74 164.3 16.63C164.276 16.7128 164.227 16.7858 164.158 16.838C164.09 16.8903 164.006 16.919 163.92 16.92Z" fill="#822C25"/>
<path d="M165.93 24.72H165.85C165.799 24.7104 165.751 24.6908 165.708 24.6625C165.665 24.6341 165.628 24.5975 165.599 24.5547C165.57 24.5119 165.55 24.4638 165.54 24.4132C165.53 24.3626 165.53 24.3105 165.54 24.26C165.54 24.08 166.48 19.81 167.12 17.9C167.81 15.84 173.63 14.32 174.29 14.15C174.342 14.1296 174.397 14.1206 174.452 14.1233C174.507 14.126 174.562 14.1405 174.611 14.1657C174.66 14.191 174.704 14.2265 174.738 14.2698C174.773 14.3131 174.797 14.3633 174.811 14.417C174.825 14.4707 174.827 14.5267 174.817 14.5812C174.807 14.6358 174.786 14.6876 174.755 14.7333C174.723 14.779 174.683 14.8175 174.635 14.8462C174.588 14.875 174.535 14.8933 174.48 14.9C172.15 15.5 168.28 16.9 167.86 18.14C167.23 20.01 166.32 24.38 166.31 24.42C166.291 24.5063 166.243 24.5836 166.174 24.6383C166.105 24.6931 166.018 24.7219 165.93 24.72Z" fill="#822C25"/>
<path d="M168.75 26.1101C168.669 26.1121 168.589 26.0879 168.522 26.0411C168.455 25.9943 168.406 25.9273 168.38 25.8501C168.38 25.7001 168.13 24.7801 169.02 21.6201C169.53 19.7901 176.34 17.0301 176.41 17.0001C176.67 16.9101 176.85 16.8401 177.04 17.0001C177.126 17.0571 177.186 17.1461 177.207 17.2473C177.227 17.3486 177.207 17.4538 177.15 17.5401C177.117 17.592 177.071 17.6348 177.017 17.6645C176.962 17.6942 176.902 17.7098 176.84 17.7101C176 17.9201 170.1 20.7101 169.77 21.8601C168.94 24.8601 169.13 25.6401 169.13 25.6501C169.155 25.7481 169.14 25.8519 169.09 25.9396C169.04 26.0273 168.957 26.092 168.86 26.1201L168.75 26.1101Z" fill="#822C25"/>
<path d="M173.35 26.47C173.295 26.4655 173.241 26.4493 173.193 26.4225C173.144 26.3956 173.102 26.3587 173.069 26.3142C173.036 26.2697 173.012 26.2187 173 26.1645C172.989 26.1103 172.988 26.0543 173 26L173.33 23.47C173.33 23.47 173.33 23.41 173.33 23.38C173.87 21.95 177.97 20.55 178.16 20.53C178.262 20.5157 178.366 20.5424 178.448 20.6042C178.531 20.6661 178.585 20.758 178.6 20.86C178.615 20.9591 178.591 21.0601 178.533 21.1421C178.475 21.224 178.388 21.2805 178.29 21.3C177.78 21.43 174.48 22.73 174.08 23.62L173.75 26.1C173.749 26.1508 173.737 26.2008 173.716 26.2471C173.695 26.2934 173.665 26.335 173.628 26.3695C173.591 26.404 173.547 26.4307 173.499 26.4479C173.451 26.4652 173.401 26.4727 173.35 26.47Z" fill="#822C25"/>
<path d="M173.54 28.91C172.66 28.91 168.54 26.05 168.54 26.02C168.462 25.951 168.414 25.8538 168.408 25.7497C168.401 25.6457 168.436 25.5432 168.505 25.465C168.574 25.3868 168.671 25.3391 168.775 25.3325C168.879 25.326 168.982 25.361 169.06 25.43C170.482 26.4427 171.98 27.3453 173.54 28.13C174.22 27.98 175.19 27.69 176.04 27.43L176.68 27.24C177.39 27.03 178.15 26.46 178.04 26.06C177.785 25.5139 177.375 25.0548 176.861 24.7401C176.347 24.4253 175.752 24.2688 175.15 24.29C174.927 24.3208 174.709 24.3779 174.5 24.46C174.314 24.5299 174.124 24.5867 173.93 24.63C173.878 24.646 173.824 24.6511 173.77 24.6448C173.716 24.6385 173.664 24.6211 173.617 24.5936C173.57 24.5661 173.53 24.5291 173.498 24.4851C173.466 24.441 173.444 24.3909 173.433 24.3378C173.422 24.2847 173.422 24.2298 173.433 24.1768C173.444 24.1237 173.467 24.0735 173.498 24.0295C173.53 23.9855 173.571 23.9485 173.617 23.9211C173.664 23.8936 173.716 23.8762 173.77 23.87L174.25 23.72C174.516 23.616 174.796 23.5487 175.08 23.52C175.863 23.4794 176.639 23.6814 177.303 24.0984C177.967 24.5154 178.486 25.1271 178.79 25.85C179.08 26.85 177.86 27.71 176.9 27.99L176.26 28.18C175.37 28.45 174.37 28.75 173.66 28.9L173.54 28.91Z" fill="#822C25"/>
<path d="M172.73 29.93C172.668 29.9308 172.606 29.9167 172.551 29.8888C172.495 29.861 172.447 29.8202 172.41 29.77C169.41 25.51 165.75 25.16 165.71 25.16C165.65 25.1533 165.592 25.1338 165.54 25.1027C165.489 25.0716 165.444 25.0298 165.41 24.98C165.385 24.9249 165.373 24.8653 165.373 24.805C165.373 24.7447 165.385 24.685 165.41 24.63C166.137 22.8456 166.308 20.8831 165.9 19C165.833 18.6551 165.695 18.3279 165.495 18.0388C165.296 17.7497 165.039 17.505 164.74 17.32C164.326 17.1195 163.853 17.0768 163.41 17.2C163.362 17.2188 163.31 17.2275 163.258 17.2255C163.206 17.2235 163.155 17.2108 163.108 17.1883C163.061 17.1658 163.019 17.134 162.985 17.0947C162.951 17.0554 162.926 17.0095 162.91 16.96C162.878 16.8631 162.885 16.7576 162.93 16.666C162.975 16.5744 163.054 16.504 163.15 16.47C163.796 16.2674 164.496 16.3248 165.1 16.63C165.494 16.8598 165.836 17.17 166.103 17.5403C166.37 17.9107 166.557 18.333 166.65 18.78C167.065 20.6744 166.933 22.6475 166.27 24.47C169.075 25.1488 171.506 26.8915 173.05 29.33C173.08 29.371 173.102 29.4177 173.114 29.4674C173.126 29.5171 173.128 29.5687 173.12 29.6191C173.111 29.6695 173.093 29.7177 173.065 29.7608C173.038 29.8039 173.002 29.841 172.96 29.87C172.891 29.9134 172.811 29.9344 172.73 29.93Z" fill="#822C25"/>
<path d="M79 119.86C79.0278 119.736 79.0943 119.624 79.19 119.54C83.03 115.71 78.05 112.28 75.09 110.39C72.3862 108.807 69.8175 107.005 67.41 105C65.34 103.13 64.95 100.8 65.64 98.1701C66.5086 95.4112 67.8931 92.8424 69.72 90.6001C75.99 82.05 78.28 72.2601 78.72 61.9401C79.03 54.3701 78.16 46.8001 77.98 39.2301C77.8 31.4901 78.43 28.8401 82.34 22.1501C86.42 15.1501 93.58 3.08006 102.1 2.01006C105.23 1.61006 110.29 1.11006 113.21 2.15006C113.76 2.34006 112.88 4.15006 111.87 4.68006C111.46 4.89006 110.87 4.52006 110.45 4.57006C106.52 5.01006 102.45 4.17006 98.67 6.12006C96.55 7.22006 96.17 7.73006 96.67 10.1201C96.88 11.0501 96.96 11.7701 96.15 12.3801C96.0025 12.467 95.8886 12.6012 95.8269 12.7609C95.7652 12.9206 95.7592 13.0965 95.81 13.2601C96.3 14.8601 95.38 15.8501 94.43 16.9901C91.65 20.3101 90.08 24.3701 88.05 28.1401C85.51 32.8901 85.48 38.0101 85.74 43.1401C86.06 49.2801 88.25 55.0701 89.12 61.1401C89.3 62.3701 91.33 65.4801 91.54 65.1401L91.74 64.8001C92.36 63.8001 92.35 64.2301 93.63 65.0601C95.79 66.4701 94.63 67.9201 94.32 69.4001C93.17 74.4701 91.22 79.3401 90.48 84.5101C89.6482 90.269 89.2404 96.0813 89.26 101.9C89.26 106.37 92.93 110.9 90.42 115.31C88.37 118.87 83.15 120.55 79.26 120.13C79.1842 120.13 79.1106 120.105 79.05 120.06C79.0222 120.036 79.0024 120.004 78.9935 119.968C78.9846 119.932 78.9868 119.895 79 119.86Z" fill="#703535"/>
<path d="M82.31 56.67C82.2081 56.6575 82.1153 56.6053 82.0517 56.5249C81.9881 56.4444 81.9587 56.342 81.97 56.24C84.91 32.18 88.45 26.58 88.6 26.35C88.6589 26.2684 88.7471 26.2127 88.8462 26.1946C88.9452 26.1765 89.0475 26.1974 89.1314 26.253C89.2154 26.3085 89.2747 26.3944 89.2968 26.4927C89.3189 26.5909 89.3021 26.6939 89.25 26.78C89.25 26.83 85.65 32.55 82.75 56.33C82.7351 56.4327 82.6808 56.5256 82.5987 56.589C82.5166 56.6524 82.4131 56.6815 82.31 56.67Z" fill="#4D1612"/>
<path d="M79.44 87.2H79.33C79.2306 87.172 79.1464 87.1058 79.0958 87.0158C79.0452 86.9258 79.0323 86.8194 79.06 86.72C80.06 83.21 81.73 74.59 83.88 53.47C83.94 52.83 83.98 52.47 83.99 52.38C84.0111 52.2839 84.0678 52.1994 84.1487 52.1433C84.2296 52.0873 84.3286 52.0639 84.426 52.0778C84.5234 52.0917 84.6119 52.1419 84.6739 52.2183C84.7358 52.2948 84.7666 52.3918 84.76 52.49C84.76 52.56 84.76 52.93 84.65 53.55C82.5 74.7 80.83 83.37 79.81 86.92C79.7879 87.001 79.7396 87.0724 79.6727 87.123C79.6057 87.1737 79.5239 87.2007 79.44 87.2Z" fill="#4D1612"/>
<path d="M130.71 71.83C130.757 78.1625 129.544 84.4412 127.14 90.3C125.26 94.93 121.84 98.65 118.45 102.3C117.91 102.88 117.45 102.78 117.17 102.08C116.06 99.32 113.97 97.18 112.49 94.66C111.63 93.2 110.76 93.28 109.62 94.08C107.177 95.8085 104.898 97.7566 102.81 99.9C100.91 101.83 100.61 101.9 98.81 99.82C97.01 97.74 95.49 95.69 93.81 93.61C92.46 91.92 92.28 91.95 91.09 93.67C90.0883 95.309 89.3019 97.0701 88.75 98.91C88.7025 99.1576 88.5818 99.3852 88.4035 99.5635C88.2252 99.7418 87.9976 99.8625 87.75 99.91C86.81 100.12 87.4 86.07 89.32 78.43C91.91 68.12 95.71 62.43 96.32 62.51C96.93 62.59 98.97 72.91 98.43 74.39C96.65 79.2 97.19 87.84 98.36 92.84C98.7503 94.3132 99.3677 95.7167 100.19 97C100.92 98.23 101.68 98 102.49 97.16C104.571 94.9323 106.483 92.5523 108.21 90.04C110.94 86.45 113.41 82.68 115.78 78.84C118.87 73.84 121.21 68.58 121.23 62.53C121.23 60.92 121.9 60.53 123.43 61.21C125.562 62.2596 127.573 63.5371 129.43 65.02C130.59 65.86 130.54 67.43 130.69 68.75C130.753 69.7755 130.759 70.8037 130.71 71.83Z" fill="#F7D6C4"/>
<path d="M99.61 101.05C99.5478 101.051 99.4862 101.037 99.4306 101.009C99.3749 100.981 99.3267 100.94 99.29 100.89C97.92 98.8901 94.03 93.6701 92.43 92.8901C92.3404 92.8436 92.2409 92.8193 92.14 92.8193C92.0391 92.8193 91.9396 92.8436 91.85 92.8901C90.92 93.3501 90.09 95.8901 89.79 97.3401C89.7804 97.3908 89.7609 97.4391 89.7325 97.4821C89.7042 97.5252 89.6675 97.5623 89.6247 97.5911C89.5819 97.6199 89.5339 97.64 89.4833 97.6501C89.4327 97.6602 89.3806 97.6602 89.33 97.6501C89.2294 97.6284 89.1415 97.568 89.0853 97.4818C89.0291 97.3957 89.0092 97.2908 89.03 97.1901C89.11 96.7601 89.93 92.9601 91.51 92.1901C91.7057 92.0867 91.9237 92.0327 92.145 92.0327C92.3663 92.0327 92.5843 92.0867 92.78 92.1901C94.88 93.1901 99.78 100.19 99.93 100.45C99.9879 100.535 100.01 100.64 99.9912 100.741C99.9724 100.842 99.9145 100.931 99.83 100.99C99.7658 101.035 99.6881 101.056 99.61 101.05Z" fill="#D49272"/>
<path d="M101.77 101.05C101.683 101.054 101.597 101.026 101.53 100.97C101.45 100.905 101.397 100.812 101.384 100.709C101.371 100.607 101.398 100.503 101.46 100.42C102.1 99.6 107.81 92.42 110.46 93.29C113.11 94.16 115.87 98.45 115.95 98.78C115.963 98.8293 115.967 98.8807 115.96 98.9313C115.953 98.9819 115.936 99.0306 115.91 99.0745C115.884 99.1184 115.849 99.1565 115.808 99.1867C115.767 99.2168 115.72 99.2384 115.67 99.25C115.576 99.2753 115.476 99.2634 115.39 99.2169C115.304 99.1703 115.24 99.0927 115.21 99C114.99 98.52 112.44 94.78 110.21 94C108.59 93.44 104.35 97.92 102.06 100.87C102.028 100.92 101.985 100.961 101.935 100.993C101.885 101.024 101.829 101.043 101.77 101.05Z" fill="#D49272"/>
<path d="M120 120.62C117.844 120.246 115.825 119.308 114.15 117.9C109.23 113.72 108.1 106.35 108.82 100.28L108.88 99.79C109.106 98.2978 109.44 96.8239 109.88 95.38C113.033 84.6546 115.63 73.7734 117.66 62.78C118.72 57 119.61 51.19 120.57 45.39C120.74 44.39 121.14 40.39 121.57 39.65C122.06 38.71 123.2 33.89 122.51 34.7C121.82 35.51 110.68 30.56 107.51 28.55C101.24 24.55 94.65 19.9 94.51 12.38C94.51 9.73001 95.15 5.38001 95.78 4.80001C100.78 0.020014 108.24 0.800014 112.78 1.54001C116.682 2.25695 120.429 3.65132 123.85 5.66001C130.56 9.43001 136.08 16.71 137.22 24.37C137.727 28.5059 137.763 32.6858 137.33 36.83C136.973 40.8496 136.826 44.8851 136.89 48.92C137.132 53.9941 137.941 59.0253 139.3 63.92C140.76 69.77 145.08 77 141.3 82.8C139.598 85.4077 137.416 87.6679 134.87 89.46C130.901 92.2647 127.255 95.5011 124 99.11C119.57 104.11 120.41 112.11 122.91 116.11C123.206 116.686 123.631 117.187 124.151 117.573C124.671 117.96 125.273 118.222 125.91 118.34C126.245 118.348 126.579 118.378 126.91 118.43C128.17 118.69 127.8 119.8 126.81 120.13C124.617 120.863 122.275 121.032 120 120.62Z" fill="#703535"/>
<path d="M121.88 35.45C121.834 35.4603 121.786 35.4603 121.74 35.45C121.56 35.38 121.51 35.27 121.34 34.83C120.075 31.2526 117.717 28.1636 114.6 26C114.518 25.9411 114.463 25.8528 114.445 25.7538C114.426 25.6547 114.447 25.5525 114.503 25.4685C114.558 25.3845 114.644 25.3253 114.743 25.3032C114.841 25.2811 114.944 25.2979 115.03 25.35C118.257 27.5854 120.705 30.7743 122.03 34.47L122.15 34.77C122.155 34.7964 122.155 34.8235 122.15 34.85C122.174 34.8957 122.188 34.9457 122.191 34.9971C122.195 35.0484 122.188 35.0999 122.171 35.1485C122.155 35.1972 122.128 35.2419 122.093 35.2799C122.059 35.318 122.017 35.3486 121.97 35.37C121.944 35.4004 121.913 35.4273 121.88 35.45ZM121.88 34.66C121.824 34.6518 121.766 34.6518 121.71 34.66C121.772 34.6407 121.838 34.6407 121.9 34.66H121.88Z" fill="#4D1612"/>
<path d="M122.17 34.37H122.11C122.008 34.3551 121.916 34.3005 121.854 34.2181C121.792 34.1356 121.766 34.0321 121.78 33.93C121.9 32.82 121.33 21.32 115.55 15.03C115.513 14.9945 115.483 14.9519 115.463 14.9046C115.443 14.8573 115.432 14.8064 115.432 14.755C115.432 14.7036 115.443 14.6527 115.463 14.6054C115.483 14.5582 115.513 14.5155 115.55 14.48C115.624 14.4097 115.723 14.3705 115.825 14.3705C115.927 14.3705 116.026 14.4097 116.1 14.48C122.23 21.15 122.67 33.11 122.53 34.02C122.523 34.1121 122.482 34.1985 122.416 34.2629C122.35 34.3274 122.262 34.3654 122.17 34.37Z" fill="#4D1612"/>
<path d="M124.58 74.9001H124.45C124.401 74.8832 124.356 74.8569 124.318 74.8226C124.279 74.7883 124.248 74.7467 124.226 74.7002C124.203 74.6537 124.19 74.6032 124.188 74.5517C124.185 74.5002 124.193 74.4486 124.21 74.4001C126.56 67.2401 129.21 51.2101 129.21 51.0501C129.227 50.948 129.284 50.8569 129.369 50.7969C129.453 50.7369 129.558 50.7128 129.66 50.7301C129.762 50.7473 129.853 50.8044 129.913 50.8888C129.973 50.9732 129.997 51.078 129.98 51.1801C129.98 51.3401 127.28 67.4301 124.91 74.6501C124.882 74.7173 124.837 74.7758 124.779 74.8198C124.721 74.8637 124.652 74.8914 124.58 74.9001Z" fill="#4D1612"/>
<path d="M126.35 36.85C126.16 40.58 125.81 42.85 122.92 45.6C122.609 45.998 122.19 46.2969 121.712 46.4603C121.234 46.6236 120.719 46.6444 120.23 46.52C119.16 46.17 118.54 46.27 118.54 45.33C118.44 41.5873 119.467 37.9009 121.49 34.75C121.821 34.2871 122.223 33.8789 122.68 33.54C122.97 33.2314 123.346 33.0155 123.758 32.9194C124.171 32.8233 124.603 32.8514 125 33C125.419 33.1772 125.773 33.4801 126.013 33.8669C126.253 34.2538 126.368 34.7056 126.34 35.16C126.37 35.72 126.35 36.28 126.35 36.85Z" fill="#EE916C"/>
<path d="M121.28 41H121.22C121.169 40.9915 121.121 40.9731 121.078 40.9459C121.034 40.9187 120.996 40.8832 120.967 40.8414C120.937 40.7996 120.916 40.7523 120.904 40.7023C120.893 40.6523 120.891 40.6005 120.9 40.55C121.051 39.3931 121.388 38.2684 121.9 37.22C122.01 37.01 122.13 36.8 122.25 36.6C122.829 35.5542 123.756 34.744 124.87 34.31C124.964 34.2985 125.059 34.3218 125.138 34.3754C125.216 34.4291 125.272 34.5094 125.295 34.6014C125.318 34.6933 125.307 34.7906 125.264 34.875C125.221 34.9594 125.148 35.0252 125.06 35.06C124.146 35.4763 123.391 36.1781 122.91 37.06C122.8 37.24 122.69 37.43 122.59 37.62C122.09 38.5886 121.753 39.6324 121.59 40.71C121.571 40.7825 121.531 40.8482 121.477 40.8995C121.422 40.9508 121.354 40.9856 121.28 41Z" fill="#822C25"/>
<path d="M124.58 38.05C124.52 38.0504 124.461 38.0371 124.408 38.0111C124.354 37.9851 124.307 37.9471 124.27 37.9C124.08 37.6547 123.815 37.4773 123.516 37.3944C123.217 37.3116 122.899 37.3275 122.61 37.44C122.564 37.4617 122.514 37.474 122.464 37.4761C122.413 37.4783 122.362 37.4703 122.315 37.4526C122.267 37.4349 122.224 37.4078 122.187 37.373C122.15 37.3382 122.12 37.2964 122.1 37.25C122.058 37.1556 122.055 37.0487 122.09 36.9518C122.126 36.8549 122.197 36.7755 122.29 36.73C122.737 36.5419 123.234 36.5076 123.703 36.6325C124.172 36.7574 124.586 37.0344 124.88 37.42C124.913 37.4586 124.938 37.5037 124.954 37.5524C124.969 37.6011 124.974 37.6524 124.968 37.7031C124.962 37.7539 124.946 37.8029 124.921 37.8471C124.895 37.8913 124.861 37.9297 124.82 37.96C124.753 38.0169 124.668 38.0487 124.58 38.05Z" fill="#822C25"/>
</svg>
