<svg width="238" height="214" viewBox="0 0 238 214" fill="none" xmlns="http://www.w3.org/2000/svg">
<path d="M138.476 26.7067V202.082C138.475 204.556 137.492 206.928 135.745 208.677C133.997 210.426 131.627 211.409 129.155 211.409H10.2294C7.75931 211.407 5.391 210.423 3.64473 208.675C1.89846 206.926 0.917057 204.555 0.916138 202.082V26.7067C0.917058 24.2329 1.89941 21.8607 3.64718 20.1118C5.39495 18.3629 7.76505 17.3804 10.2363 17.3804H129.155C131.627 17.3804 133.997 18.3629 135.745 20.1118C137.492 21.8607 138.475 24.2329 138.476 26.7067Z" fill="#F9E3D0"/>
<path d="M138.476 26.7065V202.082C138.475 204.556 137.492 206.928 135.745 208.677C133.997 210.426 131.627 211.408 129.155 211.408H10.2294L138.476 26.7065Z" fill="#F0D5BF"/>
<path d="M125.402 27.1725H13.9866C11.7811 27.1725 9.99323 28.9622 9.99323 31.17V197.622C9.99323 199.83 11.7811 201.62 13.9866 201.62H125.402C127.607 201.62 129.395 199.83 129.395 197.622V31.17C129.395 28.9622 127.607 27.1725 125.402 27.1725Z" fill="white"/>
<path d="M205.203 209.083L205.091 209.058C204.763 208.986 204.439 209.193 204.366 209.521L203.574 213.119C203.501 213.447 203.708 213.772 204.036 213.844L204.148 213.869C204.476 213.941 204.8 213.734 204.872 213.406L205.665 209.808C205.737 209.48 205.53 209.155 205.203 209.083Z" fill="#53628A"/>
<path d="M235.605 95.853L235.584 95.9503L234.761 99.3778L234.136 101.995L222.215 151.828L212.638 191.852L205.592 190.298L211.471 161.047L223.798 99.7149L224.329 97.0766L225.024 93.6214C225.166 92.9212 225.444 92.2559 225.844 91.664C226.243 91.0721 226.756 90.5653 227.352 90.1728C227.949 89.7802 228.617 89.5097 229.318 89.3769C230.019 89.244 230.74 89.2515 231.438 89.3988C232.136 89.546 232.799 89.8303 233.387 90.235C233.975 90.6398 234.477 91.1571 234.864 91.7571C235.252 92.3572 235.516 93.028 235.644 93.731C235.771 94.434 235.757 95.1552 235.605 95.853Z" fill="#91B6D6"/>
<path d="M204.644 211.374C204.324 211.326 204.033 211.162 203.826 210.915C203.618 210.667 203.508 210.352 203.515 210.029L205.599 190.302L212.645 191.856L206.238 210.626C206.109 210.925 205.876 211.165 205.583 211.303C205.289 211.441 204.955 211.466 204.644 211.374Z" fill="#53628A"/>
<path d="M234.761 99.3777L234.136 101.995L221.822 99.2804L222.402 96.6525L234.761 99.3777Z" fill="#6B799C"/>
<path d="M213.283 130.51C213.054 130.463 212.852 130.327 212.722 130.131C212.592 129.936 212.544 129.697 212.589 129.467L219.037 95.1717C219.089 94.9151 219.19 94.6712 219.337 94.4544C219.483 94.2376 219.671 94.0522 219.89 93.9091C220.109 93.7661 220.355 93.6681 220.612 93.6211C220.869 93.5741 221.133 93.5789 221.388 93.6353C221.644 93.6909 221.885 93.7972 222.099 93.9478C222.313 94.0984 222.494 94.2903 222.633 94.5122C222.771 94.7341 222.864 94.9815 222.906 95.2399C222.947 95.4982 222.937 95.7622 222.874 96.0164L214.332 129.849C214.277 130.074 214.137 130.268 213.941 130.391C213.745 130.514 213.51 130.557 213.283 130.51Z" fill="#6B799C"/>
<path d="M147.681 202.315L146.813 205.583C146.813 205.583 147.507 206.465 149.129 206.716C150.751 206.966 151.706 207.369 152.227 206.803L153.004 203.327L147.681 202.315Z" fill="#FF9776"/>
<path d="M181.232 202.552L181.58 207.07C181.58 207.07 180.736 207.766 179.104 207.679C177.472 207.592 176.673 208.464 176.26 207.797C175.847 207.13 175.912 203.518 175.912 203.518L181.232 202.552Z" fill="#FF9776"/>
<path d="M171.631 140.847C171.965 141.667 172.248 142.506 172.478 143.361C173.03 145.245 174.603 203.302 174.666 204.314C174.749 205.617 175.93 205.492 177.951 205.051C179.482 204.703 181.514 203.952 182.198 203.111C183.003 202.113 187.226 141.511 187.382 136.196C187.479 132.999 187.129 129.803 186.34 126.703H170.502L169.461 133.179L171.631 140.847Z" fill="#DC8A63"/>
<path d="M159.14 127.774C159.14 127.774 147.108 201.185 147.108 202.19C147.108 203.194 148.789 204.31 150.279 204.654C151.407 204.912 153.359 204.912 153.998 204.328C155.039 203.379 171.051 143.611 171.638 140.847C172.225 138.084 171.638 128.681 171.638 128.681L159.14 127.774Z" fill="#DC8A63"/>
<path d="M158.696 127.774C158.696 127.774 166.856 134.145 167.985 134.031C169.113 133.916 171.544 129.338 171.544 129.338L158.696 127.774Z" fill="#FBFBFB"/>
<path d="M186.695 128.351C186.695 128.351 176.565 134.782 174.829 134.378C173.093 133.975 171.53 129.338 171.53 129.338C171.53 129.338 176.624 127.889 176.798 127.774C176.972 127.659 186.695 128.351 186.695 128.351Z" fill="#FBFBFB"/>
<path d="M206.811 84.8789L226.198 86.6482C226.198 86.6482 226.545 90.8682 225.802 91.0594C225.059 91.2506 205.911 92.1544 205.071 91.6781C204.231 91.2019 206.811 84.8789 206.811 84.8789Z" fill="#FF9776"/>
<path d="M150.518 62.3435L144.028 43.9724C144.028 43.9724 139.861 44.6676 139.861 45.4428C139.861 46.218 143.705 65.0132 144.375 65.7084C145.045 66.4036 150.518 62.3435 150.518 62.3435Z" fill="#FC8A65"/>
<path d="M152.334 63.3481C152.334 63.3481 152.223 62.7885 151.921 61.7004C151.619 60.6124 151.747 59.66 150.879 59.6148C150.011 59.5696 146.191 62.4756 144.802 63.3481C143.413 64.2206 141.938 64.961 142.153 65.4338C142.368 65.9065 144.108 67.8392 144.108 67.8392L152.334 63.3481Z" fill="#FBFBFB"/>
<path d="M203.363 92.7594C203.363 92.7594 203.824 92.6655 204.904 92.9923C205.984 93.319 207.186 93.5728 207.38 92.7246C207.828 90.7711 207.38 88.0354 207.401 86.3947C207.422 84.7539 207.561 83.8814 206.96 83.3183C206.578 82.9707 203.984 83.3983 203.984 83.3983L203.363 92.7594Z" fill="#FBFBFB"/>
<path d="M159.859 58.8986C159.916 59.6913 160.141 60.4627 160.519 61.1616C161.028 61.9222 161.647 62.6028 162.356 63.1812L163.2 58.266L159.859 58.8986Z" fill="#53628A"/>
<path d="M161.724 59.309C161.724 59.309 160.036 74.9861 163.168 76.4357C166.301 77.8852 174.256 76.4357 174.496 76.0116C174.735 75.5875 174.496 59.3263 174.496 59.3263L161.724 59.309Z" fill="#FF9776"/>
<path d="M175.235 83.4226C175.11 83.6068 173.1 85.9671 173.1 85.9671L167.124 84.8721L166.804 79.4911L166.662 77.0579L166.599 76.0151L174.586 74.1797C174.586 74.1797 175.027 83.6103 175.225 83.4157L175.235 83.4226Z" fill="#FF9776"/>
<path d="M171.103 64.2658C170.926 64.2206 170.744 64.1996 170.561 64.2032C170.561 64.2032 168.148 64.1372 167.308 64.2971C166.985 64.3458 166.677 64.4645 166.405 64.6447C166.005 64.7694 165.591 64.8418 165.172 64.8602C164.779 64.8338 164.392 64.7567 164.019 64.6308C163.753 64.4531 163.453 64.3346 163.137 64.2832C162.297 64.1233 159.88 64.1893 159.88 64.1893C159.699 64.1855 159.517 64.2066 159.342 64.2519C159.213 64.3144 159.245 64.808 159.245 65.0131C159.245 65.2182 159.835 65.2043 159.88 65.3156C159.925 65.4268 159.533 68.4023 162.04 68.4823C164.092 68.5448 164.471 66.8555 164.471 65.8613C164.738 65.7921 165.014 65.7571 165.29 65.757C165.516 65.7599 165.74 65.7927 165.957 65.8543C165.985 66.8485 166.342 68.5483 168.388 68.4823C170.881 68.4023 170.502 65.4268 170.547 65.3156C170.593 65.2043 171.183 65.2217 171.183 65.0131C171.183 64.8046 171.228 64.3353 171.103 64.2658ZM163.745 66.1429C163.7 66.5739 163.471 68.0199 161.717 67.7731C160.8 67.6445 160.529 66.4209 160.526 65.757C160.526 65.5206 160.502 64.9193 162.262 65.0062C164.023 65.0931 163.776 65.7257 163.745 66.1429ZM169.919 65.757C169.919 66.4209 169.645 67.6445 168.724 67.7731C166.988 68.0199 166.742 66.5739 166.696 66.1429C166.651 65.7118 166.446 65.1 168.19 65.0062C169.933 64.9123 169.919 65.5206 169.919 65.757Z" fill="#4E7291"/>
<path d="M170.929 60.4698C168.975 60.8205 166.994 61.0019 165.009 61.0121C162.328 60.9495 157.369 58.6588 159.106 55.0401C160.842 51.4215 163.234 51.9673 165.401 52.2384C167.568 52.5096 170.735 53.7436 172.27 54.046C173.805 54.3484 175.28 55.0123 175.853 56.5175C176.426 58.0226 176.034 64.3283 175.944 65.5553C175.853 66.7824 175.645 70.0151 175.249 70.7382C174.853 71.4612 174.603 71.5829 174.603 71.5829C174.603 71.5829 172.357 70.0777 172.055 65.6735C171.752 61.2693 170.929 60.4698 170.929 60.4698Z" fill="#7B4946"/>
<path d="M173.933 66.7685C173.489 68.1103 172.544 69.0036 171.801 68.7603C171.058 68.517 170.829 67.2343 171.273 65.889C171.718 64.5438 172.662 63.6539 173.405 63.8972C174.148 64.1406 174.374 65.4406 173.933 66.7685Z" fill="#FF9776"/>
<path d="M163.429 71.5377C163.362 71.5375 163.297 71.5529 163.237 71.5827C163.178 71.6126 163.127 71.656 163.087 71.7094C163.047 71.7629 163.021 71.8249 163.01 71.8905C162.999 71.9561 163.003 72.0234 163.023 72.0869C163.229 72.5172 163.552 72.8805 163.955 73.1347C164.359 73.389 164.826 73.5239 165.302 73.5239C165.779 73.5239 166.246 73.389 166.649 73.1347C167.053 72.8805 167.376 72.5172 167.582 72.0869C167.602 72.0234 167.606 71.9561 167.595 71.8905C167.584 71.8249 167.557 71.7629 167.518 71.7094C167.478 71.656 167.427 71.6126 167.367 71.5827C167.308 71.5529 167.242 71.5375 167.176 71.5377H163.429Z" fill="white"/>
<path d="M165.86 80.3844C165.86 80.3844 164.342 80.6034 164.297 80.8189C164.252 81.0345 163.776 87.0342 165.078 88.5532C166.38 90.0723 166.978 97.7579 166.86 97.8101C164.648 98.766 174.065 96.9828 174.065 96.9828L179.1 86.9473V81.2117C179.1 81.2117 175.28 80.4296 174.933 80.3844C174.586 80.3392 172.85 82.2963 172.85 82.2963L170.797 83.2974L169.638 83.3843L165.86 80.3844Z" fill="#FBFBFB"/>
<path d="M166.811 79.4911C166.811 79.4911 170.377 82.3415 170.499 83.2522C170.62 84.163 168.023 89.3806 167.242 88.6402C166.46 87.8998 165.082 80.3983 165.235 80.0125C165.387 79.6267 166.811 79.4911 166.811 79.4911Z" fill="#F3F3F3"/>
<path d="M174.888 79.4562C174.888 79.4562 170.627 82.3413 170.506 83.2521C170.384 84.1628 173.523 89.3804 174.305 88.64C175.086 87.8996 176.451 80.4642 176.298 80.0784C176.145 79.6926 174.888 79.4562 174.888 79.4562Z" fill="#F3F3F3"/>
<path d="M171.37 86.6518H169.634C169.52 86.6515 169.407 86.6262 169.303 86.5776C169.2 86.5291 169.108 86.4585 169.035 86.3707C168.961 86.283 168.908 86.1802 168.878 86.0697C168.849 85.9591 168.844 85.8434 168.863 85.7306L169.099 84.4028C169.131 84.2214 169.226 84.0571 169.367 83.9388C169.508 83.8206 169.686 83.7559 169.87 83.7562H171.131C171.314 83.756 171.492 83.8208 171.633 83.9391C171.773 84.0575 171.867 84.2217 171.898 84.4028L172.134 85.7306C172.155 85.8429 172.15 85.9582 172.121 86.0686C172.092 86.1789 172.039 86.2815 171.967 86.3693C171.894 86.4571 171.803 86.5278 171.7 86.5766C171.597 86.6254 171.484 86.6511 171.37 86.6518Z" fill="#7B4946"/>
<path d="M173.02 100.205H167.985L169.579 85.8488H171.426L173.02 100.205Z" fill="#7B4946"/>
<path d="M161.297 79.9776C159.96 81.5558 156.668 86.5057 156.737 88.7026C156.824 91.4105 157.432 102.423 157.519 104.098C157.772 108.53 157.39 125.261 158.085 127.346C158.779 129.432 169.481 129.415 171.28 129.849C173.079 130.284 177.802 129.679 181.232 129.592C184.663 129.505 187.597 129.011 188.118 127.968C188.639 126.926 186.41 95.6687 186.41 94.1913C186.41 92.714 184.847 85.1188 183.979 83.7457C183.111 82.3726 183.198 80.3739 181.809 80.3739C180.42 80.3739 177.295 79.9776 177.253 81.156C176.888 91.0698 171.308 96.4717 170.478 96.496C169.912 96.496 166.384 93.1659 164.273 80.8084C164.21 80.3252 161.627 79.5987 161.297 79.9776Z" fill="#4E7291"/>
<path d="M162.967 80.1028C162.967 80.1028 160.064 75.7786 159.081 74.3325C158.099 72.8865 155.147 70.2759 154.105 67.2622C153.063 64.2484 152.949 62.6876 151.095 63.4385C149.24 64.1893 143.4 66.9737 143.861 68.8264C144.323 70.6792 147.16 77.3984 148.376 79.4285C149.591 81.4585 152.081 86.9334 153.122 88.7131C154.164 90.4929 157.116 94.2748 157.116 94.2748C157.116 94.2748 157.116 89.5126 159.081 85.4352C160.908 81.608 162.967 80.1028 162.967 80.1028Z" fill="#4E7291"/>
<path d="M181.833 80.3845C181.833 80.3845 184.003 80.4714 188.257 80.819C192.511 81.1666 202.408 82.2964 203.883 82.8178C205.359 83.3392 204.866 84.9973 204.925 87.1003C204.974 89.5961 204.505 92.7212 203.637 93.0271C202.119 93.5624 196.952 92.6343 194.869 93.0271C192.785 93.4199 189.834 94.2611 188.563 95.5368C187.764 96.3363 186.014 101.474 185.493 101.561C184.972 101.648 181.833 80.3845 181.833 80.3845Z" fill="#4E7291"/>
<path d="M144.028 43.9723C143.955 44.0592 142.743 45.474 142.136 45.4392C141.528 45.4044 139.858 45.4392 139.858 45.4392C139.858 45.4392 138.403 43.7012 138.403 42.8391C138.403 41.977 138.368 37.8266 138.368 37.8266C138.021 37.6528 135.069 37.3642 135.01 36.4361C134.951 35.508 137.673 35.3377 138.715 35.4524C139.757 35.5671 143.111 36.8428 143.518 37.8266C143.924 38.8103 144.028 43.9723 144.028 43.9723Z" fill="#FF9776"/>
<path d="M226.198 86.6483C226.198 86.6483 232.525 86.9612 233.684 87.3088C234.844 87.6564 237.504 92.0258 237.504 93.0269C237.504 94.028 236.577 94.2609 236.115 94.2609C235.653 94.2609 230.5 91.4557 230.153 91.8277C229.806 92.1996 230.153 92.9678 230.733 93.5657C231.313 94.1636 232.334 94.6085 231.851 95.1439C231.368 95.6792 227.896 94.4139 226.621 93.0582C225.347 91.7025 225.802 91.0908 225.802 91.0908L226.198 86.6483Z" fill="#FF9776"/>
<path d="M152.553 207.251C152.558 207.125 152.523 207.001 152.453 206.896C152.383 206.791 152.282 206.711 152.164 206.667C151.23 206.351 148.594 205.548 147.594 204.912C146.316 204.109 145.921 204.495 145.657 204.912C145.393 205.329 140.729 208.631 139.937 208.822C139.146 209.013 137.253 209.81 136.902 211.554C136.552 213.299 145.879 212.639 146.493 212.496C147.108 212.354 147.108 211.801 147.535 211.885C147.621 211.902 147.7 211.939 147.768 211.994C147.835 212.05 147.887 212.121 147.921 212.201C147.953 212.277 148.007 212.341 148.075 212.387C148.144 212.433 148.224 212.457 148.306 212.458C149.233 212.479 151.799 212.528 151.98 212.458C152.161 212.389 152.272 209.876 152.213 208.596C152.199 207.974 152.546 207.55 152.553 207.251Z" fill="#313440"/>
<path d="M175.614 207.599C175.609 207.473 175.644 207.349 175.714 207.244C175.783 207.139 175.885 207.059 176.003 207.015C176.937 206.698 179.572 205.895 180.573 205.259C181.85 204.456 182.246 204.842 182.51 205.259C182.774 205.676 187.438 208.979 188.229 209.17C189.021 209.361 190.914 210.157 191.264 211.902C191.615 213.647 182.288 212.987 181.673 212.844C181.059 212.702 181.059 212.149 180.632 212.232C180.546 212.249 180.466 212.287 180.399 212.342C180.332 212.397 180.279 212.468 180.246 212.549C180.214 212.624 180.16 212.689 180.092 212.735C180.023 212.78 179.943 212.805 179.861 212.806C178.933 212.827 176.367 212.875 176.187 212.806C176.006 212.736 175.895 210.223 175.954 208.944C175.968 208.322 175.621 207.898 175.614 207.599Z" fill="#313440"/>
<path d="M37.8635 69.7509H22.1296C21.7431 69.75 21.3726 69.5959 21.0993 69.3223C20.826 69.0487 20.6721 68.6779 20.6711 68.2909V52.5408C20.6721 52.1538 20.826 51.783 21.0993 51.5094C21.3726 51.2358 21.7431 51.0817 22.1296 51.0808H37.8635C38.2497 51.0817 38.6197 51.236 38.8925 51.5097C39.1652 51.7833 39.3184 52.1542 39.3184 52.5408V68.2909C39.3184 68.6775 39.1652 69.0484 38.8925 69.3221C38.6197 69.5957 38.2497 69.75 37.8635 69.7509ZM22.1296 52.1236C22.0191 52.1236 21.9131 52.1676 21.8349 52.2458C21.7568 52.324 21.7129 52.4301 21.7129 52.5408V68.2909C21.7129 68.4016 21.7568 68.5077 21.8349 68.5859C21.9131 68.6641 22.0191 68.7081 22.1296 68.7081H37.8635C37.918 68.7081 37.972 68.6973 38.0224 68.6762C38.0728 68.6552 38.1185 68.6245 38.1569 68.5857C38.1953 68.5469 38.2257 68.5009 38.2462 68.4503C38.2668 68.3997 38.2771 68.3456 38.2767 68.2909V52.5408C38.2771 52.4862 38.2668 52.432 38.2462 52.3814C38.2257 52.3308 38.1953 52.2848 38.1569 52.246C38.1185 52.2072 38.0728 52.1765 38.0224 52.1555C37.972 52.1345 37.918 52.1236 37.8635 52.1236H22.1296Z" fill="#91B6D6"/>
<path d="M39.6692 54.6683L38.1031 52.0404C38.0374 51.9857 37.9614 51.9448 37.8795 51.9202C37.7977 51.8956 37.7117 51.8878 37.6268 51.8972C37.5419 51.9066 37.4597 51.933 37.3852 51.975C37.3107 52.0169 37.2454 52.0734 37.1933 52.1412L29.0607 64.0885C29.0259 64.1342 28.9816 64.1716 28.9309 64.1983C28.8801 64.2249 28.8241 64.2401 28.7668 64.2427C28.7096 64.2454 28.6524 64.2354 28.5994 64.2136C28.5464 64.1918 28.4988 64.1586 28.46 64.1163L22.9873 58.2696C22.9257 58.203 22.8505 58.1503 22.767 58.1151C22.6834 58.0798 22.5933 58.0628 22.5026 58.0651C22.412 58.0674 22.3228 58.089 22.2412 58.1284C22.1595 58.1679 22.0871 58.2243 22.0289 58.2939L20.2406 59.507C20.1869 59.5711 20.1464 59.6452 20.1214 59.725C20.0964 59.8048 20.0873 59.8887 20.0947 59.972C20.1022 60.0553 20.1259 60.1363 20.1646 60.2104C20.2034 60.2845 20.2563 60.3503 20.3204 60.4039L28.7239 67.5646C28.7739 67.6057 28.8378 67.6261 28.9023 67.6216C28.9669 67.617 29.0273 67.5879 29.0711 67.5403L39.7317 55.5756C39.7884 55.5125 39.8319 55.4387 39.8595 55.3585C39.8872 55.2783 39.8984 55.1933 39.8926 55.1087C39.8867 55.024 39.8639 54.9414 39.8256 54.8658C39.7872 54.7901 39.734 54.723 39.6692 54.6683Z" fill="#E85F4D"/>
<path d="M37.8635 96.6627H22.1296C21.7434 96.6627 21.3729 96.5094 21.0995 96.2363C20.8261 95.9633 20.6721 95.5928 20.6711 95.2062V79.4387C20.6721 79.0518 20.826 78.681 21.0993 78.4074C21.3726 78.1338 21.7431 77.9797 22.1296 77.9788H37.8635C38.2497 77.9797 38.6197 78.1339 38.8925 78.4076C39.1652 78.6813 39.3184 79.0521 39.3184 79.4387V95.1889C39.3203 95.3815 39.284 95.5725 39.2118 95.751C39.1395 95.9295 39.0327 96.092 38.8974 96.229C38.7622 96.366 38.6012 96.4748 38.4237 96.5493C38.2463 96.6237 38.0559 96.6623 37.8635 96.6627ZM22.1296 79.039C22.0191 79.039 21.9131 79.0829 21.8349 79.1611C21.7568 79.2394 21.7129 79.3455 21.7129 79.4561V95.2062C21.7129 95.2609 21.7237 95.3149 21.7447 95.3653C21.7657 95.4158 21.7964 95.4615 21.8351 95.5C21.8739 95.5384 21.9198 95.5688 21.9704 95.5894C22.0209 95.61 22.075 95.6204 22.1296 95.6199H37.8635C37.9731 95.6199 38.0782 95.5763 38.1557 95.4987C38.2331 95.4212 38.2767 95.3159 38.2767 95.2062V79.4387C38.2771 79.3841 38.2668 79.3299 38.2462 79.2794C38.2257 79.2288 38.1953 79.1828 38.1569 79.144C38.1185 79.1052 38.0728 79.0744 38.0224 79.0534C37.972 79.0324 37.918 79.0216 37.8635 79.0216L22.1296 79.039Z" fill="#91B6D6"/>
<path d="M40.3636 81.5663L38.7975 78.9349C38.7318 78.8802 38.6558 78.8393 38.574 78.8147C38.4921 78.7901 38.4062 78.7823 38.3212 78.7917C38.2363 78.8011 38.1541 78.8276 38.0796 78.8695C38.0052 78.9114 37.9399 78.968 37.8877 79.0357L29.7552 90.9831C29.7204 91.0287 29.6761 91.0661 29.6253 91.0928C29.5745 91.1194 29.5185 91.1346 29.4613 91.1372C29.404 91.1399 29.3469 91.1299 29.2938 91.1081C29.2408 91.0863 29.1932 91.0531 29.1544 91.0109L23.6818 85.1641C23.6201 85.0975 23.545 85.0449 23.4614 85.0096C23.3779 84.9743 23.2877 84.9573 23.1971 84.9596C23.1064 84.9619 23.0173 84.9835 22.9356 85.0229C22.8539 85.0624 22.7816 85.1188 22.7234 85.1884L20.935 86.4016C20.881 86.4652 20.8402 86.5389 20.815 86.6185C20.7898 86.6981 20.7806 86.7818 20.788 86.865C20.7955 86.9481 20.8193 87.029 20.8583 87.1028C20.8972 87.1766 20.9505 87.2419 21.0149 87.2949L29.4183 94.4591C29.4687 94.4994 29.5324 94.5193 29.5967 94.5148C29.661 94.5103 29.7213 94.4817 29.7656 94.4348L40.4261 82.4701C40.4823 82.4071 40.5253 82.3335 40.5526 82.2537C40.58 82.1738 40.591 82.0893 40.5852 82.005C40.5794 81.9208 40.5568 81.8386 40.5187 81.7633C40.4807 81.6879 40.4279 81.621 40.3636 81.5663Z" fill="#E85F4D"/>
<path d="M37.8635 123.544H22.1296C21.7434 123.544 21.3729 123.39 21.0995 123.117C20.8261 122.844 20.6721 122.474 20.6711 122.087V106.337C20.6711 105.95 20.8248 105.578 21.0983 105.305C21.3718 105.031 21.7428 104.877 22.1296 104.877H37.8635C38.2497 104.878 38.6197 105.032 38.8925 105.306C39.1652 105.579 39.3184 105.95 39.3184 106.337V122.087C39.3175 122.473 39.1639 122.843 38.8913 123.116C38.6186 123.389 38.2491 123.543 37.8635 123.544ZM22.1296 105.92C22.0191 105.92 21.9131 105.964 21.8349 106.042C21.7568 106.12 21.7129 106.226 21.7129 106.337V122.087C21.7129 122.142 21.7237 122.196 21.7447 122.246C21.7657 122.297 21.7964 122.342 21.8351 122.381C21.8739 122.419 21.9198 122.45 21.9704 122.47C22.0209 122.491 22.075 122.501 22.1296 122.501H37.8635C37.973 122.501 38.0782 122.457 38.1557 122.38C38.2331 122.302 38.2767 122.197 38.2767 122.087V106.337C38.2771 106.282 38.2668 106.228 38.2462 106.178C38.2257 106.127 38.1953 106.081 38.1569 106.042C38.1185 106.003 38.0728 105.973 38.0224 105.952C37.972 105.931 37.918 105.92 37.8635 105.92H22.1296Z" fill="#91B6D6"/>
<path d="M40.3637 108.482L38.7976 105.854C38.7319 105.799 38.6559 105.758 38.5741 105.733C38.4922 105.709 38.4063 105.701 38.3213 105.71C38.2364 105.72 38.1542 105.746 38.0797 105.788C38.0053 105.83 37.94 105.887 37.8878 105.954L29.7552 117.902C29.7205 117.947 29.6762 117.985 29.6254 118.011C29.5746 118.038 29.5186 118.053 29.4614 118.056C29.4041 118.059 29.3469 118.049 29.2939 118.027C29.2409 118.005 29.1933 117.972 29.1545 117.93L23.6819 112.083C23.6202 112.016 23.5451 111.964 23.4615 111.928C23.3779 111.893 23.2878 111.876 23.1972 111.878C23.1065 111.881 23.0174 111.902 22.9357 111.942C22.854 111.981 22.7817 112.037 22.7234 112.107L20.9351 113.32C20.8816 113.384 20.8411 113.458 20.8162 113.537C20.7912 113.617 20.7821 113.701 20.7896 113.784C20.797 113.867 20.8207 113.947 20.8594 114.021C20.8981 114.095 20.951 114.16 21.015 114.214L29.4184 121.378C29.4688 121.418 29.5325 121.438 29.5968 121.433C29.6611 121.429 29.7214 121.4 29.7657 121.353L40.4262 109.389C40.4829 109.326 40.5264 109.252 40.5541 109.172C40.5817 109.092 40.5929 109.007 40.5871 108.922C40.5813 108.837 40.5585 108.755 40.5201 108.679C40.4817 108.603 40.4285 108.536 40.3637 108.482Z" fill="#E85F4D"/>
<path d="M37.8635 150.441H22.1296C21.7434 150.441 21.3729 150.288 21.0995 150.015C20.8261 149.742 20.6721 149.372 20.6711 148.985V133.235C20.6711 132.848 20.8248 132.476 21.0983 132.203C21.3718 131.929 21.7428 131.775 22.1296 131.775H37.8635C38.2497 131.776 38.6197 131.93 38.8925 132.204C39.1652 132.477 39.3184 132.848 39.3184 133.235V148.985C39.3175 149.371 39.1639 149.741 38.8913 150.014C38.6186 150.287 38.2491 150.441 37.8635 150.441ZM22.1296 132.814C22.0191 132.814 21.9131 132.858 21.8349 132.936C21.7568 133.015 21.7129 133.121 21.7129 133.231V148.982C21.7129 149.036 21.7237 149.09 21.7447 149.141C21.7657 149.191 21.7964 149.237 21.8351 149.275C21.8739 149.314 21.9198 149.344 21.9704 149.365C22.0209 149.385 22.075 149.396 22.1296 149.395H37.8635C37.973 149.395 38.0782 149.352 38.1557 149.274C38.2331 149.196 38.2767 149.091 38.2767 148.982V133.235C38.2771 133.18 38.2668 133.126 38.2462 133.075C38.2257 133.025 38.1953 132.979 38.1569 132.94C38.1185 132.901 38.0728 132.871 38.0224 132.85C37.972 132.829 37.918 132.818 37.8635 132.818L22.1296 132.814Z" fill="#91B6D6"/>
<path d="M40.3637 135.362L38.7976 132.734C38.7321 132.679 38.6561 132.638 38.5742 132.613C38.4923 132.588 38.4062 132.58 38.3211 132.59C38.2361 132.599 38.1538 132.626 38.0793 132.668C38.0048 132.71 37.9397 132.767 37.8878 132.835L29.7552 144.782C29.7205 144.828 29.6762 144.866 29.6254 144.892C29.5746 144.919 29.5186 144.934 29.4614 144.937C29.4041 144.939 29.3469 144.929 29.2939 144.908C29.2409 144.886 29.1933 144.852 29.1545 144.81L23.6819 138.963C23.6205 138.896 23.5455 138.843 23.4618 138.808C23.3782 138.772 23.2879 138.755 23.1971 138.757C23.1063 138.759 23.017 138.781 22.9353 138.821C22.8536 138.861 22.7813 138.918 22.7234 138.988L20.9351 140.201C20.8816 140.265 20.8411 140.339 20.8162 140.418C20.7912 140.498 20.7821 140.581 20.7896 140.664C20.797 140.747 20.8207 140.828 20.8594 140.902C20.8981 140.976 20.951 141.041 21.015 141.094L29.4184 148.259C29.4688 148.299 29.5325 148.319 29.5968 148.314C29.6611 148.31 29.7214 148.281 29.7657 148.234L40.4262 136.269C40.4829 136.206 40.5264 136.133 40.5541 136.052C40.5817 135.972 40.5929 135.887 40.5871 135.803C40.5813 135.718 40.5585 135.635 40.5201 135.56C40.4817 135.484 40.4285 135.417 40.3637 135.362Z" fill="#E85F4D"/>
<path d="M37.8635 177.339H22.1296C21.9381 177.339 21.7484 177.302 21.5715 177.228C21.3945 177.155 21.2337 177.047 21.0983 176.912C20.9629 176.776 20.8555 176.615 20.7822 176.438C20.7089 176.261 20.6711 176.071 20.6711 175.879V160.133C20.6711 159.941 20.7089 159.751 20.7822 159.574C20.8555 159.397 20.9629 159.236 21.0983 159.1C21.2337 158.965 21.3945 158.857 21.5715 158.784C21.7484 158.711 21.9381 158.673 22.1296 158.673H37.8635C38.2497 158.674 38.6197 158.828 38.8925 159.102C39.1652 159.375 39.3184 159.746 39.3184 160.133V175.879C39.3184 176.266 39.1652 176.637 38.8925 176.911C38.6197 177.184 38.2497 177.339 37.8635 177.339ZM22.1296 159.716C22.0191 159.716 21.9131 159.76 21.8349 159.838C21.7568 159.916 21.7129 160.022 21.7129 160.133V175.879C21.7129 175.934 21.7237 175.989 21.7446 176.039C21.7655 176.09 21.7962 176.136 21.8349 176.174C21.8736 176.213 21.9196 176.244 21.9701 176.265C22.0207 176.286 22.0749 176.297 22.1296 176.297H37.8635C37.918 176.297 37.972 176.286 38.0224 176.265C38.0728 176.244 38.1185 176.213 38.1569 176.174C38.1953 176.135 38.2257 176.089 38.2462 176.039C38.2668 175.988 38.2771 175.934 38.2767 175.879V160.133C38.2771 160.078 38.2668 160.024 38.2462 159.973C38.2257 159.923 38.1953 159.877 38.1569 159.838C38.1185 159.799 38.0728 159.768 38.0224 159.747C37.972 159.726 37.918 159.716 37.8635 159.716H22.1296Z" fill="#91B6D6"/>
<path d="M40.3637 162.26L38.7976 159.629C38.7317 159.574 38.6555 159.533 38.5735 159.509C38.4915 159.485 38.4055 159.477 38.3206 159.487C38.2356 159.497 38.1535 159.524 38.0791 159.566C38.0048 159.608 37.9397 159.665 37.8878 159.733L29.7552 171.68C29.7201 171.725 29.6757 171.762 29.6249 171.789C29.5742 171.815 29.5183 171.83 29.4613 171.833C29.4042 171.835 29.3472 171.825 29.2943 171.804C29.2413 171.782 29.1936 171.75 29.1545 171.708L23.6819 165.858C23.6199 165.791 23.5446 165.739 23.4609 165.704C23.3772 165.669 23.287 165.652 23.1964 165.655C23.1057 165.658 23.0167 165.68 22.9351 165.719C22.8536 165.759 22.7814 165.816 22.7234 165.886L20.9351 167.099C20.8816 167.163 20.8411 167.236 20.8162 167.316C20.7912 167.395 20.7821 167.479 20.7896 167.562C20.797 167.645 20.8207 167.726 20.8594 167.8C20.8981 167.873 20.951 167.939 21.015 167.992L29.4184 175.156C29.4688 175.197 29.5325 175.217 29.5968 175.212C29.6611 175.207 29.7214 175.179 29.7657 175.132L40.4262 163.167C40.4829 163.104 40.5264 163.03 40.5541 162.95C40.5817 162.87 40.5929 162.785 40.5871 162.7C40.5813 162.616 40.5585 162.533 40.5201 162.458C40.4817 162.382 40.4285 162.315 40.3637 162.26Z" fill="#E85F4D"/>
<path d="M111.161 55.4017H48.8365C48.6984 55.4017 48.5659 55.3468 48.4682 55.249C48.3705 55.1512 48.3157 55.0186 48.3157 54.8803C48.3157 54.742 48.3705 54.6094 48.4682 54.5116C48.5659 54.4138 48.6984 54.3589 48.8365 54.3589H111.168C111.306 54.3589 111.438 54.4138 111.536 54.5116C111.634 54.6094 111.689 54.742 111.689 54.8803C111.689 55.0186 111.634 55.1512 111.536 55.249C111.438 55.3468 111.306 55.4017 111.168 55.4017H111.161Z" fill="#6B799C"/>
<path d="M101.872 60.9391H48.8365C48.6984 60.9391 48.5659 60.8841 48.4682 60.7864C48.3705 60.6886 48.3157 60.5559 48.3157 60.4177C48.3157 60.2794 48.3705 60.1467 48.4682 60.049C48.5659 59.9512 48.6984 59.8962 48.8365 59.8962H101.872C102.01 59.8962 102.143 59.9512 102.24 60.049C102.338 60.1467 102.393 60.2794 102.393 60.4177C102.393 60.5559 102.338 60.6886 102.24 60.7864C102.143 60.8841 102.01 60.9391 101.872 60.9391Z" fill="#6B799C"/>
<path d="M85.5512 66.7407H48.8365C48.6984 66.7407 48.5659 66.6858 48.4682 66.588C48.3705 66.4902 48.3157 66.3576 48.3157 66.2193C48.3157 66.081 48.3705 65.9484 48.4682 65.8506C48.5659 65.7528 48.6984 65.6979 48.8365 65.6979H85.5512C85.6894 65.6979 85.8219 65.7528 85.9196 65.8506C86.0172 65.9484 86.0721 66.081 86.0721 66.2193C86.0721 66.3576 86.0172 66.4902 85.9196 66.588C85.8219 66.6858 85.6894 66.7407 85.5512 66.7407Z" fill="#6B799C"/>
<path d="M100.577 82.1642H48.8365C48.6984 82.1642 48.5659 82.1092 48.4682 82.0114C48.3705 81.9136 48.3157 81.781 48.3157 81.6427C48.3157 81.5045 48.3705 81.3718 48.4682 81.2741C48.5659 81.1763 48.6984 81.1213 48.8365 81.1213H100.577C100.715 81.1213 100.847 81.1763 100.945 81.2741C101.043 81.3718 101.098 81.5045 101.098 81.6427C101.098 81.781 101.043 81.9136 100.945 82.0114C100.847 82.1092 100.715 82.1642 100.577 82.1642Z" fill="#6B799C"/>
<path d="M97.8855 87.7015H48.8365C48.6984 87.7015 48.5659 87.6466 48.4682 87.5488C48.3705 87.451 48.3157 87.3184 48.3157 87.1801C48.3157 87.0418 48.3705 86.9092 48.4682 86.8114C48.5659 86.7136 48.6984 86.6587 48.8365 86.6587H97.8855C98.0237 86.6587 98.1562 86.7136 98.2539 86.8114C98.3515 86.9092 98.4064 87.0418 98.4064 87.1801C98.4064 87.3184 98.3515 87.451 98.2539 87.5488C98.1562 87.6466 98.0237 87.7015 97.8855 87.7015Z" fill="#6B799C"/>
<path d="M110.466 93.5032H48.8365C48.6984 93.5032 48.5659 93.4482 48.4682 93.3504C48.3705 93.2527 48.3157 93.12 48.3157 92.9817C48.3157 92.8435 48.3705 92.7108 48.4682 92.613C48.5659 92.5153 48.6984 92.4603 48.8365 92.4603H110.473C110.611 92.4603 110.744 92.5153 110.842 92.613C110.939 92.7108 110.994 92.8435 110.994 92.9817C110.994 93.12 110.939 93.2527 110.842 93.3504C110.744 93.4482 110.611 93.5032 110.473 93.5032H110.466Z" fill="#6B799C"/>
<path d="M102.132 135.689H48.8365C48.6984 135.689 48.5659 135.634 48.4682 135.536C48.3705 135.438 48.3157 135.306 48.3157 135.168C48.3157 135.029 48.3705 134.897 48.4682 134.799C48.5659 134.701 48.6984 134.646 48.8365 134.646H102.139C102.277 134.646 102.41 134.701 102.508 134.799C102.605 134.897 102.66 135.029 102.66 135.168C102.66 135.306 102.605 135.438 102.508 135.536C102.41 135.634 102.277 135.689 102.139 135.689H102.132Z" fill="#6B799C"/>
<path d="M114.119 141.226H48.8365C48.6984 141.226 48.5659 141.171 48.4682 141.074C48.3705 140.976 48.3157 140.843 48.3157 140.705C48.3157 140.567 48.3705 140.434 48.4682 140.336C48.5659 140.239 48.6984 140.184 48.8365 140.184H114.119C114.258 140.184 114.39 140.239 114.488 140.336C114.585 140.434 114.64 140.567 114.64 140.705C114.64 140.843 114.585 140.976 114.488 141.074C114.39 141.171 114.258 141.226 114.119 141.226Z" fill="#6B799C"/>
<path d="M107.039 147.028H48.8365C48.6984 147.028 48.5659 146.973 48.4682 146.875C48.3705 146.777 48.3157 146.645 48.3157 146.507C48.3157 146.368 48.3705 146.236 48.4682 146.138C48.5659 146.04 48.6984 145.985 48.8365 145.985H107.039C107.177 145.985 107.31 146.04 107.407 146.138C107.505 146.236 107.56 146.368 107.56 146.507C107.56 146.645 107.505 146.777 107.407 146.875C107.31 146.973 107.177 147.028 107.039 147.028Z" fill="#6B799C"/>
<path d="M114.119 162.451H48.8365C48.6984 162.451 48.5659 162.396 48.4682 162.299C48.3705 162.201 48.3157 162.068 48.3157 161.93C48.3157 161.792 48.3705 161.659 48.4682 161.561C48.5659 161.463 48.6984 161.408 48.8365 161.408H114.119C114.258 161.408 114.39 161.463 114.488 161.561C114.585 161.659 114.64 161.792 114.64 161.93C114.64 162.068 114.585 162.201 114.488 162.299C114.39 162.396 114.258 162.451 114.119 162.451Z" fill="#6B799C"/>
<path d="M101.872 167.989H48.8365C48.6984 167.989 48.5659 167.934 48.4682 167.836C48.3705 167.738 48.3157 167.606 48.3157 167.467C48.3157 167.329 48.3705 167.196 48.4682 167.099C48.5659 167.001 48.6984 166.946 48.8365 166.946H101.872C102.01 166.946 102.143 167.001 102.24 167.099C102.338 167.196 102.393 167.329 102.393 167.467C102.393 167.606 102.338 167.738 102.24 167.836C102.143 167.934 102.01 167.989 101.872 167.989Z" fill="#6B799C"/>
<path d="M85.5512 173.79H48.8365C48.6984 173.79 48.5659 173.735 48.4682 173.638C48.3705 173.54 48.3157 173.407 48.3157 173.269C48.3157 173.131 48.3705 172.998 48.4682 172.9C48.5659 172.802 48.6984 172.748 48.8365 172.748H85.5512C85.6894 172.748 85.8219 172.802 85.9196 172.9C86.0172 172.998 86.0721 173.131 86.0721 173.269C86.0721 173.407 86.0172 173.54 85.9196 173.638C85.8219 173.735 85.6894 173.79 85.5512 173.79Z" fill="#6B799C"/>
<path d="M97.3299 108.926H48.8365C48.6984 108.926 48.5659 108.872 48.4682 108.774C48.3705 108.676 48.3157 108.543 48.3157 108.405C48.3157 108.267 48.3705 108.134 48.4682 108.036C48.5659 107.939 48.6984 107.884 48.8365 107.884H97.3299C97.4681 107.884 97.6006 107.939 97.6982 108.036C97.7959 108.134 97.8508 108.267 97.8508 108.405C97.8508 108.543 97.7959 108.676 97.6982 108.774C97.6006 108.872 97.4681 108.926 97.3299 108.926Z" fill="#6B799C"/>
<path d="M111.741 114.464H48.8365C48.6984 114.464 48.5659 114.409 48.4682 114.311C48.3705 114.213 48.3157 114.081 48.3157 113.943C48.3157 113.804 48.3705 113.672 48.4682 113.574C48.5659 113.476 48.6984 113.421 48.8365 113.421H111.741C111.879 113.421 112.011 113.476 112.109 113.574C112.207 113.672 112.262 113.804 112.262 113.943C112.262 114.081 112.207 114.213 112.109 114.311C112.011 114.409 111.879 114.464 111.741 114.464Z" fill="#6B799C"/>
<path d="M109.258 120.266H48.8365C48.6984 120.266 48.5659 120.211 48.4682 120.113C48.3705 120.015 48.3157 119.882 48.3157 119.744C48.3157 119.606 48.3705 119.473 48.4682 119.375C48.5659 119.278 48.6984 119.223 48.8365 119.223H109.258C109.396 119.223 109.529 119.278 109.626 119.375C109.724 119.473 109.779 119.606 109.779 119.744C109.779 119.882 109.724 120.015 109.626 120.113C109.529 120.211 109.396 120.266 109.258 120.266Z" fill="#6B799C"/>
<path d="M222.215 151.828L212.638 191.856L205.592 190.302L211.471 161.05L222.215 151.828Z" fill="#77A2C7"/>
<path d="M169.787 78.104C168.158 79.3693 166.811 79.4944 166.811 79.4944L166.669 77.0612C166.669 77.0612 167.447 77.3254 169.183 76.6649C169.968 76.366 170.87 75.6221 171.114 75.7612C171.357 75.9002 170.482 77.5652 169.787 78.104Z" fill="#F2764D"/>
<path d="M144.028 43.9723C143.955 44.0592 142.743 45.4739 142.136 45.4392C141.528 45.4044 139.858 45.4392 139.858 45.4392C139.858 45.4392 138.403 43.7011 138.403 42.8391C138.403 41.977 138.368 37.8265 138.368 37.8265C138.368 37.8265 138.396 39.6202 139.521 40.809C140.646 41.9978 141.604 42.2864 142.264 42.6618C142.881 43.0574 143.471 43.4953 144.028 43.9723Z" fill="#FC8A65"/>
<path d="M186 94.9249C184.232 93.2591 182.824 91.2482 181.862 89.0164C180.901 86.7846 180.406 84.3792 180.409 81.9487C180.409 81.8104 180.354 81.6777 180.257 81.58C180.159 81.4822 180.027 81.4272 179.888 81.4272C179.75 81.4272 179.618 81.4822 179.52 81.58C179.422 81.6777 179.368 81.8104 179.368 81.9487C179.366 84.5166 179.888 87.0578 180.903 89.416C181.918 91.7743 183.405 93.8998 185.271 95.6618C185.733 96.1207 186.472 95.3837 186 94.9249Z" fill="#375D7E"/>
<path d="M182.729 135.133L173.586 139.766C172.989 140.069 173.513 140.969 174.11 140.667L183.253 136.03C183.854 135.731 183.326 134.83 182.729 135.133Z" fill="#C9764F"/>
<path d="M116.661 31.601C116.66 32.1317 116.449 32.6405 116.074 33.0158C115.7 33.3911 115.191 33.6023 114.661 33.6032H24.7235C24.1939 33.6005 23.6867 33.3887 23.3122 33.0138C22.9377 32.6389 22.7261 32.1312 22.7233 31.601C22.7224 30.1744 23.0025 28.7616 23.5476 27.4434C24.0926 26.1253 24.892 24.9277 25.8999 23.919C26.9077 22.9104 28.1044 22.1107 29.4214 21.5655C30.7383 21.0203 32.1497 20.7403 33.5749 20.7417H105.803C107.228 20.7412 108.639 21.0218 109.955 21.5673C111.272 22.1128 112.468 22.9127 113.476 23.9211C114.483 24.9295 115.283 26.1268 115.828 27.4445C116.374 28.7623 116.654 30.1746 116.654 31.601H116.661Z" fill="#91B6D6"/>
<path d="M87.4159 13.5602C85.9603 9.37313 83.0713 5.83696 79.2605 3.57806C75.4498 1.31916 70.9634 0.483337 66.596 1.21865C62.2286 1.95396 58.2622 4.21295 55.3993 7.59545C52.5364 10.9779 50.9619 15.2656 50.9547 19.6989V24.9131H88.4576V19.6989C88.4556 17.6088 88.1035 15.5337 87.4159 13.5602ZM69.7062 10.4317C70.1986 10.4317 70.68 10.5779 71.0894 10.8517C71.4988 11.1256 71.818 11.5148 72.0064 11.9703C72.1949 12.4257 72.2442 12.9268 72.1481 13.4103C72.052 13.8937 71.8149 14.3378 71.4667 14.6864C71.1185 15.035 70.6749 15.2723 70.1919 15.3685C69.7089 15.4647 69.2083 15.4153 68.7534 15.2267C68.2984 15.038 67.9096 14.7186 67.636 14.3087C67.3624 13.8988 67.2164 13.417 67.2164 12.924C67.2155 12.2648 67.4755 11.6321 67.9395 11.1643C68.4035 10.6966 69.0338 10.4319 69.6923 10.4282L69.7062 10.4317Z" fill="#91B6D6"/>
<path d="M98.8926 20.7417L91.6316 33.6032H81.2974L88.4542 20.7417H98.8926Z" fill="#AFD0E6"/>
<path d="M37.4294 20.7417L30.1684 33.6032H24.7236C24.3636 33.6032 24.0106 33.5047 23.7026 33.3182L30.4323 21.2005C31.4461 20.8954 32.499 20.7408 33.5576 20.7417H37.4294Z" fill="#AFD0E6"/>
<path d="M105.528 20.7417L98.2675 33.6032H94.9374L102.094 20.7417H105.528Z" fill="#AFD0E6"/>
</svg>
