<svg width="32" height="29" viewBox="0 0 32 29" fill="none" xmlns="http://www.w3.org/2000/svg">
<path fill-rule="evenodd" clip-rule="evenodd" d="M8.25 24.26C7.11749 24.269 5.98989 24.41 4.89 24.68C3.64098 24.98 2.42244 25.3952 1.25 25.92L0 26.48V6.86L0.53 6.62C1.56103 6.16086 2.62378 5.77654 3.71 5.47C4.46264 5.26513 5.22751 5.10815 6 5V0L7.4 1L15.56 7H15.67L23.82 1L25.23 0V5.08C26.0056 5.20252 26.7735 5.36946 27.53 5.58C28.6171 5.88367 29.6801 6.26807 30.71 6.73L31.24 6.97V26.59L30 26C28.8281 25.4737 27.6094 25.0586 26.36 24.76C25.2595 24.4957 24.1318 24.3615 23 24.36C20.4007 24.3459 17.8487 25.0557 15.63 26.41C13.4186 25.0274 10.8679 24.2833 8.26 24.26H8.25ZM10.18 22.63L6.39 20L6 19.73V6.73C5.38278 6.83216 4.77181 6.96904 4.17 7.14C3.35415 7.38033 2.55282 7.66747 1.77 8V23.8C2.65401 23.4718 3.55946 23.2045 4.48 23C5.71413 22.6974 6.97934 22.5396 8.25 22.53C8.8958 22.5318 9.54069 22.5786 10.18 22.67V22.63ZM25.24 6.87V19.73L24.86 20L20.86 22.74C21.5693 22.6435 22.2842 22.5934 23 22.59C24.2704 22.604 25.5351 22.7616 26.77 23.06C27.6898 23.284 28.5948 23.5645 29.48 23.9V8.12C28.6992 7.78795 27.8975 7.50735 27.08 7.28C26.4779 7.1101 25.867 6.97323 25.25 6.87H25.24ZM14.74 23.64V8.64L7.74 3.52V18.81L14.74 23.64ZM16.51 8.64V23.64L23.51 18.81V3.5L16.51 8.64Z" fill="#FA1E38"/>
<path fill-rule="evenodd" clip-rule="evenodd" d="M14.31 29H15.62C13.8781 27.9171 11.9177 27.2341 9.87997 27C9.08997 26.94 8.41997 26.9 8.00997 26.89C6.95835 26.9229 5.91287 27.0637 4.88997 27.31C3.64065 27.6134 2.42211 28.0319 1.24997 28.56L0.159973 29H14.31ZM15.62 29C17.8455 27.6585 20.4016 26.9658 23 27C24.1326 27.0079 25.2603 27.1488 26.36 27.42C27.6083 27.7091 28.827 28.1142 30 28.63L30.84 29H15.62Z" fill="#FA1E38"/>
</svg>
