<svg width="31" height="30" viewBox="0 0 31 30" fill="none" xmlns="http://www.w3.org/2000/svg">
<path fill-rule="evenodd" clip-rule="evenodd" d="M26.83 8.91032C27.1104 8.78996 27.365 8.61682 27.58 8.40032C27.9798 7.99395 28.2247 7.46042 28.2722 6.89232C28.3197 6.32422 28.1668 5.75743 27.84 5.29032C27.7994 4.38734 27.564 3.50382 27.15 2.70032C27.7804 2.89789 28.3558 3.24037 28.83 3.70032C29.2194 4.08862 29.5284 4.54996 29.7392 5.05789C29.9501 5.56583 30.0586 6.11037 30.0586 6.66032C30.0586 7.21027 29.9501 7.75481 29.7392 8.26274C29.5284 8.77067 29.2194 9.23201 28.83 9.62032C28.642 9.81479 28.4342 9.98907 28.21 10.1403C28.2747 10.1917 28.335 10.2486 28.39 10.3103C28.7845 10.7032 29.0965 11.171 29.3077 11.6862C29.519 12.2014 29.6251 12.7535 29.62 13.3103V22.2103H27.84V12.5203C27.8399 11.7828 27.7078 11.0513 27.45 10.3603C27.2744 9.89709 27.0427 9.45714 26.76 9.05032L26.83 8.95032V8.91032ZM26 29.9103V23.5603H27.77V29.9103H26Z" fill="#FA1E38"/>
<path fill-rule="evenodd" clip-rule="evenodd" d="M22.05 29.9103V20.0203H24V12.5203C23.9992 11.8337 23.7259 11.1754 23.24 10.6903C22.9955 10.4401 22.7029 10.2419 22.3798 10.1079C22.0567 9.97382 21.7098 9.90661 21.36 9.91029H21.07C21.0189 9.73398 20.9589 9.56042 20.89 9.39029C20.705 8.90485 20.4597 8.44457 20.16 8.02029L20.26 7.88029C20.6055 8.03728 20.9804 8.11908 21.36 8.12029C22.0442 8.12029 22.7005 7.84847 23.1843 7.36463C23.6682 6.88079 23.94 6.22455 23.94 5.54029C23.94 4.85604 23.6682 4.1998 23.1843 3.71596C22.7005 3.23212 22.0442 2.96029 21.36 2.96029H21.16C21.0208 2.36714 20.795 1.79771 20.49 1.27029C20.777 1.21799 21.0682 1.19121 21.36 1.19029C21.9317 1.18867 22.4981 1.30004 23.0267 1.51798C23.5553 1.73593 24.0355 2.05617 24.44 2.46029C24.8451 2.86438 25.1666 3.34443 25.3859 3.87295C25.6052 4.40147 25.7181 4.96807 25.7181 5.54029C25.7181 6.11252 25.6052 6.67912 25.3859 7.20764C25.1666 7.73616 24.8451 8.21621 24.44 8.62029C24.2994 8.7608 24.149 8.89113 23.99 9.01029C24.149 9.12946 24.2994 9.25979 24.44 9.40029C24.8455 9.80423 25.1673 10.2842 25.3869 10.8127C25.6065 11.3413 25.7197 11.9079 25.72 12.4803V21.7503H23.82V29.9103H22.05Z" fill="#FA1E38"/>
<path fill-rule="evenodd" clip-rule="evenodd" d="M15.79 29.9103V19.5903H17.79V11.6903C17.7968 11.3225 17.7293 10.9571 17.5913 10.6161C17.4534 10.2751 17.248 9.96541 16.9874 9.70576C16.7268 9.44611 16.4164 9.2418 16.0749 9.10511C15.7334 8.96841 15.3678 8.90215 15 8.9103C14.6399 8.90963 14.2833 8.97994 13.9504 9.11721C13.6175 9.25448 13.3149 9.45602 13.06 9.7103C12.5437 10.2242 12.2524 10.9219 12.25 11.6503V19.5503H14.25V29.9103H12.5V21.3603H10.5V11.6903C10.502 11.098 10.6215 10.5119 10.8515 9.9661C11.0815 9.42026 11.4175 8.92545 11.84 8.5103C12.0006 8.3531 12.171 8.20615 12.35 8.0703C12.1654 7.93754 11.9915 7.79042 11.83 7.63029C11.0194 6.77551 10.5745 5.63803 10.5901 4.4601C10.6057 3.28217 11.0806 2.15687 11.9136 1.32388C12.7466 0.490882 13.8719 0.0160092 15.0498 0.000397421C16.2277 -0.0152144 17.3652 0.429668 18.22 1.2403C18.6415 1.65777 18.976 2.15463 19.2044 2.70217C19.4327 3.24971 19.5503 3.83706 19.5503 4.43029C19.5503 5.02353 19.4327 5.61088 19.2044 6.15842C18.976 6.70596 18.6415 7.20282 18.22 7.6203C18.062 7.78029 17.8914 7.92742 17.71 8.0603C17.889 8.19615 18.0594 8.3431 18.22 8.5003C18.6405 8.91846 18.9745 9.41545 19.2027 9.96284C19.4309 10.5102 19.5489 11.0972 19.55 11.6903V21.3603H17.55V29.9103H15.79ZM15 7.18029C15.3711 7.18945 15.7401 7.12227 16.0841 6.98294C16.4281 6.8436 16.7399 6.63508 17 6.3703C17.513 5.85494 17.8009 5.15742 17.8009 4.43029C17.8009 3.70317 17.513 3.00565 17 2.49029C16.4855 1.97578 15.7876 1.68672 15.06 1.68672C14.3324 1.68672 13.6345 1.97578 13.12 2.49029C12.6055 3.00481 12.3164 3.70265 12.3164 4.43029C12.3164 5.15794 12.6055 5.85577 13.12 6.3703C13.6167 6.8757 14.2915 7.16647 15 7.18029Z" fill="#FA1E38"/>
<path fill-rule="evenodd" clip-rule="evenodd" d="M3.23 8.91032C2.94824 8.7925 2.69314 8.61904 2.48 8.40032C2.25386 8.17684 2.07459 7.91049 1.95268 7.61687C1.83076 7.32324 1.76866 7.00824 1.77 6.69032C1.7718 6.18837 1.929 5.69931 2.22 5.29032C2.2558 4.38661 2.49145 3.50206 2.91 2.70032C2.27959 2.89789 1.70422 3.24037 1.23 3.70032C0.840561 4.08862 0.531576 4.54996 0.320751 5.05789C0.109926 5.56583 0.00140381 6.11037 0.00140381 6.66032C0.00140381 7.21027 0.109926 7.75481 0.320751 8.26274C0.531576 8.77067 0.840561 9.23201 1.23 9.62032C1.42018 9.81241 1.62773 9.98649 1.85 10.1403L1.67 10.3103C1.2755 10.7032 0.963488 11.171 0.752268 11.6862C0.541047 12.2014 0.434879 12.7535 0.439997 13.3103V22.2103H2.21V12.5203C2.20927 11.7818 2.34487 11.0496 2.61 10.3603C2.78559 9.89709 3.01732 9.45714 3.3 9.05032L3.23 8.91032ZM4 29.9103V23.5603H2.25V29.9103H4Z" fill="#FA1E38"/>
<path fill-rule="evenodd" clip-rule="evenodd" d="M8.00003 29.9103V20.0203H6.11003V12.5203C6.11077 11.8337 6.38414 11.1755 6.87003 10.6903C7.1064 10.446 7.38908 10.2511 7.70156 10.1172C8.01404 9.9833 8.35007 9.91296 8.69003 9.91031H9.00003C9.00003 9.74031 9.11003 9.56031 9.17003 9.39031C9.35836 8.91894 9.6035 8.4723 9.90003 8.06031L9.80003 7.91031C9.45094 8.06723 9.07276 8.149 8.69003 8.15031C8.18226 8.14591 7.68698 7.99234 7.2658 7.7087C6.84461 7.42506 6.51609 7.02387 6.32109 6.55502C6.12608 6.08616 6.07321 5.57033 6.16903 5.07167C6.26485 4.573 6.50514 4.1135 6.86003 3.75031C7.34862 3.27084 8.00547 3.00164 8.69003 3.00031H8.90003C9.04031 2.40901 9.26246 1.84019 9.56003 1.31031C9.27296 1.258 8.98182 1.23123 8.69003 1.23031C8.11973 1.22836 7.55472 1.33961 7.02774 1.55762C6.50075 1.77562 6.02227 2.09604 5.62003 2.50031C4.80663 3.31901 4.35011 4.42623 4.35011 5.58031C4.35011 6.73439 4.80663 7.84161 5.62003 8.66031C5.76059 8.80082 5.91097 8.93115 6.07003 9.05031C5.91097 9.16947 5.76059 9.2998 5.62003 9.44031C5.21454 9.84424 4.89275 10.3242 4.6731 10.8528C4.45345 11.3813 4.34027 11.948 4.34003 12.5203V21.7903H6.24003V29.9103H8.00003Z" fill="#FA1E38"/>
</svg>
