<svg width="14" height="11" viewBox="0 0 14 11" fill="none" xmlns="http://www.w3.org/2000/svg">
<path d="M10.4102 6.89001H10.2202C11.0438 7.75235 11.5055 8.89759 11.5102 10.09H13.6302C13.6249 9.23949 13.2834 8.4256 12.6801 7.82605C12.0768 7.2265 11.2608 6.89 10.4102 6.89001Z" fill="#A5A5A5"/>
<path d="M6.81006 5.51998C7.35636 5.52196 7.89095 5.36178 8.34615 5.05971C8.80134 4.75764 9.15665 4.32728 9.36708 3.82314C9.57752 3.31899 9.6336 2.76373 9.52824 2.22769C9.42288 1.69165 9.1608 1.19893 8.77521 0.811932C8.38962 0.424938 7.89786 0.161078 7.3622 0.0537702C6.82654 -0.0535381 6.27108 0.000532061 5.76618 0.209133C5.26127 0.417734 4.82962 0.771481 4.52591 1.22557C4.22219 1.67967 4.06006 2.21368 4.06006 2.75998C4.06005 3.49025 4.34947 4.19076 4.86491 4.70807C5.38034 5.22538 6.0798 5.51734 6.81006 5.51998Z" fill="#A5A5A5"/>
<path d="M3.23 6.89003C2.8063 6.88871 2.38651 6.97103 1.99469 7.13226C1.60286 7.29349 1.24671 7.53047 0.946649 7.8296C0.646584 8.12874 0.408506 8.48415 0.246061 8.87548C0.0836159 9.2668 -2.04319e-06 9.68633 0 10.11H2.12C2.12474 8.9176 2.58642 7.77236 3.41 6.91003L3.23 6.89003Z" fill="#A5A5A5"/>
<path d="M3.22982 6.09998C3.68833 6.09641 4.13614 5.96103 4.51982 5.70998C3.86614 5.20424 3.39729 4.49722 3.1858 3.69825C2.97431 2.89928 3.03195 2.05289 3.34982 1.28998H3.22982C2.59065 1.28998 1.97766 1.54389 1.5257 1.99585C1.07373 2.44781 0.819824 3.06081 0.819824 3.69998C0.819824 4.33915 1.07373 4.95214 1.5257 5.40411C1.97766 5.85607 2.59065 6.10998 3.22982 6.10998V6.09998Z" fill="#A5A5A5"/>
<path d="M9.10986 5.71003C9.42424 5.90829 9.78037 6.03083 10.1502 6.06799C10.52 6.10514 10.8934 6.0559 11.2409 5.92413C11.5885 5.79237 11.9007 5.58169 12.1529 5.3087C12.4051 5.03571 12.5905 4.70786 12.6944 4.35101C12.7983 3.99416 12.8179 3.61804 12.7517 3.25232C12.6855 2.88659 12.5352 2.54124 12.3127 2.2435C12.0903 1.94575 11.8017 1.70375 11.4697 1.53655C11.1378 1.36935 10.7715 1.28154 10.3999 1.28003H10.2699C10.4717 1.74361 10.5739 2.24443 10.5699 2.75003C10.5684 3.32209 10.4361 3.88624 10.183 4.39929C9.92996 4.91234 9.56288 5.36069 9.10986 5.71003Z" fill="#A5A5A5"/>
<path d="M6.82012 6.42C6.3347 6.41868 5.85379 6.51315 5.40494 6.69801C4.9561 6.88286 4.54813 7.15445 4.20443 7.49723C3.86072 7.84001 3.58802 8.24724 3.40196 8.69558C3.21589 9.14393 3.12012 9.62458 3.12012 10.11H10.5101C10.5101 9.13135 10.1214 8.19278 9.42934 7.50077C8.73733 6.80876 7.79877 6.42 6.82012 6.42Z" fill="#A5A5A5"/>
</svg>
