<svg width="8" height="11" viewBox="0 0 8 11" fill="none" xmlns="http://www.w3.org/2000/svg">
<path d="M3.69018 5.52C4.23605 5.52 4.76967 5.35813 5.22355 5.05486C5.67743 4.75159 6.03119 4.32053 6.24008 3.81621C6.44898 3.31188 6.50364 2.75694 6.39714 2.22155C6.29065 1.68616 6.02778 1.19438 5.64179 0.808387C5.2558 0.422394 4.76401 0.159529 4.22863 0.0530339C3.69324 -0.0534613 3.13829 0.00119586 2.63397 0.210094C2.12965 0.418992 1.69859 0.772748 1.39532 1.22663C1.09205 1.68051 0.930176 2.21412 0.930176 2.76C0.930176 3.492 1.22096 4.19402 1.73856 4.71162C2.25616 5.22922 2.95818 5.52 3.69018 5.52Z" fill="white"/>
<path d="M3.69 6.42001C2.71135 6.42001 1.77279 6.80878 1.08078 7.50079C0.388767 8.1928 0 9.13136 0 10.11H7.38C7.38 9.13136 6.99123 8.1928 6.29922 7.50079C5.60721 6.80878 4.66865 6.42001 3.69 6.42001Z" fill="white"/>
</svg>
