<svg width="280" height="33" viewBox="0 0 280 33" fill="none" xmlns="http://www.w3.org/2000/svg">
<path fill-rule="evenodd" clip-rule="evenodd" d="M225.995 16.46C226.002 17.0179 226.062 17.5737 226.175 18.12C226.235 18.38 226.285 18.6 226.355 18.85C226.564 19.5116 226.863 20.141 227.245 20.72C227.9 21.7422 228.809 22.5765 229.884 23.1411C230.959 23.7056 232.162 23.9809 233.375 23.94C235.039 23.9775 236.659 23.4088 237.935 22.34C238.24 22.09 238.524 21.8158 238.785 21.52V21.52C238.865 21.43 238.885 21.43 238.915 21.33C238.945 21.23 237.445 19.79 237.205 19.55L236.915 19.25L236.655 18.93C236.545 18.93 236.585 18.93 236.505 19.04C236.454 19.0863 236.401 19.1297 236.345 19.17C235.642 19.9137 234.686 20.3669 233.665 20.44C232.822 20.519 231.981 20.272 231.315 19.75C230.999 19.4799 230.725 19.1629 230.505 18.81C230.133 18.1788 229.93 17.4625 229.915 16.73C229.843 15.7711 230.089 14.8153 230.615 14.01C231.052 13.3528 231.703 12.8666 232.457 12.6335C233.211 12.4003 234.023 12.4344 234.755 12.73C235.264 12.9256 235.735 13.21 236.145 13.57C236.235 13.65 236.435 13.87 236.545 13.9C236.865 13.6072 237.169 13.2968 237.455 12.97L237.975 12.42C238.165 12.22 238.755 11.64 238.845 11.51C238.559 11.1324 238.223 10.7959 237.845 10.51C236.96 9.81808 235.929 9.33834 234.83 9.10776C233.73 8.87718 232.593 8.90191 231.505 9.18003C230.504 9.42097 229.566 9.87457 228.755 10.51L228.025 11.17C227.414 11.8204 226.926 12.5759 226.585 13.4C226.182 14.3702 225.972 15.4095 225.965 16.46H225.995ZM163.355 23.62H167.295C167.375 23.62 167.395 23.62 167.395 23.52V8.59003H174.515V23.52C174.515 23.59 174.515 23.62 174.615 23.62H178.555V4.84003H163.355V23.62ZM202.995 12.46C203.479 12.4381 203.962 12.5297 204.405 12.7276C204.848 12.9256 205.238 13.2243 205.545 13.6C206.156 14.3329 206.507 15.2469 206.545 16.2C206.61 17.2782 206.283 18.3436 205.625 19.2C205.156 19.7795 204.499 20.1761 203.768 20.3204C203.037 20.4648 202.279 20.3479 201.625 19.99C201.082 19.6601 200.628 19.2025 200.302 18.657C199.976 18.1115 199.788 17.4946 199.755 16.86C199.755 16.68 199.755 16.56 199.755 16.43C199.755 16.3 199.755 16.19 199.755 16C199.755 15.81 199.755 15.72 199.755 15.59C199.796 15.3414 199.859 15.097 199.945 14.86C200.131 14.1961 200.52 13.6073 201.058 13.1766C201.597 12.746 202.257 12.4953 202.945 12.46H202.995ZM199.755 11.24V9.24003H195.755V27.92H199.755V21.78L200.125 22.18C200.64 22.7514 201.277 23.2005 201.988 23.4946C202.699 23.7887 203.467 23.9204 204.235 23.88C205.104 23.8596 205.959 23.6505 206.739 23.2672C207.52 22.8839 208.207 22.3355 208.755 21.66C209.297 21.0123 209.708 20.265 209.965 19.46C210.385 18.1906 210.529 16.8461 210.388 15.5164C210.246 14.1868 209.823 12.9027 209.145 11.75L208.385 10.75L207.925 10.34C207.094 9.64604 206.093 9.18684 205.025 9.01003C203.789 8.79389 202.517 9.01301 201.425 9.63003C201.097 9.8285 200.794 10.067 200.525 10.34C200.378 10.463 200.244 10.6004 200.125 10.75C200.008 10.9078 199.881 11.0581 199.745 11.2L199.755 11.24ZM247.315 20.4H244.105V17.58H246.995C249.585 17.58 249.165 19.58 248.525 20.04C248.171 20.2875 247.747 20.4138 247.315 20.4V20.4ZM247.025 15H244.135V12.26H246.965C247.258 12.207 247.559 12.2513 247.824 12.3862C248.089 12.521 248.303 12.739 248.432 13.0067C248.561 13.2744 248.599 13.5771 248.54 13.8685C248.481 14.1598 248.328 14.4238 248.105 14.62C247.799 14.8649 247.417 14.9957 247.025 14.99V15ZM240.215 23.63H247.885C249.685 23.63 251.595 23.1 252.495 21.69C252.932 20.9964 253.123 20.1753 253.035 19.36C253.016 18.946 252.932 18.5377 252.785 18.15C252.659 17.8074 252.469 17.4919 252.225 17.22C252.112 17.0933 251.988 16.9762 251.855 16.87C251.429 16.5144 250.931 16.2552 250.395 16.11V16C250.988 15.7567 251.506 15.3598 251.895 14.85C252.27 14.3079 252.488 13.6727 252.525 13.0146C252.562 12.3564 252.417 11.7008 252.105 11.12C251.86 10.6927 251.517 10.3295 251.105 10.06C250.144 9.46088 249.027 9.16149 247.895 9.20003H240.195V23.62L240.215 23.63ZM218.215 12.27C218.89 12.2727 219.543 12.514 220.057 12.9514C220.571 13.3888 220.914 13.9941 221.025 14.66C221.076 14.8677 221.117 15.078 221.145 15.29H215.225C215.323 14.7096 215.523 14.151 215.815 13.64C215.915 13.4805 216.029 13.3299 216.155 13.19C216.411 12.8961 216.728 12.6616 217.083 12.5027C217.439 12.3438 217.825 12.2644 218.215 12.27V12.27ZM218.535 23.95C220.028 24.0196 221.504 23.6173 222.755 22.8C223.324 22.422 223.833 21.9601 224.265 21.43C224.345 21.34 224.355 21.36 224.385 21.25C224.265 21.1136 224.134 20.9866 223.995 20.87L222.865 19.87C222.814 19.8237 222.761 19.7803 222.705 19.74C222.524 19.5568 222.33 19.3864 222.125 19.23L221.475 19.77C221.246 19.9563 220.998 20.1172 220.735 20.25C220.46 20.3935 220.167 20.5011 219.865 20.57C219.073 20.7696 218.242 20.7419 217.465 20.49C217.012 20.3279 216.603 20.0628 216.27 19.7158C215.937 19.3688 215.689 18.9492 215.545 18.49C215.46 18.2852 215.403 18.07 215.375 17.85H225.055C225.048 17.7601 225.048 17.6699 225.055 17.58V16.74C225.049 15.6821 224.887 14.6308 224.575 13.62C224.19 12.3553 223.451 11.2273 222.445 10.37C221.336 9.52857 219.998 9.04283 218.607 8.97678C217.217 8.91073 215.839 9.26748 214.655 10L213.885 10.58C213.639 10.7837 213.415 11.0115 213.215 11.26C213.068 11.4186 212.934 11.5892 212.815 11.77C212.278 12.5177 211.885 13.3586 211.655 14.25C211.444 15.0419 211.353 15.8611 211.385 16.68C211.405 17.2209 211.469 17.7593 211.575 18.29C211.811 19.422 212.307 20.4834 213.025 21.39C213.1 21.4653 213.17 21.5455 213.235 21.63C213.303 21.7149 213.376 21.7951 213.455 21.87C213.655 22.07 213.985 22.32 214.185 22.49C215.46 23.426 217.003 23.9273 218.585 23.92L218.535 23.95ZM187.375 12.26C187.721 12.2462 188.066 12.3029 188.389 12.4266C188.712 12.5504 189.007 12.7387 189.255 12.98C189.591 13.2861 189.851 13.6661 190.015 14.09C190.123 14.3691 190.206 14.6568 190.265 14.95C190.281 15.0614 190.305 15.1716 190.335 15.28H184.415C184.469 14.8763 184.58 14.4824 184.745 14.11C184.941 13.5696 185.299 13.1025 185.769 12.7717C186.24 12.4408 186.8 12.2623 187.375 12.26V12.26ZM180.505 16.4C180.428 18.4062 181.147 20.3615 182.505 21.84C183.446 22.7562 184.609 23.4121 185.88 23.7434C187.151 24.0747 188.486 24.0701 189.755 23.73C191.022 23.4326 192.173 22.7682 193.065 21.82C193.255 21.6485 193.414 21.4455 193.535 21.22C193.43 21.1541 193.336 21.0732 193.255 20.98L192.755 20.6C192.485 20.38 191.435 19.35 191.205 19.19C191.092 19.2687 190.988 19.3592 190.895 19.46C190.785 19.56 190.675 19.64 190.555 19.73C190.321 19.911 190.07 20.0684 189.805 20.2C189.136 20.5568 188.38 20.7162 187.624 20.6595C186.868 20.6029 186.143 20.3325 185.535 19.88C184.965 19.3461 184.576 18.6465 184.425 17.88H194.125C194.125 17.63 194.125 17.51 194.125 17.26C194.204 15.9486 194.014 14.6349 193.565 13.4C193.418 12.9811 193.234 12.5761 193.015 12.19C192.812 11.8343 192.574 11.4994 192.305 11.19C192.075 10.96 191.935 10.78 191.665 10.54C190.438 9.4879 188.86 8.93786 187.245 9.00003C186.732 9.01011 186.223 9.07719 185.725 9.20003C184.706 9.45074 183.765 9.94878 182.985 10.65C182.942 10.6798 182.902 10.7133 182.865 10.75C182.083 11.4932 181.473 12.3974 181.075 13.4C180.704 14.3569 180.511 15.3736 180.505 16.4V16.4ZM260.755 12.26C261.238 12.2491 261.715 12.3675 262.137 12.6032C262.559 12.8388 262.911 13.183 263.155 13.6C263.442 14.1214 263.632 14.6907 263.715 15.28H257.755C257.861 14.515 258.172 13.793 258.655 13.19C258.913 12.8979 259.23 12.6639 259.585 12.5036C259.94 12.3433 260.325 12.2603 260.715 12.26H260.755ZM253.885 16.46C253.824 18.4397 254.542 20.3643 255.885 21.82C257.017 22.9111 258.457 23.627 260.01 23.8704C261.563 24.1137 263.154 23.8727 264.565 23.18C265.008 22.9422 265.427 22.6608 265.815 22.34C265.866 22.302 265.913 22.2584 265.955 22.21C266.186 22.0121 266.403 21.7982 266.605 21.57C266.693 21.4718 266.77 21.3645 266.835 21.25L266.285 20.74C266.035 20.48 265.385 19.94 265.155 19.74L264.575 19.23C264.15 19.6139 263.684 19.9493 263.185 20.23C262.752 20.446 262.285 20.588 261.805 20.65C261.357 20.7513 260.893 20.758 260.443 20.6699C259.993 20.5817 259.566 20.4005 259.189 20.138C258.813 19.8754 258.495 19.5372 258.257 19.145C258.019 18.7527 257.865 18.3151 257.805 17.86H267.475C267.475 17.63 267.475 17.54 267.475 17.3C267.563 15.9416 267.369 14.5796 266.905 13.3C266.662 12.5803 266.304 11.9048 265.845 11.3C265.66 11.0576 265.456 10.8302 265.235 10.62C264.925 10.3378 264.59 10.0834 264.235 9.86003C262.643 8.93259 260.749 8.67029 258.965 9.13003C258.522 9.24236 258.093 9.40333 257.685 9.61003L257.125 9.92003C256.618 10.2896 256.158 10.7194 255.755 11.2C254.517 12.6722 253.844 14.5367 253.855 16.46H253.885ZM267.275 12.75V9.24003H279.565V12.75H275.455V23.52C275.455 23.59 275.455 23.62 275.365 23.62H271.415V12.75H267.275Z" fill="#1B1B1B"/>
<path fill-rule="evenodd" clip-rule="evenodd" d="M249.985 32.15H251.195C251.247 32.0035 251.314 31.8628 251.395 31.73C251.505 31.5 251.985 30.64 252.025 30.48C252.194 30.7019 252.314 30.9577 252.375 31.23V32.15H253.485C253.485 31.15 253.385 31.28 253.705 30.64C253.765 30.52 253.705 30.54 253.835 30.51C253.835 30.64 254.165 31.16 254.245 31.33L254.665 32.15H255.875C255.775 31.96 255.655 31.76 255.545 31.57L255.225 30.98L254.755 30.1C254.706 30.0002 254.645 29.9062 254.575 29.82C254.965 29.23 255.475 28.56 255.845 27.98H254.605C254.53 28.1238 254.443 28.261 254.345 28.39C254.175 28.64 253.615 29.57 253.495 29.66V28H252.385V29.71L251.255 28H250.015L251.115 29.59L251.215 29.72C251.285 29.84 251.215 29.91 251.215 30.01L250.025 32.17L249.985 32.15ZM272.755 28.93H273.755V32.15H274.835V28.93H275.835V28H272.755V28.95V28.93ZM269.345 29.79C269.294 30.1261 269.317 30.4693 269.412 30.7957C269.507 31.1221 269.672 31.4238 269.895 31.68C270.155 31.9615 270.498 32.1523 270.874 32.2243C271.25 32.2963 271.64 32.2457 271.985 32.08C272.191 31.9771 272.375 31.8344 272.525 31.66C272.525 31.55 272.185 31.11 272.085 30.9C271.755 30.99 271.865 31.23 271.195 31.23C270.972 31.1956 270.769 31.0792 270.627 30.9036C270.484 30.728 270.412 30.5057 270.425 30.28C270.425 29.81 270.425 29.17 270.995 28.96C271.565 28.75 271.905 29.22 272.055 29.26C272.055 29.09 272.455 28.61 272.495 28.44C272.227 28.164 271.876 27.9818 271.496 27.9205C271.116 27.8593 270.727 27.9222 270.385 28.1C270.092 28.2776 269.847 28.5247 269.673 28.8196C269.499 29.1144 269.4 29.4478 269.385 29.79H269.345ZM278.005 31.26H277.395V30.21H278.005C278.245 30.21 278.415 30.47 278.415 30.74C278.427 30.8628 278.39 30.9852 278.314 31.082C278.238 31.1788 278.127 31.2426 278.005 31.26V31.26ZM276.285 32.15H278.285C278.58 32.118 278.855 31.9869 279.066 31.7779C279.277 31.569 279.411 31.2947 279.445 31C279.478 30.7727 279.46 30.5408 279.393 30.3211C279.326 30.1015 279.21 29.8996 279.055 29.73C278.549 29.4035 277.938 29.282 277.345 29.39V28H276.235V32.17L276.285 32.15ZM235.755 28.83C236.115 28.83 236.295 29.1 236.375 29.41C236.375 29.52 236.375 29.67 236.455 29.75H235.055C235.115 29.63 235.145 28.83 235.755 28.83V28.83ZM233.975 30.08C233.925 30.4862 234.007 30.8977 234.207 31.2544C234.408 31.6112 234.717 31.8945 235.09 32.0631C235.463 32.2317 235.88 32.2767 236.28 32.1916C236.68 32.1065 237.043 31.8957 237.315 31.59C237.152 31.3828 237.002 31.1657 236.865 30.94C236.735 30.94 236.765 30.94 236.685 31.04C236.495 31.1969 236.256 31.2827 236.01 31.2827C235.764 31.2827 235.525 31.1969 235.335 31.04C235.199 30.8817 235.112 30.6871 235.085 30.48H237.475C237.475 30.31 237.475 30.33 237.475 30.18C237.475 29.06 236.995 27.89 235.855 27.89C235.572 27.8644 235.287 27.9138 235.029 28.0331C234.771 28.1525 234.549 28.3376 234.385 28.57C234.092 29.0074 233.938 29.5235 233.945 30.05L233.975 30.08ZM266.045 30.08C266.045 29.52 266.285 28.9 266.805 28.9H266.965C267.405 28.9 267.725 29.45 267.725 29.9V30.26C267.725 31.56 266.045 31.66 266.045 30.06V30.08ZM266.865 32.25C267.121 32.2566 267.375 32.2092 267.611 32.111C267.847 32.0128 268.06 31.8659 268.235 31.68C268.603 31.2368 268.809 30.6815 268.82 30.1055C268.831 29.5295 268.646 28.9669 268.295 28.51C268.004 28.2002 267.618 27.9957 267.198 27.9288C266.778 27.8618 266.348 27.9361 265.975 28.14C265.767 28.258 265.587 28.4181 265.445 28.61C265.286 28.8011 265.167 29.0221 265.095 29.26C265.015 29.5468 264.972 29.8424 264.965 30.14C264.969 30.6822 265.156 31.2071 265.495 31.63C265.667 31.8235 265.878 31.9787 266.114 32.0855C266.35 32.1923 266.606 32.2483 266.865 32.25V32.25ZM244.085 31.25H243.425V30.4C243.765 30.4 244.535 30.3 244.535 30.83C244.538 30.8887 244.529 30.9474 244.507 31.0019C244.485 31.0565 244.452 31.1056 244.409 31.1457C244.366 31.1858 244.314 31.2159 244.258 31.2339C244.203 31.252 244.143 31.2575 244.085 31.25ZM243.995 29.65H243.425V28.82H243.995C244.051 28.8159 244.106 28.8232 244.159 28.8413C244.211 28.8595 244.26 28.8881 244.301 28.9255C244.342 28.9629 244.375 29.0084 244.398 29.059C244.421 29.1096 244.434 29.1644 244.435 29.22C244.44 29.2785 244.432 29.3374 244.411 29.3924C244.39 29.4474 244.358 29.4972 244.316 29.5382C244.274 29.5793 244.223 29.6106 244.168 29.6299C244.112 29.6492 244.053 29.6561 243.995 29.65V29.65ZM242.305 32.14H244.375C244.67 32.1607 244.961 32.0691 245.191 31.8836C245.421 31.6981 245.573 31.4325 245.615 31.14C245.638 30.9964 245.629 30.8495 245.589 30.7096C245.55 30.5697 245.48 30.4402 245.385 30.33C245.235 30.16 245.025 30.1 244.945 29.99C245.695 29.79 245.735 27.99 244.285 27.99H242.285V32.16L242.305 32.14ZM256.215 32.14H257.215C257.215 32.05 258.415 29.92 258.485 29.88V32.14H259.565V28H258.485C258.454 28.1036 258.407 28.2015 258.345 28.29L257.345 30.01L257.255 30.16L257.175 30.3V28H256.175V32.17L256.215 32.14ZM246.215 32.14C247.525 32.14 247.215 32.28 247.565 31.6C247.715 31.35 248.445 29.99 248.565 29.84V32.14H249.565V28C248.365 28 248.565 27.92 248.395 28.24L247.295 30.24C247.295 30.3 247.295 30.24 247.245 30.32V28H246.165V32.17L246.215 32.14ZM260.365 32.14H261.455V29.79C261.546 29.898 261.621 30.0194 261.675 30.15L261.905 30.53L262.345 31.33C262.495 31.22 263.145 29.87 263.295 29.75V32.15H264.375V28H263.265C263.207 28.1425 263.137 28.2797 263.055 28.41L262.835 28.81C262.755 28.95 262.435 29.5 262.405 29.61C262.375 29.72 262.315 29.56 262.255 29.44L261.755 28.36C261.475 27.85 261.755 27.98 260.435 27.98V32.15L260.365 32.14ZM239.495 28.92H240.325V31.2H239.215C239.215 31.05 239.305 30.87 239.335 30.7C239.439 30.1157 239.492 29.5235 239.495 28.93V28.92ZM238.495 28.99C238.493 29.5618 238.429 30.1318 238.305 30.69C238.255 30.85 238.185 31.02 238.145 31.19H237.755V33H238.675L238.735 32.27C238.735 32.17 238.735 32.11 238.835 32.11H240.905V32.9C240.905 32.97 240.905 33 240.995 33H241.755V32.54C241.755 32.14 241.855 31.63 241.855 31.16H241.405V28H238.405V29L238.495 28.99ZM229.395 32.14H230.515V30H232.235V32.2H233.345V26.7H232.235V28.9H230.515V26.8C230.515 26.72 230.515 26.7 230.415 26.7H229.415L229.395 32.14Z" fill="#F20017"/>
<path fill-rule="evenodd" clip-rule="evenodd" d="M143.795 26.31H130.095V21.03L143.795 18.32V26.31Z" fill="#585251"/>
<path fill-rule="evenodd" clip-rule="evenodd" d="M157.495 21.52V26.31H143.795V18.32L157.495 21.52Z" fill="#181719"/>
<path fill-rule="evenodd" clip-rule="evenodd" d="M143.795 7.48L132.375 12.71L135.255 5.83L144.535 0L143.795 7.48Z" fill="#FA1E38"/>
<path fill-rule="evenodd" clip-rule="evenodd" d="M153.525 12.82L143.795 7.48L144.535 0L153.525 12.82Z" fill="#FA002A"/>
<path fill-rule="evenodd" clip-rule="evenodd" d="M156.015 15.38L143.795 9.33002V16.73L156.015 20.14V15.38Z" fill="#C4002A"/>
<path fill-rule="evenodd" clip-rule="evenodd" d="M137.545 16.57L135.475 17.15V14.21L137.545 13.46V16.57ZM128.365 15.66V20.32L143.755 16.73V9.33002L128.365 15.66Z" fill="#F21035"/>
<path d="M2.43 11.45V14.225H7.29V16.175H2.43V20H0V9.5H7.935V11.45H2.43Z" fill="black"/>
<path d="M16.2701 20L14.2451 17.075H14.1251H12.0101V20H9.58008V9.5H14.1251C15.0551 9.5 15.8601 9.655 16.5401 9.965C17.2301 10.275 17.7601 10.715 18.1301 11.285C18.5001 11.855 18.6851 12.53 18.6851 13.31C18.6851 14.09 18.4951 14.765 18.1151 15.335C17.7451 15.895 17.2151 16.325 16.5251 16.625L18.8801 20H16.2701ZM16.2251 13.31C16.2251 12.72 16.0351 12.27 15.6551 11.96C15.2751 11.64 14.7201 11.48 13.9901 11.48H12.0101V15.14H13.9901C14.7201 15.14 15.2751 14.98 15.6551 14.66C16.0351 14.34 16.2251 13.89 16.2251 13.31Z" fill="black"/>
<path d="M20.6104 9.5H23.0403V20H20.6104V9.5Z" fill="black"/>
<path d="M33.6622 18.05V20H25.5322V9.5H33.4672V11.45H27.9472V13.73H32.8222V15.62H27.9472V18.05H33.6622Z" fill="black"/>
<path d="M45.2257 9.5V20H43.2307L37.9957 13.625V20H35.5957V9.5H37.6057L42.8257 15.875V9.5H45.2257Z" fill="black"/>
<path d="M47.71 9.5H52.48C53.62 9.5 54.625 9.72 55.495 10.16C56.375 10.59 57.055 11.2 57.535 11.99C58.025 12.78 58.27 13.7 58.27 14.75C58.27 15.8 58.025 16.72 57.535 17.51C57.055 18.3 56.375 18.915 55.495 19.355C54.625 19.785 53.62 20 52.48 20H47.71V9.5ZM52.36 18.005C53.41 18.005 54.245 17.715 54.865 17.135C55.495 16.545 55.81 15.75 55.81 14.75C55.81 13.75 55.495 12.96 54.865 12.38C54.245 11.79 53.41 11.495 52.36 11.495H50.14V18.005H52.36Z" fill="black"/>
<path d="M64.9685 15.8C65.4485 15.95 65.8185 16.18 66.0785 16.49C66.3485 16.8 66.4835 17.17 66.4835 17.6C66.4835 18.11 66.3085 18.56 65.9585 18.95C65.6085 19.33 65.1285 19.625 64.5185 19.835C63.9085 20.045 63.2185 20.15 62.4485 20.15C61.8185 20.15 61.1985 20.085 60.5885 19.955C59.9785 19.825 59.4135 19.63 58.8935 19.37L59.5235 17.735C60.3735 18.145 61.3135 18.35 62.3435 18.35C62.8935 18.35 63.3235 18.27 63.6335 18.11C63.9535 17.94 64.1135 17.705 64.1135 17.405C64.1135 17.145 64.0035 16.95 63.7835 16.82C63.5635 16.68 63.2435 16.61 62.8235 16.61H61.1735V15.155H62.6135C63.0235 15.155 63.3385 15.09 63.5585 14.96C63.7785 14.83 63.8885 14.64 63.8885 14.39C63.8885 14.13 63.7485 13.93 63.4685 13.79C63.1985 13.65 62.8085 13.58 62.2985 13.58C61.5185 13.58 60.6685 13.765 59.7485 14.135L59.1785 12.515C60.2985 12.025 61.3885 11.78 62.4485 11.78C63.1785 11.78 63.8285 11.87 64.3985 12.05C64.9785 12.23 65.4335 12.495 65.7635 12.845C66.0935 13.185 66.2585 13.585 66.2585 14.045C66.2585 14.425 66.1435 14.77 65.9135 15.08C65.6835 15.38 65.3685 15.62 64.9685 15.8Z" fill="black"/>
<path d="M71.9657 20.12C71.1157 20.12 70.3507 19.945 69.6707 19.595C69.0007 19.235 68.4757 18.74 68.0957 18.11C67.7157 17.48 67.5257 16.765 67.5257 15.965C67.5257 15.165 67.7157 14.45 68.0957 13.82C68.4757 13.19 69.0007 12.7 69.6707 12.35C70.3507 11.99 71.1157 11.81 71.9657 11.81C72.8157 11.81 73.5757 11.99 74.2457 12.35C74.9157 12.7 75.4407 13.19 75.8207 13.82C76.2007 14.45 76.3907 15.165 76.3907 15.965C76.3907 16.765 76.2007 17.48 75.8207 18.11C75.4407 18.74 74.9157 19.235 74.2457 19.595C73.5757 19.945 72.8157 20.12 71.9657 20.12ZM71.9657 18.2C72.5657 18.2 73.0557 18 73.4357 17.6C73.8257 17.19 74.0207 16.645 74.0207 15.965C74.0207 15.285 73.8257 14.745 73.4357 14.345C73.0557 13.935 72.5657 13.73 71.9657 13.73C71.3657 13.73 70.8707 13.935 70.4807 14.345C70.0907 14.745 69.8957 15.285 69.8957 15.965C69.8957 16.645 70.0907 17.19 70.4807 17.6C70.8707 18 71.3657 18.2 71.9657 18.2Z" fill="black"/>
<path d="M78.0001 11.93H80.3251V15.08H83.8351V11.93H86.1751V20H83.8351V16.985H80.3251V20H78.0001V11.93Z" fill="black"/>
<path d="M91.5502 11.81C92.8002 11.81 93.7602 12.11 94.4302 12.71C95.1002 13.3 95.4352 14.195 95.4352 15.395V20H93.2452V18.995C92.8052 19.745 91.9852 20.12 90.7852 20.12C90.1652 20.12 89.6252 20.015 89.1652 19.805C88.7152 19.595 88.3701 19.305 88.1301 18.935C87.8902 18.565 87.7702 18.145 87.7702 17.675C87.7702 16.925 88.0502 16.335 88.6102 15.905C89.1802 15.475 90.0552 15.26 91.2352 15.26H93.0952C93.0952 14.75 92.9401 14.36 92.6301 14.09C92.3202 13.81 91.8552 13.67 91.2352 13.67C90.8052 13.67 90.3801 13.74 89.9602 13.88C89.5501 14.01 89.2002 14.19 88.9102 14.42L88.0702 12.785C88.5102 12.475 89.0352 12.235 89.6452 12.065C90.2652 11.895 90.9002 11.81 91.5502 11.81ZM91.3702 18.545C91.7702 18.545 92.1252 18.455 92.4352 18.275C92.7451 18.085 92.9652 17.81 93.0952 17.45V16.625H91.4902C90.5302 16.625 90.0502 16.94 90.0502 17.57C90.0502 17.87 90.1652 18.11 90.3952 18.29C90.6352 18.46 90.9602 18.545 91.3702 18.545Z" fill="black"/>
<path d="M112.335 2.56V30.48" stroke="#1B1B1B" stroke-miterlimit="10"/>
</svg>
