<svg width="13" height="14" viewBox="0 0 13 14" fill="none" xmlns="http://www.w3.org/2000/svg">
<path d="M11.54 6.87987C11.5347 6.45782 11.4776 6.03801 11.37 5.62987L12.8 4.79987C12.5921 3.79462 12.0662 2.88299 11.3 2.19987L9.81 3.05987C9.25792 2.57195 8.60612 2.21022 7.9 1.99987V0.239869C6.92557 -0.0799562 5.87443 -0.0799562 4.9 0.239869V1.99987C4.19654 2.20946 3.54785 2.57135 3 3.05987L1.5 2.19987C0.733794 2.88299 0.207853 3.79462 0 4.79987L1.43 5.62987C1.32242 6.03801 1.26533 6.45782 1.26 6.87987C1.25539 7.23627 1.2923 7.59201 1.37 7.93987L0 8.72987C0.207833 9.73229 0.733961 10.6407 1.5 11.3199L2.81 10.5599C3.39797 11.1293 4.11507 11.5479 4.9 11.7799V13.2899C5.87443 13.6097 6.92557 13.6097 7.9 13.2899V11.7799C8.68963 11.552 9.4109 11.1329 10 10.5599L11.32 11.3199C12.086 10.6407 12.6122 9.73229 12.82 8.72987L11.45 7.93987C11.516 7.59052 11.5462 7.23535 11.54 6.87987ZM6.4 10.1399C5.75481 10.1418 5.12354 9.95234 4.58612 9.59533C4.04871 9.23832 3.62931 8.72987 3.38103 8.13436C3.13276 7.53885 3.06677 6.88306 3.19143 6.25003C3.31608 5.61699 3.62578 5.03518 4.08129 4.57826C4.53681 4.12134 5.11767 3.80986 5.75032 3.68326C6.38297 3.55666 7.03896 3.62063 7.63523 3.86708C8.2315 4.11352 8.74123 4.53136 9.09989 5.06768C9.45855 5.60399 9.65 6.23468 9.65 6.87987C9.65 7.74274 9.30791 8.57043 8.69871 9.18151C8.0895 9.79259 7.26287 10.1372 6.4 10.1399Z" fill="#FFFFFF"/>
</svg>
