<svg width="8" height="12" viewBox="0 0 8 12" fill="none" xmlns="http://www.w3.org/2000/svg">
<path d="M2.64062 7.67969C2.64062 7.24219 2.73958 6.84635 2.9375 6.49219C3.13542 6.13281 3.375 5.83854 3.65625 5.60938C3.9375 5.38021 4.21875 5.15365 4.5 4.92969C4.78646 4.70573 5.02604 4.45052 5.21875 4.16406C5.41667 3.8724 5.51562 3.55208 5.51562 3.20312C5.51562 2.75521 5.34375 2.3776 5 2.07031C4.66146 1.75781 4.22135 1.60156 3.67969 1.60156C3.33594 1.60156 3.02344 1.65885 2.74219 1.77344C2.46094 1.88281 2.24219 2.01562 2.08594 2.17188C1.92969 2.32292 1.80208 2.47656 1.70312 2.63281C1.60417 2.78906 1.53646 2.92448 1.5 3.03906L1.4375 3.20312L0 2.64062C0.0208333 2.56771 0.0494792 2.47135 0.0859375 2.35156C0.122396 2.23177 0.234375 2.02083 0.421875 1.71875C0.609375 1.41667 0.825521 1.15104 1.07031 0.921875C1.3151 0.692708 1.66927 0.481771 2.13281 0.289062C2.59635 0.0963542 3.11198 0 3.67969 0C4.72656 0 5.58854 0.299479 6.26562 0.898438C6.94271 1.49219 7.28125 2.20573 7.28125 3.03906C7.28125 3.6276 7.17448 4.13281 6.96094 4.55469C6.7474 4.97135 6.48698 5.30469 6.17969 5.55469C5.8776 5.79948 5.57031 6.03125 5.25781 6.25C4.95052 6.46875 4.6901 6.74479 4.47656 7.07812C4.26302 7.40625 4.15625 7.79427 4.15625 8.24219V8.39844H2.71875C2.66667 8.13281 2.64062 7.89323 2.64062 7.67969ZM2.71094 11.2109C2.5026 11.0026 2.39844 10.7604 2.39844 10.4844C2.39844 10.2031 2.5026 9.95833 2.71094 9.75C2.91927 9.54167 3.16146 9.4375 3.4375 9.4375C3.71354 9.4375 3.95573 9.54167 4.16406 9.75C4.3724 9.95833 4.47656 10.2031 4.47656 10.4844C4.47656 10.7604 4.3724 11.0026 4.16406 11.2109C3.95573 11.4141 3.71354 11.5156 3.4375 11.5156C3.16146 11.5156 2.91927 11.4141 2.71094 11.2109Z" fill="#FA1E38"/>
</svg>
