<svg width="207" height="252" viewBox="0 0 207 252" fill="none" xmlns="http://www.w3.org/2000/svg">
<path d="M73.05 100.7C74.91 101.7 76.3 102.01 77.98 101.48C82.2392 100.275 86.5856 99.4022 90.98 98.87C91.98 98.72 92.23 98.35 91.83 97.55C90.57 95.05 92.08 92.72 92.2 90.31C92.2436 89.9541 92.4069 89.6236 92.6631 89.3729C92.9193 89.1221 93.2533 88.9659 93.61 88.93C94.0232 88.8573 94.4489 88.9227 94.8212 89.1161C95.1935 89.3095 95.4918 89.6201 95.67 90C96.4752 91.3899 96.7953 93.0082 96.58 94.6C96.15 98.07 98.07 99.78 100.65 101.43C107.25 105.68 114.647 108.538 122.39 109.83C127.32 110.65 129.52 113.94 129.52 118.68C129.52 120.43 130.44 121.92 130.38 123.68C130.04 130.857 129.246 138.004 128 145.08C126.153 156.467 123.893 167.777 121.22 179.01C120.41 182.34 119.53 185.65 118.75 189.01C118.15 191.57 116.15 193.36 115.21 195.72C113.96 198.83 111.81 200.22 108.4 200.72C101.04 201.85 93.71 202.99 86.26 202.84C81.4288 202.893 76.6186 202.198 72 200.78C67.53 199.25 64 196.31 60.78 192.84C51.78 183.11 46.13 171.32 40.19 159.73C35.01 149.63 32.62 138.6 30.48 127.54C28.92 119.45 30.48 111.89 34.12 104.65C36.98 98.97 40.54 97.13 46.83 98.12C50.5332 98.611 54.2797 98.6881 58 98.35C61.65 98.11 65.38 97.96 68.73 96.1C69.56 95.64 70.6 95.43 71.16 94.64C72.36 93 74.06 93 75.79 93.06C76.4287 93.0745 77.0472 93.2874 77.5596 93.669C78.072 94.0506 78.4531 94.5822 78.65 95.19C78.9476 95.7875 78.9979 96.4782 78.7902 97.1126C78.5825 97.747 78.1334 98.2742 77.54 98.58C76.1042 99.409 74.6024 100.118 73.05 100.7Z" fill="#EE916C"/>
<path d="M104 60.15C103.88 66.41 102.53 72.48 101.23 78.56C99.3 87.4 96.55 96 94 104.65C93.826 105.328 93.5637 105.98 93.22 106.59C92.86 107.17 92.22 107.91 91.52 107.48C89.86 106.48 88.34 107.41 86.75 107.48C81.95 107.76 77.22 107.48 72.75 105.43C71.75 104.96 70.75 104.43 69.68 103.88C67.02 102.54 66.68 101.74 68.01 99.08C70.0365 94.9623 71.4964 90.5893 72.35 86.08C72.6146 85.0343 72.782 83.9664 72.85 82.89C72.85 77.75 75.8 74.02 78.91 70.53C83.4994 65.2347 88.7761 60.5768 94.6 56.68C95.6884 55.9188 96.824 55.2274 98 54.61C98.6163 54.2252 99.3271 54.0189 100.054 54.0138C100.78 54.0087 101.494 54.2051 102.115 54.5812C102.737 54.9572 103.242 55.4983 103.575 56.1442C103.908 56.7901 104.055 57.5155 104 58.24V60.15Z" fill="#EE916C"/>
<path d="M96.19 105.53C96.1012 105.53 96.0147 105.502 95.9428 105.45C95.871 105.398 95.8175 105.324 95.79 105.24C94.97 102.44 95.79 98.14 95.79 97.96C95.7995 97.9057 95.8199 97.8538 95.8499 97.8076C95.88 97.7613 95.919 97.7216 95.9648 97.6908C96.0105 97.66 96.062 97.6387 96.1162 97.6283C96.1703 97.6178 96.226 97.6184 96.28 97.63C96.3864 97.6518 96.4802 97.714 96.5417 97.8035C96.6032 97.893 96.6277 98.0029 96.61 98.11C96.61 98.11 95.83 102.4 96.61 105C96.6385 105.106 96.6254 105.219 96.5734 105.316C96.5213 105.412 96.4342 105.485 96.33 105.52L96.19 105.53Z" fill="#A33F32"/>
<path d="M49.29 314.93C48.92 294.14 49.23 273.31 55 259.13C59.12 248.99 68 235.41 67.41 231.36C66.71 226.36 66.68 217.64 69.54 215.88C75.45 212.23 82.54 211.2 88.92 210.59C98.4823 209.547 108.104 209.153 117.72 209.41C122.41 209.644 127.084 210.138 131.72 210.89C132.838 210.962 133.883 211.47 134.63 212.303C135.378 213.137 135.769 214.231 135.72 215.35C136.04 224.14 138.36 232.62 139.72 241.24C142.64 259.83 146.62 278.18 149.08 296.85C149.87 302.8 151.5 310.38 146.4 314.95C138.89 321.7 49.59 332.13 49.29 314.93Z" fill="#EA9A43"/>
<path d="M70.3999 232.29C70.3237 232.292 70.2484 232.273 70.1828 232.234C70.1173 232.195 70.0642 232.138 70.0299 232.07C70.0038 232.022 69.9875 231.97 69.9819 231.915C69.9763 231.861 69.9816 231.806 69.9974 231.754C70.0132 231.702 70.0393 231.654 70.0741 231.612C70.1089 231.57 70.1516 231.535 70.1999 231.51C70.3799 231.41 88.7499 222.25 134.54 229.24C134.648 229.257 134.745 229.316 134.81 229.404C134.876 229.492 134.904 229.601 134.89 229.71C134.873 229.818 134.814 229.915 134.726 229.98C134.638 230.046 134.528 230.074 134.42 230.06C88.9399 223.12 70.7599 232.15 70.5899 232.24C70.5325 232.274 70.4667 232.291 70.3999 232.29Z" fill="#A64F1A"/>
<path d="M75.25 320.37C75.142 320.355 75.0441 320.299 74.9769 320.213C74.9098 320.127 74.8786 320.018 74.89 319.91C77.41 297.36 93.96 227.4 94.09 227.08C94.1089 227.029 94.1376 226.983 94.1745 226.943C94.2114 226.904 94.2558 226.872 94.3051 226.85C94.3543 226.827 94.4075 226.815 94.4616 226.813C94.5156 226.812 94.5695 226.821 94.62 226.84C94.718 226.878 94.798 226.952 94.8443 227.046C94.8906 227.141 94.8998 227.249 94.87 227.35C94.67 228.12 78.24 297.35 75.71 320C75.7051 320.055 75.6891 320.108 75.6631 320.157C75.6371 320.205 75.6016 320.248 75.5586 320.283C75.5157 320.317 75.4662 320.343 75.4132 320.358C75.3602 320.373 75.3047 320.377 75.25 320.37Z" fill="#A64F1A"/>
<path d="M80 18.39C79.2 18.27 78.18 18.14 78.1 17.11C78.02 16.08 78.95 16.11 79.72 16.05C79.89 16.05 80.18 15.98 80.21 15.87C81 13.55 84.41 13.87 86.08 13.87C87 13.87 87.79 13.67 87.77 11.76C87.77 10.24 87.53 8.75997 87.45 7.18997C87.2931 6.14117 87.5176 5.07088 88.0828 4.17357C88.648 3.27626 89.5163 2.61146 90.53 2.29997C97.91 -0.590035 101.71 1.46997 105.63 7.07997C107.96 10.4 106.79 15.08 103.63 17.57C102.575 18.2766 101.741 19.2679 101.226 20.429C100.711 21.59 100.536 22.8733 100.72 24.13C100.82 24.83 83.07 18.85 80 18.39Z" fill="#7A444A"/>
<path d="M91.54 15C91.4423 15.0014 91.3474 14.9679 91.2722 14.9056C91.1971 14.8433 91.1466 14.7562 91.13 14.66C91 13.93 89.94 7.49997 91.72 6.06997C92.9 5.06997 96.58 4.21997 99.42 5.06997C100.136 5.23636 100.799 5.58125 101.346 6.07255C101.893 6.56386 102.308 7.18562 102.55 7.87997C102.768 8.42931 102.865 9.01935 102.834 9.60966C102.803 10.2 102.645 10.7766 102.37 11.3C101.6 12.4598 100.422 13.2879 99.07 13.62C99.0174 13.6349 98.9623 13.6388 98.9082 13.6317C98.854 13.6245 98.8019 13.6062 98.7551 13.5781C98.7082 13.55 98.6676 13.5126 98.6358 13.4682C98.6039 13.4238 98.5815 13.3734 98.57 13.32C98.5458 13.2126 98.5648 13.1001 98.6228 13.0066C98.6808 12.9131 98.7731 12.8461 98.88 12.82C100.002 12.5303 100.983 11.8449 101.64 10.89C101.855 10.4668 101.977 10.0029 102 9.5289C102.022 9.0549 101.944 8.58154 101.77 8.13997C101.566 7.57371 101.223 7.06795 100.772 6.66944C100.321 6.27093 99.777 5.99253 99.19 5.85997C96.8321 5.2471 94.3294 5.55458 92.19 6.71997C91.13 7.55997 91.45 11.95 91.9 14.51C91.91 14.5639 91.9091 14.6193 91.8973 14.6729C91.8855 14.7264 91.8631 14.7771 91.8314 14.8218C91.7997 14.8666 91.7594 14.9045 91.7127 14.9334C91.6661 14.9623 91.6141 14.9815 91.56 14.99L91.54 15Z" fill="#4D2323"/>
<path d="M98.47 11.9999C98.3837 11.998 98.3001 11.9701 98.23 11.9199C98.1413 11.8575 98.081 11.7624 98.0622 11.6556C98.0435 11.5488 98.0678 11.4389 98.13 11.3499C98.306 11.1366 98.433 10.8872 98.5022 10.6194C98.5713 10.3516 98.5808 10.0718 98.53 9.79995C98.37 9.13995 97.68 8.50995 96.53 7.89995C96.3676 7.81123 96.1881 7.7582 96.0036 7.74441C95.8191 7.73061 95.6337 7.75637 95.46 7.81995C94.4836 8.39359 93.7268 9.27703 93.31 10.3299C93.2883 10.3818 93.2566 10.4289 93.2167 10.4685C93.1769 10.5082 93.1296 10.5396 93.0776 10.5609C93.0256 10.5823 92.9699 10.5932 92.9137 10.593C92.8575 10.5929 92.8018 10.5816 92.75 10.5599C92.6981 10.5383 92.651 10.5066 92.6114 10.4667C92.5717 10.4269 92.5403 10.3796 92.519 10.3276C92.4976 10.2756 92.4867 10.2199 92.4869 10.1637C92.487 10.1075 92.4983 10.0518 92.52 9.99995C92.52 9.89995 93.52 7.60995 95.15 6.99995C95.4324 6.89789 95.733 6.85586 96.0326 6.87652C96.3322 6.89718 96.6242 6.98009 96.89 7.11995C97.4468 7.3317 97.9528 7.65843 98.375 8.07885C98.7971 8.49927 99.1259 9.00394 99.3399 9.55995C99.4177 9.94629 99.4106 10.3449 99.3191 10.7282C99.2276 11.1115 99.0538 11.4704 98.81 11.7799C98.7757 11.8417 98.7268 11.8941 98.6675 11.9325C98.6082 11.9709 98.5403 11.994 98.47 11.9999Z" fill="#4D2323"/>
<path d="M113.88 155.59C113.94 148.5 115.72 142.15 117.57 135.81C119.027 130.269 121.037 124.889 123.57 119.75C124.7 117.59 125.71 115.18 128.51 114.55C129.33 114.37 129.01 113.88 128.9 113.38C128.74 112.69 128.9 112.08 129.68 111.89C130.013 111.765 130.38 111.766 130.712 111.891C131.045 112.016 131.321 112.257 131.49 112.57C132.319 114.167 132.989 115.842 133.49 117.57C135.37 123.17 136.49 129 138.06 134.68C139.18 138.68 141.2 141.98 143.24 145.4C146.86 151.47 150.41 157.56 153.55 163.89C154.14 165.09 154.84 166.23 155.48 167.4C156.12 168.57 157.06 169.78 158.8 169C159.56 168.66 159.87 169.2 160.1 169.74C161.76 173.62 164.6 176.85 166.39 180.61C170.23 188.61 168.46 194.3 161.94 200.12C161.199 200.719 160.428 201.28 159.63 201.8C158.411 202.801 156.886 203.352 155.309 203.361C153.732 203.37 152.2 202.837 150.97 201.85C145.533 198.295 140.503 194.154 135.97 189.5C132.933 186.325 130.352 182.744 128.3 178.86C128.049 178.528 127.869 178.148 127.773 177.744C127.677 177.339 127.665 176.919 127.74 176.51C128.24 175.16 127.52 174.3 126.74 173.51C124.119 170.732 121.759 167.72 119.69 164.51C119.36 164.02 119.15 163.35 118.24 163.65C116.24 164.29 115.24 163.11 114.72 161.43C114.112 159.545 113.828 157.57 113.88 155.59Z" fill="#F7D6C4"/>
<path d="M102.89 141.4C103.55 139.66 103.34 137.47 103.43 135.64C104.05 123.21 96.93 97.83 96.84 97.47C96.31 95.47 97.65 95.38 99.66 95.83C102.39 96.43 104.59 98.23 106.93 99.65C109.47 101.21 112.33 102.11 115.04 103.34C118.68 105 122.33 106.66 126.04 108.13C130.86 110.04 132.85 114.76 133.9 119.18C135.02 123.87 138.19 135.4 138.5 136.76C138.65 137.41 129.33 158.08 130.01 162.76C130.54 166.46 130.96 170.18 131.69 173.84C133.01 180.45 135.33 186.84 136.96 193.33C137.96 197.2 139.22 200.99 139.78 204.97C140.119 206.796 139.871 208.682 139.071 210.358C138.272 212.034 136.962 213.414 135.33 214.3C134.6 214.69 133.55 215.35 133.03 214.94C131.44 213.7 129.16 213.16 128.43 210.94C128.394 210.702 128.273 210.484 128.089 210.328C127.905 210.172 127.671 210.087 127.43 210.09C119.939 209.607 112.426 209.563 104.93 209.96C99.34 210.21 93.82 210.96 88.3 211.73C85.11 212.16 81.95 213.28 78.74 213.96C76.53 214.42 74.31 214.86 72.09 215.3C70.78 215.56 69.82 214.63 69.09 213.94C59.96 205.22 51.89 195.68 47.65 183.52C46.29 179.62 45.28 175.6 43.97 171.67C42.66 167.74 40.66 164.07 39.16 160.19C37.8518 156.51 36.8876 152.718 36.28 148.86C34.737 140.767 33.8342 132.565 33.58 124.33C33.35 115.91 32.99 106.91 35.58 98.78C36.53 95.78 38.58 95.2 41.4 95.41C43.7962 95.6435 46.1792 95.9973 48.54 96.47C51.28 96.96 54.14 95.99 56.8 95.41C60.26 94.64 64.03 93.41 67.59 93.41C69.32 93.35 69.76 93.18 70.09 94.25C70.91 96.95 73.39 100.49 75.09 102.6C81.72 110.73 88.09 119.08 93.97 127.78C95.53 130.1 97.0566 132.433 98.55 134.78C99.24 135.88 99.88 137 100.55 138.11C101.08 139 102 141.11 102.89 141.4Z" fill="#F7D6C4"/>
<path d="M1.79999 198.67C1.79999 197.14 2.37999 195.81 2.37999 194.28C2.83999 192.72 2.75999 190.96 3.15999 189.38C6.40439 176.526 10.8645 164.009 16.48 152C19.9951 144.434 22.2837 136.356 23.26 128.07C23.9 122.84 24.64 117.61 25.68 112.45C26.4291 109.303 27.8254 106.347 29.78 103.77C31.46 101.4 33.48 98.49 35.91 96.85C37.91 95.49 40.51 94.73 42.31 96.36C50.25 103.52 50.24 116.41 53.03 126.14C54.03 129.53 53.8 133.04 54.28 136.5C54.79 140.16 55.28 143.68 54.74 147.38C54.32 150.07 52.36 151.76 51.94 154.48C51.7 155.99 51.56 157.48 51.28 159C50.16 164.86 48.9 170.69 47.54 176.5C46.29 181.8 45.68 188.99 41.11 192.66C39.9408 193.579 38.6019 194.259 37.17 194.66C35.17 195.24 33.11 194.94 31.17 195.58C30.4109 195.892 29.6841 196.277 29 196.73C25.35 198.9 21.17 200.09 17.2 201.52C15 202.31 13.03 203.26 10.66 203.28C9.9147 203.213 9.16355 203.295 8.44999 203.52C7.51245 203.775 6.51721 203.718 5.61501 203.357C4.7128 202.997 3.95276 202.352 3.44999 201.52C2.99999 200.65 1.79999 199.73 1.79999 198.67Z" fill="#F7D6C4"/>
<path d="M64.67 107.56C64.5384 107.561 64.4079 107.536 64.2861 107.486C64.1642 107.436 64.0534 107.363 63.96 107.27C63.3 106.6 54.69 101.04 49.06 97.48C48.9678 97.4186 48.9029 97.3241 48.8786 97.216C48.8544 97.108 48.8728 96.9948 48.93 96.9C48.9912 96.8074 49.0866 96.7428 49.1952 96.7203C49.3039 96.6978 49.4171 96.7193 49.51 96.78C50.95 97.69 63.6 105.78 64.51 106.68C64.8 106.96 66.19 105.96 67.51 104.99C69.3611 103.613 71.2947 102.351 73.3 101.21C73.3486 101.184 73.4018 101.167 73.4568 101.161C73.5118 101.156 73.5673 101.161 73.6203 101.177C73.6732 101.192 73.7225 101.219 73.7654 101.253C73.8082 101.288 73.8438 101.331 73.87 101.38C73.8965 101.427 73.9134 101.479 73.9197 101.533C73.926 101.587 73.9216 101.641 73.9067 101.693C73.8918 101.745 73.8668 101.794 73.833 101.836C73.7992 101.879 73.7574 101.914 73.71 101.94C71.7293 103.062 69.8191 104.305 67.99 105.66C66.48 106.8 65.43 107.56 64.67 107.56Z" fill="#D49272"/>
<path d="M113.87 208.69C113.785 208.691 113.702 208.665 113.632 208.617C113.562 208.569 113.509 208.5 113.48 208.42C113.44 208.318 113.442 208.204 113.485 208.103C113.528 208.002 113.609 207.922 113.71 207.88C113.77 207.88 119.71 205.48 120.99 201.53C122.38 197.23 123.78 174.03 122.2 169.29C120.62 164.55 103.62 142.8 102.74 141.88C102.677 141.798 102.647 141.696 102.654 141.593C102.662 141.491 102.707 141.394 102.781 141.322C102.856 141.251 102.953 141.209 103.056 141.205C103.159 141.201 103.26 141.235 103.34 141.3C104.15 142.16 121.34 164.13 122.99 169.02C124.64 173.91 123.19 197.42 121.78 201.79C120.37 206.16 114.28 208.56 114.02 208.66C113.972 208.68 113.921 208.69 113.87 208.69Z" fill="#D49272"/>
<path d="M103 172.54C102.928 172.54 102.857 172.522 102.794 172.487C102.731 172.452 102.678 172.401 102.64 172.34C100.95 169.58 89.64 152.06 79.64 136.61L69.29 120.56L66.07 115.56C64.75 113.49 64.75 113.49 64.88 113.26L65.6 113.67L65.24 113.46L65.61 113.27C65.85 113.7 72.88 124.61 80.34 136.17C90.34 151.63 101.61 169.17 103.34 171.92C103.397 172.013 103.415 172.125 103.39 172.231C103.366 172.338 103.301 172.431 103.21 172.49C103.145 172.523 103.073 172.54 103 172.54Z" fill="#D49272"/>
<path d="M118.6 108.53C115.74 108.53 110.6 108.02 108.71 106.78C106.747 105.626 104.652 104.713 102.47 104.06C102.361 104.06 102.257 104.017 102.18 103.94C102.103 103.863 102.06 103.759 102.06 103.65C102.06 103.541 102.103 103.437 102.18 103.36C102.257 103.283 102.361 103.24 102.47 103.24C104.81 103.88 107.051 104.839 109.13 106.09C111.19 107.46 118.13 107.86 119.87 107.65C118.456 106.357 116.907 105.221 115.25 104.26C115.158 104.199 115.093 104.104 115.069 103.996C115.044 103.888 115.063 103.775 115.12 103.68C115.18 103.589 115.272 103.524 115.379 103.5C115.485 103.475 115.597 103.493 115.69 103.55C119.19 105.73 120.91 107.19 120.81 107.9C120.795 108.022 120.741 108.137 120.657 108.227C120.572 108.317 120.461 108.377 120.34 108.4C119.766 108.503 119.183 108.547 118.6 108.53Z" fill="#D49272"/>
<path d="M59.17 163.36C59.0709 163.361 58.9748 163.326 58.8994 163.262C58.824 163.197 58.7745 163.108 58.76 163.01C53.47 125.54 44.17 104.72 41.44 99.2399L41.27 98.8799C41.2375 98.7751 41.2463 98.6618 41.2947 98.5633C41.343 98.4647 41.4272 98.3884 41.53 98.35C41.6321 98.3147 41.744 98.3212 41.8414 98.368C41.9388 98.4148 42.0138 98.4982 42.05 98.6L42.18 98.87C44.92 104.38 54.27 125.3 59.58 162.87C59.59 162.924 59.5886 162.98 59.5761 163.033C59.5637 163.087 59.5403 163.137 59.5074 163.181C59.4746 163.225 59.433 163.262 59.3853 163.289C59.3375 163.317 59.2847 163.334 59.23 163.34L59.17 163.36Z" fill="#D49272"/>
<path d="M46.52 179.69C46.4269 179.69 46.3366 179.658 46.2639 179.6C46.1912 179.542 46.1404 179.461 46.12 179.37C46.12 179.21 46.12 179.19 46.8 175.94C48.38 168.82 52.59 149.89 52.38 140.84C52.3707 140.78 52.3744 140.719 52.391 140.661C52.4076 140.602 52.4366 140.548 52.476 140.502C52.5154 140.456 52.5643 140.419 52.6194 140.394C52.6745 140.368 52.7344 140.355 52.795 140.355C52.8556 140.355 52.9155 140.368 52.9706 140.394C53.0257 140.419 53.0746 140.456 53.114 140.502C53.1534 140.548 53.1824 140.602 53.199 140.661C53.2156 140.719 53.2193 140.78 53.21 140.84C53.42 149.99 49.35 168.32 47.61 176.14C47.25 177.76 46.96 179.05 46.94 179.28C46.9405 179.374 46.9091 179.466 46.8511 179.54C46.793 179.615 46.7116 179.668 46.62 179.69H46.52Z" fill="#D49272"/>
<path d="M47.43 153.38C47.3752 153.377 47.3215 153.364 47.2721 153.34C47.2226 153.317 47.1784 153.283 47.142 153.242C47.1057 153.201 47.0779 153.153 47.0604 153.102C47.0429 153.05 47.0359 152.995 47.04 152.94C47.23 149.56 46.14 118.7 46.12 118.39C46.1173 118.335 46.1256 118.281 46.1444 118.229C46.1632 118.178 46.192 118.131 46.2293 118.091C46.2666 118.051 46.3115 118.018 46.3614 117.996C46.4114 117.973 46.4653 117.961 46.52 117.96C46.575 117.956 46.6303 117.963 46.6823 117.981C46.7343 118 46.7821 118.028 46.8224 118.066C46.8628 118.104 46.895 118.149 46.917 118.2C46.9389 118.25 46.9502 118.305 46.95 118.36C46.95 119.63 48.07 149.57 47.87 152.99C47.8623 153.1 47.8119 153.202 47.7296 153.275C47.6474 153.348 47.5398 153.385 47.43 153.38Z" fill="#D49272"/>
<path d="M34.79 193C34.6786 193 34.5717 192.956 34.493 192.877C34.4142 192.798 34.37 192.691 34.37 192.58C34.64 168.84 29.51 158.28 29.46 158.17C29.4107 158.072 29.4019 157.958 29.4356 157.853C29.4692 157.748 29.5426 157.661 29.64 157.61C29.7395 157.561 29.8542 157.554 29.9591 157.59C30.0639 157.625 30.1505 157.701 30.2 157.8C30.25 157.91 35.47 168.62 35.2 192.59C35.2 192.699 35.1568 192.803 35.0799 192.88C35.003 192.957 34.8987 193 34.79 193Z" fill="#D49272"/>
<path d="M128.86 146.79H128.79C128.682 146.77 128.585 146.709 128.522 146.619C128.458 146.53 128.433 146.419 128.45 146.31C129.941 136.395 130.096 126.326 128.91 116.37C128.91 116 128.91 115.9 128.91 115.84C128.91 115.731 128.953 115.627 129.03 115.55C129.107 115.473 129.211 115.43 129.32 115.43C129.428 115.43 129.532 115.471 129.61 115.546C129.688 115.62 129.735 115.722 129.74 115.83C129.74 115.89 129.74 116.04 129.79 116.28C130.977 126.313 130.819 136.459 129.32 146.45C129.303 146.555 129.245 146.65 129.159 146.713C129.073 146.777 128.966 146.804 128.86 146.79Z" fill="#D49272"/>
<path d="M135.91 189.88C135.818 189.881 135.729 189.85 135.656 189.794C135.584 189.738 135.532 189.659 135.51 189.57L131.07 172.67C131.065 172.637 131.065 172.603 131.07 172.57C130.74 154.29 128.51 146.49 128.49 146.41C128.459 146.304 128.471 146.19 128.523 146.092C128.576 145.995 128.664 145.922 128.77 145.89C128.876 145.861 128.989 145.875 129.086 145.927C129.182 145.979 129.255 146.066 129.29 146.17C129.29 146.25 131.57 154.17 131.9 172.51L136.33 189.36C136.343 189.413 136.346 189.467 136.339 189.521C136.331 189.575 136.312 189.626 136.284 189.673C136.256 189.719 136.22 189.76 136.176 189.792C136.132 189.824 136.083 189.847 136.03 189.86L135.91 189.88Z" fill="#D49272"/>
<path d="M131.47 149C131.391 149.002 131.313 148.982 131.246 148.942C131.178 148.901 131.124 148.842 131.089 148.771C131.054 148.701 131.04 148.621 131.05 148.543C131.059 148.465 131.09 148.391 131.14 148.33C133.72 144.99 134.65 137.96 134.58 136.91C134.525 136.819 134.507 136.71 134.53 136.606C134.552 136.502 134.613 136.411 134.7 136.35C134.786 136.293 134.889 136.268 134.991 136.279C135.093 136.29 135.188 136.336 135.26 136.41C135.87 137.04 134.42 145.41 131.8 148.84C131.761 148.89 131.711 148.93 131.653 148.958C131.596 148.986 131.533 149 131.47 149Z" fill="#D49272"/>
<path d="M43.49 238.45C46.4971 236.06 49.1061 233.207 51.22 230C54.7182 225.162 57.8918 220.098 60.72 214.84C61.0169 214.208 61.427 213.635 61.93 213.15C62.0715 212.975 62.2464 212.829 62.4447 212.722C62.6429 212.615 62.8605 212.548 63.0847 212.526C63.309 212.503 63.5355 212.526 63.7509 212.592C63.9664 212.658 64.1667 212.766 64.34 212.91C64.5496 213.028 64.7325 213.188 64.8772 213.38C65.0219 213.572 65.1252 213.792 65.1806 214.026C65.2361 214.26 65.2424 214.503 65.1993 214.739C65.1561 214.976 65.0644 215.201 64.93 215.4C62.24 219.85 59.93 224.54 56.82 228.74C54.55 231.79 52.32 234.87 50.05 237.93C49.639 238.489 49.1914 239.02 48.71 239.52C46.44 241.81 47.43 240.97 41.46 240.52C41.46 240.21 43.49 238.7 43.49 238.45Z" fill="#F7D6C4"/>
<path d="M171.83 137.56C172.21 138.65 171.83 135.69 171.31 137.32C170.564 139.343 169.391 141.181 167.87 142.71C167.63 142.977 167.3 143.148 166.943 143.191C166.586 143.233 166.226 143.144 165.93 142.94C165.07 142.37 162.13 142.36 162.27 141.28C163.38 139.66 166.27 135.74 169.46 136.57C170.08 136.73 170.46 137.83 170.46 136.92C170.83 136.92 171.45 137.56 171.83 137.56Z" fill="#FFE1C9"/>
<path d="M182.17 175.05C179.84 176.77 177.38 176.27 176.27 173.8C174.49 169.87 172.4 166.07 171.2 161.89C171.1 161.52 170.83 161.05 170.96 160.8C171.86 159.06 172.41 156.95 173.53 155.58C176.01 152.53 176.63 151.19 175.18 147.58C174.937 147.137 174.797 146.645 174.77 146.14C174.83 145.38 175.11 144.55 176.02 144.44C176.501 144.365 176.993 144.468 177.403 144.729C177.814 144.99 178.115 145.393 178.25 145.86C179.25 148.61 180.25 151.35 181.04 154.16C182.92 161.01 184.65 167.9 186.04 174.87C186.55 177.41 185.3 179.66 183.86 182.24C183.54 182.82 182.96 180.53 182.36 180.16C181.76 179.79 181.89 178.99 182.07 178.42C182.437 177.332 182.472 176.158 182.17 175.05Z" fill="#FFE1C9"/>
<path d="M152.93 195.61C151.517 194.712 150.275 193.571 149.26 192.24C146.26 188.03 146.09 183.94 148.97 179.51C151.877 175.234 154.464 170.748 156.71 166.09C159.16 160.74 161.61 155.36 163.84 149.9C166.878 142.703 169.222 135.233 170.84 127.59C171.84 122.46 172.51 117.27 173.09 112.09C173.39 109.32 175.09 107.47 176.65 105.55C179.549 102.248 182.222 98.753 184.65 95.0899C185.1 94.3499 185.65 93.39 186.74 93.69C187.83 93.99 187.74 95.08 187.74 95.99C187.716 97.986 187.111 99.9318 186 101.59C185 103.11 184.11 104.67 183.2 106.23C183.033 106.448 182.942 106.715 182.942 106.99C182.942 107.265 183.033 107.532 183.2 107.75C183.73 108.32 184.2 107.75 184.6 107.46C186.585 106.166 188.135 104.306 189.05 102.12C191.28 97.43 194.27 93.19 197.05 88.8099C197.444 88.1309 197.984 87.5481 198.63 87.1036C199.277 86.659 200.015 86.364 200.79 86.24C202.006 86.0798 203.174 85.6567 204.21 85C204.38 84.8438 204.581 84.7246 204.8 84.6501C205.019 84.5756 205.251 84.5473 205.481 84.5671C205.711 84.5868 205.935 84.6541 206.138 84.7648C206.341 84.8755 206.519 85.027 206.66 85.21C207.36 86.21 206.75 86.94 206.29 87.65C205.767 88.6801 205.19 89.6815 204.56 90.65C200.35 95.91 197.78 101.97 195.93 108.37C195.41 110.15 194.04 111.3 192.93 112.63C189.326 116.977 186.22 121.713 183.67 126.75C182.86 128.37 177.41 149.11 174.82 157.57C172.87 163.95 171.32 170.45 168.82 176.65C167.413 180.11 165.95 183.543 164.43 186.95C163.779 188.426 162.633 189.629 161.19 190.35C159.425 191.301 157.923 192.676 156.82 194.35C156.12 195.44 154.75 194.74 154 195.57L152.93 195.61Z" fill="#EE916C"/>
<path d="M178.48 119C178.424 119.009 178.366 119.009 178.31 119C178.21 118.954 178.132 118.871 178.093 118.768C178.053 118.665 178.056 118.551 178.1 118.45C179.176 116.198 180.812 114.26 182.85 112.82C183.705 112.259 184.593 111.752 185.51 111.3C188.2 109.9 190.99 108.45 192.15 104.78C192.559 103.413 192.873 102.02 193.09 100.61C193.67 97.26 194.23 94.09 198.09 92.02C198.783 91.6711 199.579 91.5858 200.33 91.78C200.457 91.8489 200.567 91.9445 200.653 92.0602C200.74 92.1759 200.8 92.3088 200.83 92.45C200.862 93.0585 200.716 93.6632 200.41 94.19C199.332 96.7531 198.576 99.4404 198.16 102.19C198.152 102.244 198.132 102.296 198.103 102.343C198.075 102.389 198.037 102.43 197.992 102.461C197.947 102.493 197.896 102.516 197.843 102.527C197.789 102.539 197.734 102.54 197.68 102.53C197.572 102.51 197.475 102.449 197.412 102.359C197.348 102.27 197.323 102.159 197.34 102.05C197.773 99.2403 198.545 96.4935 199.64 93.87C199.854 93.4851 199.984 93.0589 200.02 92.62C200.017 92.5991 200.009 92.5792 199.996 92.5619C199.984 92.5446 199.968 92.5303 199.95 92.52C199.436 92.4481 198.913 92.5354 198.45 92.77C194.98 94.63 194.51 97.33 193.91 100.77C193.679 102.219 193.345 103.649 192.91 105.05C191.64 109.05 188.58 110.63 185.91 112.05C185.02 112.492 184.156 112.983 183.32 113.52C181.416 114.881 179.885 116.701 178.87 118.81C178.828 118.873 178.769 118.924 178.701 118.958C178.632 118.991 178.556 119.006 178.48 119Z" fill="#A33F32"/>
<path d="M134.48 177.38C134.429 176.61 134.549 175.839 134.83 175.12C136.402 172.014 138.718 169.345 141.57 167.35C144.32 165.48 148.91 163.19 152.3 164.03C152.55 164.09 152.48 162.68 153.22 163.36C153.96 164.04 155.66 161.36 156.22 160.52C156.78 159.68 155.53 159.2 155.42 158.42C155.337 157.534 155.475 156.641 155.82 155.82C157.5 151.19 160 146.82 161.82 142.22C162.66 140.11 164.89 138.68 166.5 137.22C166.705 136.983 166.989 136.83 167.3 136.79C168.3 136.79 166.67 140.79 166.56 141.52C166.301 143.353 166.359 145.217 166.73 147.03C167.43 150.62 169.04 153.94 170.41 157.3C173.364 164.499 177.832 170.979 183.51 176.3C185.78 178.45 185.78 179.15 184.1 181.91C182.153 185.115 179.988 188.182 177.62 191.09C176.94 191.92 176.27 192.45 175.2 191.79C174.13 191.13 173.2 191.7 172.31 192.44C169.82 194.59 167.38 196.79 164.79 198.8C162.697 200.452 160.368 201.78 157.88 202.74C156.3 203.25 154.97 203.74 153.38 202.8C152.734 202.374 152.163 201.843 151.69 201.23C148.36 197.34 145.32 193.23 142.19 189.14C140.6 187.08 138.98 185.04 137.29 183.06C135.84 181.42 134.34 179.7 134.48 177.38Z" fill="#F7D6C4"/>
<path d="M135.34 177.26C135.285 177.26 135.231 177.249 135.181 177.228C135.13 177.207 135.085 177.176 135.046 177.136C135.008 177.097 134.978 177.051 134.958 177C134.938 176.949 134.929 176.895 134.93 176.84C136.879 173.204 139.471 169.952 142.58 167.24C146.27 164.06 149.89 162.72 153.34 163.24C153.449 163.26 153.546 163.32 153.611 163.41C153.676 163.499 153.705 163.61 153.69 163.72C153.681 163.773 153.663 163.824 153.634 163.87C153.606 163.916 153.569 163.956 153.525 163.987C153.482 164.019 153.432 164.042 153.38 164.054C153.327 164.067 153.273 164.069 153.22 164.06C143.91 162.65 135.96 176.53 135.74 176.97C135.712 177.054 135.659 177.128 135.587 177.18C135.515 177.232 135.429 177.26 135.34 177.26Z" fill="#D49272"/>
<path d="M146.27 181.56H146.21C146.156 181.554 146.104 181.537 146.057 181.51C146.01 181.484 145.969 181.448 145.937 181.405C145.904 181.362 145.88 181.313 145.867 181.26C145.854 181.208 145.852 181.153 145.86 181.1C146.77 174.52 151.13 166.03 151.32 165.67C151.37 165.573 151.457 165.5 151.561 165.468C151.665 165.435 151.778 165.445 151.875 165.495C151.972 165.545 152.045 165.632 152.077 165.736C152.11 165.84 152.1 165.953 152.05 166.05C152.05 166.14 147.57 174.78 146.68 181.21C146.664 181.307 146.613 181.395 146.539 181.459C146.464 181.523 146.369 181.559 146.27 181.56Z" fill="#D49272"/>
<path d="M173.72 189.94C173.618 189.937 173.52 189.902 173.44 189.84C164.515 181.992 158.366 171.469 155.91 159.84C155.902 159.786 155.905 159.731 155.918 159.678C155.932 159.626 155.955 159.576 155.988 159.532C156.02 159.489 156.061 159.452 156.108 159.424C156.154 159.396 156.206 159.378 156.26 159.37C156.314 159.362 156.369 159.365 156.421 159.378C156.474 159.392 156.524 159.415 156.567 159.448C156.611 159.48 156.648 159.521 156.676 159.568C156.704 159.614 156.722 159.666 156.73 159.72C159.163 171.153 165.219 181.495 174 189.21C174.038 189.248 174.068 189.293 174.089 189.343C174.11 189.393 174.12 189.446 174.12 189.5C174.12 189.554 174.11 189.607 174.089 189.657C174.068 189.707 174.038 189.752 174 189.79C173.966 189.833 173.924 189.868 173.876 189.894C173.827 189.92 173.774 189.935 173.72 189.94Z" fill="#D49272"/>
<path d="M183.68 177.59C183.309 177.565 182.957 177.417 182.68 177.17C180.09 175.17 173.84 164.65 173.57 164.17C173.541 164.123 173.523 164.071 173.515 164.016C173.507 163.962 173.51 163.906 173.524 163.853C173.538 163.8 173.563 163.75 173.596 163.707C173.63 163.663 173.672 163.627 173.72 163.6C173.766 163.572 173.818 163.553 173.871 163.545C173.925 163.538 173.98 163.541 174.032 163.555C174.085 163.569 174.133 163.593 174.176 163.627C174.219 163.661 174.254 163.702 174.28 163.75C174.35 163.85 180.72 174.56 183.19 176.49C183.52 176.74 183.66 176.73 183.66 176.73C184.01 176.45 183.66 173.87 183.01 171.33C182.982 171.223 182.996 171.109 183.05 171.012C183.104 170.915 183.194 170.843 183.3 170.81C183.406 170.782 183.519 170.797 183.614 170.851C183.709 170.905 183.78 170.995 183.81 171.1C184.26 172.76 185.21 176.69 184.11 177.43C183.985 177.524 183.836 177.579 183.68 177.59Z" fill="#D49272"/>
<path d="M59.17 52.93V47.57C60.11 45.91 60.1 44.02 60.25 42.23C61.32 29.75 74.81 22.87 83.58 24.23C87.58 24.83 91.47 25.43 94.58 28.09C101.35 33.86 104.58 41.38 105.04 50.21C105.49 59.35 102.66 67.69 98.63 75.67C96 81 85.62 92 74.76 84.22C74.39 83.96 73.7 83.22 72.87 82.49C72.0727 81.8747 71.3177 81.2065 70.61 80.49C67.0765 75.7396 64.2099 70.5279 62.09 65C60.7334 61.7287 59.978 58.2395 59.86 54.7C59.84 54.05 60.15 53.22 59.17 52.93Z" fill="#EE916C"/>
<path d="M88.27 194.57C88.3138 195.532 88.0003 196.476 87.39 197.22C85.9543 199.238 84.2973 201.09 82.45 202.74C81.45 203.63 80.18 204.16 78.98 203.28C77.78 202.4 78.24 201.11 78.78 200C80.4051 197.002 82.3643 194.197 84.62 191.64C85.0669 191.273 85.6039 191.032 86.1755 190.942C86.747 190.852 87.3321 190.917 87.87 191.13C88.91 191.59 88.36 193.53 88.27 194.57Z" fill="#EE916C"/>
<path d="M123.3 239.16C121.64 239.87 116.81 239.86 114.74 239.71C109.56 239.34 84.0499 237.62 76.5299 236.35C73.6999 235.87 72.9499 234.92 73.5899 232.08C74.3699 228.67 75.44 225.34 76.51 222.01C79.59 212.41 82.68 202.81 85.65 193.17C88.41 184.17 90.6 175.05 94 166.28C95.62 162.1 97.0999 161.16 101.42 162C112.18 164.1 123.1 165.09 133.87 167.1C138.56 167.97 141.18 167.89 145.74 169.39C147.65 170.02 148.11 171.5 147.39 173.31C145.93 176.97 145.31 180.83 143.79 184.47C139.92 193.72 137.95 202.88 134.38 212.25C131.84 218.94 129.66 225.94 126.65 232.43C125.24 235.48 126 238 123.3 239.16Z" fill="#5D515E"/>
<path d="M103.67 214.21C107.1 212.21 111.74 212.08 110.05 214C107.809 215.539 105.471 216.932 103.05 218.17C101.95 218.69 100.68 218.78 97.19 218.93C92.74 219.13 89.19 219.48 84.75 219.93C79.1633 220.497 73.58 221.107 68 221.76C66.73 221.91 65.47 222.15 64.21 222.41C62.9549 222.635 61.6716 222.655 60.41 222.47C57.07 222.05 53.71 221.88 50.35 221.6C49.87 221.6 49.24 221.79 48.99 221.2C48.74 220.61 49.46 220.6 49.72 220.31C49.9172 220.064 50.0572 219.777 50.13 219.47C50.9984 216.666 52.4579 214.082 54.41 211.89C55.96 209.99 58.1 209.47 60.25 209.09C61.5076 208.965 62.7386 208.648 63.9 208.15C67.0222 206.559 69.9067 204.539 72.47 202.15C75.12 199.61 77.47 196.75 80.36 194.47C81.8965 193.173 83.5737 192.053 85.36 191.13C85.59 191.02 86.17 190.77 85.99 191.27C85.8118 192.206 85.5197 193.116 85.12 193.98C84.35 195.14 84.12 198.66 84.4 199.71C84.64 200.54 87.61 200.97 90.25 200.71C94.46 200.3 92.25 200.71 96.36 199.71C99.16 199 102.7 198.08 105.53 197.34C107.4 196.84 112.21 195.77 112.66 197.94C112.76 198.44 111.15 198.77 110.22 199.1C106.99 200.25 105.12 201.72 100.49 202.84C99.49 203.1 96.81 203.84 95.13 204.24C95.0769 204.24 95.0261 204.261 94.9886 204.299C94.9511 204.336 94.93 204.387 94.93 204.44C94.93 204.493 94.9511 204.544 94.9886 204.581C95.0261 204.619 95.0769 204.64 95.13 204.64C99.74 204.64 111.87 202.25 115.59 202.43C120.44 202.65 120 205.09 118.86 205.51C118.86 205.51 117.72 205.78 116.49 206.14C116.21 206.22 116.6 207.34 116.1 207.71C115.6 208.08 109.36 210.45 107.2 211.18C105.51 211.75 95.09 212.46 95.13 213.33C95.19 213.8 101 215.78 103.67 214.21Z" fill="#EE916C"/>
<path d="M88.71 205.79C88.6036 205.79 88.5011 205.75 88.4231 205.678C88.3451 205.605 88.2976 205.506 88.29 205.4C88.2845 205.29 88.3222 205.183 88.3951 205.1C88.468 205.018 88.5703 204.968 88.68 204.96C90.68 204.82 92.92 204.64 93.17 204.57C93.2759 204.545 93.3874 204.561 93.4821 204.614C93.5768 204.668 93.6475 204.756 93.68 204.86C93.7091 204.962 93.6986 205.071 93.6503 205.166C93.6021 205.261 93.5198 205.334 93.42 205.37C93.11 205.47 90.35 205.67 88.73 205.79H88.71Z" fill="#A33F32"/>
<path d="M90 211C89.8991 210.996 89.8027 210.957 89.7277 210.89C89.6527 210.822 89.604 210.73 89.59 210.63C89.5785 210.522 89.6097 210.413 89.6769 210.327C89.7441 210.241 89.842 210.185 89.95 210.17C90.65 210.09 94.13 209.66 94.47 209.66C94.5246 209.659 94.579 209.668 94.6299 209.688C94.6808 209.708 94.7272 209.738 94.7664 209.776C94.8055 209.815 94.8366 209.86 94.8578 209.911C94.879 209.961 94.89 210.015 94.89 210.07C94.89 210.181 94.8457 210.288 94.7669 210.367C94.6882 210.446 94.5813 210.49 94.47 210.49C94.23 210.49 91.63 210.8 90.06 211H90Z" fill="#A33F32"/>
<path d="M92.61 215.08C91.84 215.08 90.93 215.08 90.61 215.08C90.5012 215.072 90.3994 215.024 90.3251 214.944C90.2509 214.864 90.2097 214.759 90.21 214.65C90.2112 214.595 90.2234 214.541 90.2459 214.491C90.2683 214.441 90.3005 214.397 90.3406 214.359C90.3807 214.322 90.4278 214.293 90.4792 214.274C90.5306 214.256 90.5853 214.247 90.64 214.25C91.58 214.25 93.18 214.31 93.48 214.25C93.5871 214.232 93.697 214.257 93.7865 214.318C93.876 214.38 93.9381 214.474 93.96 214.58C93.97 214.634 93.9691 214.689 93.9573 214.743C93.9455 214.796 93.9231 214.847 93.8914 214.892C93.8597 214.937 93.8194 214.975 93.7727 215.003C93.7261 215.032 93.6742 215.052 93.62 215.06C93.2843 215.092 92.9466 215.099 92.61 215.08Z" fill="#A33F32"/>
<path d="M0.999974 202.75C1.66059 195.049 3.24187 187.455 5.70997 180.13C7.50997 174.91 11.35 176.62 16.85 178.92C18.5982 179.676 20.4039 180.291 22.25 180.76C25.65 181.61 27.9 184.31 30.85 185.86C31.42 186.16 31.55 186.86 31.65 187.51C31.8452 189.088 32.4218 190.595 33.33 191.9C34.4197 193.189 35.7873 194.215 37.33 194.9C39.73 196.18 42.24 197.25 44.62 198.58C47 199.91 49.43 201.35 51.87 202.7C53.6188 203.714 55.5418 204.392 57.54 204.7C58.5634 204.847 59.6004 204.873 60.63 204.78C61.5713 204.568 62.5354 204.474 63.5 204.5C65.42 204.84 65.34 206.39 64.76 207.83C61.28 216.35 55.9 223.83 51.7 231.98C50.76 233.78 49.98 235.67 49.1 237.5C47.1 241.66 45.33 241.16 41.9 240.57C37.74 239.87 33.75 238.21 29.53 237.57C28.48 237.42 28.89 235.39 28.95 234.26C29 233.38 27.77 232.47 27.2 231.97C26.0488 231.02 24.8506 230.129 23.61 229.3C18.43 225.62 13.75 221.42 8.95997 217.3C7.5957 216.107 6.30971 214.828 5.10997 213.47C3.90277 212.172 2.79938 210.781 1.80997 209.31C1.25183 208.229 0.973354 207.026 0.999974 205.81C0.999974 204.8 0.999974 203.77 0.999974 202.75Z" fill="#F7D6C4"/>
<path d="M36.77 195C36.7143 195.015 36.6557 195.015 36.6 195C36.5 195 26.2 190.33 16.27 191.54C16.2161 191.547 16.1613 191.543 16.1089 191.529C16.0565 191.514 16.0075 191.49 15.9647 191.456C15.9219 191.423 15.8861 191.381 15.8596 191.334C15.833 191.286 15.8162 191.234 15.81 191.18C15.8016 191.126 15.8043 191.071 15.8181 191.018C15.8319 190.965 15.8565 190.915 15.8902 190.872C15.924 190.829 15.9662 190.793 16.0144 190.767C16.0625 190.741 16.1155 190.725 16.17 190.72C26.34 189.47 36.84 194.2 36.94 194.25C37.0297 194.286 37.1037 194.353 37.149 194.438C37.1944 194.523 37.2081 194.622 37.1877 194.717C37.1674 194.811 37.1143 194.895 37.0379 194.955C36.9615 195.014 36.8666 195.044 36.77 195.04V195Z" fill="#D49272"/>
<path d="M29.83 233C29.754 233.001 29.6791 232.981 29.6138 232.942C29.5485 232.904 29.4952 232.847 29.46 232.78C29.34 232.54 29.34 232.54 30.94 229.78C31.58 228.66 32.94 226.38 34.52 223.66C37.04 219.43 40.52 213.82 42.52 211.18C45.0982 207.968 48.2946 205.305 51.92 203.35C52.0221 203.306 52.1373 203.305 52.2404 203.346C52.3434 203.388 52.426 203.468 52.47 203.57C52.511 203.67 52.5121 203.781 52.473 203.882C52.4339 203.982 52.3576 204.064 52.26 204.11C48.7594 206.012 45.6727 208.592 43.18 211.7C39.33 216.61 30.54 232.03 30.18 232.76C30.1389 232.856 30.069 232.936 29.98 232.99C29.931 233.002 29.8802 233.005 29.83 233Z" fill="#D49272"/>
<path d="M22.91 210.09C20.6121 210.156 18.3125 210.052 16.03 209.78C15.9344 209.727 15.8627 209.64 15.8292 209.536C15.7958 209.432 15.8032 209.319 15.85 209.22C15.895 209.132 15.97 209.062 16.0615 209.023C16.153 208.985 16.2552 208.98 16.35 209.01C24.2155 209.546 32.1165 209.184 39.9 207.93C39.9567 207.912 40.0167 207.907 40.0758 207.914C40.1349 207.921 40.1918 207.94 40.2428 207.971C40.2937 208.002 40.3376 208.043 40.3714 208.092C40.4052 208.141 40.4283 208.197 40.439 208.255C40.4497 208.314 40.4478 208.374 40.4335 208.432C40.4192 208.489 40.3928 208.543 40.356 208.59C40.3192 208.637 40.2729 208.675 40.2202 208.703C40.1674 208.731 40.1094 208.747 40.0499 208.75C34.3842 209.676 28.6507 210.124 22.91 210.09Z" fill="#D49272"/>
<path d="M64.94 207.76H64.84C64.7873 207.747 64.7377 207.724 64.694 207.692C64.6504 207.66 64.6135 207.619 64.5856 207.573C64.5577 207.526 64.5393 207.475 64.5315 207.421C64.5236 207.367 64.5265 207.313 64.54 207.26C64.6805 206.593 64.6284 205.899 64.39 205.26C64 204.41 61.86 204.81 60.88 205.13C60.8288 205.147 60.7747 205.154 60.7208 205.15C60.6669 205.147 60.6143 205.132 60.5659 205.108C60.5176 205.084 60.4745 205.05 60.4392 205.01C60.4039 204.969 60.3769 204.921 60.36 204.87C60.3413 204.819 60.3333 204.764 60.3364 204.71C60.3395 204.656 60.3536 204.603 60.378 204.554C60.4023 204.505 60.4363 204.462 60.478 204.427C60.5196 204.392 60.5679 204.366 60.62 204.35C61 204.22 64.35 203.16 65.14 204.91C65.4642 205.716 65.534 206.603 65.34 207.45C65.3176 207.539 65.266 207.618 65.1935 207.674C65.121 207.73 65.0317 207.761 64.94 207.76Z" fill="#D49272"/>
<path d="M29.83 190C29.7398 190.004 29.6512 189.975 29.58 189.92C29.4646 189.811 29.3697 189.682 29.3 189.54C26.11 184.1 20.61 180.83 16.56 179.04C16.4606 178.996 16.3826 178.915 16.3432 178.813C16.3039 178.712 16.3063 178.599 16.35 178.5C16.3707 178.45 16.4012 178.404 16.4397 178.366C16.4781 178.328 16.5238 178.298 16.574 178.277C16.6243 178.257 16.678 178.246 16.7323 178.247C16.7865 178.247 16.8401 178.259 16.89 178.28C21.06 180.12 26.71 183.49 30.02 189.12L30.13 189.31C30.1846 189.368 30.2209 189.441 30.2345 189.52C30.2481 189.599 30.2384 189.68 30.2065 189.753C30.1746 189.827 30.122 189.889 30.0551 189.933C29.9882 189.977 29.9099 190 29.83 190Z" fill="#D49272"/>
<path d="M87.24 45.6999C88.9303 45.6893 90.6014 46.0584 92.13 46.7799C92.69 47.1099 93.31 47.4999 93.13 48.2499C92.86 49.1699 92.13 48.7799 91.53 48.6499C89.4573 48.2251 87.3074 48.3843 85.32 49.1099C84.9634 49.2487 84.5953 49.3558 84.22 49.4299C83.8097 49.532 83.3767 49.488 82.9953 49.3055C82.6139 49.123 82.308 48.8134 82.13 48.4299C81.74 47.5599 82.5 46.9899 83.13 46.5899C84.3987 45.9393 85.8158 45.6324 87.24 45.6999Z" fill="#7A444A"/>
<path d="M62.33 53.4599C62.51 52.3899 65.07 49.4599 67.63 48.8099C70.19 48.1599 70.1 48.1699 71.25 48.6799C71.559 48.7991 71.8098 49.0335 71.9496 49.3337C72.0895 49.6339 72.1075 49.9767 72 50.2899C71.8946 50.5597 71.7082 50.7902 71.4664 50.9496C71.2247 51.1089 70.9394 51.1894 70.65 51.1799C67.84 51.4999 65.07 51.8299 62.33 53.4599Z" fill="#7A444A"/>
<path d="M55.61 68.19C53.26 66.71 52.25 63.79 50.46 61.67C46.25 56.67 46.16 46.28 50.08 42.04C50.79 41.2173 51.2665 40.2193 51.46 39.15C53.0539 31.8544 57.3386 25.4273 63.46 21.15C68.6449 17.5748 74.5382 15.1567 80.74 14.06C84.3436 13.5932 88.0041 13.8447 91.51 14.8C93.64 15.4 93.77 16.61 95.86 17.39C96.5 17.63 97.06 18.03 97.8 17.49C98.54 16.95 99.12 17.49 99.71 17.9C102 19.34 103.53 21.51 105.06 23.66C106.581 25.7792 107.919 28.0239 109.06 30.37C110.793 34.1122 112.893 37.673 115.33 41C116.452 42.4381 117.193 44.1358 117.484 45.936C117.776 47.7363 117.61 49.5811 117 51.3C115.29 56.84 112.3 61.3 107 63.94C105.444 64.6797 103.709 64.9573 102 64.74C101.57 64.74 101 64.74 100.92 64.16C100.84 63.58 101.47 63.5 101.86 63.5C103.86 63.5 104.04 62.5 104.16 60.69C104.31 58.37 103.67 56.2 103.63 53.95C103.604 53.6325 103.466 53.3347 103.24 53.11C99.18 49.11 96.81 43.81 93.38 39.31C91.7933 37.2433 90.18 35.1966 88.54 33.17C87.66 32.1 86.45 31.72 85.36 32.73C78 39.53 70.62 46.26 64.55 54.25C62.13 57.43 61.06 61.18 62.46 65.25C63.26 67.54 59.25 66.51 58.35 66C57.7973 65.5689 57.1602 65.2589 56.48 65.09C56.428 65.0843 56.3754 65.0927 56.3278 65.1145C56.2802 65.1362 56.2394 65.1704 56.2097 65.2135C56.18 65.2565 56.1624 65.3068 56.159 65.359C56.1555 65.4112 56.1662 65.4634 56.19 65.51C56.6213 66.1433 57.1137 66.7327 57.66 67.27C58.2849 67.9941 59.0609 68.5726 59.9333 68.9648C60.8058 69.357 61.7535 69.5533 62.71 69.54C63.01 69.54 63.71 69.32 64.03 69.48C65 70 62 72.25 55.61 68.19ZM56.36 31.19C56.95 30.61 55.68 31.32 55.43 31.79C55.07 32.46 54.82 33.18 54.51 33.87C54.2 34.56 53.59 35.09 53.44 35.73C53.29 36.37 55.45 32.06 56.36 31.16V31.19ZM52.06 42.64C50.83 43.77 48.92 45.89 49.45 47.78C49.55 48.11 52.66 42.06 52.06 42.61V42.64Z" fill="#7A444A"/>
<path d="M60.61 65.24C60.5474 65.2535 60.4826 65.2535 60.42 65.24C59.7286 64.8133 59.1329 64.2484 58.67 63.5808C58.2071 62.9131 57.8871 62.157 57.73 61.36C57.03 58.19 58.47 54.24 62 49.63C62.0341 49.5866 62.0765 49.5504 62.1246 49.5234C62.1727 49.4964 62.2257 49.4792 62.2805 49.4727C62.3353 49.4662 62.3908 49.4706 62.4439 49.4855C62.497 49.5005 62.5467 49.5258 62.59 49.56C62.633 49.5932 62.669 49.6346 62.6959 49.6819C62.7227 49.7292 62.7399 49.7813 62.7464 49.8353C62.7529 49.8893 62.7486 49.944 62.7338 49.9963C62.719 50.0486 62.6939 50.0974 62.66 50.14C59.34 54.47 57.92 58.28 58.54 61.14C58.6653 61.8239 58.9319 62.4742 59.3228 63.0493C59.7137 63.6244 60.2202 64.1117 60.81 64.48C60.8993 64.5289 60.9678 64.6086 61.0028 64.7042C61.0378 64.7999 61.0368 64.905 61 65C60.9662 65.0742 60.9111 65.1367 60.8416 65.1795C60.7721 65.2222 60.6915 65.2433 60.61 65.24Z" fill="#4D2323"/>
<path d="M61.88 54.05C61.8011 54.05 61.7243 54.0256 61.66 53.98C61.5685 53.9205 61.5038 53.8277 61.4795 53.7213C61.4552 53.6149 61.4733 53.5033 61.53 53.41C64.79 48.27 78.74 32.97 83.53 29.68C83.6217 29.6183 83.734 29.5953 83.8425 29.6159C83.9511 29.6365 84.0472 29.699 84.11 29.79C84.1402 29.8346 84.1614 29.8848 84.1723 29.9376C84.1831 29.9904 84.1834 30.0448 84.1732 30.0978C84.163 30.1507 84.1424 30.2011 84.1127 30.2461C84.083 30.2911 84.0447 30.3298 84 30.36C79.21 33.62 65.41 48.76 62.18 53.86C62.1474 53.9121 62.1035 53.9562 62.0516 53.9891C61.9997 54.022 61.941 54.0428 61.88 54.05Z" fill="#4D2323"/>
<path d="M57.18 62.91C57.1267 62.9124 57.0734 62.9039 57.0235 62.885C56.9737 62.8661 56.9282 62.8371 56.89 62.8C56.1016 61.985 55.5493 60.9713 55.2922 59.867C55.0351 58.7627 55.0827 57.6093 55.43 56.53C55.4645 56.4257 55.5376 56.3386 55.6343 56.2866C55.731 56.2345 55.8439 56.2214 55.95 56.25C56.0022 56.2659 56.0506 56.292 56.0926 56.3269C56.1346 56.3618 56.1691 56.4048 56.1943 56.4532C56.2194 56.5016 56.2346 56.5546 56.239 56.609C56.2435 56.6634 56.237 56.7181 56.22 56.77C55.9203 57.703 55.8773 58.6996 56.0955 59.655C56.3137 60.6104 56.785 61.4894 57.4599 62.2C57.498 62.238 57.5283 62.2832 57.5489 62.333C57.5695 62.3828 57.5801 62.4361 57.5801 62.49C57.5801 62.5438 57.5695 62.5972 57.5489 62.6469C57.5283 62.6967 57.498 62.7419 57.4599 62.78C57.4246 62.8195 57.3815 62.8515 57.3334 62.8738C57.2852 62.8962 57.233 62.9085 57.18 62.91Z" fill="#4D2323"/>
<path d="M53.13 52.83C53.0186 52.83 52.9117 52.7857 52.833 52.707C52.7542 52.6282 52.71 52.5214 52.71 52.41C52.71 51.51 65.34 27.52 83.71 20.8C83.8135 20.7608 83.9282 20.764 84.0293 20.809C84.1304 20.8539 84.2097 20.9369 84.25 21.04C84.2835 21.145 84.2764 21.2587 84.2301 21.3587C84.1838 21.4587 84.1017 21.5376 84 21.58C66.46 28 54 50.92 53.54 52.46C53.53 52.5617 53.4824 52.6559 53.4066 52.7244C53.3308 52.7928 53.2321 52.8305 53.13 52.83Z" fill="#4D2323"/>
<path d="M62.33 37.85C62.2521 37.8505 62.1756 37.8289 62.1096 37.7876C62.0435 37.7463 61.9906 37.687 61.957 37.6167C61.9234 37.5464 61.9106 37.468 61.92 37.3906C61.9294 37.3133 61.9606 37.2402 62.01 37.18C62.01 37.18 62.09 37.07 62.17 36.94C66 31.22 75.74 17.79 85.1 16.46C86.4574 16.251 87.8443 16.3444 89.1615 16.7333C90.4787 17.1222 91.6938 17.7972 92.72 18.71C92.7596 18.7482 92.7911 18.794 92.8126 18.8447C92.8342 18.8954 92.8453 18.9499 92.8453 19.005C92.8453 19.06 92.8342 19.1145 92.8126 19.1652C92.7911 19.2159 92.7596 19.2617 92.72 19.3C92.6414 19.3775 92.5354 19.421 92.425 19.421C92.3146 19.421 92.2086 19.3775 92.13 19.3C91.1889 18.4596 90.0722 17.8395 88.8614 17.4849C87.6505 17.1303 86.3758 17.05 85.13 17.25C75.94 18.6 65.76 33 62.86 37.39C62.7994 37.5049 62.7256 37.6123 62.64 37.71C62.6027 37.7558 62.5553 37.7923 62.5015 37.8166C62.4477 37.8409 62.389 37.8523 62.33 37.85Z" fill="#4D2323"/>
<path d="M92 24.4499C91.9277 24.4513 91.8563 24.4335 91.7931 24.3984C91.7298 24.3633 91.677 24.3121 91.64 24.2499C91.4584 23.8607 91.1399 23.5518 90.7453 23.3822C90.3507 23.2125 89.9074 23.1939 89.5 23.3299C89.3996 23.3573 89.2927 23.3464 89.1998 23.2994C89.107 23.2524 89.0349 23.1726 88.9976 23.0755C88.9602 22.9784 88.9603 22.8708 88.9977 22.7738C89.0351 22.6767 89.1072 22.5969 89.2 22.5499C89.7926 22.3468 90.4385 22.3645 91.0191 22.5997C91.5997 22.8348 92.0758 23.2717 92.36 23.8299C92.4123 23.9262 92.4259 24.0387 92.398 24.1447C92.3702 24.2506 92.3029 24.3419 92.21 24.3999C92.1441 24.4306 92.0727 24.4476 92 24.4499Z" fill="#4D2323"/>
<path d="M104.45 51C104.397 51.0091 104.343 51.0091 104.29 51C102.21 50.1 96.64 44.34 96.4 44.09C96.3606 44.0526 96.3293 44.0076 96.3079 43.9578C96.2865 43.9079 96.2755 43.8542 96.2755 43.8C96.2755 43.7457 96.2865 43.692 96.3079 43.6422C96.3293 43.5923 96.3606 43.5473 96.4 43.51C96.4382 43.4703 96.484 43.4388 96.5347 43.4173C96.5854 43.3958 96.6399 43.3847 96.695 43.3847C96.75 43.3847 96.8045 43.3958 96.8552 43.4173C96.9059 43.4388 96.9517 43.4703 96.99 43.51C96.99 43.57 102.68 49.4 104.61 50.23C104.66 50.2516 104.706 50.2832 104.744 50.3228C104.782 50.3624 104.812 50.4092 104.831 50.4605C104.851 50.5118 104.86 50.5665 104.858 50.6214C104.856 50.6763 104.843 50.7302 104.82 50.78C104.784 50.8466 104.73 50.9023 104.665 50.941C104.6 50.9797 104.526 51.0001 104.45 51Z" fill="#4D2323"/>
<path d="M106.06 51.2899C105.991 51.2917 105.923 51.2761 105.862 51.2447C105.801 51.2132 105.749 51.1669 105.71 51.1099L105.64 51.0099C101.896 46.0411 99.7297 40.0634 99.42 33.8499C99.4199 33.7393 99.4624 33.6328 99.5388 33.5527C99.6151 33.4726 99.7194 33.4251 99.83 33.4199C99.8847 33.4186 99.9391 33.4282 99.99 33.4482C100.041 33.4682 100.087 33.4982 100.126 33.5364C100.166 33.5746 100.197 33.6203 100.218 33.6707C100.239 33.7211 100.25 33.7752 100.25 33.8299C100.541 39.864 102.631 45.6729 106.25 50.5099L106.36 50.6499C106.418 50.742 106.437 50.8528 106.415 50.9591C106.392 51.0654 106.33 51.1589 106.24 51.2199C106.187 51.258 106.125 51.282 106.06 51.2899Z" fill="#4D2323"/>
<path d="M108.88 53.57C108.797 53.5692 108.716 53.5438 108.647 53.4969C108.579 53.4501 108.525 53.384 108.494 53.3069C108.463 53.2298 108.456 53.1452 108.473 53.0639C108.49 52.9826 108.531 52.9081 108.59 52.85C110.243 51.2038 111.374 49.1063 111.84 46.8204C112.306 44.5345 112.087 42.1619 111.21 39.9999C111.188 39.9009 111.202 39.7972 111.251 39.708C111.299 39.6189 111.378 39.5503 111.474 39.5149C111.569 39.4796 111.673 39.4798 111.768 39.5157C111.863 39.5515 111.942 39.6205 111.99 39.7099C112.892 42.0295 113.104 44.56 112.602 46.9975C112.1 49.4349 110.905 51.6755 109.16 53.45C109.084 53.5228 108.985 53.5655 108.88 53.57Z" fill="#4D2323"/>
<path d="M100.19 19.14C100.09 19.1423 99.9939 19.1065 99.9199 19.04C97.5439 17.1996 94.7581 15.9611 91.8 15.43C90.4076 15.1474 88.9907 15.0033 87.57 15C87.5153 15.0027 87.4606 14.9944 87.4092 14.9756C87.3578 14.9568 87.3107 14.928 87.2706 14.8907C87.2305 14.8534 87.1983 14.8085 87.1759 14.7585C87.1534 14.7086 87.1412 14.6547 87.14 14.6C87.1398 14.4893 87.1824 14.3829 87.2587 14.3028C87.3351 14.2227 87.4394 14.1751 87.55 14.17C89.0312 14.175 90.5083 14.3257 91.96 14.62C95.0534 15.1826 97.9657 16.4826 100.45 18.41C100.534 18.4818 100.587 18.5832 100.598 18.693C100.609 18.8028 100.578 18.9127 100.51 19C100.47 19.0454 100.421 19.0816 100.366 19.1058C100.31 19.13 100.25 19.1417 100.19 19.14Z" fill="#4D2323"/>
<path d="M70.63 56.58C70.54 57.23 70.57 57.97 69.9 58.14C69.23 58.31 68.81 57.6 68.55 57.05C68.2957 56.6267 68.1697 56.1386 68.1875 55.6451C68.2053 55.1516 68.3659 54.6739 68.65 54.27C68.6939 54.1943 68.753 54.1284 68.8234 54.0764C68.8938 54.0245 68.9742 53.9875 69.0595 53.9678C69.1448 53.9481 69.2332 53.9461 69.3193 53.962C69.4054 53.9778 69.4873 54.0112 69.56 54.06C69.9406 54.352 70.2392 54.7375 70.4267 55.1791C70.6142 55.6207 70.6842 56.1033 70.63 56.58Z" fill="#632424"/>
<path d="M89.3 53.53C89.2948 53.9593 89.2343 54.3861 89.12 54.8C89.0723 54.9964 88.9592 55.1707 88.7993 55.2943C88.6393 55.4179 88.4421 55.4834 88.24 55.48C86.98 55.48 86.81 54.22 86.75 53.24C86.69 52.26 86.82 51.17 87.92 51.24C89.02 51.31 89.33 52.45 89.3 53.53Z" fill="#632424"/>
<path d="M88.17 70.58C88.41 69.81 84.71 71.07 84.02 71.32C80.27 72.68 79.34 72.51 76.02 72.64C75.42 72.64 74.89 72.99 75.35 73.72C75.59 74.1 76.22 76 80.46 75.48C83.44 75.13 87.86 71.58 88.17 70.58Z" fill="white"/>
<path d="M81.93 87.6C80.564 87.6048 79.2085 87.3608 77.93 86.88C76.3165 86.1085 74.8772 85.0163 73.7 83.67C73.39 83.37 73.1 83.08 72.81 82.81C72.7703 82.7717 72.7388 82.7259 72.7173 82.6752C72.6958 82.6245 72.6847 82.57 72.6847 82.515C72.6847 82.4599 72.6958 82.4054 72.7173 82.3547C72.7388 82.304 72.7703 82.2582 72.81 82.22C72.8886 82.1424 72.9945 82.0989 73.105 82.0989C73.2154 82.0989 73.3214 82.1424 73.4 82.22C73.69 82.49 73.99 82.79 74.3 83.09C75.4025 84.3402 76.7415 85.3598 78.24 86.09C83.2399 87.98 88.5199 85.53 91.7499 82.62C95.7499 78.98 100.75 74.45 101.21 68.76C101.214 68.7061 101.228 68.6535 101.252 68.6052C101.277 68.5569 101.31 68.5138 101.351 68.4785C101.392 68.4432 101.439 68.4163 101.491 68.3994C101.542 68.3825 101.596 68.3759 101.65 68.38C101.704 68.3824 101.758 68.3959 101.807 68.4197C101.856 68.4434 101.899 68.4769 101.935 68.5181C101.97 68.5593 101.997 68.6073 102.013 68.6592C102.03 68.7111 102.035 68.7658 102.03 68.82C101.6 74.82 96.4499 79.5 92.3099 83.23C89.4849 85.8827 85.8016 87.4333 81.93 87.6Z" fill="#A33F32"/>
<path d="M79.51 65.8399C78.61 65.8399 77.51 65.6799 77.25 64.9599C76.76 63.6299 77.25 56.7999 77.35 56.0299C77.3462 55.9715 77.355 55.9129 77.3759 55.8581C77.3967 55.8033 77.429 55.7536 77.4707 55.7124C77.5123 55.6712 77.5623 55.6393 77.6173 55.6191C77.6723 55.5988 77.731 55.5905 77.7894 55.5949C77.8479 55.5992 77.9047 55.616 77.9561 55.6442C78.0075 55.6723 78.0522 55.7112 78.0874 55.7581C78.1225 55.805 78.1471 55.8589 78.1596 55.9161C78.1722 55.9734 78.1723 56.0326 78.16 56.0899C77.92 59.0899 77.69 63.7999 78.01 64.6799C78.07 64.7563 78.1494 64.815 78.24 64.8499C79.0859 65.0778 79.9744 65.0984 80.83 64.9099C80.9049 64.8451 81.0008 64.8095 81.1 64.8099C81.206 64.8099 81.3078 64.8521 81.3828 64.9271C81.4578 65.0021 81.5 65.1039 81.5 65.2099C81.5 65.6199 81.04 65.6999 80.79 65.7499C80.3657 65.8081 79.9381 65.8382 79.51 65.8399Z" fill="#A33F32"/>
<path d="M48 239.82C47.9098 239.824 47.8211 239.795 47.75 239.74C47.6653 239.674 47.6082 239.58 47.5897 239.474C47.5712 239.369 47.5927 239.26 47.65 239.17C47.95 238.7 54.56 226.41 57.09 221.7C57.1152 221.652 57.1498 221.609 57.1917 221.574C57.2337 221.539 57.2821 221.513 57.3343 221.497C57.3864 221.482 57.4412 221.476 57.4954 221.482C57.5496 221.487 57.6021 221.504 57.65 221.53C57.6983 221.555 57.741 221.59 57.7758 221.632C57.8106 221.674 57.8367 221.722 57.8525 221.774C57.8683 221.826 57.8736 221.881 57.868 221.935C57.8624 221.99 57.8461 222.042 57.82 222.09C55.03 227.3 48.5 239.43 48.33 239.66C48.2912 239.71 48.2411 239.751 48.1838 239.779C48.1266 239.807 48.0636 239.821 48 239.82Z" fill="#B5845E"/>
<path d="M109.34 53.11C108.45 57.54 107.67 61.9599 103.95 65.4199C102.95 66.4199 102.67 67.0099 101.51 66.6399C100.35 66.2699 100.51 64.9399 100.51 64.0199C100.721 60.6484 101.587 57.3502 103.06 54.31C103.51 53.31 103.65 52.09 104.55 51.25C105.45 50.41 106.55 49.44 107.91 50.02C109.27 50.6 109.42 51.81 109.34 53.11Z" fill="#EE916C"/>
<path d="M103 59.6H102.87C102.766 59.5655 102.68 59.4919 102.629 59.3948C102.579 59.2977 102.568 59.1847 102.6 59.08C103.131 57.4139 103.871 55.8213 104.8 54.34C105.8 52.91 106.8 52.34 107.8 52.55C107.854 52.5617 107.904 52.5841 107.949 52.6158C107.994 52.6474 108.032 52.6878 108.061 52.7344C108.09 52.781 108.109 52.833 108.117 52.8872C108.126 52.9414 108.123 52.9967 108.11 53.05C108.084 53.1568 108.017 53.2492 107.923 53.3071C107.83 53.3651 107.717 53.3841 107.61 53.36C106.82 53.17 106.03 54.05 105.5 54.81C104.614 56.2179 103.911 57.7336 103.41 59.32C103.38 59.4042 103.325 59.4767 103.251 59.527C103.177 59.5774 103.089 59.6029 103 59.6Z" fill="#A33F32"/>
<path d="M107.14 56.92C107.034 56.9176 106.932 56.8749 106.856 56.8007C106.78 56.7265 106.735 56.6262 106.73 56.52C106.747 56.3085 106.717 56.0959 106.643 55.8972C106.568 55.6985 106.451 55.5185 106.3 55.37C106.135 55.2773 105.952 55.2228 105.763 55.2107C105.574 55.1986 105.385 55.2291 105.21 55.3C105.154 55.3103 105.096 55.3103 105.04 55.3C104.931 55.3093 104.823 55.275 104.74 55.2046C104.656 55.1343 104.604 55.0337 104.595 54.925C104.586 54.8162 104.62 54.7083 104.69 54.6248C104.761 54.5414 104.861 54.4893 104.97 54.48C105.267 54.3685 105.587 54.3277 105.902 54.3606C106.218 54.3936 106.522 54.4995 106.79 54.67C107.046 54.8881 107.248 55.162 107.382 55.4705C107.515 55.7791 107.576 56.1142 107.56 56.45C107.563 56.5051 107.554 56.5603 107.536 56.6123C107.517 56.6643 107.488 56.7121 107.451 56.7529C107.414 56.7938 107.369 56.827 107.319 56.8505C107.269 56.874 107.215 56.8874 107.16 56.89L107.14 56.92Z" fill="#A33F32"/>
<path d="M104 51.4999C104.08 54.0899 103.27 56.3499 102.65 59.2599C102.471 59.9718 102.46 60.7155 102.618 61.4323C102.776 62.1491 103.098 62.8194 103.56 63.3899C106.62 67.2499 106.65 71.4599 104.94 75.83C104.37 77.3099 103.67 78.74 103 80.19C102.73 80.76 101.77 81.35 101.62 81.11C101.47 80.8699 101.91 80.5999 102.18 80.0299C103.18 78.0299 103.18 75.2899 103.64 73.0999C103.983 71.8322 104.027 70.5021 103.769 69.2145C103.51 67.9269 102.956 66.7169 102.15 65.6799C100 62.9999 99.93 60.1599 100.59 56.9999C101.39 53.2199 101.59 52.51 100.51 48.83C100.28 48.05 99.34 48.8299 100 48.4299C100.84 47.9099 102.18 49.4999 102.63 50.1799C103.8 51.9999 104 49.4399 104 51.4999Z" fill="#7A444A"/>
<path d="M135.82 171.88C135.825 171.833 135.825 171.787 135.82 171.74C135.793 171.474 135.685 171.222 135.51 171.02C135.253 170.784 134.919 170.649 134.57 170.64C134.335 170.632 134.102 170.67 133.882 170.752C133.662 170.835 133.461 170.96 133.29 171.12C133.021 171.402 132.863 171.771 132.843 172.16C132.822 172.549 132.942 172.932 133.18 173.24C133.208 173.397 133.273 173.545 133.369 173.672C133.466 173.798 133.591 173.9 133.735 173.969C133.879 174.037 134.037 174.07 134.196 174.065C134.355 174.06 134.511 174.017 134.65 173.94C134.88 173.849 135.088 173.709 135.26 173.53C135.511 173.346 135.7 173.088 135.8 172.793C135.9 172.498 135.907 172.179 135.82 171.88Z" fill="#9B9494"/>
<path d="M111.44 168.12C111.376 167.902 111.266 167.701 111.118 167.529C110.97 167.357 110.787 167.218 110.581 167.122C110.376 167.026 110.152 166.975 109.925 166.972C109.698 166.97 109.473 167.015 109.265 167.106C109.057 167.197 108.871 167.331 108.719 167.499C108.566 167.667 108.452 167.866 108.382 168.082C108.313 168.298 108.29 168.526 108.315 168.752C108.341 168.977 108.414 169.195 108.53 169.39C108.609 169.54 108.716 169.673 108.847 169.781C108.977 169.889 109.128 169.971 109.29 170.02H109.41C109.612 170.137 109.847 170.186 110.08 170.16C110.31 170.13 110.531 170.05 110.728 169.928C110.925 169.805 111.094 169.641 111.222 169.448C111.351 169.255 111.437 169.037 111.475 168.808C111.512 168.579 111.5 168.344 111.44 168.12Z" fill="#9B9494"/>
<path d="M95.84 209.71C95.75 209.71 95.6625 209.68 95.5905 209.626C95.5185 209.572 95.4657 209.496 95.44 209.41C95.4087 209.307 95.4195 209.195 95.4701 209.099C95.5206 209.004 95.6069 208.932 95.71 208.9C95.97 208.82 97.76 208.59 102.11 208.03L106.11 207.52C107.56 207.33 116.11 205.77 116.22 205.75C116.327 205.732 116.437 205.757 116.526 205.818C116.616 205.88 116.678 205.974 116.7 206.08C116.721 206.189 116.697 206.301 116.636 206.393C116.574 206.485 116.478 206.548 116.37 206.57C116.01 206.63 107.68 208.15 106.22 208.34L102.22 208.86C99.14 209.25 96.22 209.62 95.95 209.69L95.84 209.71Z" fill="#A33F32"/>
</svg>
