<svg width="64" height="128" viewBox="0 0 64 128" fill="none" xmlns="http://www.w3.org/2000/svg">
<g clip-path="url(#clip0)">
<path d="M31.79 31.79H31.71C23.3057 31.7819 15.2487 28.4368 9.31001 22.49C6.35602 19.5373 4.01325 16.0311 2.41573 12.172C0.81822 8.31289 -0.00267922 4.17667 6.56918e-06 0V31.79V95.37V127.16C-2.00839e-05 118.743 3.33829 110.669 9.28278 104.709C15.2273 98.7498 23.2926 95.3912 31.71 95.37H31.79C40.2212 95.37 48.3072 92.0207 54.2689 86.0589C60.2307 80.0971 63.58 72.0112 63.58 63.58C63.58 55.1488 60.2307 47.0629 54.2689 41.1011C48.3072 35.1393 40.2212 31.79 31.79 31.79Z" fill="#FA1E38"/>
</g>
<defs>
<clipPath id="clip0">
<rect width="63.58" height="127.16" fill="white"/>
</clipPath>
</defs>
</svg>
