<svg width="178" height="247" viewBox="0 0 178 247" fill="none" xmlns="http://www.w3.org/2000/svg">
<path d="M145.44 191.51C145.394 191.519 145.346 191.519 145.3 191.51C142.954 190.661 140.814 189.325 139.02 187.59C138.947 187.515 138.906 187.415 138.906 187.31C138.906 187.205 138.947 187.105 139.02 187.03C139.095 186.957 139.195 186.916 139.3 186.916C139.405 186.916 139.505 186.957 139.58 187.03C141.303 188.671 143.345 189.941 145.58 190.76C145.67 190.789 145.745 190.85 145.793 190.932C145.842 191.013 145.859 191.108 145.842 191.201C145.824 191.294 145.774 191.377 145.701 191.436C145.627 191.494 145.534 191.524 145.44 191.52V191.51Z" fill="#3F7066"/>
<path d="M66.05 92.06V90.25C67.58 87.95 69.99 87.25 72.49 86.82C75.33 86.28 78.15 85.59 81.01 85.25C84.29 84.86 87.24 84.02 89.34 81.25C89.6147 80.8041 90.031 80.4632 90.5223 80.2819C91.0136 80.1006 91.5515 80.0894 92.05 80.25C94.35 81.14 96.83 81.42 99.05 82.67C101.927 84.1939 104.9 85.5301 107.95 86.67C108.95 87.07 109.49 87.04 109.82 85.9C109.96 85.2476 110.336 84.6702 110.877 84.279C111.417 83.8877 112.083 83.7104 112.747 83.7812C113.41 83.8521 114.024 84.166 114.469 84.6624C114.915 85.1589 115.161 85.8028 115.16 86.47C115.53 90.06 117.77 92.15 120.57 93.88C122.16 94.88 123.82 95.73 125.35 96.79C128.86 99.22 131.79 101.79 130.86 106.9C128.963 117.776 124.56 128.061 118 136.94C116.79 138.58 114.89 139.85 114.1 141.63C113.006 144.306 110.967 146.488 108.37 147.76H106.2C102.04 145.84 99.52 142.44 97.72 138.39C95.3374 133.133 92.6667 128.012 89.72 123.05C83.13 111.71 76.25 100.63 66.05 92.06Z" fill="#F29874"/>
<path d="M54.4 278.38C53.8461 278.263 53.3543 277.947 53.0172 277.492C52.6801 277.037 52.5211 276.474 52.57 275.91C52.57 273.83 53.34 271.91 53.81 269.91C55.36 263.39 56.74 256.82 59.67 250.66C62.82 244.04 67.9 240.37 75.89 239.66C89.62 238.45 103.01 239.87 116.32 242.77C118.32 243.2 120.32 243.71 122.32 244.1C126.39 244.9 144.78 243.36 147.8 245.83C149.89 247.53 151.15 276.61 148.08 277.42C146.83 277.75 133.93 275.27 132.63 275.29C122.12 275.44 111.63 274.81 101.12 274.51C100.862 274.502 100.605 274.478 100.35 274.44C98.98 274.23 97.82 273.64 97.19 275.81C96.77 277.28 94.56 277.98 92.71 278.19C91.8556 278.328 90.9797 278.219 90.1846 277.877C89.3895 277.536 88.7081 276.975 88.22 276.26C87.5684 275.23 87.0667 274.112 86.73 272.94C86.657 272.639 86.498 272.365 86.2724 272.153C86.0469 271.94 85.7644 271.797 85.4593 271.742C85.1542 271.687 84.8398 271.722 84.5541 271.842C84.2684 271.963 84.0238 272.163 83.85 272.42C83.65 272.65 83.46 272.88 83.26 273.1C82.1135 274.59 80.7676 275.916 79.26 277.04C75.51 279.57 55.74 278.75 54.4 278.38Z" fill="#FFE1C9"/>
<path d="M108.2 283H108.09C107.991 282.972 107.906 282.906 107.856 282.816C107.805 282.726 107.792 282.619 107.82 282.52C109.196 277.413 110.198 272.212 110.82 266.96C111.82 258.51 112.56 246.65 112.45 245.96C112.437 245.911 112.433 245.859 112.44 245.809C112.447 245.758 112.464 245.709 112.49 245.665C112.516 245.622 112.551 245.583 112.592 245.553C112.633 245.523 112.68 245.502 112.73 245.49C112.833 245.465 112.942 245.482 113.034 245.536C113.125 245.59 113.192 245.678 113.22 245.78C113.39 246.43 112.52 259.06 111.6 267.09C110.978 272.382 109.976 277.622 108.6 282.77C108.566 282.846 108.51 282.909 108.438 282.95C108.366 282.992 108.282 283.009 108.2 283Z" fill="#B5935A"/>
<path d="M110.42 271.59C110.31 271.585 110.207 271.539 110.13 271.46C108.889 270.08 107.739 268.621 106.69 267.09C106.08 266.09 106.46 259.18 107.03 250.27C107.23 247.06 107.42 244.04 107.36 243.61C107.349 243.51 107.377 243.41 107.438 243.33C107.499 243.25 107.588 243.196 107.687 243.181C107.787 243.165 107.888 243.189 107.971 243.247C108.053 243.304 108.11 243.391 108.13 243.49C108.21 243.98 108.07 246.28 107.81 250.32C107.47 255.73 106.81 265.8 107.37 266.69C108.39 268.177 109.509 269.594 110.72 270.93C110.793 271.005 110.834 271.105 110.834 271.21C110.834 271.315 110.793 271.415 110.72 271.49C110.68 271.527 110.632 271.555 110.581 271.572C110.529 271.589 110.474 271.595 110.42 271.59Z" fill="#B5935A"/>
<path d="M102.14 64.93C106.14 65.34 110.82 65.83 115.26 68.76C118.26 70.76 117.61 72.94 117.26 75.02C116.17 81.89 115.26 88.79 113.53 95.55C113.294 96.6964 112.834 97.785 112.177 98.7535C111.52 99.722 110.679 100.551 109.7 101.194C108.722 101.837 107.627 102.28 106.477 102.499C105.328 102.718 104.146 102.708 103 102.47C96.55 101.32 91.75 97.47 87.61 92.72C86.08 90.95 86.18 88.9 86.81 86.72C88.5323 80.7875 89.6776 74.7026 90.23 68.55C90.2275 68.2992 90.2993 68.0534 90.4364 67.8434C90.5734 67.6334 90.7695 67.4687 91 67.37C94.4713 65.6963 98.2869 64.8606 102.14 64.93Z" fill="#F29874"/>
<path d="M107 240.7C106.338 244.772 105.241 248.761 103.73 252.6C102.603 255.293 100.896 257.703 98.73 259.66C96.2 261.84 93.04 263.08 89.97 264.29C80.55 268 70.97 271.73 60.7 272.23C59.87 272.23 59.04 272.29 58.2 272.23C56.9023 272.261 55.6161 271.98 54.45 271.41C53.8611 271.073 53.3715 270.587 53.0308 270.001C52.6902 269.414 52.5105 268.748 52.51 268.07C51.9672 263.079 52.3538 258.03 53.65 253.18C55.65 245.29 59.07 237.31 58.14 229.01C57.8467 227.732 57.8811 226.401 58.24 225.14C58.84 223.68 60.36 222.85 61.34 221.61C63.52 218.87 62.68 214.89 61.75 211.51C53.4596 181.296 47.2055 150.561 43.03 119.51C42.03 112.07 41.15 104.61 40.27 97.1599C40.0208 95.0555 40.3601 92.9232 41.25 90.9999C42.76 87.7599 42.25 83.9099 45.81 83.7999C57 83.4499 73 85.9999 84.11 84.4799C88.265 94.857 95.5086 103.706 104.86 109.83C105.161 110.103 105.559 110.246 105.966 110.228C106.372 110.209 106.755 110.03 107.03 109.73C112.609 105.915 117.243 100.877 120.58 94.9999C121.14 93.9999 121.77 92.9099 122.86 92.5999C123.816 92.4507 124.794 92.6343 125.63 93.1199L142.9 100.7C145.9 102 148.9 103.39 150.99 105.91C153.08 108.43 153.62 112.44 151.4 114.8C149.65 115.86 149.34 118.23 149.22 120.27C146 176.32 141.94 229.53 157.22 283.43C157.52 284.5 156.7 286.1 155.8 285.43C146.18 278.29 131.45 273.43 123.2 264.84C117.02 258.4 110.68 251.38 107.61 242.84C107.35 242.14 107.15 241.41 106.94 240.69L107 240.7Z" fill="#BFDED5"/>
<path d="M1.36001 167.56C1.65929 159.011 3.96467 150.653 8.09001 143.16C10.29 138.94 12.59 134.78 15.09 130.75C20.09 122.64 24.77 114.29 29.75 106.13C32.7589 101.234 36.0199 96.4976 39.52 91.9399C41.81 88.9399 42.58 83.9399 44.67 83.9399C48.25 83.9399 46.29 91.7899 47.25 95.2599C47.9348 98.0578 48.2707 100.93 48.25 103.81C48.33 107.81 49.25 111.65 49.63 115.59C50.01 119.53 50.71 123.44 50.5 127.42C50.5073 127.897 50.3938 128.368 50.17 128.79C49.48 129.79 49.17 130.55 50.49 131.42C51.29 131.93 50.87 132.98 50.49 133.73C49.1 136.18 47.59 138.58 46.27 141.07C42.39 148.41 38.27 155.64 33.96 162.7C30.54 168.27 27.59 174.2 22.45 178.53C19.8 180.76 17.45 183.41 13.62 183.73C13.0969 183.864 12.544 183.818 12.05 183.6C7.05 180.53 3.05001 176.6 1.45001 170.76C1.28309 169.702 1.25284 168.626 1.36001 167.56Z" fill="#BFDED5"/>
<path d="M177.15 190.19C176.89 191.936 176.168 193.581 175.059 194.954C173.949 196.327 172.493 197.379 170.84 198C166.41 199.83 161.79 200.41 157.92 196.64C155.787 194.433 153.973 191.939 152.53 189.23C150.39 185.47 148.18 181.75 146.1 177.95C145.25 176.41 144.38 174.82 144.79 172.86C144.9 172.33 144.37 171.64 144.08 171.05C141.851 166.782 139.848 162.399 138.08 157.92C137.21 155.62 137.71 154.81 140.08 154.28C140.255 154.266 140.423 154.204 140.564 154.099C140.706 153.995 140.815 153.853 140.88 153.69C141.04 153.32 141.38 153.02 141.56 152.69C141.91 151.97 143.26 152.47 143.21 151.61C143.24 150.173 142.946 148.748 142.35 147.44C141.289 145.53 140.914 143.313 141.29 141.16C142.203 131.522 142.537 121.838 142.29 112.16C142.29 110.54 142.29 108.91 142.29 107.28C142.29 105.65 142.41 104.09 144.29 103.43C146.149 103.092 148.066 103.506 149.62 104.58C152.07 106.18 153.69 111.18 154.82 114.93C158.29 126.5 162.74 137.75 166.35 149.28C169.6 159.65 173.12 169.94 175.69 180.51C176.506 183.678 176.995 186.922 177.15 190.19Z" fill="#BFDED5"/>
<path d="M106.9 110.13L106.55 109.77C109 102.55 112.84 95.87 114.73 88.44C115.34 86.01 115.4 82.44 117.08 80.77C118.27 81.99 119.08 84.34 119.73 85.91C122.16 91.53 123.92 97.3 123.55 103.53C123.434 106.106 123.048 108.664 122.4 111.16C121.95 112.77 121.35 112.96 120.26 111.72C118.13 109.29 115.26 108.09 112.52 106.59C111.44 105.99 110.96 107.79 110.14 108.51C109.1 109.42 108.08 109.36 106.9 110.13Z" fill="#BFDED5"/>
<path d="M106.9 110.13C106.83 110.78 106.34 111.39 106.67 112.06C107 112.73 106.92 113.23 106.4 113.5C105.69 113.88 105.53 113.09 105.29 112.69C103.87 110.24 101.68 108.51 99.58 106.69C97.48 104.87 95.79 105.13 94.42 107.29C93.2416 108.939 91.9016 110.467 90.42 111.85C88.68 113.69 87.27 113.5 86.36 111.22C84.94 107.63 82.53 104.52 81.27 100.86C79.88 96.86 77.94 92.98 77.37 88.68C77.1 86.68 77.37 85.07 79.27 83.86C81.5685 82.3165 83.7208 80.5659 85.7 78.63C86.19 78.17 89.01 75.97 89.07 76.63C89.0236 77.4253 88.9268 78.2169 88.78 79C87.65 85 89.78 90.23 93.31 94.79C96.84 99.35 100.75 103.46 103.99 108.18C104.63 109.11 104.99 110.3 106.55 109.81L106.9 110.13Z" fill="#BFDED5"/>
<path d="M70 150.49C69.9031 150.491 69.8096 150.455 69.7375 150.39C69.6654 150.326 69.6199 150.236 69.61 150.14C67.55 131.61 45.12 88.66 44.89 88.28C44.8405 88.1916 44.8265 88.0877 44.8506 87.9894C44.8747 87.891 44.9353 87.8055 45.02 87.75C45.1062 87.693 45.2115 87.6727 45.3128 87.6933C45.414 87.7139 45.5029 87.7739 45.56 87.86C45.77 88.18 68.31 131.32 70.39 150.06C70.397 150.111 70.3936 150.162 70.3802 150.212C70.3667 150.261 70.3434 150.307 70.3116 150.347C70.2799 150.388 70.2403 150.421 70.1954 150.445C70.1504 150.47 70.101 150.485 70.05 150.49H70Z" fill="#3F7066"/>
<path d="M54.58 131C54.4889 130.999 54.4006 130.968 54.33 130.91C49.8708 127.276 44.6195 124.741 39 123.51C38.9076 123.526 38.8127 123.507 38.7333 123.457C38.6539 123.407 38.5958 123.33 38.57 123.24C38.5531 123.191 38.5465 123.139 38.5506 123.087C38.5547 123.035 38.5694 122.985 38.5938 122.939C38.6182 122.893 38.6517 122.852 38.6923 122.82C38.733 122.787 38.7798 122.764 38.83 122.75C39.35 122.59 47.54 124.4 54.83 130.28C54.8702 130.312 54.9036 130.352 54.9284 130.397C54.9532 130.442 54.9688 130.491 54.9744 130.542C54.98 130.594 54.9754 130.645 54.9609 130.695C54.9464 130.744 54.9223 130.79 54.89 130.83C54.8554 130.881 54.8092 130.923 54.7554 130.952C54.7015 130.982 54.6414 130.998 54.58 131Z" fill="#3F7066"/>
<path d="M45.33 127.73H38.9C38.806 127.715 38.7205 127.667 38.6587 127.595C38.597 127.522 38.5631 127.43 38.5631 127.335C38.5631 127.24 38.597 127.148 38.6587 127.075C38.7205 127.003 38.806 126.955 38.9 126.94H45.33C45.3871 126.931 45.4456 126.934 45.5013 126.95C45.557 126.966 45.6086 126.993 45.6526 127.031C45.6967 127.068 45.732 127.115 45.7563 127.167C45.7805 127.22 45.7931 127.277 45.7931 127.335C45.7931 127.393 45.7805 127.45 45.7563 127.503C45.732 127.555 45.6967 127.602 45.6526 127.639C45.6086 127.677 45.557 127.704 45.5013 127.72C45.4456 127.736 45.3871 127.739 45.33 127.73Z" fill="#3F7066"/>
<path d="M105.66 112.92C105.601 112.934 105.539 112.934 105.48 112.92C105.434 112.898 105.393 112.866 105.359 112.828C105.326 112.789 105.3 112.745 105.285 112.696C105.269 112.648 105.263 112.596 105.267 112.545C105.271 112.495 105.286 112.445 105.31 112.4C106.22 110.56 109.31 104.61 111.21 104.96C112.81 105.25 119.36 110.08 121.21 111.48C123.198 105.68 123.465 99.4287 121.98 93.48C121.955 93.3793 121.971 93.273 122.023 93.1834C122.075 93.0939 122.16 93.0281 122.26 93C122.31 92.9865 122.362 92.983 122.413 92.9898C122.465 92.9965 122.514 93.0135 122.559 93.0395C122.603 93.0656 122.642 93.1002 122.673 93.1415C122.705 93.1828 122.727 93.2299 122.74 93.28C124.315 99.5707 123.967 106.189 121.74 112.28C121.717 112.334 121.681 112.383 121.636 112.421C121.591 112.459 121.537 112.486 121.48 112.5C121.422 112.515 121.362 112.518 121.303 112.508C121.245 112.497 121.189 112.474 121.14 112.44C117.74 109.87 112.24 105.97 111.04 105.75C110.15 105.58 107.72 109.26 105.98 112.75C105.944 112.802 105.896 112.844 105.84 112.873C105.785 112.903 105.723 112.919 105.66 112.92Z" fill="#3F7066"/>
<path d="M105.66 112.92C105.606 112.921 105.553 112.91 105.503 112.89C105.453 112.869 105.408 112.838 105.37 112.8C103.68 110.99 98.86 106.23 96.98 105.88C95.37 105.58 90.5 109.69 87.82 112.34C87.7838 112.38 87.7387 112.411 87.6883 112.43C87.6378 112.449 87.5836 112.456 87.53 112.45C87.4744 112.449 87.4195 112.436 87.3694 112.412C87.3193 112.388 87.2751 112.353 87.24 112.31C78.4 101.57 77 87.1 77.14 86.15C77.1485 86.0905 77.1687 86.0333 77.1997 85.9817C77.2306 85.9302 77.2715 85.8854 77.32 85.85C77.4062 85.793 77.5115 85.7726 77.6128 85.7932C77.714 85.8139 77.8029 85.8738 77.86 85.96C77.8863 86.011 77.9 86.0676 77.9 86.125C77.9 86.1824 77.8863 86.2389 77.86 86.29C77.78 87.45 79.39 101.29 87.53 111.48C89.05 110.01 94.72 104.67 97.07 105.11C99.59 105.57 105.64 111.99 105.89 112.26C105.963 112.335 106.004 112.435 106.004 112.54C106.004 112.645 105.963 112.745 105.89 112.82C105.826 112.876 105.745 112.911 105.66 112.92Z" fill="#3F7066"/>
<path d="M102.76 254.73C102.7 254.739 102.64 254.739 102.58 254.73C102.488 254.681 102.419 254.598 102.388 254.499C102.356 254.4 102.364 254.293 102.41 254.2C104.16 250.73 107.6 237.42 107.83 236.52C107.83 233.65 108.25 124.35 107.83 120.24C107.47 117.462 106.5 114.799 104.99 112.44C104.92 112.366 104.88 112.267 104.88 112.165C104.88 112.063 104.92 111.964 104.99 111.89C105.063 111.82 105.159 111.781 105.26 111.781C105.361 111.781 105.457 111.82 105.53 111.89C107.15 114.373 108.176 117.196 108.53 120.14C108.96 124.32 108.53 231.97 108.53 236.56C108.535 236.59 108.535 236.62 108.53 236.65C108.39 237.23 104.88 250.89 103.04 254.53C103.012 254.582 102.972 254.628 102.923 254.663C102.875 254.697 102.819 254.72 102.76 254.73Z" fill="#3F7066"/>
<path d="M141.05 162.94C140.96 162.939 140.873 162.911 140.8 162.86C140.736 162.807 140.689 162.735 140.668 162.654C140.646 162.574 140.651 162.488 140.68 162.41C140.82 161.62 140.97 151.9 141.09 144.78C141.18 138.69 141.24 134.93 141.3 134.52C141.38 133.85 143.5 128.74 146.06 122.62C146.88 120.62 147.66 118.79 147.74 118.55C147.76 118.462 147.81 118.383 147.881 118.327C147.952 118.271 148.04 118.24 148.13 118.24C148.233 118.24 148.333 118.281 148.406 118.354C148.479 118.427 148.52 118.527 148.52 118.63C148.52 118.76 148.52 118.77 146.78 122.93C145.17 126.79 142.16 133.93 142.07 134.62C142.07 135.01 141.95 139.76 141.87 144.79C141.59 162.5 141.52 162.58 141.35 162.79C141.315 162.837 141.27 162.875 141.218 162.901C141.166 162.927 141.108 162.94 141.05 162.94Z" fill="#3F7066"/>
<path d="M64.18 225.19C64.0782 225.18 63.9846 225.13 63.9191 225.052C63.8536 224.973 63.8216 224.872 63.83 224.77C63.89 224.02 62.83 214.63 62.01 208.49C61.9981 208.387 62.0277 208.283 62.0924 208.201C62.1571 208.119 62.2516 208.067 62.355 208.055C62.4584 208.043 62.5624 208.073 62.644 208.137C62.7255 208.202 62.7781 208.297 62.79 208.4C62.99 209.97 64.71 223.77 64.61 224.84C64.605 224.891 64.5899 224.941 64.5655 224.987C64.5412 225.032 64.508 225.072 64.468 225.105C64.428 225.137 64.382 225.162 64.3326 225.176C64.2831 225.191 64.2313 225.195 64.18 225.19Z" fill="#3F7066"/>
<path d="M76.9 242.7C76.7999 242.7 76.7037 242.662 76.6311 242.593C76.5585 242.524 76.5151 242.43 76.51 242.33C76.22 238.01 60.33 183.33 60.18 182.96C60.1566 182.915 60.1426 182.866 60.1391 182.815C60.1355 182.764 60.1424 182.714 60.1592 182.666C60.1761 182.618 60.2026 182.574 60.2372 182.537C60.2717 182.5 60.3135 182.47 60.36 182.45C60.4071 182.427 60.4584 182.413 60.5109 182.41C60.5634 182.407 60.616 182.414 60.6655 182.432C60.715 182.45 60.7604 182.477 60.799 182.513C60.8376 182.549 60.8685 182.592 60.89 182.64C61.04 182.92 76.98 237.57 77.29 242.28C77.2955 242.384 77.2599 242.487 77.1907 242.565C77.1215 242.644 77.0244 242.692 76.92 242.7H76.9Z" fill="#3F7066"/>
<path d="M64.18 241.07C64.0889 241.069 64.0006 241.038 63.93 240.98C63.8573 240.907 63.8165 240.808 63.8165 240.705C63.8165 240.602 63.8573 240.503 63.93 240.43L70.23 232.59C70.2966 232.508 70.3928 232.456 70.4977 232.445C70.6025 232.433 70.7076 232.464 70.79 232.53C70.8689 232.596 70.9193 232.69 70.9304 232.793C70.9416 232.895 70.9128 232.998 70.85 233.08L64.54 240.92C64.4984 240.974 64.4433 241.017 64.3801 241.043C64.3169 241.07 64.2479 241.079 64.18 241.07Z" fill="#3F7066"/>
<path d="M63.27 256.57H63.21C63.1585 256.563 63.109 256.545 63.0644 256.518C63.0198 256.492 62.981 256.456 62.9502 256.414C62.9195 256.373 62.8974 256.325 62.8854 256.274C62.8733 256.224 62.8715 256.171 62.88 256.12C62.88 255.94 66.54 237.12 67.41 236.04C67.4832 235.957 67.5863 235.906 67.6968 235.899C67.8073 235.891 67.9163 235.928 68 236C68.071 236.076 68.1105 236.176 68.1105 236.28C68.1105 236.384 68.071 236.484 68 236.56C67.31 237.56 63.77 255.48 63.64 256.27C63.6186 256.353 63.5711 256.427 63.5045 256.481C63.4379 256.535 63.3557 256.566 63.27 256.57Z" fill="#3F7066"/>
<path d="M135 261.8C134.943 261.8 134.886 261.788 134.834 261.763C134.783 261.739 134.737 261.704 134.7 261.66C128.92 254.76 113.84 236.78 113.05 236.02C112.966 235.968 112.904 235.887 112.877 235.791C112.851 235.696 112.862 235.594 112.907 235.507C112.953 235.419 113.03 235.352 113.124 235.319C113.217 235.286 113.319 235.29 113.41 235.33C113.55 235.33 113.8 235.46 135.3 261.16C135.348 261.217 135.378 261.286 135.387 261.36C135.397 261.434 135.385 261.508 135.354 261.576C135.322 261.643 135.272 261.7 135.21 261.739C135.147 261.779 135.074 261.8 135 261.8Z" fill="#3F7066"/>
<path d="M141.94 260.3C141.884 260.31 141.826 260.31 141.77 260.3C141.61 260.22 141.46 260.14 125.26 227.98C125.236 227.935 125.221 227.885 125.217 227.835C125.213 227.784 125.219 227.732 125.235 227.684C125.25 227.635 125.276 227.59 125.309 227.552C125.343 227.514 125.384 227.482 125.43 227.46C125.476 227.436 125.526 227.421 125.578 227.417C125.629 227.412 125.681 227.418 125.731 227.434C125.78 227.45 125.826 227.475 125.865 227.509C125.904 227.542 125.937 227.584 125.96 227.63C131.37 238.37 141.7 258.82 142.25 259.7C142.294 259.759 142.321 259.828 142.328 259.902C142.335 259.975 142.322 260.048 142.29 260.114C142.258 260.181 142.208 260.237 142.147 260.276C142.085 260.316 142.013 260.338 141.94 260.34V260.3Z" fill="#3F7066"/>
<path d="M135 241.93C134.904 241.933 134.811 241.9 134.738 241.837C134.666 241.774 134.62 241.685 134.61 241.59L133.43 231.54C133.423 231.489 133.426 231.438 133.44 231.388C133.453 231.339 133.477 231.293 133.508 231.253C133.54 231.212 133.58 231.179 133.625 231.155C133.67 231.13 133.719 231.115 133.77 231.11C133.873 231.099 133.977 231.128 134.059 231.191C134.141 231.254 134.195 231.347 134.21 231.45L135.39 241.45C135.401 241.555 135.371 241.659 135.305 241.742C135.24 241.824 135.144 241.877 135.04 241.89L135 241.93Z" fill="#3F7066"/>
<path d="M141.66 135.48C141.592 135.478 141.526 135.46 141.467 135.427C141.407 135.394 141.357 135.347 141.32 135.29C141.293 135.246 141.275 135.196 141.268 135.145C141.26 135.093 141.263 135.041 141.276 134.991C141.289 134.94 141.312 134.893 141.344 134.852C141.375 134.81 141.415 134.776 141.46 134.75C141.77 134.56 149.59 129.17 152.58 127.11C152.622 127.08 152.67 127.058 152.721 127.047C152.772 127.036 152.825 127.035 152.876 127.044C152.927 127.053 152.976 127.073 153.02 127.101C153.063 127.13 153.101 127.167 153.13 127.21C153.185 127.296 153.206 127.399 153.187 127.5C153.169 127.6 153.112 127.69 153.03 127.75C152.59 128.06 142.26 135.18 141.86 135.42C141.801 135.459 141.731 135.48 141.66 135.48Z" fill="#3F7066"/>
<path d="M115.33 129.44C113.75 128.2 113.02 131.02 113.2 132.1C113.22 132.396 113.325 132.68 113.502 132.918C113.68 133.155 113.922 133.337 114.2 133.44C114.352 133.541 114.534 133.588 114.716 133.571C114.898 133.555 115.069 133.477 115.2 133.35C115.481 133.112 115.709 132.817 115.87 132.485C116.03 132.154 116.119 131.792 116.132 131.424C116.144 131.056 116.079 130.689 115.941 130.347C115.803 130.005 115.595 129.696 115.33 129.44Z" fill="#3F7066"/>
<path d="M117.07 154.81C117.024 154.478 116.866 154.171 116.622 153.94C116.379 153.71 116.064 153.568 115.73 153.54C115.427 153.588 115.144 153.725 114.918 153.933C114.692 154.141 114.533 154.412 114.46 154.71C114.11 155.62 114.04 158.01 115.34 158L115.46 158.07C117.29 158.89 117.32 155.79 117.07 154.81Z" fill="#3F7066"/>
<path d="M116.18 180.75C116.253 180.284 116.215 179.808 116.07 179.36C116.018 179.087 115.875 178.839 115.665 178.657C115.454 178.476 115.188 178.371 114.91 178.36C114.14 178.36 113.73 179.26 113.56 179.91C113.401 180.678 113.514 181.477 113.88 182.17C113.94 182.325 114.04 182.461 114.17 182.565C114.3 182.669 114.456 182.736 114.62 182.76C114.802 182.769 114.983 182.728 115.143 182.642C115.304 182.555 115.437 182.427 115.53 182.27C115.918 181.855 116.148 181.317 116.18 180.75Z" fill="#3F7066"/>
<path d="M114.41 204.65C114.276 204.516 114.112 204.415 113.932 204.355C113.752 204.295 113.561 204.278 113.373 204.304C113.185 204.33 113.006 204.399 112.849 204.506C112.693 204.613 112.563 204.755 112.47 204.92C112.194 205.342 112.004 205.815 111.911 206.311C111.818 206.807 111.825 207.316 111.93 207.81C111.986 208.104 112.088 208.387 112.23 208.65C112.49 209.28 113.05 209.84 113.78 209.6C115.52 209 115.5 205.75 114.41 204.65Z" fill="#3F7066"/>
<path d="M39.63 161.87V153.87C40 151.99 40.37 150.11 40.76 148.23C40.7734 147.955 40.8518 147.688 40.9886 147.449C41.1254 147.211 41.3168 147.008 41.547 146.858C41.7773 146.708 42.0399 146.614 42.3134 146.585C42.5868 146.556 42.8632 146.592 43.12 146.69C43.82 146.86 44.37 146.97 44.86 146.3C45.56 145.3 46.38 145.54 47.22 146.11C48.4217 146.92 49.4712 147.935 50.32 149.11C54.6095 155.055 56.8361 162.241 56.66 169.57C56.6425 170.592 56.4636 171.604 56.13 172.57C55.54 174.37 54.44 174.81 52.7 174.02C52.5203 173.911 52.3191 173.842 52.1103 173.818C51.9015 173.794 51.6899 173.815 51.49 173.88C50.58 174.28 50.18 173.78 49.81 173.06C49.17 171.82 48.33 171.35 46.92 172.13C45.34 173.01 44.41 172.49 43.99 170.66C43.89 170.23 43.87 169.75 43.43 169.66C40.56 168.73 40.58 166.12 40 163.86C39.84 163.17 39.75 162.51 39.63 161.87Z" fill="#BFDED5"/>
<path d="M77.65 54.65C77.5386 54.1961 77.5896 53.7176 77.7942 53.2975C77.9988 52.8773 78.344 52.5421 78.77 52.35C79.256 52.0846 79.8085 51.9661 80.3606 52.0087C80.9127 52.0513 81.4405 52.2532 81.88 52.59C83.0727 53.4572 84.1077 54.5227 84.94 55.74C85.18 56.1 85.55 56.58 85.32 56.9C84.22 58.38 85.42 59.37 85.97 60.48C86.8231 62.3511 87.3733 64.346 87.6 66.39C87.71 67.14 87.47 67.6 86.6 67.23C83 65.85 77.66 58.38 77.65 54.65Z" fill="#F29874"/>
<path d="M128.59 47.49C128.15 52.29 127.43 56.69 124.91 60.58C124.611 61.0453 124.277 61.4866 123.91 61.9C123.54 62.3 123.12 62.76 122.49 62.4C122.255 62.2443 122.083 62.0094 122.006 61.7378C121.929 61.4663 121.951 61.1761 122.07 60.92C122.4 59.68 122.82 58.45 123.22 57.23C123.4 56.71 123.79 56.06 123.22 55.7C121.89 54.83 122.4 53.7 122.57 52.57C122.71 51.64 123.26 50.78 122.84 49.72C122.59 49.1 125.84 45.72 126.59 45.72C126.842 45.6836 127.098 45.7025 127.342 45.7753C127.585 45.848 127.81 45.973 128 46.1415C128.191 46.3099 128.342 46.5178 128.444 46.7507C128.546 46.9836 128.596 47.2359 128.59 47.49Z" fill="#F29874"/>
<path d="M124.21 49.79C124.51 60.34 121.69 69.79 117.39 78.91C115.761 82.1079 113.405 84.8789 110.51 87C106.64 90 101.51 89.16 97.11 85.28C90 79 86.55 70.71 84.37 61.82C83.21 57.07 82.19 52.25 82.37 47.27C82.49 44.49 83.48 41.9 83.78 39.14C83.9325 38.183 84.3019 37.2737 84.86 36.4816C85.4182 35.6894 86.1502 35.0355 87 34.57C91.18 32.05 95.41 29.68 100.25 28.57C103.234 27.7969 106.358 27.7353 109.37 28.39C112.23 29.08 115.37 28.67 117.93 30.77C121.51 33.69 123.7 37.15 123.93 41.89C124 44.62 124.32 47.37 124.21 49.79Z" fill="#F29874"/>
<path d="M88.67 10.28C88.67 10.1 88.67 9.90997 88.67 9.72997C89 5.79997 95.75 0.469971 99.66 0.999971C102.72 1.44997 105.78 5.60997 105.25 8.76997C104.95 10.57 104.71 12.46 103.01 13.64C102.962 13.6782 102.918 13.7218 102.88 13.77C101.67 15.4 101 16 99.05 16.22C97.3216 16.5546 95.6125 16.9818 93.93 17.5C93.05 17.71 92.29 17.93 92.28 16.64C92.28 15.89 91.61 15.64 91.28 15.22C90 13.76 88.68 12.36 88.67 10.28Z" fill="#7A444A"/>
<path d="M85.5 64.17C86.27 64.85 85.95 63.72 86.12 64.57C86.85 68.36 89.68 73.32 91.89 76.36C92.47 77.15 92.89 77.02 93.51 76.54C98.24 72.32 101.37 72.26 106.51 72.35C108.636 72.4399 110.703 73.0771 112.51 74.2C113.543 74.8702 114.508 75.6406 115.39 76.5C116.22 77.3 116.52 77 116.91 76.11C118.41 72.74 119.59 69.25 120.8 65.76C120.98 65.27 120.92 64.44 121.67 64.6C122.42 64.76 122.55 65.54 122.39 66.13C121.15 70.52 119.39 74.84 117.97 79.13C116.33 84.02 112.86 87.25 108.97 90.13C108.037 90.8064 106.936 91.2127 105.788 91.3045C104.64 91.3962 103.488 91.1698 102.46 90.65C98.07 88.65 93.98 86.18 91.72 81.77C89.2503 77.178 87.2823 72.3334 85.85 67.32C85.68 66.8 85 64.87 85.5 64.17ZM105.41 74.79C103.511 74.9167 101.621 75.1571 99.75 75.51C97.6 75.77 96.51 77.34 95.51 78.98C95.3565 79.2507 95.2817 79.559 95.2941 79.87C95.3065 80.1809 95.4055 80.4823 95.58 80.74C97.13 83.33 99.71 84.11 102.31 82.74C103.121 82.2338 104.049 81.9466 105.005 81.9062C105.96 81.8659 106.909 82.0739 107.76 82.51C110.16 83.74 112.18 82.89 114.05 81.42C114.335 81.1832 114.561 80.8831 114.709 80.5437C114.858 80.2042 114.925 79.8348 114.906 79.4648C114.886 79.0948 114.781 78.7345 114.597 78.4125C114.414 78.0904 114.158 77.8157 113.85 77.61C111.26 76.22 108.76 74.46 105.41 74.79Z" fill="#7A444A"/>
<path d="M114.82 54.39C115.82 54.7 117.63 54.8 117.57 56.08C117.57 56.63 117.12 56.85 116.62 56.9C115.92 56.97 115.2 56.9 114.5 56.9C113.247 56.9412 112.004 57.1394 110.8 57.49C110.28 57.64 109.8 57.9 109.31 58.05C109.097 58.1455 108.858 58.1638 108.634 58.1017C108.409 58.0396 108.213 57.9011 108.08 57.71C107.907 57.4492 107.814 57.1431 107.814 56.83C107.814 56.5169 107.907 56.2108 108.08 55.95C108.9 54.29 113.1 54 114.82 54.39Z" fill="#7A444A"/>
<path d="M90.4 55.69C89.68 55.69 88.72 55.77 88.66 54.79C88.6 53.81 93.29 53.26 94.92 53.44C97.7 53.75 98.57 55.13 98.1 56.07C97.63 57.01 96.94 56.8 96.18 56.53C94.2841 56.0687 92.3488 55.7875 90.4 55.69Z" fill="#7A444A"/>
<path d="M104.28 76.5099H105.35C106.197 76.5837 107.049 76.5568 107.89 76.4299C108.62 76.2499 110.31 75.5799 110.44 76.1799C110.52 76.5999 109.19 77.4699 108.84 77.6299C106.77 78.6299 105.22 79.3199 102.36 78.6299C101.44 78.4099 100.59 77.6299 99.69 77.3699C99.35 77.2599 98.28 76.6999 98.35 76.2999C98.42 75.8999 100.09 76.2999 100.35 76.2999C101.655 76.4455 102.967 76.5156 104.28 76.5099Z" fill="white"/>
<path d="M77.16 37.09C77.4476 32.9017 78.6893 28.8347 80.79 25.2C83.52 20.4 86.94 18.49 91.85 16.09C96.76 13.69 101.64 14.09 106.66 14.26C110.505 14.4565 114.162 15.9878 117 18.59C124.79 25.43 127.35 34.05 125.43 44.16C124.634 47.9992 124.175 51.9008 124.06 55.82C124.135 59.3288 123.573 62.8221 122.4 66.13C122.11 66.87 121.92 67.57 120.91 67.31C120.725 66.4648 120.763 65.5862 121.02 64.76C121.614 61.9877 121.759 59.1382 121.45 56.32C121.16 53.67 121.17 50.74 119.87 48.32C118.419 45.9223 117.913 43.0705 118.45 40.32C118.511 39.6467 118.443 38.9679 118.25 38.32C117.41 34.06 112.92 38.69 111.38 39.7C109.54 40.91 107.26 41.13 105.12 41.33C101.2 41.7 96.7 41.77 93.28 39.53C91.74 38.53 89.19 37.82 87.51 38.97C85.65 40.25 86.51 42.67 86.71 44.66C86.85 46.31 87.25 48.04 86.59 49.58C84.59 54.4 84.77 59.25 86.01 64.18C86.21 64.98 86.53 65.94 85.62 66.71L84.27 62.5C83.16 59.1 83.06 55.22 80 52.6C79.7343 52.2612 79.565 51.857 79.51 51.43C78.0594 46.7835 77.2683 41.9564 77.16 37.09Z" fill="#7A444A"/>
<path d="M144.4 168.56C144.365 166.887 144.068 165.231 143.52 163.65C143.368 163.403 143.272 163.125 143.238 162.837C143.204 162.548 143.233 162.256 143.323 161.98C143.414 161.704 143.563 161.451 143.761 161.238C143.959 161.026 144.201 160.859 144.47 160.75C145.83 160.09 146.73 160.83 147.28 161.9C149.011 165.153 151.602 167.868 154.77 169.75C156.18 170.65 158.11 170.44 159.84 170.54C163.796 170.648 167.687 171.57 171.27 173.25C173.86 174.55 174.49 176.46 175.19 179.25C176.074 182.845 176.679 186.502 177 190.19C177.37 193.5 173.23 199.33 170.87 201.19C167.96 203.45 166.48 202.9 163.02 202.76C157.52 202.55 152.13 198.9 146.81 197.76C146.217 197.617 145.594 197.666 145.03 197.9C144.022 198.307 142.93 198.461 141.849 198.348C140.768 198.234 139.731 197.857 138.83 197.25C136.405 195.798 133.847 194.583 131.19 193.62C130.678 193.437 130.191 193.192 129.74 192.89C128.68 192.18 127.84 191.51 129.43 190.35C130.193 189.667 130.838 188.863 131.34 187.97C131.69 187.46 131.99 187.11 132.63 187.5C133.76 188.17 133.96 187.59 133.89 186.57C133.737 184.092 134.333 181.625 135.6 179.49C136.6 177.75 137.76 177.39 139.41 178.49C140.29 179.07 140.47 178.49 140.66 177.94C141.15 176.46 141.59 174.94 142.03 173.46C142.23 172.82 142.4 172.1 143.03 171.8C144.45 171.07 144.57 169.9 144.4 168.56Z" fill="#BFDED5"/>
<path d="M168.37 172.39C168.331 172.4 168.289 172.4 168.25 172.39C167.87 172.29 160.32 171.02 158.33 170.69C156.2 170.617 154.067 170.704 151.95 170.95C151.855 170.963 151.759 170.94 151.68 170.887C151.601 170.833 151.544 170.753 151.52 170.66C150.907 168.384 149.824 166.262 148.34 164.43C146.23 162.09 141.55 161.5 141.5 161.49C141.449 161.485 141.4 161.47 141.355 161.445C141.31 161.421 141.27 161.388 141.238 161.347C141.207 161.307 141.183 161.261 141.17 161.212C141.156 161.162 141.153 161.111 141.16 161.06C141.165 161.009 141.18 160.959 141.204 160.913C141.229 160.868 141.262 160.828 141.302 160.795C141.342 160.763 141.388 160.738 141.437 160.724C141.487 160.709 141.539 160.704 141.59 160.71C141.8 160.71 146.59 161.35 148.92 163.9C150.434 165.729 151.548 167.854 152.19 170.14C154.27 169.884 156.367 169.807 158.46 169.91C158.55 169.91 168.16 171.53 168.46 171.65C168.509 171.667 168.554 171.693 168.592 171.727C168.631 171.762 168.662 171.803 168.684 171.85C168.707 171.896 168.72 171.947 168.722 171.998C168.725 172.05 168.717 172.101 168.7 172.15C168.674 172.217 168.628 172.276 168.57 172.318C168.511 172.361 168.442 172.386 168.37 172.39Z" fill="#3F7066"/>
<path d="M171.18 181.16C171.112 181.16 171.046 181.139 170.99 181.1C168.2 179.52 164.62 177.79 162.49 176.77C161.741 176.445 161.013 176.075 160.31 175.66C156.72 172.66 153.99 171.06 152.22 170.93C152.168 170.928 152.118 170.915 152.071 170.892C152.024 170.869 151.983 170.837 151.949 170.798C151.916 170.758 151.89 170.713 151.875 170.663C151.86 170.614 151.854 170.561 151.86 170.51C151.864 170.459 151.878 170.409 151.901 170.363C151.924 170.317 151.956 170.276 151.995 170.243C152.034 170.209 152.079 170.184 152.128 170.168C152.177 170.152 152.229 170.146 152.28 170.15C154.28 170.3 157.04 171.9 160.81 175.06C160.93 175.14 161.81 175.59 162.81 176.06C164.95 177.06 168.54 178.82 171.35 180.42C171.423 180.465 171.479 180.532 171.511 180.611C171.543 180.69 171.549 180.777 171.528 180.86C171.506 180.943 171.459 181.016 171.393 181.07C171.327 181.124 171.245 181.156 171.16 181.16H171.18Z" fill="#3F7066"/>
<path d="M65.56 144.31C66.77 145.08 66.72 146.11 66.24 147.45C63.55 154.96 57.36 159.53 51.94 164.77C50.1287 166.403 48.1356 167.822 46 169C45.5692 169.283 45.0742 169.453 44.5606 169.495C44.047 169.537 43.531 169.449 43.06 169.24C39.06 167.43 37.39 163.85 36.85 159.89C36.36 156.32 42.51 155.11 41.39 151.77C40.7 149.69 48.84 149.04 49.62 148.25C50.89 146.97 49.68 142.4 50.7 141.15C50.8866 140.869 51.1711 140.667 51.4982 140.584C51.8254 140.501 52.1717 140.542 52.47 140.7C53.13 141.03 56.33 146.9 56.81 147.52C57.52 148.42 64.53 143.66 65.56 144.31Z" fill="#F29874"/>
<path d="M148.06 166C147.57 164.39 145.8 164.08 144.38 163.31C143.44 162.81 142.38 162.77 141.75 161.96C141.43 161.731 141.164 161.435 140.97 161.093C140.776 160.751 140.658 160.371 140.626 159.979C140.593 159.587 140.647 159.192 140.782 158.823C140.918 158.454 141.132 158.118 141.41 157.84C143.83 155.44 143.87 155.72 145.1 152.28C146.38 148.66 144.75 146.06 143.33 146.9C141.11 148.22 140.83 151.27 139.22 153.14C137.61 155.01 134.33 157.3 133.22 159.65C131.67 162.99 131.08 167.17 129.8 170.65C129.13 172.49 127.43 174.36 126.41 176.09C125.05 178.38 124.84 179.74 125.68 181.02C127.59 183.93 132.14 188.18 133.54 187.77C135.79 187.11 135.39 185.83 135.97 185.7C136.55 185.57 139.97 183.81 141.16 181.92C141.79 180.92 143.27 180.77 144.16 179.58C144.639 179.086 144.994 178.487 145.197 177.83C145.401 177.173 145.446 176.478 145.33 175.8C145.33 175.36 144.33 172.49 144.33 172.49C144.885 174.076 145.937 175.44 147.33 176.38C150.53 178.38 153.4 176.78 152.67 175.5C149.17 169.39 149.56 170.92 148.06 166Z" fill="#F29874"/>
<path d="M58 120.46C56.35 116.6 59.12 113.25 59.86 114.38C61.31 116.6 63.48 122.38 68.34 128.23C71.02 131.43 68.58 137.64 68.54 139.68C68.48 142.09 67.13 145.24 66.38 147.58C65.89 149.12 66.38 147.58 65.02 148.27C64.6439 148.436 64.3243 148.707 64.1005 149.052C63.8766 149.397 63.7583 149.799 63.76 150.21C63.7194 151.269 63.4656 152.309 63.0137 153.268C62.5618 154.227 61.9211 155.085 61.13 155.79C59.097 157.296 56.6582 158.157 54.13 158.26C52.13 158.46 50.65 155.95 51.06 153.4C51.2135 152.391 51.1103 151.359 50.76 150.4C48.6 143.85 47.7 137.86 48.76 131.07C49.15 128.53 51.17 129.43 50.58 126.64C50.26 125.13 46.94 119.98 43.42 113.33C42.99 112.54 42.7 109.33 44.78 109.33C45.78 109.33 49.22 113.07 50.09 115.91C51.4 120.19 54.9 124.01 56.09 125.57C57.57 127.57 60.65 127.86 61.27 126.69C61.67 125.85 59.41 123.81 58 120.46Z" fill="#F29874"/>
<path d="M66.91 136.05H66.83C66.7289 136.028 66.6401 135.968 66.5823 135.882C66.5245 135.797 66.5022 135.692 66.52 135.59C66.8409 133.912 66.6779 132.178 66.05 130.59C65.18 128.84 53.24 129.1 51.97 129.45C51.8954 129.49 51.8096 129.503 51.7263 129.489C51.6429 129.474 51.5668 129.433 51.51 129.37C51.4367 129.295 51.3957 129.195 51.3957 129.09C51.3957 128.985 51.4367 128.885 51.51 128.81C51.99 128.37 60.2 128.19 63.82 128.81C65.49 129.12 66.41 129.56 66.73 130.2C67.445 131.937 67.6328 133.847 67.27 135.69C67.2631 135.783 67.2229 135.871 67.1568 135.937C67.0908 136.003 67.0032 136.043 66.91 136.05Z" fill="#B34A2D"/>
<path d="M66.7 139.84C66.42 139.84 66.34 139.74 66.33 139.42C66.3248 139.397 66.3248 139.373 66.33 139.35C66.33 139.21 66.33 139.03 66.33 138.8C66.33 138.27 66.41 137.32 66.5 135.64C66.5143 135.431 66.4802 135.221 66.4004 135.026C66.3207 134.832 66.1974 134.659 66.04 134.52C64.65 133.26 60.48 133.13 53.64 134.14C53.3425 134.195 53.042 134.232 52.74 134.25C52.6366 134.24 52.5409 134.191 52.4722 134.113C52.4035 134.035 52.367 133.934 52.37 133.83C52.3801 133.727 52.4291 133.631 52.507 133.562C52.585 133.493 52.6861 133.457 52.79 133.46L53.52 133.36C58.11 132.69 64.45 132.01 66.57 133.94C66.8154 134.155 67.0073 134.424 67.1305 134.726C67.2537 135.028 67.3049 135.355 67.28 135.68L67.09 139.39C67.097 139.446 67.0922 139.502 67.0759 139.556C67.0596 139.61 67.0322 139.66 66.9954 139.702C66.9586 139.744 66.9133 139.779 66.8624 139.802C66.8115 139.826 66.7562 139.839 66.7 139.84Z" fill="#B34A2D"/>
<path d="M59.44 148.07C59.1107 148.115 58.7754 148.08 58.4622 147.969C58.149 147.857 57.8671 147.673 57.64 147.43C57.5248 147.268 57.4478 147.083 57.4149 146.887C57.382 146.691 57.394 146.49 57.45 146.3C57.8 145.17 59.62 144.39 59.82 144.3C59.9169 144.26 60.0257 144.259 60.123 144.299C60.2202 144.338 60.2982 144.414 60.34 144.51C60.3769 144.608 60.3747 144.717 60.3338 144.814C60.2928 144.911 60.2163 144.988 60.12 145.03C59.48 145.3 58.38 145.94 58.21 146.53C58.184 146.607 58.1777 146.69 58.1917 146.77C58.2057 146.85 58.2395 146.926 58.29 146.99C58.74 147.66 61.63 147.13 64.1 146.27C64.8609 144.942 65.5486 143.573 66.16 142.17C66.3088 141.347 66.3088 140.503 66.16 139.68C66.15 139.634 66.15 139.586 66.16 139.54C66.1814 139.444 66.1779 139.344 66.1499 139.249C66.1219 139.155 66.0703 139.069 66 139C65 138.06 60.37 138.36 54.13 139.78H54C53.9494 139.79 53.8973 139.791 53.8466 139.781C53.7958 139.772 53.7475 139.752 53.7043 139.724C53.6612 139.695 53.624 139.659 53.5949 139.616C53.5659 139.574 53.5455 139.526 53.535 139.475C53.5245 139.424 53.5241 139.372 53.5337 139.322C53.5433 139.271 53.5629 139.222 53.5912 139.179C53.6195 139.136 53.6561 139.099 53.6988 139.07C53.7415 139.041 53.7894 139.02 53.84 139.01H53.95C57.95 138.1 64.89 136.82 66.55 138.43C66.7068 138.584 66.8234 138.773 66.8897 138.983C66.9559 139.192 66.9698 139.414 66.93 139.63C67.0983 140.565 67.0779 141.523 66.87 142.45C66.2213 143.935 65.4936 145.383 64.69 146.79C64.6375 146.868 64.565 146.93 64.48 146.97C62.8606 147.573 61.1636 147.944 59.44 148.07Z" fill="#B34A2D"/>
<path d="M55.35 145.2C55.2568 145.202 55.1661 145.17 55.0943 145.11C55.0225 145.051 54.9744 144.968 54.9587 144.876C54.943 144.784 54.9607 144.689 55.0086 144.609C55.0566 144.53 55.1316 144.469 55.22 144.44C55.47 144.36 60.55 143.58 62.72 143.25C62.8234 143.234 62.929 143.26 63.0133 143.322C63.0977 143.384 63.1541 143.477 63.17 143.58C63.1859 143.683 63.1601 143.789 63.0982 143.873C63.0363 143.958 62.9434 144.014 62.84 144.03C60.02 144.46 55.72 145.12 55.44 145.19L55.35 145.2Z" fill="#B34A2D"/>
<path d="M61.62 146.21C61.5286 146.211 61.4398 146.179 61.37 146.12C60.61 145.47 60.8 143.99 60.83 143.82C60.8449 143.718 60.8995 143.626 60.9819 143.564C61.0644 143.502 61.1679 143.476 61.27 143.49C61.3746 143.505 61.4691 143.561 61.5328 143.645C61.5965 143.729 61.6243 143.835 61.61 143.94C61.55 144.33 61.54 145.23 61.88 145.52C61.9527 145.593 61.9935 145.692 61.9935 145.795C61.9935 145.898 61.9527 145.997 61.88 146.07C61.8137 146.147 61.721 146.197 61.62 146.21Z" fill="#B34A2D"/>
<path d="M144.4 175.23C144.337 175.229 144.275 175.213 144.22 175.183C144.164 175.154 144.116 175.111 144.08 175.06C143.98 174.99 143.7 174.84 143.45 174.7C141.925 173.985 140.563 172.964 139.45 171.7L138.83 170.55C138.58 170.1 138.35 169.66 138.32 169.61C138.271 169.52 138.259 169.416 138.285 169.317C138.311 169.219 138.374 169.134 138.46 169.08C138.547 169.027 138.65 169.01 138.749 169.032C138.848 169.055 138.935 169.115 138.99 169.2C138.99 169.2 138.99 169.2 139.52 170.2L140.12 171.3C141.153 172.45 142.404 173.385 143.8 174.05C144.6 174.5 144.8 174.59 144.8 174.87C144.792 174.97 144.747 175.063 144.672 175.13C144.598 175.197 144.5 175.233 144.4 175.23Z" fill="#B34A2D"/>
<path d="M135.46 185.42C135.382 185.415 135.306 185.391 135.24 185.35C132.87 183.855 130.911 181.793 129.54 179.35C129.013 177.933 128.861 176.403 129.1 174.91C129.23 173.875 129.509 172.864 129.93 171.91C130.231 171.079 130.697 170.317 131.3 169.671C131.904 169.025 132.631 168.507 133.44 168.15C133.5 168.13 133.565 168.125 133.627 168.135C133.69 168.146 133.749 168.171 133.8 168.21C133.85 168.246 133.891 168.294 133.917 168.35C133.943 168.406 133.955 168.468 133.95 168.53C133.95 168.58 133.89 173.27 135.03 175.53C136.17 177.79 141.03 181.23 141.12 181.27C141.205 181.329 141.262 181.418 141.281 181.519C141.3 181.621 141.278 181.725 141.22 181.81C141.16 181.895 141.068 181.953 140.965 181.972C140.863 181.991 140.757 181.968 140.67 181.91C140.46 181.76 135.56 178.29 134.33 175.91C133.33 174.01 133.19 170.62 133.17 169.21C132.034 169.949 131.154 171.021 130.65 172.28C130.258 173.174 129.998 174.121 129.88 175.09C129.661 176.433 129.788 177.81 130.25 179.09C131.569 181.394 133.438 183.335 135.69 184.74C135.773 184.802 135.83 184.893 135.848 184.995C135.867 185.097 135.846 185.203 135.79 185.29C135.749 185.336 135.697 185.371 135.64 185.394C135.583 185.416 135.521 185.425 135.46 185.42Z" fill="#B34A2D"/>
<path d="M126.26 176.8C126.204 176.81 126.146 176.81 126.09 176.8C126.043 176.778 126.001 176.746 125.966 176.707C125.931 176.668 125.905 176.622 125.888 176.573C125.871 176.524 125.864 176.471 125.868 176.419C125.872 176.367 125.886 176.316 125.91 176.27C126.263 175.49 126.786 174.8 127.439 174.248C128.093 173.696 128.862 173.297 129.69 173.08C129.739 173.065 129.791 173.059 129.842 173.064C129.894 173.069 129.944 173.083 129.989 173.108C130.035 173.132 130.075 173.165 130.108 173.205C130.141 173.245 130.165 173.291 130.18 173.34C130.208 173.441 130.195 173.548 130.145 173.64C130.094 173.732 130.01 173.8 129.91 173.83C129.189 174.019 128.52 174.367 127.95 174.847C127.381 175.328 126.927 175.931 126.62 176.61C126.582 176.671 126.529 176.721 126.466 176.754C126.403 176.788 126.332 176.803 126.26 176.8Z" fill="#B34A2D"/>
<path d="M139.83 171.89C139.754 171.887 139.68 171.862 139.617 171.819C139.554 171.775 139.505 171.715 139.476 171.644C139.446 171.574 139.438 171.497 139.451 171.421C139.464 171.346 139.498 171.276 139.55 171.22C139.908 170.883 140.215 170.496 140.46 170.07C140.163 168.967 139.627 167.943 138.89 167.07C138.57 166.67 137.33 166.66 136.07 167.07C134.81 167.48 133.99 168.07 133.95 168.54C133.946 168.591 133.932 168.641 133.909 168.687C133.886 168.733 133.854 168.773 133.815 168.807C133.776 168.84 133.73 168.866 133.682 168.882C133.633 168.898 133.581 168.904 133.53 168.9C133.479 168.896 133.429 168.882 133.383 168.859C133.337 168.836 133.296 168.803 133.263 168.764C133.23 168.725 133.204 168.68 133.188 168.631C133.172 168.583 133.166 168.531 133.17 168.48C133.25 167.48 134.59 166.71 135.83 166.32C137.07 165.93 138.83 165.75 139.5 166.58C140.17 167.41 141.45 169.58 141.21 170.3C140.928 170.845 140.556 171.339 140.11 171.76C140.075 171.8 140.032 171.831 139.983 171.854C139.935 171.876 139.883 171.888 139.83 171.89Z" fill="#B34A2D"/>
<path d="M147.18 176.71H147.03C145.03 175.89 143.91 173.81 143.83 170.86C143.837 170.827 143.837 170.793 143.83 170.76C143.832 170.662 143.87 170.569 143.936 170.497C144.002 170.425 144.092 170.38 144.19 170.371C144.287 170.361 144.384 170.387 144.463 170.444C144.543 170.501 144.598 170.585 144.62 170.68V170.84C144.7 173.46 145.62 175.29 147.34 175.98C147.431 176.009 147.508 176.071 147.556 176.153C147.605 176.236 147.621 176.333 147.603 176.427C147.584 176.52 147.532 176.604 147.456 176.662C147.38 176.72 147.285 176.747 147.19 176.74L147.18 176.71Z" fill="#B34A2D"/>
<path d="M13.17 150.53C17.47 150.68 20.25 151.53 23.17 151.43C25.39 151.33 27.62 151.21 29.8 150.94C31.72 150.69 33.11 149.09 34.8 148.27C37.4566 146.997 40.1962 145.904 43 145C43.5207 144.858 44.0626 144.811 44.6 144.86C45.94 144.92 46.43 145.66 45.69 146.73C42.36 151.56 42.05 156.68 43.53 162.06C44.0559 164.257 44.8379 166.385 45.86 168.4C47.61 171.4 49.16 170.13 51.64 168.4C52.3177 167.814 53.1276 167.403 54 167.2C55.41 166.99 56 167.46 55.89 168.91C55.7532 170.326 55.2958 171.692 54.5525 172.905C53.8092 174.118 52.7995 175.145 51.6 175.91C49.7529 177.127 47.8289 178.222 45.84 179.19C42.7665 180.639 39.5873 181.852 36.33 182.82C32.33 184.17 28.92 185.44 24.75 185.59C22.66 185.66 18.98 185.77 16.9 185.59C10.97 185.15 4.83 182.66 2.52 176.43C0.600002 171.27 0.230002 165.21 2.75 156.86C3.31 155.01 5.75 156.2 6.82 154.6C8.72 151.83 11.18 150.35 13.17 150.53Z" fill="#BFDED5"/>
<path d="M94 59.53C94 58.76 94 57.69 95.09 57.77C96.18 57.85 96.19 58.95 96.18 59.77C96.17 60.59 96.28 61.64 95.12 61.55C93.96 61.46 94 60.44 94 59.53Z" fill="#632424"/>
<path d="M115.34 59.75C115.317 59.9225 115.229 60.0795 115.092 60.1878C114.956 60.296 114.783 60.347 114.61 60.33C113.398 60.3273 112.2 60.5901 111.1 61.1C110.938 61.1841 110.754 61.214 110.574 61.1852C110.394 61.1564 110.227 61.0704 110.1 60.94C109.88 60.68 110.1 60.47 110.31 60.27C111.63 59.4161 113.212 59.0615 114.77 59.27C115.08 59.33 115.31 59.46 115.34 59.75Z" fill="#632424"/>
<path d="M102.52 69.41C102.431 69.4096 102.344 69.3786 102.275 69.3222C102.206 69.2658 102.158 69.1873 102.14 69.1C102.13 69.0507 102.13 68.9999 102.139 68.9505C102.149 68.9011 102.168 68.8542 102.196 68.8123C102.224 68.7704 102.26 68.7345 102.302 68.7067C102.344 68.6788 102.391 68.6595 102.44 68.65C103.315 68.5346 104.152 68.2236 104.89 67.74C104.611 64.6131 104.154 61.5047 103.52 58.43C103.502 58.3293 103.525 58.2258 103.583 58.1416C103.641 58.0575 103.73 57.9994 103.83 57.98C103.879 57.9714 103.93 57.9726 103.979 57.9835C104.027 57.9944 104.073 58.0149 104.114 58.0437C104.155 58.0725 104.19 58.109 104.217 58.1513C104.243 58.1936 104.262 58.2407 104.27 58.29C104.33 58.61 105.76 66.29 105.65 67.82C105.59 68.62 103.95 69.12 102.59 69.4L102.52 69.41Z" fill="#B34A2D"/>
<path d="M85.06 50.82C84.9751 50.8196 84.8926 50.7923 84.8243 50.742C84.756 50.6917 84.7055 50.6209 84.68 50.54C84.68 50.38 80.01 34.72 86.63 24.71C86.6871 24.6238 86.776 24.5639 86.8772 24.5433C86.9785 24.5226 87.0838 24.543 87.17 24.6C87.2568 24.6589 87.317 24.7496 87.3376 24.8524C87.3581 24.9553 87.3375 25.0622 87.28 25.15C80.87 34.84 85.39 50.15 85.43 50.31C85.4469 50.3591 85.4535 50.4113 85.4494 50.4631C85.4453 50.5149 85.4306 50.5654 85.4062 50.6113C85.3818 50.6572 85.3483 50.6977 85.3077 50.7301C85.267 50.7626 85.2202 50.7863 85.17 50.8C85.1357 50.816 85.0978 50.8229 85.06 50.82Z" fill="#4D2323"/>
<path d="M90.86 37.7299C90.7622 37.728 90.6685 37.6903 90.5967 37.6239C90.5248 37.5576 90.4798 37.4672 90.47 37.3699C90.4358 37.2645 90.3957 37.161 90.35 37.0599C88.1 31.8899 89.43 25.1699 94.35 17.0599C94.3763 17.0153 94.4111 16.9763 94.4524 16.9451C94.4938 16.9139 94.5409 16.8911 94.591 16.8781C94.6411 16.8651 94.6934 16.8621 94.7447 16.8693C94.796 16.8765 94.8453 16.8937 94.89 16.9199C94.9346 16.9462 94.9737 16.981 95.0049 17.0224C95.0361 17.0637 95.0588 17.1108 95.0718 17.1609C95.0848 17.2111 95.0878 17.2633 95.0807 17.3146C95.0735 17.3659 95.0563 17.4153 95.03 17.4599C90.29 25.2999 89.03 31.7699 91.12 36.6999C91.2183 36.8836 91.2827 37.0834 91.31 37.2899C91.3166 37.3502 91.3094 37.4112 91.2889 37.4683C91.2685 37.5253 91.2354 37.577 91.192 37.6194C91.1487 37.6618 91.0962 37.6937 91.0387 37.7129C90.9812 37.732 90.9201 37.7379 90.86 37.7299Z" fill="#4D2323"/>
<path d="M95.39 33.4799C95.3027 33.4853 95.2162 33.4603 95.1452 33.4093C95.0741 33.3583 95.0229 33.2844 95 33.1999C93.733 27.9833 93.4818 22.5715 94.26 17.2599C94.2733 17.1565 94.3271 17.0626 94.4096 16.9988C94.4921 16.9351 94.5966 16.9067 94.7 16.9199C94.8034 16.9332 94.8974 16.987 94.9611 17.0695C95.0249 17.152 95.0533 17.2565 95.04 17.3599C94.2927 22.5726 94.5404 27.8796 95.77 32.9999C95.7984 33.0994 95.7872 33.206 95.7387 33.2973C95.6903 33.3887 95.6083 33.4577 95.51 33.4899L95.39 33.4799Z" fill="#4D2323"/>
<path d="M106.1 23.12C106.025 23.1215 105.952 23.1003 105.889 23.0593C105.827 23.0182 105.778 22.9592 105.75 22.89C102.75 16.07 98.75 15.51 98.66 15.5C98.5575 15.4923 98.4618 15.4454 98.3929 15.3691C98.324 15.2927 98.2871 15.1928 98.29 15.09C98.2951 14.99 98.3385 14.8959 98.4111 14.827C98.4837 14.7582 98.5799 14.7198 98.68 14.72C98.68 14.72 103.21 15.18 106.46 22.57C106.482 22.6172 106.493 22.6682 106.495 22.72C106.497 22.7719 106.488 22.8236 106.469 22.872C106.451 22.9204 106.423 22.9646 106.387 23.0021C106.351 23.0395 106.308 23.0694 106.26 23.09C106.209 23.1106 106.155 23.1208 106.1 23.12Z" fill="#4D2323"/>
<path d="M112.68 29.2699C112.59 29.2715 112.503 29.2412 112.433 29.1844C112.364 29.1277 112.317 29.0482 112.3 28.9599C110.46 20.1299 106.65 18.6699 106.61 18.6599C106.513 18.6238 106.434 18.5515 106.389 18.4583C106.345 18.3651 106.338 18.2581 106.37 18.1599C106.402 18.062 106.472 17.9807 106.563 17.9338C106.655 17.887 106.762 17.8784 106.86 17.9099C106.86 17.9099 111.11 19.4199 113.07 28.7999C113.088 28.9031 113.066 29.0092 113.008 29.0966C112.951 29.184 112.862 29.246 112.76 29.2699H112.68Z" fill="#4D2323"/>
<path d="M117.73 37C117.678 37 117.626 36.9896 117.578 36.9693C117.53 36.9491 117.487 36.9195 117.451 36.8822C117.414 36.8449 117.386 36.8008 117.367 36.7523C117.348 36.7038 117.339 36.652 117.34 36.6C117.267 30.4945 115.207 24.579 111.47 19.75C111.413 19.7135 111.365 19.6633 111.332 19.604C111.299 19.5446 111.281 19.4779 111.28 19.41C111.28 19.3065 111.321 19.2073 111.394 19.1342C111.467 19.061 111.567 19.02 111.67 19.02C112.24 19.02 114.13 22.02 115.13 24.12C117.05 28.0037 118.075 32.2681 118.13 36.6C118.131 36.6529 118.122 36.7055 118.102 36.7546C118.083 36.8038 118.053 36.8484 118.016 36.8859C117.978 36.9233 117.934 36.9527 117.885 36.9723C117.836 36.9919 117.783 37.0013 117.73 37Z" fill="#4D2323"/>
<path d="M93.79 13.65C93.7391 13.6502 93.6887 13.6396 93.6421 13.619C93.5956 13.5983 93.554 13.5679 93.52 13.53C93.52 13.53 90.4 10.09 91.17 6.74998C91.62 4.79998 93.27 3.32998 96.08 2.35998C96.1313 2.33356 96.1877 2.31856 96.2454 2.31601C96.303 2.31345 96.3605 2.3234 96.414 2.34516C96.4674 2.36693 96.5155 2.40001 96.555 2.44212C96.5944 2.48423 96.6243 2.53438 96.6426 2.58912C96.6608 2.64387 96.667 2.70191 96.6607 2.75927C96.6544 2.81664 96.6358 2.87196 96.6061 2.92144C96.5764 2.97092 96.5363 3.01339 96.4887 3.04593C96.441 3.07848 96.3869 3.10033 96.33 3.10998C93.84 3.95998 92.33 5.22998 91.95 6.85998C91.23 9.75998 94.05 12.95 94.08 12.98C94.1503 13.0543 94.1895 13.1527 94.1895 13.255C94.1895 13.3573 94.1503 13.4557 94.08 13.53C94.0426 13.569 93.9975 13.5998 93.9476 13.6204C93.8977 13.6411 93.844 13.6512 93.79 13.65Z" fill="#4D2323"/>
<path d="M95.94 11C95.8722 10.9988 95.8062 10.978 95.75 10.94C95.65 10.89 93.44 9.57999 93.31 7.67999C93.312 7.10142 93.4607 6.53281 93.7423 6.02737C94.0239 5.52194 94.4291 5.0962 94.92 4.78999C95.0022 4.72634 95.1064 4.69796 95.2095 4.71109C95.3126 4.72421 95.4063 4.77778 95.47 4.85999C95.5337 4.94221 95.562 5.04635 95.5489 5.14949C95.5358 5.25264 95.4822 5.34634 95.4 5.40999C95.0151 5.64284 94.6939 5.96753 94.4653 6.35496C94.2367 6.74239 94.1077 7.18049 94.09 7.62999C94.19 9.10999 96.09 10.25 96.09 10.26C96.1351 10.2858 96.1746 10.3204 96.2061 10.3617C96.2377 10.403 96.2606 10.4502 96.2737 10.5005C96.2867 10.5508 96.2896 10.6032 96.2821 10.6547C96.2746 10.7061 96.2569 10.7555 96.23 10.8C96.2014 10.8543 96.1601 10.9008 96.1096 10.9356C96.0591 10.9705 96.0009 10.9925 95.94 11Z" fill="#4D2323"/>
<path d="M11.09 154.29C11.01 154.287 10.9327 154.26 10.8681 154.213C10.8035 154.166 10.7545 154.1 10.7276 154.025C10.7007 153.949 10.697 153.868 10.717 153.79C10.7371 153.713 10.7799 153.643 10.84 153.59C13.26 151.59 20.09 150.33 25.58 149.33C27.6514 149.053 29.6932 148.588 31.68 147.94C33.68 146.74 41.36 144.45 42.89 144.1C44.59 143.7 46.66 145.39 46.75 145.46C46.8227 145.533 46.8635 145.632 46.8635 145.735C46.8635 145.838 46.8227 145.937 46.75 146.01C46.7172 146.049 46.677 146.082 46.6315 146.106C46.5861 146.13 46.5365 146.144 46.4854 146.149C46.4343 146.154 46.3828 146.148 46.3338 146.133C46.2848 146.118 46.2394 146.093 46.2 146.06C45.68 145.64 44.11 144.6 43.01 144.86C41.39 145.24 33.88 147.51 32.01 148.62C31.29 149.05 29.23 149.45 25.65 150.1C20.54 151.04 13.54 152.32 11.27 154.2C11.2192 154.246 11.157 154.277 11.09 154.29Z" fill="#3F7066"/>
<path d="M49.22 173.76C49.163 173.759 49.1069 173.746 49.0552 173.722C49.0036 173.697 48.9575 173.663 48.92 173.62C45.7173 169.993 43.587 165.547 42.7675 160.779C41.9481 156.01 42.4718 151.108 44.28 146.62C44.3251 146.526 44.4057 146.453 44.5042 146.419C44.6026 146.384 44.7109 146.39 44.805 146.435C44.8992 146.48 44.9715 146.561 45.0062 146.659C45.0409 146.758 45.0351 146.866 44.99 146.96C43.2378 151.315 42.7335 156.073 43.5336 160.699C44.3337 165.325 46.4067 169.636 49.52 173.15C49.5927 173.223 49.6335 173.322 49.6335 173.425C49.6335 173.528 49.5927 173.627 49.52 173.7C49.4304 173.755 49.324 173.776 49.22 173.76Z" fill="#3F7066"/>
<path d="M36 181C35.9428 181 35.8863 180.988 35.8344 180.963C35.7826 180.939 35.7367 180.904 35.7 180.86C30.99 175.02 29.98 172.23 28.45 164.21C26.89 156.03 29.77 151.38 30.24 151.01C30.28 150.978 30.326 150.954 30.3753 150.939C30.4246 150.925 30.4764 150.92 30.5275 150.926C30.5786 150.931 30.6281 150.947 30.6732 150.972C30.7182 150.996 30.7579 151.03 30.79 151.07C30.8534 151.149 30.8835 151.249 30.8742 151.35C30.8649 151.451 30.8168 151.544 30.74 151.61C30.22 152.13 27.79 156.61 29.22 164.07C30.72 171.92 31.71 174.66 36.31 180.36C36.3423 180.4 36.3664 180.446 36.3809 180.495C36.3954 180.545 36.4 180.596 36.3944 180.647C36.3888 180.699 36.3732 180.748 36.3484 180.793C36.3236 180.838 36.2902 180.878 36.25 180.91C36.1794 180.968 36.0912 180.999 36 181Z" fill="#3F7066"/>
<path d="M53.29 174.9C53.2167 174.901 53.1446 174.881 53.0825 174.842C53.0204 174.803 52.9709 174.746 52.94 174.68C52.9164 174.634 52.9023 174.584 52.8987 174.533C52.895 174.482 52.9018 174.43 52.9186 174.381C52.9354 174.333 52.962 174.288 52.9966 174.25C53.0312 174.212 53.0732 174.181 53.12 174.16C53.9598 173.505 54.643 172.672 55.12 171.72C57.31 168.09 55.79 161.46 55.77 161.4C55.7458 161.298 55.7626 161.19 55.8168 161.101C55.871 161.011 55.9584 160.946 56.06 160.92C56.1107 160.907 56.1635 160.904 56.2152 160.912C56.2669 160.92 56.3164 160.939 56.3605 160.967C56.4047 160.995 56.4425 161.032 56.4717 161.076C56.5008 161.119 56.5207 161.168 56.53 161.22C56.6 161.5 58.15 168.22 55.79 172.13C54.44 174.36 53.59 174.82 53.49 174.86C53.4292 174.894 53.3592 174.908 53.29 174.9Z" fill="#3F7066"/>
<path d="M92 16.31C91.9215 16.3106 91.8448 16.2869 91.7803 16.2421C91.7159 16.1974 91.6668 16.1337 91.64 16.06C91.6002 15.9645 91.6 15.8572 91.6394 15.7615C91.6788 15.6659 91.7545 15.5898 91.85 15.55C95.0877 14.3066 98.532 13.6891 102 13.73C102.094 13.745 102.18 13.793 102.241 13.8654C102.303 13.9378 102.337 14.0298 102.337 14.125C102.337 14.2202 102.303 14.3122 102.241 14.3846C102.18 14.457 102.094 14.505 102 14.52C98.6558 14.4953 95.3362 15.0921 92.21 16.28C92.144 16.3087 92.0714 16.3191 92 16.31Z" fill="#4D2323"/>
<path d="M145.79 197.38H145.65C145.13 197.17 132.9 192.31 128.9 188.05C128.827 187.977 128.787 187.878 128.787 187.775C128.787 187.672 128.827 187.573 128.9 187.5C128.975 187.427 129.075 187.386 129.18 187.386C129.285 187.386 129.385 187.427 129.46 187.5C133.34 191.63 145.79 196.59 145.92 196.64C145.968 196.659 146.012 196.687 146.049 196.723C146.087 196.759 146.116 196.802 146.137 196.849C146.157 196.896 146.168 196.947 146.169 196.999C146.169 197.051 146.159 197.102 146.14 197.15C146.109 197.217 146.059 197.274 145.998 197.314C145.936 197.355 145.864 197.378 145.79 197.38Z" fill="#3F7066"/>
<path d="M135.32 190.41C134.416 190.359 133.534 190.117 132.73 189.7C132.077 189.42 131.41 189.176 130.73 188.97C126.89 187.81 125.23 182.97 125.16 182.75C125.144 182.656 125.162 182.559 125.211 182.477C125.261 182.395 125.337 182.334 125.428 182.304C125.518 182.273 125.617 182.277 125.705 182.313C125.794 182.349 125.866 182.415 125.91 182.5C125.91 182.55 127.51 187.18 130.96 188.21C131.64 188.431 132.308 188.688 132.96 188.98C134.65 189.69 135.58 190.08 138.26 188.63C141.58 186.83 147.17 179.54 147.26 179.47C147.292 179.429 147.331 179.395 147.375 179.37C147.42 179.344 147.469 179.328 147.521 179.321C147.572 179.315 147.623 179.318 147.673 179.332C147.723 179.345 147.769 179.368 147.81 179.4C147.851 179.431 147.885 179.471 147.91 179.515C147.936 179.56 147.952 179.609 147.959 179.66C147.965 179.712 147.962 179.763 147.948 179.813C147.935 179.863 147.912 179.909 147.88 179.95C147.65 180.25 142.13 187.44 138.66 189.32C137.655 189.955 136.507 190.33 135.32 190.41Z" fill="#3F7066"/>
<path d="M147.19 196.56C147.123 196.56 147.057 196.544 146.998 196.512C146.938 196.481 146.888 196.435 146.85 196.38C146.797 196.292 146.779 196.186 146.802 196.086C146.824 195.985 146.884 195.897 146.97 195.84C146.97 195.84 151.23 193.09 152.15 191.94C159.22 183.05 159.87 177 159.88 176.94C159.885 176.889 159.901 176.839 159.925 176.794C159.949 176.748 159.983 176.708 160.023 176.676C160.062 176.643 160.108 176.619 160.158 176.604C160.207 176.59 160.259 176.585 160.31 176.59C160.361 176.595 160.411 176.61 160.456 176.635C160.502 176.659 160.542 176.693 160.574 176.732C160.607 176.772 160.631 176.818 160.646 176.868C160.66 176.917 160.665 176.969 160.66 177.02C160.66 177.27 160 183.33 152.77 192.43C151.77 193.68 147.58 196.43 147.4 196.5C147.337 196.538 147.264 196.559 147.19 196.56Z" fill="#3F7066"/>
</svg>
