<svg width="280" height="33" viewBox="0 0 280 33" fill="none" xmlns="http://www.w3.org/2000/svg">
<path fill-rule="evenodd" clip-rule="evenodd" d="M225.995 16.4598C226.002 17.0177 226.062 17.5736 226.175 18.1198C226.235 18.3798 226.285 18.5998 226.355 18.8498C226.564 19.5114 226.863 20.1408 227.245 20.7198C227.9 21.742 228.809 22.5763 229.884 23.1409C230.959 23.7054 232.162 23.9807 233.375 23.9398C235.039 23.9773 236.659 23.4086 237.935 22.3398C238.24 22.0898 238.524 21.8156 238.785 21.5198C238.865 21.4298 238.885 21.4298 238.915 21.3298C238.945 21.2298 237.445 19.7898 237.205 19.5498L236.915 19.2498L236.655 18.9298C236.545 18.9298 236.585 18.9298 236.505 19.0398C236.454 19.0862 236.401 19.1296 236.345 19.1698C235.642 19.9136 234.686 20.3667 233.665 20.4398C232.822 20.5188 231.981 20.2719 231.315 19.7498C230.999 19.4798 230.725 19.1627 230.505 18.8098C230.133 18.1786 229.93 17.4623 229.915 16.7298C229.843 15.7709 230.089 14.8151 230.615 14.0098C231.052 13.3527 231.703 12.8665 232.457 12.6333C233.211 12.4001 234.023 12.4342 234.755 12.7298C235.264 12.9254 235.735 13.2098 236.145 13.5698C236.235 13.6498 236.435 13.8698 236.545 13.8998C236.865 13.6071 237.169 13.2966 237.455 12.9698L237.975 12.4198C238.165 12.2198 238.755 11.6398 238.845 11.5098C238.559 11.1322 238.223 10.7957 237.845 10.5098C236.96 9.81789 235.929 9.33816 234.83 9.10758C233.73 8.877 232.593 8.90172 231.505 9.17984C230.504 9.42079 229.566 9.87439 228.755 10.5098L228.025 11.1698C227.414 11.8202 226.926 12.5757 226.585 13.3998C226.182 14.3701 225.972 15.4093 225.965 16.4598H225.995ZM163.355 23.6198H167.295C167.375 23.6198 167.395 23.6198 167.395 23.5198V8.58984H174.515V23.5198C174.515 23.5898 174.515 23.6198 174.615 23.6198H178.555V4.83984H163.355V23.6198ZM202.995 12.4598C203.479 12.4379 203.962 12.5295 204.405 12.7275C204.848 12.9254 205.238 13.2242 205.545 13.5998C206.156 14.3327 206.507 15.2467 206.545 16.1998C206.61 17.2781 206.283 18.3435 205.625 19.1998C205.156 19.7793 204.499 20.1759 203.768 20.3203C203.037 20.4646 202.279 20.3477 201.625 19.9898C201.082 19.6599 200.628 19.2023 200.302 18.6568C199.976 18.1113 199.788 17.4944 199.755 16.8598C199.755 16.6798 199.755 16.5598 199.755 16.4298C199.755 16.2998 199.755 16.1898 199.755 15.9998C199.755 15.8098 199.755 15.7198 199.755 15.5898C199.796 15.3412 199.859 15.0968 199.945 14.8598C200.131 14.1959 200.52 13.6071 201.058 13.1765C201.597 12.7458 202.257 12.4952 202.945 12.4598H202.995ZM199.755 11.2398V9.23984H195.755V27.9198H199.755V21.7798L200.125 22.1798C200.64 22.7512 201.277 23.2003 201.988 23.4944C202.699 23.7885 203.467 23.9202 204.235 23.8798C205.104 23.8594 205.959 23.6503 206.739 23.267C207.52 22.8837 208.207 22.3353 208.755 21.6598C209.297 21.0121 209.708 20.2648 209.965 19.4598C210.385 18.1904 210.529 16.8459 210.388 15.5163C210.246 14.1866 209.823 12.9025 209.145 11.7498L208.385 10.7498L207.925 10.3398C207.094 9.64585 206.093 9.18666 205.025 9.00984C203.789 8.79371 202.517 9.01283 201.425 9.62984C201.097 9.82831 200.794 10.0668 200.525 10.3398C200.378 10.4628 200.244 10.6002 200.125 10.7498C200.008 10.9077 199.881 11.058 199.745 11.1998L199.755 11.2398ZM247.315 20.3998H244.105V17.5798H246.995C249.585 17.5798 249.165 19.5798 248.525 20.0398C248.171 20.2873 247.747 20.4136 247.315 20.3998ZM247.025 14.9998H244.135V12.2598H246.965C247.258 12.2068 247.559 12.2511 247.824 12.386C248.089 12.5208 248.303 12.7388 248.432 13.0065C248.561 13.2742 248.599 13.5769 248.54 13.8683C248.481 14.1597 248.328 14.4236 248.105 14.6198C247.799 14.8647 247.417 14.9955 247.025 14.9898V14.9998ZM240.215 23.6298H247.885C249.685 23.6298 251.595 23.0998 252.495 21.6898C252.932 20.9962 253.123 20.1752 253.035 19.3598C253.016 18.9459 252.932 18.5375 252.785 18.1498C252.659 17.8073 252.469 17.4917 252.225 17.2198C252.112 17.0931 251.988 16.976 251.855 16.8698C251.429 16.5142 250.931 16.255 250.395 16.1098V15.9998C250.988 15.7565 251.506 15.3596 251.895 14.8498C252.27 14.3077 252.488 13.6726 252.525 13.0144C252.562 12.3563 252.417 11.7006 252.105 11.1198C251.86 10.6925 251.517 10.3293 251.105 10.0598C250.144 9.4607 249.027 9.16131 247.895 9.19984H240.195V23.6198L240.215 23.6298ZM218.215 12.2698C218.89 12.2725 219.543 12.5138 220.057 12.9512C220.571 13.3887 220.914 13.9939 221.025 14.6598C221.076 14.8675 221.117 15.0778 221.145 15.2898H215.225C215.323 14.7094 215.523 14.1508 215.815 13.6398C215.915 13.4803 216.029 13.3297 216.155 13.1898C216.411 12.896 216.728 12.6614 217.083 12.5025C217.439 12.3436 217.825 12.2642 218.215 12.2698ZM218.535 23.9498C220.028 24.0195 221.504 23.6171 222.755 22.7998C223.324 22.4218 223.833 21.9599 224.265 21.4298C224.345 21.3398 224.355 21.3598 224.385 21.2498C224.265 21.1134 224.134 20.9864 223.995 20.8698L222.865 19.8698C222.814 19.8235 222.761 19.7801 222.705 19.7398C222.524 19.5566 222.33 19.3862 222.125 19.2298L221.475 19.7698C221.246 19.9561 220.998 20.1171 220.735 20.2498C220.46 20.3934 220.167 20.5009 219.865 20.5698C219.073 20.7694 218.242 20.7417 217.465 20.4898C217.012 20.3277 216.603 20.0627 216.27 19.7156C215.937 19.3686 215.689 18.949 215.545 18.4898C215.46 18.285 215.403 18.0698 215.375 17.8498H225.055C225.048 17.76 225.048 17.6697 225.055 17.5798V16.7398C225.049 15.6819 224.887 14.6306 224.575 13.6198C224.19 12.3551 223.451 11.2271 222.445 10.3698C221.336 9.52839 219.998 9.04265 218.607 8.9766C217.217 8.91055 215.839 9.2673 214.655 9.99984L213.885 10.5798C213.639 10.7835 213.415 11.0113 213.215 11.2598C213.068 11.4185 212.934 11.589 212.815 11.7698C212.278 12.5175 211.885 13.3585 211.655 14.2498C211.444 15.0417 211.353 15.8609 211.385 16.6798C211.405 17.2207 211.469 17.7591 211.575 18.2898C211.811 19.4218 212.307 20.4832 213.025 21.3898C213.1 21.4651 213.17 21.5453 213.235 21.6298C213.303 21.7147 213.376 21.7949 213.455 21.8698C213.655 22.0698 213.985 22.3198 214.185 22.4898C215.46 23.4258 217.003 23.9271 218.585 23.9198L218.535 23.9498ZM187.375 12.2598C187.721 12.246 188.066 12.3027 188.389 12.4265C188.712 12.5502 189.007 12.7385 189.255 12.9798C189.591 13.2859 189.851 13.6659 190.015 14.0898C190.123 14.3689 190.206 14.6566 190.265 14.9498C190.281 15.0612 190.305 15.1714 190.335 15.2798H184.415C184.469 14.8762 184.58 14.4822 184.745 14.1098C184.941 13.5694 185.299 13.1023 185.769 12.7715C186.24 12.4407 186.8 12.2621 187.375 12.2598ZM180.505 16.3998C180.428 18.406 181.147 20.3613 182.505 21.8398C183.446 22.756 184.609 23.4119 185.88 23.7432C187.151 24.0745 188.486 24.0699 189.755 23.7298C191.022 23.4324 192.173 22.7681 193.065 21.8198C193.255 21.6483 193.414 21.4453 193.535 21.2198C193.43 21.1539 193.336 21.073 193.255 20.9798L192.755 20.5998C192.485 20.3798 191.435 19.3498 191.205 19.1898C191.092 19.2686 190.988 19.3591 190.895 19.4598C190.785 19.5598 190.675 19.6398 190.555 19.7298C190.321 19.9108 190.07 20.0683 189.805 20.1998C189.136 20.5566 188.38 20.716 187.624 20.6593C186.868 20.6027 186.143 20.3323 185.535 19.8798C184.965 19.3459 184.576 18.6463 184.425 17.8798H194.125C194.125 17.6298 194.125 17.5098 194.125 17.2598C194.204 15.9484 194.014 14.6347 193.565 13.3998C193.418 12.9809 193.234 12.5759 193.015 12.1898C192.812 11.8341 192.574 11.4992 192.305 11.1898C192.075 10.9598 191.935 10.7798 191.665 10.5398C190.438 9.48772 188.86 8.93768 187.245 8.99984C186.732 9.00992 186.223 9.077 185.725 9.19984C184.706 9.45056 183.765 9.94859 182.985 10.6498C182.942 10.6796 182.902 10.7131 182.865 10.7498C182.083 11.493 181.473 12.3972 181.075 13.3998C180.704 14.3567 180.511 15.3735 180.505 16.3998ZM260.755 12.2598C261.238 12.2489 261.715 12.3674 262.137 12.603C262.559 12.8386 262.911 13.1828 263.155 13.5998C263.442 14.1212 263.632 14.6905 263.715 15.2798H257.755C257.861 14.5149 258.172 13.7928 258.655 13.1898C258.913 12.8977 259.23 12.6638 259.585 12.5034C259.94 12.3431 260.325 12.2601 260.715 12.2598H260.755ZM253.885 16.4598C253.824 18.4395 254.542 20.3641 255.885 21.8198C257.017 22.9109 258.457 23.6268 260.01 23.8702C261.563 24.1135 263.154 23.8725 264.565 23.1798C265.008 22.942 265.427 22.6606 265.815 22.3398C265.866 22.3018 265.913 22.2582 265.955 22.2098C266.186 22.0119 266.403 21.798 266.605 21.5698C266.693 21.4716 266.77 21.3644 266.835 21.2498L266.285 20.7398C266.035 20.4798 265.385 19.9398 265.155 19.7398L264.575 19.2298C264.15 19.6138 263.684 19.9492 263.185 20.2298C262.752 20.4458 262.285 20.5878 261.805 20.6498C261.357 20.7511 260.893 20.7578 260.443 20.6697C259.993 20.5815 259.566 20.4003 259.189 20.1378C258.813 19.8752 258.495 19.537 258.257 19.1448C258.019 18.7525 257.865 18.3149 257.805 17.8598H267.475C267.475 17.6298 267.475 17.5398 267.475 17.2998C267.563 15.9414 267.369 14.5795 266.905 13.2998C266.662 12.5801 266.304 11.9046 265.845 11.2998C265.66 11.0574 265.456 10.83 265.235 10.6198C264.925 10.3376 264.59 10.0833 264.235 9.85984C262.643 8.9324 260.749 8.6701 258.965 9.12984C258.522 9.24217 258.093 9.40315 257.685 9.60984L257.125 9.91984C256.618 10.2894 256.158 10.7192 255.755 11.1998C254.517 12.672 253.844 14.5365 253.855 16.4598H253.885ZM267.275 12.7498V9.23984H279.565V12.7498H275.455V23.5198C275.455 23.5898 275.455 23.6198 275.365 23.6198H271.415V12.7498H267.275Z" fill="white"/>
<path fill-rule="evenodd" clip-rule="evenodd" d="M249.985 32.1502H251.195C251.247 32.0037 251.314 31.863 251.395 31.7302C251.505 31.5002 251.985 30.6402 252.025 30.4802C252.194 30.7021 252.314 30.9579 252.375 31.2302V32.1502H253.485C253.485 31.1502 253.385 31.2802 253.705 30.6402C253.765 30.5202 253.705 30.5402 253.835 30.5102C253.835 30.6402 254.165 31.1602 254.245 31.3302L254.665 32.1502H255.875C255.775 31.9602 255.655 31.7602 255.545 31.5702L255.225 30.9802L254.755 30.1002C254.706 30.0003 254.645 29.9064 254.575 29.8202C254.965 29.2302 255.475 28.5602 255.845 27.9802H254.605C254.53 28.124 254.443 28.2612 254.345 28.3902C254.175 28.6402 253.615 29.5702 253.495 29.6602V28.0002H252.385V29.7102L251.255 28.0002H250.015L251.115 29.5902L251.215 29.7202C251.285 29.8402 251.215 29.9102 251.215 30.0102L250.025 32.1702L249.985 32.1502ZM272.755 28.9302H273.755V32.1502H274.835V28.9302H275.835V28.0002H272.755V28.9502V28.9302ZM269.345 29.7902C269.294 30.1263 269.317 30.4694 269.412 30.7958C269.507 31.1222 269.672 31.424 269.895 31.6802C270.155 31.9617 270.498 32.1525 270.874 32.2245C271.25 32.2965 271.64 32.2459 271.985 32.0802C272.191 31.9773 272.375 31.8345 272.525 31.6602C272.525 31.5502 272.185 31.1102 272.085 30.9002C271.755 30.9902 271.865 31.2302 271.195 31.2302C270.972 31.1958 270.769 31.0794 270.627 30.9038C270.484 30.7282 270.412 30.5059 270.425 30.2802C270.425 29.8102 270.425 29.1702 270.995 28.9602C271.565 28.7502 271.905 29.2202 272.055 29.2602C272.055 29.0902 272.455 28.6102 272.495 28.4402C272.227 28.1641 271.876 27.982 271.496 27.9207C271.116 27.8595 270.727 27.9224 270.385 28.1002C270.092 28.2778 269.847 28.5249 269.673 28.8198C269.499 29.1146 269.4 29.4479 269.385 29.7902H269.345ZM278.005 31.2602H277.395V30.2102H278.005C278.245 30.2102 278.415 30.4702 278.415 30.7402C278.427 30.8629 278.39 30.9854 278.314 31.0822C278.238 31.179 278.127 31.2428 278.005 31.2602ZM276.285 32.1502H278.285C278.58 32.1182 278.855 31.987 279.066 31.7781C279.277 31.5692 279.411 31.2949 279.445 31.0002C279.478 30.7728 279.46 30.5409 279.393 30.3213C279.326 30.1016 279.21 29.8997 279.055 29.7302C278.549 29.4037 277.938 29.2821 277.345 29.3902V28.0002H276.235V32.1702L276.285 32.1502ZM235.755 28.8302C236.115 28.8302 236.295 29.1002 236.375 29.4102C236.375 29.5202 236.375 29.6702 236.455 29.7502H235.055C235.115 29.6302 235.145 28.8302 235.755 28.8302ZM233.975 30.0802C233.925 30.4864 234.007 30.8979 234.207 31.2546C234.408 31.6114 234.717 31.8947 235.09 32.0633C235.463 32.2319 235.88 32.2769 236.28 32.1918C236.68 32.1067 237.043 31.8959 237.315 31.5902C237.152 31.3829 237.002 31.1659 236.865 30.9402C236.735 30.9402 236.765 30.9402 236.685 31.0402C236.495 31.1971 236.256 31.2829 236.01 31.2829C235.764 31.2829 235.525 31.1971 235.335 31.0402C235.199 30.8819 235.112 30.6873 235.085 30.4802H237.475C237.475 30.3102 237.475 30.3302 237.475 30.1802C237.475 29.0602 236.995 27.8902 235.855 27.8902C235.572 27.8646 235.287 27.9139 235.029 28.0333C234.771 28.1527 234.549 28.3378 234.385 28.5702C234.092 29.0076 233.938 29.5237 233.945 30.0502L233.975 30.0802ZM266.045 30.0802C266.045 29.5202 266.285 28.9002 266.805 28.9002H266.965C267.405 28.9002 267.725 29.4502 267.725 29.9002V30.2602C267.725 31.5602 266.045 31.6602 266.045 30.0602V30.0802ZM266.865 32.2502C267.121 32.2567 267.375 32.2094 267.611 32.1112C267.847 32.0129 268.06 31.8661 268.235 31.6802C268.603 31.2369 268.809 30.6817 268.82 30.1057C268.831 29.5297 268.646 28.9671 268.295 28.5102C268.004 28.2003 267.618 27.9959 267.198 27.9289C266.778 27.862 266.348 27.9363 265.975 28.1402C265.767 28.2581 265.587 28.4183 265.445 28.6102C265.286 28.8013 265.167 29.0223 265.095 29.2602C265.015 29.547 264.972 29.8426 264.965 30.1402C264.969 30.6823 265.156 31.2073 265.495 31.6302C265.667 31.8237 265.878 31.9789 266.114 32.0857C266.35 32.1925 266.606 32.2485 266.865 32.2502ZM244.085 31.2502H243.425V30.4002C243.765 30.4002 244.535 30.3002 244.535 30.8302C244.538 30.8889 244.529 30.9476 244.507 31.0021C244.485 31.0567 244.452 31.1057 244.409 31.1458C244.366 31.1859 244.314 31.2161 244.258 31.2341C244.203 31.2521 244.143 31.2576 244.085 31.2502ZM243.995 29.6502H243.425V28.8202H243.995C244.051 28.8161 244.106 28.8234 244.159 28.8415C244.211 28.8596 244.26 28.8883 244.301 28.9257C244.342 28.9631 244.375 29.0085 244.398 29.0592C244.421 29.1098 244.434 29.1646 244.435 29.2202C244.44 29.2787 244.432 29.3376 244.411 29.3926C244.39 29.4476 244.358 29.4974 244.316 29.5384C244.274 29.5795 244.223 29.6107 244.168 29.6301C244.112 29.6494 244.053 29.6563 243.995 29.6502ZM242.305 32.1402H244.375C244.67 32.1609 244.961 32.0693 245.191 31.8838C245.421 31.6983 245.573 31.4327 245.615 31.1402C245.638 30.9966 245.629 30.8497 245.589 30.7098C245.55 30.5699 245.48 30.4404 245.385 30.3302C245.235 30.1602 245.025 30.1002 244.945 29.9902C245.695 29.7902 245.735 27.9902 244.285 27.9902H242.285V32.1602L242.305 32.1402ZM256.215 32.1402H257.215C257.215 32.0502 258.415 29.9202 258.485 29.8802V32.1402H259.565V28.0002H258.485C258.454 28.1038 258.407 28.2017 258.345 28.2902L257.345 30.0102L257.255 30.1602L257.175 30.3002V28.0002H256.175V32.1702L256.215 32.1402ZM246.215 32.1402C247.525 32.1402 247.215 32.2802 247.565 31.6002C247.715 31.3502 248.445 29.9902 248.565 29.8402V32.1402H249.565V28.0002C248.365 28.0002 248.565 27.9202 248.395 28.2402L247.295 30.2402C247.295 30.3002 247.295 30.2402 247.245 30.3202V28.0002H246.165V32.1702L246.215 32.1402ZM260.365 32.1402H261.455V29.7902C261.546 29.8982 261.621 30.0196 261.675 30.1502L261.905 30.5302L262.345 31.3302C262.495 31.2202 263.145 29.8702 263.295 29.7502V32.1502H264.375V28.0002H263.265C263.207 28.1427 263.137 28.2799 263.055 28.4102L262.835 28.8102C262.755 28.9502 262.435 29.5002 262.405 29.6102C262.375 29.7202 262.315 29.5602 262.255 29.4402L261.755 28.3602C261.475 27.8502 261.755 27.9802 260.435 27.9802V32.1502L260.365 32.1402ZM239.495 28.9202H240.325V31.2002H239.215C239.215 31.0502 239.305 30.8702 239.335 30.7002C239.439 30.1158 239.492 29.5237 239.495 28.9302V28.9202ZM238.495 28.9902C238.493 29.562 238.429 30.1319 238.305 30.6902C238.255 30.8502 238.185 31.0202 238.145 31.1902H237.755V33.0002H238.675L238.735 32.2702C238.735 32.1702 238.735 32.1102 238.835 32.1102H240.905V32.9002C240.905 32.9702 240.905 33.0002 240.995 33.0002H241.755V32.5402C241.755 32.1402 241.855 31.6302 241.855 31.1602H241.405V28.0002H238.405V29.0002L238.495 28.9902ZM229.395 32.1402H230.515V30.0002H232.235V32.2002H233.345V26.7002H232.235V28.9002H230.515V26.8002C230.515 26.7202 230.515 26.7002 230.415 26.7002H229.415L229.395 32.1402Z" fill="#F20017"/>
<path fill-rule="evenodd" clip-rule="evenodd" d="M143.795 26.3098H130.095V21.0298L143.795 18.3198V26.3098Z" fill="#585251"/>
<path fill-rule="evenodd" clip-rule="evenodd" d="M157.495 21.5198V26.3098H143.795V18.3198L157.495 21.5198Z" fill="#181719"/>
<path fill-rule="evenodd" clip-rule="evenodd" d="M143.795 7.48L132.375 12.71L135.255 5.83L144.535 0L143.795 7.48Z" fill="#FA1E38"/>
<path fill-rule="evenodd" clip-rule="evenodd" d="M153.525 12.82L143.795 7.48L144.535 0L153.525 12.82Z" fill="#FA002A"/>
<path fill-rule="evenodd" clip-rule="evenodd" d="M156.015 15.3801L143.795 9.33008V16.7301L156.015 20.1401V15.3801Z" fill="#C4002A"/>
<path fill-rule="evenodd" clip-rule="evenodd" d="M137.545 16.5701L135.475 17.1501V14.2101L137.545 13.4601V16.5701ZM128.365 15.6601V20.3201L143.755 16.7301V9.33008L128.365 15.6601Z" fill="#F21035"/>
<path d="M2.43 11.45V14.225H7.29V16.175H2.43V20H0V9.5H7.935V11.45H2.43Z" fill="white"/>
<path d="M16.2701 20L14.2451 17.075H14.1251H12.0101V20H9.58008V9.5H14.1251C15.0551 9.5 15.8601 9.655 16.5401 9.965C17.2301 10.275 17.7601 10.715 18.1301 11.285C18.5001 11.855 18.6851 12.53 18.6851 13.31C18.6851 14.09 18.4951 14.765 18.1151 15.335C17.7451 15.895 17.2151 16.325 16.5251 16.625L18.8801 20H16.2701ZM16.2251 13.31C16.2251 12.72 16.0351 12.27 15.6551 11.96C15.2751 11.64 14.7201 11.48 13.9901 11.48H12.0101V15.14H13.9901C14.7201 15.14 15.2751 14.98 15.6551 14.66C16.0351 14.34 16.2251 13.89 16.2251 13.31Z" fill="white"/>
<path d="M20.6104 9.5H23.0403V20H20.6104V9.5Z" fill="white"/>
<path d="M33.6622 18.05V20H25.5322V9.5H33.4672V11.45H27.9472V13.73H32.8222V15.62H27.9472V18.05H33.6622Z" fill="white"/>
<path d="M45.2257 9.5V20H43.2307L37.9957 13.625V20H35.5957V9.5H37.6057L42.8257 15.875V9.5H45.2257Z" fill="white"/>
<path d="M47.71 9.5H52.48C53.62 9.5 54.625 9.72 55.495 10.16C56.375 10.59 57.055 11.2 57.535 11.99C58.025 12.78 58.27 13.7 58.27 14.75C58.27 15.8 58.025 16.72 57.535 17.51C57.055 18.3 56.375 18.915 55.495 19.355C54.625 19.785 53.62 20 52.48 20H47.71V9.5ZM52.36 18.005C53.41 18.005 54.245 17.715 54.865 17.135C55.495 16.545 55.81 15.75 55.81 14.75C55.81 13.75 55.495 12.96 54.865 12.38C54.245 11.79 53.41 11.495 52.36 11.495H50.14V18.005H52.36Z" fill="white"/>
<path d="M64.9685 15.8C65.4485 15.95 65.8185 16.18 66.0785 16.49C66.3485 16.8 66.4835 17.17 66.4835 17.6C66.4835 18.11 66.3085 18.56 65.9585 18.95C65.6085 19.33 65.1285 19.625 64.5185 19.835C63.9085 20.045 63.2185 20.15 62.4485 20.15C61.8185 20.15 61.1985 20.085 60.5885 19.955C59.9785 19.825 59.4135 19.63 58.8935 19.37L59.5235 17.735C60.3735 18.145 61.3135 18.35 62.3435 18.35C62.8935 18.35 63.3235 18.27 63.6335 18.11C63.9535 17.94 64.1135 17.705 64.1135 17.405C64.1135 17.145 64.0035 16.95 63.7835 16.82C63.5635 16.68 63.2435 16.61 62.8235 16.61H61.1735V15.155H62.6135C63.0235 15.155 63.3385 15.09 63.5585 14.96C63.7785 14.83 63.8885 14.64 63.8885 14.39C63.8885 14.13 63.7485 13.93 63.4685 13.79C63.1985 13.65 62.8085 13.58 62.2985 13.58C61.5185 13.58 60.6685 13.765 59.7485 14.135L59.1785 12.515C60.2985 12.025 61.3885 11.78 62.4485 11.78C63.1785 11.78 63.8285 11.87 64.3985 12.05C64.9785 12.23 65.4335 12.495 65.7635 12.845C66.0935 13.185 66.2585 13.585 66.2585 14.045C66.2585 14.425 66.1435 14.77 65.9135 15.08C65.6835 15.38 65.3685 15.62 64.9685 15.8Z" fill="white"/>
<path d="M71.9657 20.12C71.1157 20.12 70.3507 19.945 69.6707 19.595C69.0007 19.235 68.4757 18.74 68.0957 18.11C67.7157 17.48 67.5257 16.765 67.5257 15.965C67.5257 15.165 67.7157 14.45 68.0957 13.82C68.4757 13.19 69.0007 12.7 69.6707 12.35C70.3507 11.99 71.1157 11.81 71.9657 11.81C72.8157 11.81 73.5757 11.99 74.2457 12.35C74.9157 12.7 75.4407 13.19 75.8207 13.82C76.2007 14.45 76.3907 15.165 76.3907 15.965C76.3907 16.765 76.2007 17.48 75.8207 18.11C75.4407 18.74 74.9157 19.235 74.2457 19.595C73.5757 19.945 72.8157 20.12 71.9657 20.12ZM71.9657 18.2C72.5657 18.2 73.0557 18 73.4357 17.6C73.8257 17.19 74.0207 16.645 74.0207 15.965C74.0207 15.285 73.8257 14.745 73.4357 14.345C73.0557 13.935 72.5657 13.73 71.9657 13.73C71.3657 13.73 70.8707 13.935 70.4807 14.345C70.0907 14.745 69.8957 15.285 69.8957 15.965C69.8957 16.645 70.0907 17.19 70.4807 17.6C70.8707 18 71.3657 18.2 71.9657 18.2Z" fill="white"/>
<path d="M78.0001 11.93H80.3251V15.08H83.8351V11.93H86.1751V20H83.8351V16.985H80.3251V20H78.0001V11.93Z" fill="white"/>
<path d="M91.5502 11.81C92.8002 11.81 93.7602 12.11 94.4302 12.71C95.1002 13.3 95.4352 14.195 95.4352 15.395V20H93.2452V18.995C92.8052 19.745 91.9852 20.12 90.7852 20.12C90.1652 20.12 89.6252 20.015 89.1652 19.805C88.7152 19.595 88.3701 19.305 88.1301 18.935C87.8902 18.565 87.7702 18.145 87.7702 17.675C87.7702 16.925 88.0502 16.335 88.6102 15.905C89.1802 15.475 90.0552 15.26 91.2352 15.26H93.0952C93.0952 14.75 92.9401 14.36 92.6301 14.09C92.3202 13.81 91.8552 13.67 91.2352 13.67C90.8052 13.67 90.3801 13.74 89.9602 13.88C89.5501 14.01 89.2002 14.19 88.9102 14.42L88.0702 12.785C88.5102 12.475 89.0352 12.235 89.6452 12.065C90.2652 11.895 90.9002 11.81 91.5502 11.81ZM91.3702 18.545C91.7702 18.545 92.1252 18.455 92.4352 18.275C92.7451 18.085 92.9652 17.81 93.0952 17.45V16.625H91.4902C90.5302 16.625 90.0502 16.94 90.0502 17.57C90.0502 17.87 90.1652 18.11 90.3952 18.29C90.6352 18.46 90.9602 18.545 91.3702 18.545Z" fill="white"/>
<path d="M112.335 2.56006V30.4801" stroke="white" stroke-miterlimit="10"/>
</svg>
